<svg width="85" height="64" viewBox="0 0 85 64" fill="none" xmlns="http://www.w3.org/2000/svg">
<path fill-rule="evenodd" clip-rule="evenodd" d="M81.9283 40.7155C88.4483 50.6922 81.29 63.9215 69.3717 63.9215H15.025C3.10673 63.9215 -4.0516 50.6922 2.46837 40.7155L7.56212 32.9215H76.8346L81.9283 40.7155Z" fill="#57B4A1"/>
<path d="M41.3097 0C61.3053 9.24051e-06 78.0697 14.1935 78.5363 37.5H78.6193L78.673 37.9385C78.7425 38.501 78.7066 39.3587 78.337 40.0986C78.1485 40.476 77.8674 40.8325 77.463 41.0928C77.0569 41.354 76.5536 41.5 75.9513 41.5C74.881 41.5002 73.8969 42.2265 72.9357 43.2754C72.4642 43.7899 72.0242 44.3524 71.5988 44.8945C71.1808 45.4271 70.7673 45.9521 70.3722 46.3516C69.4393 47.2947 68.1373 47.2787 66.9835 46.9639C65.8173 46.6455 64.6519 45.9873 63.8029 45.415C62.7304 44.6923 61.0034 43.8316 59.2081 43.0869C57.4124 42.3421 55.5933 41.7318 54.3439 41.4912C53.0593 41.2439 50.1273 40.7501 46.9279 40.75C43.7066 40.75 40.3184 41.2515 38.0411 42.9043C36.102 44.3118 33.5201 44.2589 31.4249 43.8584C29.3124 43.4544 27.5504 42.6702 27.1241 42.4404C26.2586 41.9739 23.5353 40.9886 20.6124 40.5576C19.156 40.3429 17.6772 40.27 16.3741 40.4561C15.0683 40.6426 13.9863 41.0813 13.2579 41.8447C11.1708 44.033 9.37422 44.7618 7.97278 44.7236C6.59097 44.6857 5.64613 43.8908 5.38 43.1738C5.29187 42.936 5.23008 42.5864 5.18274 42.2129C5.13374 41.826 5.09469 41.3667 5.06458 40.8848C5.00431 39.9199 4.97767 38.8381 4.97766 38V37.5H5.11731C5.55563 14.1937 21.3143 0.00023186 41.3097 0ZM31.0704 7.5C29.8416 7.50029 28.8451 8.84356 28.8448 10.5C28.845 12.1565 29.8416 13.4997 31.0704 13.5C32.2994 13.5 33.2958 12.1566 33.296 10.5C33.2958 8.84339 32.2994 7.50001 31.0704 7.5ZM53.3253 7.5C52.0965 7.50029 51.0999 8.84357 51.0997 10.5C51.0999 12.1564 52.0965 13.4997 53.3253 13.5C54.5543 13.5 55.5507 12.1566 55.5509 10.5C55.5507 8.84339 54.5543 7.50001 53.3253 7.5Z" fill="#57B4A1"/>
<path d="M50.1 15.0485C49.6444 16.7882 49.035 17.9614 48.2933 18.6617C47.7873 19.1396 47.2337 19.3821 46.6693 19.443C45.9301 22.6025 45.2549 24.9834 44.599 26.5885C44.2583 27.4223 43.9099 28.0811 43.5394 28.5338C43.1733 28.9812 42.712 29.3119 42.1527 29.2799C41.612 29.2488 41.1655 28.8854 40.7982 28.4225C40.4212 27.9472 40.0535 27.2745 39.6849 26.4332C38.9705 24.8024 38.2086 22.4345 37.3558 19.3756C36.9211 19.2632 36.4973 19.0342 36.1029 18.6617C35.3613 17.9614 34.7518 16.7881 34.2963 15.0485L35.2631 14.7946C35.6975 16.454 36.2439 17.4188 36.7894 17.9342C37.3087 18.4245 37.851 18.5315 38.4076 18.4186C38.9955 18.2992 39.6248 17.9263 40.2308 17.399C40.67 17.0169 41.0776 16.57 41.4271 16.1237H41.4261L41.7963 15.6237L42.2123 15.0631L42.6097 15.6373C43.0238 16.2353 43.5655 16.8771 44.1654 17.399C44.7715 17.9264 45.4007 18.2992 45.9886 18.4186C46.5454 18.5316 47.0875 18.4246 47.6068 17.9342C48.1524 17.4189 48.6986 16.4542 49.1332 14.7946L50.1 15.0485ZM42.1996 16.7574C41.8195 17.2408 41.3744 17.7289 40.8871 18.153C40.2182 18.7349 39.4344 19.231 38.6068 19.399C38.5409 19.4124 38.4747 19.4222 38.4086 19.4313C39.2218 22.322 39.9405 24.5243 40.601 26.0319C40.9561 26.8425 41.2828 27.4249 41.5814 27.8014C41.8899 28.1902 42.1008 28.2756 42.2103 28.2819C42.3014 28.287 42.4838 28.2436 42.765 27.9C43.0422 27.5614 43.3463 27.0106 43.6732 26.2106C44.288 24.706 44.9368 22.4386 45.6595 19.3658C44.8802 19.1745 44.1427 18.7042 43.5092 18.153C43.0222 17.7292 42.5794 17.2405 42.1996 16.7574Z" fill="white"/>
<path d="M77.6979 31.4291C77.6576 31.2685 77.5552 31.1305 77.4132 31.0455C77.2711 30.9604 77.1011 30.9353 76.9405 30.9756C76.7799 31.0159 76.6419 31.1183 76.5569 31.2604C76.4718 31.4024 76.4467 31.5724 76.487 31.733C76.487 31.733 76.487 31.733 76.487 31.733C76.6078 32.3628 76.7434 33.1471 76.8832 33.8566C76.8837 33.8589 76.8841 33.8613 76.8846 33.8636C76.9759 34.3318 76.8994 34.8022 76.981 35.2382C76.9817 35.2419 76.9824 35.2456 76.9831 35.2493C77.0488 35.5951 77.1139 35.9425 77.1811 36.2899C77.274 36.7696 77.3709 37.2491 77.4778 37.7263C77.4793 37.7328 77.4807 37.7393 77.4822 37.7458C77.7423 38.9059 78.0035 40.0641 78.2695 41.2252C78.2718 41.2355 78.2741 41.2456 78.2765 41.2557C78.3091 41.3976 78.3412 41.5373 78.3742 41.6791C78.3905 41.7496 78.4073 41.8213 78.4241 41.8926C78.4327 41.9288 78.4413 41.965 78.4503 42.0022C78.455 42.0216 78.4593 42.0395 78.4646 42.0607C78.4673 42.0715 78.47 42.0822 78.4734 42.095C78.4752 42.102 78.477 42.1089 78.4797 42.1189C78.481 42.1236 78.4831 42.131 78.4857 42.1399C78.4875 42.146 78.4896 42.1531 78.4928 42.1631C78.4945 42.1685 78.4982 42.18 78.5036 42.195C78.5066 42.2031 78.5094 42.2108 78.5152 42.2255C78.5395 42.2652 78.506 42.2712 78.6783 42.4875C78.7009 42.5126 78.7294 42.5419 78.7697 42.5757C78.8224 42.6167 79.0428 42.8092 79.4229 42.7765C79.8206 42.7394 80.053 42.4426 80.1145 42.3152C80.1881 42.1722 80.1966 42.0973 80.2077 42.0422C80.2315 41.8241 80.2164 41.9104 80.2194 41.871C80.2184 41.8396 80.2167 41.8223 80.2153 41.8082C80.2121 41.7779 80.2116 41.7771 80.2104 41.7675C80.208 41.7517 80.2068 41.7447 80.2058 41.7389C80.2035 41.7262 80.2025 41.7211 80.2012 41.7145C80.0736 41.1716 79.9941 40.8787 79.8865 40.4791C79.8852 40.4743 79.8838 40.4695 79.8825 40.4646C79.6445 39.5611 79.3872 38.542 79.1014 37.583C79.0991 37.575 79.0967 37.5669 79.0943 37.5589C78.638 36.0113 78.143 34.4904 77.7085 32.98C77.705 32.9674 77.7014 32.9549 77.6979 32.9424C77.4812 32.1721 77.2811 31.409 77.1952 30.6865C77.1934 30.6719 77.1916 30.6573 77.1899 30.6428C77.1815 30.5726 77.1737 30.5038 77.1699 30.4611C77.1673 30.4452 77.1699 30.4164 77.164 30.4795C77.1613 30.4985 77.1596 30.525 77.1418 30.5913C77.1345 30.6172 77.1155 30.6825 77.0734 30.7601C77.0336 30.8285 76.9314 31.0207 76.6463 31.1419C76.5024 31.2029 76.325 31.2167 76.1997 31.1961C76.0944 31.1806 76.0112 31.1489 75.948 31.1178C75.8092 31.0437 75.8 31.0228 75.7561 30.9863C75.6883 30.9213 75.6817 30.9057 75.6646 30.8839C75.6081 30.7929 75.6679 30.8841 75.6873 30.9274C75.715 30.9824 75.7432 31.0425 75.7733 31.1095C75.8904 31.3707 76.0047 31.655 76.1075 31.9459C76.109 31.9502 76.1105 31.9544 76.112 31.9587C76.9929 34.5074 77.8157 37.116 78.6557 39.7079C78.6598 39.7204 78.6639 39.733 78.6679 39.7454C78.8977 40.4483 79.1634 41.1273 79.4236 41.8375C79.4254 41.8422 79.4277 41.8486 79.4294 41.8529C79.4304 41.8557 79.4311 41.8575 79.4315 41.8584C79.4314 41.8579 79.4322 41.8604 79.4294 41.8519C79.4287 41.8497 79.4278 41.8468 79.4263 41.842C79.4259 41.8403 79.4244 41.8363 79.4189 41.8164C79.4179 41.7742 79.3902 41.8406 79.397 41.5391C79.4029 41.4919 79.4105 41.4271 79.4524 41.3255C79.4871 41.243 79.5584 41.1188 79.6927 41.0175C79.8298 40.909 80.0382 40.8544 80.1878 40.8666C80.4891 40.8967 80.5737 41.0026 80.6361 41.0458C80.6928 41.0949 80.7169 41.1258 80.7351 41.1479C80.7986 41.2312 80.7962 41.2384 80.8067 41.2546C80.8167 41.2731 80.8146 41.2694 80.8171 41.2741C80.82 41.2798 80.8205 41.2809 80.8203 41.2806C80.5577 40.7611 80.2806 40.0069 80.0322 39.3409C80.0278 39.3286 80.0232 39.3162 80.0187 39.3037C79.5654 38.0651 79.1214 36.8355 78.6821 35.6073C78.6763 35.591 78.6706 35.575 78.665 35.5591C78.4819 35.0301 78.3213 34.541 78.2449 34.0684C78.2415 34.0501 78.2383 34.0327 78.2349 34.0139C78.1199 33.3707 78.0236 32.6903 77.8629 32.0164C77.8577 31.9947 77.8525 31.9729 77.8472 31.9512C77.6605 31.16 77.4014 30.2956 77.214 29.6063C77.2106 29.5918 77.208 29.5788 77.2077 29.5753C77.183 29.4426 77.1603 29.314 77.1436 29.1991C77.1264 29.0956 77.1189 28.9476 77.1251 29.0074C77.1242 29.0255 77.1266 29.0545 77.1064 29.1394C77.0766 29.2771 76.9326 29.5811 76.6319 29.7305C76.3406 29.873 76.1397 29.8343 76.0378 29.8196C75.8294 29.7743 75.7911 29.7335 75.7433 29.7099C75.6645 29.6613 75.6501 29.6442 75.6333 29.6308C75.6059 29.6067 75.6064 29.6062 75.6069 29.6074C75.6077 29.6083 75.6096 29.6108 75.612 29.6142C75.6133 29.6002 75.7309 29.8499 75.8073 30.0299C75.8917 30.2253 75.9769 30.4277 76.0619 30.6324C76.2315 31.0413 76.3996 31.4586 76.5521 31.8764C76.5601 31.8984 76.5683 31.9207 76.5765 31.9432C77.5653 34.6691 78.5401 37.416 79.4936 40.1634C79.5044 40.1946 79.515 40.2252 79.5254 40.2555C79.6326 40.5653 79.7383 40.8715 79.8425 41.1769C79.8946 41.3296 79.9473 41.4846 79.9967 41.6332C80.021 41.7064 80.0467 41.7846 80.0663 41.848C80.0708 41.8626 80.0755 41.8784 80.077 41.8836C80.0772 41.8838 80.0785 41.8914 80.0718 41.8614C80.0698 41.8516 80.0691 41.8509 80.0638 41.8169C80.0615 41.8014 80.0587 41.7816 80.0566 41.7508C80.0795 41.7208 79.9646 41.714 80.1788 41.2482C80.2582 41.1314 80.3521 40.9712 80.6837 40.8627C80.9886 40.7795 81.2153 40.8736 81.3231 40.9297C81.5469 41.0625 81.5418 41.1031 81.5649 41.1189C81.6033 41.1626 81.6196 41.1871 81.6326 41.2058C81.6541 41.2381 81.6562 41.2431 81.6625 41.2537C81.6931 41.311 81.6547 41.2355 81.6401 41.2032C81.6279 41.1775 81.617 41.155 81.6072 41.1345C81.3262 40.5205 81.0782 39.7544 80.8037 39.0496C80.796 39.0295 80.7881 39.0091 80.7801 38.9886C79.8609 36.6111 78.9524 34.2195 78.0552 31.8343C78.0502 31.8211 78.0453 31.8079 78.0404 31.7948C77.7227 30.948 77.4307 30.1531 77.1189 29.2598C77.1176 29.2563 77.1163 29.2527 77.115 29.2491C77.1092 29.2331 77.1042 29.2139 77.1044 29.2148C77.1044 29.2164 77.1062 29.2208 77.1091 29.2538C77.1102 29.2716 77.1126 29.2951 77.1093 29.3503C77.0935 29.4124 77.1379 29.4758 76.9591 29.7723C76.9086 29.8395 76.8072 29.9925 76.5391 30.0984C76.2591 30.2033 76.0048 30.1407 75.8741 30.0829C75.6602 29.981 75.6345 29.9247 75.5933 29.8894C75.4781 29.7566 75.5178 29.7884 75.5113 29.7836C75.5148 29.7881 75.5234 29.8021 75.5326 29.8181C75.5514 29.8508 75.574 29.8929 75.5966 29.9362C75.6421 30.0235 75.6891 30.117 75.7365 30.2129C75.8298 30.4011 75.9261 30.6007 76.0191 30.7966C76.2068 31.1927 76.3885 31.5909 76.5575 32.0024C76.5634 32.0167 76.5693 32.0312 76.5752 32.0457C77.8393 35.1692 79.0768 38.3182 80.2904 41.4661C80.3347 41.5817 80.3825 41.7064 80.4266 41.8215C80.4282 41.8258 80.4298 41.83 80.4314 41.8342C80.8662 42.9885 81.3537 44.1731 81.6892 45.2767C81.6893 45.2772 81.6895 45.2777 81.6896 45.2782C81.7327 45.4298 81.8099 45.6063 81.8268 45.655C81.8714 45.8365 81.9915 45.9975 82.1529 46.1039C82.3148 46.2103 82.5048 46.2534 82.6888 46.2224C82.8729 46.1914 83.0383 46.0885 83.1564 45.935C83.2741 45.7816 83.3349 45.5901 83.3176 45.4041C83.3176 45.4041 83.3176 45.4041 83.3176 45.4041C83.2804 45.1359 83.2529 45.0085 83.2126 44.85C83.2125 44.8496 83.2123 44.8491 83.2122 44.8486C82.8393 43.5646 82.3953 42.432 81.953 41.2527C81.9514 41.2484 81.9497 41.2442 81.9481 41.2399C81.9038 41.124 81.8558 40.9985 81.8112 40.8823C80.5925 37.7191 79.3575 34.5754 78.0858 31.431C78.0798 31.4164 78.0739 31.4018 78.068 31.3873C77.8997 30.9708 77.7472 30.5557 77.59 30.1338C77.512 29.9246 77.4314 29.7101 77.3475 29.4986C77.3045 29.3904 77.261 29.2835 77.2113 29.1699C77.1862 29.1128 77.1601 29.0547 77.1281 28.9895C77.1117 28.9562 77.0952 28.9234 77.0699 28.8782C77.0355 28.826 77.0468 28.809 76.8948 28.6363C76.8452 28.5924 76.8109 28.5283 76.5873 28.4221C76.4506 28.3617 76.1911 28.2985 75.9055 28.4053C75.6322 28.5132 75.5267 28.6706 75.4729 28.7426C75.2801 29.0603 75.3213 29.1497 75.3036 29.2365C75.2988 29.3169 75.3023 29.3657 75.3055 29.4084C75.3127 29.4915 75.3232 29.5453 75.3338 29.5963C75.3553 29.6953 75.3791 29.7727 75.4066 29.8515C75.4126 29.8686 75.4189 29.8857 75.4254 29.9028C75.7036 30.7045 76.0325 31.5981 76.3451 32.4305C76.35 32.4437 76.355 32.4569 76.36 32.4703C77.2608 34.8651 78.1678 37.2525 79.0922 39.6434C79.1002 39.6641 79.1082 39.6846 79.1161 39.7049C79.4052 40.4321 79.688 41.1001 80.0443 41.8819C80.0558 41.9059 80.0663 41.9278 80.0753 41.9467C80.0961 41.9882 80.0903 41.9868 80.1602 42.1164C80.1694 42.1321 80.1734 42.1401 80.1981 42.1772C80.2128 42.1985 80.2306 42.225 80.2703 42.2702C80.2939 42.2865 80.2902 42.3287 80.5152 42.4622C80.6237 42.5185 80.8509 42.6128 81.1563 42.5294C81.4884 42.4208 81.5824 42.2603 81.6621 42.1431C81.8772 41.6762 81.7622 41.664 81.785 41.633C81.7827 41.6002 81.7797 41.578 81.777 41.5597C81.7705 41.5188 81.7692 41.5154 81.7662 41.5004C81.7545 41.4478 81.751 41.4382 81.7459 41.4188C81.7363 41.3847 81.7289 41.3605 81.7219 41.3376C81.6934 41.2459 81.667 41.1661 81.6408 41.087C81.5884 40.9296 81.535 40.7724 81.4821 40.6172C81.3764 40.3077 81.2703 40.0002 81.1627 39.6891C81.1522 39.6588 81.1415 39.628 81.1307 39.5968C80.1745 36.8414 79.2298 34.0896 78.2555 31.3385C78.2474 31.3158 78.2394 31.2933 78.2314 31.2709C78.0806 30.8479 77.94 30.4157 77.7942 29.9828C77.7208 29.7654 77.647 29.5497 77.5644 29.327C77.4696 29.0947 77.434 28.9134 77.1864 28.526C77.1654 28.4955 77.143 28.4647 77.1185 28.4332C77.0708 28.3724 77.0196 28.312 76.9349 28.2342C76.8892 28.194 76.8445 28.1514 76.7322 28.0823C76.6676 28.0486 76.6116 27.9985 76.3839 27.9494C76.2725 27.933 76.061 27.894 75.7609 28.0411C75.4513 28.195 75.3019 28.5081 75.2696 28.6554C75.2373 28.7867 75.235 28.8643 75.2321 28.9306C75.2326 29.2568 75.2746 29.3727 75.3026 29.5308C75.3332 29.6778 75.364 29.8097 75.3914 29.9382C75.4001 29.9798 75.4087 30.0154 75.4165 30.0464C75.6684 30.9215 75.881 31.6098 76.0847 32.396C76.09 32.416 76.0952 32.436 76.1005 32.4561C76.2646 33.083 76.4398 33.7165 76.617 34.3811C76.6223 34.401 76.6274 34.4197 76.6328 34.4398C76.7874 35.0484 77.0529 35.5823 77.2497 36.09C77.256 36.1059 77.2623 36.1219 77.2687 36.1381C77.7506 37.3593 78.2489 38.5698 78.695 39.7857C78.6996 39.7982 78.7041 39.8105 78.7085 39.8228C78.9697 40.5151 79.1261 41.1551 79.4715 41.9551C79.4717 41.9555 79.4725 41.9573 79.4757 41.9635C79.4784 41.9686 79.4762 41.965 79.4865 41.9839C79.4971 42.0003 79.4948 42.0078 79.5584 42.0912C79.5767 42.1133 79.6008 42.1442 79.6575 42.1934C79.7199 42.2365 79.8045 42.3425 80.1059 42.3726C80.2555 42.3848 80.4639 42.3301 80.6009 42.2216C80.7353 42.1204 80.8066 41.9961 80.8412 41.9137C80.8831 41.812 80.8908 41.7473 80.8966 41.7C80.9034 41.3984 80.8758 41.4645 80.8746 41.422C80.869 41.4016 80.8674 41.397 80.8669 41.3952C80.8652 41.39 80.8641 41.3865 80.8632 41.3837C80.8594 41.3719 80.8597 41.3729 80.8586 41.3696C80.8568 41.3642 80.8565 41.3632 80.8555 41.3598C80.854 41.3551 80.8522 41.3496 80.8509 41.3454C80.6401 40.6618 80.4563 39.9383 80.2329 39.2405C80.2289 39.2281 80.2249 39.2156 80.2209 39.203C79.384 36.608 78.5685 34.0147 77.6728 31.4105C77.6712 31.406 77.6696 31.4016 77.6681 31.3972C77.5613 31.0939 77.4664 30.7941 77.3523 30.476C77.322 30.3928 77.2933 30.3151 77.2563 30.2253C77.2106 30.1261 77.2066 30.073 77.0615 29.8551C77.0309 29.8152 77.0149 29.7878 76.9311 29.7075C76.8789 29.6638 76.8656 29.6391 76.7157 29.5592C76.6479 29.5258 76.5603 29.4927 76.4508 29.4765C76.3205 29.4552 76.138 29.4695 75.9896 29.5324C75.696 29.6568 75.5866 29.8583 75.5427 29.9344C75.4966 30.0192 75.4732 30.0972 75.4639 30.1306C75.4411 30.215 75.4365 30.2615 75.4318 30.2998C75.4184 30.4416 75.424 30.4905 75.4252 30.5525C75.43 30.6674 75.4384 30.7524 75.4474 30.8384C75.4492 30.8556 75.4512 30.8731 75.4532 30.8907C75.5582 31.7939 75.7812 32.6144 76.0022 33.4196C76.0058 33.4326 76.0095 33.4456 76.0131 33.4588C76.4542 35.0199 76.9359 36.5398 77.3705 38.0584C77.3727 38.0662 77.375 38.074 77.3772 38.0818C77.6506 39.0279 77.8577 39.9418 78.125 40.9573C78.1264 40.9623 78.1278 40.9673 78.1292 40.9723C78.2321 41.3479 78.4099 41.8185 78.4671 42.057C78.4666 42.0546 78.4662 42.0527 78.4647 42.0441C78.464 42.04 78.4631 42.035 78.4611 42.0212C78.4599 42.0126 78.4595 42.0123 78.4564 41.9833C78.4552 41.9698 78.4535 41.9529 78.4525 41.9219C78.4555 41.8827 78.4404 41.969 78.4642 41.7515C78.4752 41.6965 78.4837 41.6216 78.5573 41.4787C78.6187 41.3513 78.8511 41.0546 79.2488 41.0175C79.6288 40.9848 79.8492 41.1772 79.9019 41.2182C79.9422 41.252 79.9706 41.2812 79.9932 41.3063C80.1653 41.5224 80.1316 41.5279 80.1555 41.5668C80.1612 41.581 80.1638 41.5884 80.1666 41.596C80.1717 41.6101 80.1749 41.62 80.1763 41.6245C80.1789 41.6327 80.1804 41.6376 80.1814 41.6412C80.183 41.6464 80.1835 41.6486 80.1837 41.6494C80.1842 41.6509 80.1837 41.6494 80.1832 41.6473C80.1821 41.6431 80.1803 41.6365 80.1785 41.6293C80.1748 41.6148 80.1711 41.5999 80.167 41.5833C80.1591 41.5512 80.1509 41.5174 80.1428 41.4833C80.1266 41.4161 80.1101 41.3463 80.094 41.2776C80.0615 41.139 80.0295 41.0009 79.9972 40.8603C79.9949 40.8503 79.9926 40.8403 79.9903 40.8301C79.726 39.6759 79.4644 38.5165 79.2051 37.36C79.2037 37.3535 79.2022 37.347 79.2008 37.3405C79.0942 36.8645 78.9789 36.3908 78.8607 35.9177C78.775 35.5751 78.6879 35.233 78.6006 34.8898C78.5996 34.886 78.5986 34.8822 78.5977 34.8785C78.4866 34.4377 78.1939 34.0368 78.1101 33.6248C78.1096 33.6225 78.1092 33.6202 78.1087 33.6179C77.9652 32.8923 77.8563 32.233 77.6979 31.4291Z" fill="#57B4A1"/>
<path d="M77.1081 27.2107C77.05 27.0452 76.9285 26.9094 76.7703 26.8335C76.6121 26.7575 76.4303 26.7474 76.2647 26.8055C76.0991 26.8636 75.9634 26.9851 75.8874 27.1433C75.8114 27.3014 75.8014 27.4833 75.8595 27.6489C75.8595 27.6489 75.8595 27.6489 75.8595 27.6489C75.9674 27.9566 76.0722 28.2655 76.174 28.5756C76.3911 29.2373 76.595 29.9046 76.7866 30.5752C76.7866 30.5753 76.7866 30.5753 76.7866 30.5753C76.9225 31.0508 76.9668 31.545 77.0787 32.0123C77.0787 32.0123 77.0787 32.0123 77.0787 32.0123C77.2411 32.688 77.3876 33.3692 77.5818 34.0379C77.5818 34.0379 77.5819 34.038 77.5819 34.038C77.9277 35.2543 78.3788 36.4774 78.8477 37.6624C78.8477 37.6625 78.8477 37.6625 78.8477 37.6625C79.5384 39.4064 80.2675 41.1096 81.027 42.8055C81.027 42.8055 81.027 42.8055 81.027 42.8055C81.3266 43.474 81.7042 44.1249 82.0738 44.7496C82.0738 44.7496 82.0739 44.7496 82.0739 44.7497C82.1844 44.9394 82.4155 45.082 82.6046 45.2464C82.7151 45.3424 82.8112 45.4457 82.8591 45.5676C82.8591 45.5676 82.8591 45.5677 82.8591 45.5677C82.932 45.7528 83.0028 45.9374 83.0724 46.1239C83.0832 46.1527 83.1051 46.1761 83.1331 46.1889C83.1612 46.2016 83.1932 46.2027 83.222 46.1919C83.2509 46.1811 83.2743 46.1592 83.287 46.1312C83.2998 46.1031 83.3009 46.0711 83.29 46.0423C83.29 46.0423 83.29 46.0423 83.29 46.0423C83.2203 45.8556 83.1486 45.6684 83.0755 45.4826C83.0755 45.4826 83.0755 45.4826 83.0755 45.4826C83.0273 45.3601 83.026 45.2186 83.038 45.071C83.0584 44.8189 83.1168 44.5468 83.0477 44.3246C83.0476 44.3246 83.0476 44.3246 83.0476 44.3246C82.8208 43.6135 82.6163 42.9274 82.3449 42.2464C82.3449 42.2464 82.3449 42.2464 82.3449 42.2464C81.6633 40.5337 80.9715 38.8179 80.359 37.0981C80.359 37.0981 80.359 37.0981 80.359 37.098C79.9424 35.9254 79.6148 34.7519 79.2718 33.5473C79.2718 33.5473 79.2718 33.5472 79.2718 33.5472C79.077 32.8764 78.8326 32.2197 78.5966 31.5595C78.5966 31.5595 78.5966 31.5595 78.5966 31.5594C78.4321 31.0982 78.1892 30.6676 78.059 30.2118C78.059 30.2118 78.059 30.2118 78.0589 30.2118C77.8629 29.5254 77.6541 28.8421 77.4312 28.1629C77.3267 27.8446 77.2191 27.5273 77.1081 27.2107Z" fill="#57B4A1"/>
<path d="M77.9271 31.083C77.9271 30.9498 77.8742 30.822 77.78 30.7277C77.6857 30.6335 77.5579 30.5806 77.4247 30.5806C77.2914 30.5806 77.1636 30.6335 77.0694 30.7277C76.9752 30.822 76.9222 30.9498 76.9222 31.083C76.9386 31.2757 76.9397 31.2006 76.9444 31.2365C76.9482 31.2507 76.9515 31.2618 76.9543 31.2714C76.9603 31.2915 76.9657 31.309 76.971 31.3256C76.9818 31.3598 76.9919 31.3908 77.0024 31.4225C77.0232 31.4852 77.044 31.5466 77.0649 31.6076C77.1068 31.7298 77.1489 31.8505 77.1912 31.9708C77.3212 32.3401 77.4528 32.7057 77.5859 33.0727C77.5859 33.0728 77.586 33.073 77.5861 33.0732C77.7481 33.5226 77.8508 34.003 77.9972 34.4442C77.9973 34.4444 77.9973 34.4446 77.9974 34.4448C78.1503 34.9059 78.2813 35.3678 78.4629 35.8123C78.463 35.8125 78.463 35.8126 78.4631 35.8128C78.8627 36.7876 79.2813 37.7543 79.6717 38.7381C79.6717 38.7382 79.6717 38.7383 79.6718 38.7384C80.293 40.3064 80.8942 41.8881 81.5081 43.463C81.5082 43.4631 81.5082 43.4631 81.5082 43.4631C81.6813 43.9071 81.9 44.3345 82.12 44.7617C82.1966 44.9104 82.2748 45.061 82.3468 45.2055C82.3468 45.2055 82.3468 45.2055 82.3468 45.2055L82.3374 45.1779C82.3543 45.1971 82.5795 45.2013 82.6961 45.3082C82.7077 45.3168 82.7282 45.3251 82.7464 45.3313C82.7649 45.3374 82.7795 45.3408 82.7937 45.3408C82.808 45.3408 82.8226 45.3374 82.8411 45.3313C82.8592 45.3251 82.8797 45.3168 82.8914 45.3082C83.0089 45.2405 83.2322 45.0669 83.1936 44.9188L83.1842 44.8911C83.1842 44.8911 83.1842 44.8911 83.1842 44.8911C83.139 44.725 83.0973 44.5664 83.0558 44.4048C82.937 43.9433 82.8211 43.4793 82.6606 43.0319C82.6606 43.0319 82.6606 43.0319 82.6606 43.0319C82.0899 41.44 81.5058 39.8514 80.9194 38.2606C80.9193 38.2605 80.9193 38.2604 80.9193 38.2603C80.5507 37.2624 80.1983 36.2557 79.7935 35.2684C79.7934 35.2682 79.7934 35.2681 79.7933 35.2679C79.6103 34.8201 79.3705 34.3938 79.1539 33.9653C79.1538 33.9652 79.1537 33.965 79.1536 33.9648C78.9405 33.5437 78.6858 33.1603 78.5307 32.7305C78.5306 32.7303 78.5306 32.7301 78.5305 32.7299C78.3982 32.3651 78.2674 32.0015 78.1392 31.6374C78.0975 31.5189 78.0561 31.4001 78.0156 31.282C77.9954 31.2231 77.9754 31.1642 77.9564 31.1068C77.9468 31.0778 77.9377 31.0498 77.9291 31.0228C77.925 31.0098 77.9209 30.9966 77.9179 30.9862C77.9164 30.9814 77.915 30.9764 77.9147 30.9753C77.9155 30.9955 77.912 30.9059 77.9271 31.083Z" fill="#57B4A1"/>
<path d="M78.2366 32.6389C78.1942 32.5116 78.1029 32.4064 77.9829 32.3464C77.8629 32.2864 77.724 32.2765 77.5967 32.3189C77.4695 32.3614 77.3643 32.4526 77.3043 32.5726C77.2443 32.6926 77.2344 32.8315 77.2768 32.9588C77.2768 32.9588 77.2768 32.9588 77.2768 32.9588C77.3739 33.2288 77.4549 33.4043 77.5442 33.6208C77.545 33.6225 77.5457 33.6243 77.5465 33.6261C77.5465 33.6261 77.5465 33.6261 77.5465 33.6261C77.8571 34.3624 78.1251 35.1143 78.4184 35.8585C78.4184 35.8585 78.4184 35.8585 78.4185 35.8585C78.6123 36.3502 78.8093 36.8466 79.0124 37.3346C79.0124 37.3347 79.0125 37.3347 79.0125 37.3348C79.2907 38.0027 79.5399 38.6804 79.8298 39.3462C79.8299 39.3463 79.8299 39.3464 79.8299 39.3465C80.4486 40.7707 81.0872 42.1943 81.7044 43.6144C81.7045 43.6145 81.7045 43.6147 81.7046 43.6148L81.7003 43.6044C81.8681 44.0121 82.1345 44.3821 82.3773 44.7488C82.4641 44.8818 82.5447 45.005 82.6073 45.1348C82.6074 45.1349 82.6074 45.1351 82.6075 45.1352L82.6005 45.0959C82.6146 45.101 82.7618 45.1206 82.8108 45.2216C82.8186 45.2343 82.8351 45.2495 82.8503 45.2618C82.8659 45.2741 82.879 45.2825 82.8929 45.2871C82.9068 45.2918 82.9223 45.2929 82.9422 45.2924C82.9617 45.2917 82.984 45.2895 82.9979 45.284C83.0917 45.2606 83.2668 45.1467 83.263 45.0194L83.256 44.9802C83.256 44.9801 83.256 44.9799 83.256 44.9798C83.2463 44.8006 83.2256 44.6237 83.2066 44.456C83.1518 43.9882 83.0891 43.5323 82.9283 43.1141L82.924 43.1037C82.924 43.1035 82.9239 43.1034 82.9239 43.1033C82.3334 41.6551 81.7351 40.2177 81.114 38.7876C81.1139 38.7875 81.1139 38.7875 81.1139 38.7874C80.8235 38.1204 80.4903 37.4667 80.1674 36.8124C80.1674 36.8123 80.1674 36.8123 80.1673 36.8122C79.9351 36.3412 79.7072 35.8739 79.4834 35.3982C79.4834 35.3982 79.4833 35.3981 79.4833 35.3981C79.1453 34.6797 78.7874 33.9647 78.479 33.2336C78.479 33.2336 78.479 33.2336 78.479 33.2336C78.4782 33.2318 78.4775 33.2301 78.4767 33.2283C78.3933 33.0281 78.2914 32.7932 78.2366 32.6389Z" fill="#57B4A1"/>
<path d="M78.0762 31.6758C78.0279 31.5471 77.9305 31.4427 77.8053 31.3858C77.6801 31.3289 77.5374 31.3241 77.4086 31.3724C77.2798 31.4207 77.1755 31.5181 77.1186 31.6433C77.0617 31.7685 77.0569 31.9112 77.1052 32.04C77.1052 32.04 77.1052 32.04 77.1052 32.04C77.1964 32.285 77.2936 32.5204 77.389 32.7538C77.4274 32.8472 77.4662 32.9415 77.505 33.0354C77.505 33.0354 77.505 33.0354 77.505 33.0354C77.8835 33.9497 78.2285 34.8752 78.5851 35.7976C78.5851 35.7976 78.5852 35.7976 78.5852 35.7977C78.8285 36.4272 79.0234 37.077 79.2848 37.6956C79.2849 37.6956 79.2849 37.6956 79.2849 37.6956C79.6866 38.6441 80.126 39.5734 80.5337 40.5204C80.5337 40.5204 80.5337 40.5205 80.5337 40.5205C81.083 41.7975 81.6157 43.0883 82.1606 44.3699C82.1606 44.3699 82.1606 44.3699 82.1606 44.3699C82.2875 44.669 82.5824 44.9023 82.791 45.1707C82.8671 45.2684 82.9298 45.3693 82.9744 45.4823C82.9744 45.4823 82.9744 45.4823 82.9744 45.4823C83.0248 45.6098 83.0851 45.7336 83.1448 45.8522C83.1569 45.8765 83.1783 45.895 83.2041 45.9036C83.2299 45.9122 83.258 45.9102 83.2824 45.8981C83.3067 45.8859 83.3252 45.8646 83.3338 45.8388C83.3424 45.813 83.3404 45.7848 83.3282 45.7605C83.3282 45.7605 83.3282 45.7605 83.3282 45.7605C83.2685 45.6416 83.2123 45.5262 83.1649 45.4064C83.1649 45.4064 83.1648 45.4064 83.1648 45.4063C83.1229 45.3001 83.1064 45.1795 83.0999 45.0561C83.0825 44.7155 83.1486 44.3434 83.0443 44.0341C83.0443 44.034 83.0442 44.034 83.0442 44.034C82.5966 42.7096 82.1238 41.3949 81.6446 40.079C81.6446 40.079 81.6445 40.079 81.6445 40.079C81.2889 39.1037 80.9432 38.1204 80.5388 37.1657C80.5388 37.1657 80.5388 37.1657 80.5388 37.1657C80.2758 36.5435 79.9438 35.9564 79.6655 35.3435C79.6654 35.3435 79.6654 35.3435 79.6654 35.3435C79.2575 34.4456 78.8401 33.5492 78.4635 32.6393C78.4635 32.6393 78.4635 32.6393 78.4635 32.6393C78.425 32.5461 78.3864 32.4525 78.3485 32.3602C78.2539 32.1287 78.16 31.9009 78.0762 31.6758Z" fill="#57B4A1"/>
<path d="M7.56092 29.274C7.6746 29.1043 7.71622 28.8964 7.67664 28.6961C7.63705 28.4957 7.5195 28.3193 7.34984 28.2056C7.18019 28.092 6.97232 28.0503 6.77197 28.0899C6.57162 28.1295 6.3952 28.2471 6.28153 28.4167C6.28153 28.4167 6.28153 28.4167 6.28153 28.4167C6.10402 28.7066 6.07716 28.8291 6.00633 29.0028C5.9461 29.1634 5.89229 29.3201 5.84061 29.4749C5.51286 30.4734 5.23569 31.4483 4.94889 32.4301C4.94874 32.4307 4.94859 32.4312 4.94844 32.4317C4.43743 34.1736 3.76799 35.9008 3.28295 37.6935C3.28228 37.6959 3.28161 37.6984 3.28094 37.7009C2.83116 39.3525 2.45133 41.0262 2.0506 42.6447C2.04956 42.6488 2.04853 42.6529 2.0475 42.657C1.77898 43.733 1.53582 44.767 1.29249 45.9055C1.27509 46.0066 1.25581 46.059 1.23947 46.2786C1.23865 46.2965 1.23982 46.3158 1.24312 46.3372C1.24332 46.3377 1.24352 46.3381 1.24373 46.3388C1.24501 46.3589 1.24062 46.2742 1.24763 46.4123C1.24924 46.427 1.24948 46.4417 1.25918 46.4947C1.26607 46.5243 1.268 46.5567 1.30862 46.6585C1.33358 46.7111 1.35727 46.7864 1.482 46.9189C1.57937 47.0468 1.98797 47.255 2.32759 47.1244C2.64737 47.0057 2.72259 46.8431 2.77636 46.7689C2.82538 46.6866 2.83994 46.6412 2.85265 46.6061C2.87503 46.5384 2.87861 46.5116 2.88326 46.4889C2.89073 46.4469 2.8915 46.4331 2.89293 46.4204C2.89665 46.3786 2.89579 46.3791 2.89626 46.3715C2.89662 46.3612 2.89658 46.3597 2.89661 46.3574C2.89664 46.3535 2.89657 46.3538 2.89653 46.3533C2.89643 46.3526 2.89632 46.3521 2.89621 46.3518C2.89599 46.351 2.89576 46.3507 2.89552 46.3505C2.89456 46.3495 2.89351 46.349 2.89239 46.3482C2.89013 46.3469 2.88755 46.3455 2.88467 46.3439C2.8789 46.3409 2.87193 46.3374 2.86392 46.3339C2.84789 46.3268 2.82771 46.3191 2.8048 46.311C2.75898 46.2949 2.70222 46.2771 2.64589 46.2582C2.53319 46.2209 2.42248 46.1769 2.40396 46.1438C2.40395 46.1437 2.40395 46.1437 2.40394 46.1437C2.33647 46.0285 2.35061 45.847 2.31545 45.6913C2.30943 45.6641 2.28961 45.6357 2.26626 45.6132C2.24257 45.5907 2.21728 45.5761 2.19003 45.5715C2.16278 45.5669 2.13409 45.5725 2.10434 45.586C2.07493 45.5995 2.04689 45.6199 2.03232 45.6436C2.03232 45.6436 2.03232 45.6436 2.03232 45.6436C1.95222 45.7783 1.88347 45.8797 1.77148 46.0549C1.77147 46.0549 1.77146 46.0549 1.77145 46.0549C1.74174 46.1019 1.62362 46.1383 1.50547 46.1817C1.44644 46.2031 1.3875 46.2258 1.34 46.2499C1.31625 46.262 1.29535 46.2745 1.27873 46.2877C1.27042 46.2941 1.26318 46.3011 1.2572 46.3079C1.2542 46.3116 1.25152 46.3151 1.24918 46.3188C1.248 46.3207 1.24691 46.3226 1.24592 46.3241C1.24567 46.3244 1.24543 46.3249 1.24519 46.3248C1.24508 46.3247 1.24497 46.3246 1.24486 46.324C1.24481 46.3236 1.24474 46.3242 1.24476 46.3205C1.2448 46.3183 1.24475 46.3169 1.24511 46.3067C1.24558 46.2992 1.24472 46.2996 1.24843 46.2579C1.24987 46.2451 1.25064 46.2314 1.2581 46.1894C1.26276 46.1666 1.26634 46.1399 1.28872 46.0722C1.30142 46.0371 1.31598 45.9916 1.365 45.9093C1.41878 45.8351 1.494 45.6725 1.81377 45.5538C2.1534 45.4232 2.562 45.6315 2.65937 45.7593C2.7841 45.8919 2.80779 45.9672 2.83275 46.0198C2.87337 46.1216 2.8753 46.1539 2.88219 46.1835C2.89188 46.2366 2.89212 46.2512 2.89373 46.2659C2.90074 46.4039 2.89635 46.3179 2.89762 46.3378C2.89784 46.3379 2.89804 46.3376 2.89824 46.3372C2.90154 46.3492 2.90299 46.3584 2.90274 46.3652C2.89827 46.4221 2.91481 46.3162 2.93057 46.2584C3.19174 45.2533 3.52315 44.1613 3.78949 43.0977C3.79057 43.0934 3.79166 43.0891 3.79274 43.0848C4.20588 41.4154 4.57192 39.7832 5.00506 38.1638C5.0057 38.1614 5.00634 38.159 5.00698 38.1566C5.47159 36.4074 5.90652 34.6363 6.42745 32.8609C6.4276 32.8604 6.42775 32.8599 6.42789 32.8594C6.71262 31.8839 6.9934 30.9001 7.30169 29.9617C7.34948 29.8184 7.39867 29.6758 7.44793 29.5446C7.49087 29.4236 7.57222 29.2493 7.56092 29.274Z" fill="#57B4A1"/>
<path d="M7.45535 27.0909C7.45535 27.1682 7.48607 27.2424 7.54073 27.2971C7.5954 27.3517 7.66955 27.3824 7.74686 27.3824C7.82417 27.3824 7.89831 27.3517 7.95298 27.2971C8.00765 27.2424 8.03836 27.1682 8.03836 27.0909C8.03368 26.8536 8.01802 26.6381 7.91196 26.3746C7.91157 26.3737 7.91119 26.3728 7.91081 26.372C7.89537 26.3394 7.87038 26.2863 7.7942 26.2369C7.72032 26.18 7.56027 26.1857 7.50516 26.2229C7.41516 26.2732 7.41026 26.2983 7.39216 26.3174C7.37079 26.3459 7.3601 26.3667 7.35317 26.3794C7.3367 26.411 7.32911 26.429 7.32007 26.4497C7.30261 26.4904 7.28903 26.5254 7.27566 26.5599C7.24877 26.6299 7.22411 26.6965 7.19876 26.7645C6.88871 27.6149 6.5108 28.4236 6.20143 29.2617C6.19435 29.281 6.18727 29.3004 6.18021 29.3198C5.67183 30.7152 5.14239 32.1111 4.62501 33.511C4.61979 33.5251 4.61458 33.5392 4.60936 33.5533C4.01831 35.1494 3.40481 36.7375 2.81819 38.3355C2.81527 38.3435 2.81234 38.3515 2.80942 38.3594C2.31172 39.7209 1.80615 41.0723 1.32124 42.4637L1.30311 42.5254C1.30237 42.5284 1.30163 42.5313 1.30089 42.5343C1.15285 43.1235 1.00687 43.7197 0.885074 44.3223C0.859858 44.4461 0.829787 44.5951 0.817857 44.6303L0.813508 44.645C0.813269 44.6458 0.813031 44.6466 0.812795 44.6475C0.759873 44.8434 0.769706 45.0035 0.813085 45.2476C0.836671 45.3786 0.87023 45.5086 0.932827 45.6196C0.995538 45.7306 1.08316 45.8138 1.19051 45.8566C1.29787 45.8995 1.41873 45.8994 1.54061 45.862C1.66238 45.8246 1.77618 45.7533 1.88345 45.6745C1.88345 45.6745 1.88345 45.6745 1.88345 45.6745C2.08422 45.5248 2.23971 45.2855 2.29634 45.0715C2.29652 45.0709 2.2967 45.0703 2.29687 45.0697L2.29252 45.0843C2.35497 44.8686 2.36875 44.7575 2.39649 44.626C2.50891 44.051 2.63768 43.4799 2.77938 42.9016C2.78009 42.8987 2.7808 42.8958 2.7815 42.8929L2.76337 42.9546C3.22501 41.6045 3.7362 40.2377 4.22184 38.8702C4.2247 38.8622 4.22756 38.8542 4.23042 38.8462C4.80364 37.2363 5.3296 35.6091 5.84859 33.9797C5.85317 33.9653 5.85775 33.951 5.86232 33.9366C6.31496 32.5105 6.75555 31.08 7.15308 29.628C7.15861 29.6077 7.16405 29.5875 7.1694 29.5674C7.40148 28.7013 7.53217 27.8022 7.76867 26.9526C7.78777 26.8861 7.80728 26.8216 7.82791 26.7605C7.83794 26.7307 7.84859 26.7009 7.85861 26.676C7.86327 26.6644 7.86828 26.6533 7.86944 26.6509C7.86943 26.6504 7.86964 26.6522 7.85699 26.6694C7.84473 26.6809 7.84579 26.6991 7.76284 26.7459C7.71231 26.7807 7.55679 26.7867 7.48598 26.7318C7.4129 26.6843 7.39063 26.6348 7.37754 26.6076C7.37768 26.6079 7.37783 26.6083 7.37798 26.6086C7.42738 26.7233 7.45543 26.922 7.45535 27.0909Z" fill="#57B4A1"/>
<path d="M43.7439 21.7993C43.6158 21.8946 43.5309 22.0369 43.5077 22.1949C43.4846 22.3529 43.5251 22.5136 43.6204 22.6417C43.7158 22.7698 43.8581 22.8548 44.0161 22.8779C44.1741 22.9011 44.3348 22.8605 44.4629 22.7652C44.4629 22.7652 44.4629 22.7652 44.4629 22.7652C44.7079 22.5422 44.6552 22.5265 44.7004 22.4646C44.7259 22.4134 44.7431 22.3735 44.7594 22.3353C44.7916 22.2595 44.8177 22.1935 44.8439 22.1283C44.8957 21.9991 44.9451 21.8784 44.9976 21.762C45.0025 21.751 45.0076 21.7399 45.0126 21.7289C45.0172 21.7187 45.022 21.7085 45.0269 21.6983C45.2392 21.2552 45.4368 20.8476 45.5911 20.4707C45.6031 20.4407 45.615 20.4109 45.627 20.3806C45.6808 20.2326 45.7614 20.0999 45.821 19.7622C45.8332 19.6766 45.8409 19.5726 45.8282 19.452C45.7414 18.9189 45.4484 18.7736 45.3294 18.6697C45.2668 18.6249 45.2132 18.5916 45.1679 18.5639C44.7526 18.3358 44.5227 18.3944 44.3305 18.3957C44.2506 18.4018 44.1793 18.4173 44.1127 18.4297C44.0657 18.4364 44.0154 18.4471 43.9632 18.4637C43.7953 18.513 43.617 18.6446 43.5217 18.7841C43.4228 18.9243 43.3844 19.0522 43.3644 19.1685C43.3039 19.5908 43.4929 19.855 43.5923 19.9933C43.7038 20.1389 43.8016 20.2268 43.866 20.2927C43.9015 20.3248 43.9366 20.3769 43.8885 20.3031C43.8924 20.3093 43.8955 20.315 43.8909 20.306C43.8856 20.2918 43.8919 20.3203 43.8538 20.2147C43.8488 20.1991 43.8431 20.1799 43.837 20.1526C43.8491 20.144 43.7647 20.0658 43.8748 19.7365C43.9219 19.5707 44.1955 19.3421 44.3654 19.3248C44.5348 19.2889 44.6471 19.3171 44.7188 19.3373C44.8566 19.3814 44.9063 19.4282 44.9202 19.4357C44.9813 19.4806 44.9953 19.499 45.0021 19.5049C45.0441 19.5501 45.0121 19.5164 45.0059 19.5076C44.9823 19.4785 44.9539 19.4413 44.9269 19.4046C44.8758 19.336 44.809 19.2369 44.797 19.2144C44.7973 19.2151 44.7989 19.2173 44.8061 19.2328C44.8107 19.2432 44.8135 19.2477 44.8252 19.2803C44.8287 19.3217 44.8743 19.3137 44.8543 19.5984C44.8424 19.6451 44.8492 19.7147 44.7295 19.8777C44.6138 20.0543 44.2802 20.1468 44.1673 20.1165C43.9274 20.074 43.957 20.0433 43.9377 20.0418C43.9293 20.036 43.9712 20.0729 44.006 20.1116C44.0839 20.1957 44.1573 20.2897 44.2681 20.4254C44.2679 20.4252 44.2677 20.4251 44.2676 20.4249C44.2008 20.3347 44.2502 20.397 44.203 20.567C44.1643 20.7291 44.0831 20.9336 43.9849 21.1446C43.9784 21.1586 43.9718 21.1726 43.965 21.1866C43.799 21.5573 43.5986 21.8697 43.525 22.4221C43.5192 22.4789 43.5148 22.5404 43.5146 22.6129C43.5146 22.6519 43.5139 22.701 43.5137 22.7009C43.5145 22.6946 43.512 22.6951 43.5212 22.6261C43.5272 22.5965 43.5249 22.5688 43.5672 22.4492C43.5978 22.3869 43.6084 22.2904 43.811 22.1003C43.9124 22.0101 44.1095 21.8957 44.3516 21.8902C44.5936 21.8815 44.7981 21.9847 44.905 22.0696C45.1191 22.2491 45.1347 22.3456 45.1688 22.4062C45.1968 22.4732 45.1861 22.4493 45.1935 22.4686C45.2011 22.4905 45.2061 22.5073 45.2101 22.5214C45.2249 22.5763 45.2273 22.5963 45.2303 22.6133C45.2353 22.6452 45.2351 22.6487 45.2356 22.6521C45.2369 22.6654 45.2361 22.657 45.2358 22.6523C45.2349 22.6378 45.234 22.6219 45.233 22.6024C45.2291 22.5279 45.2256 22.4445 45.2221 22.3626C45.2151 22.1981 45.2085 22.0322 45.2014 21.8651C45.1856 21.524 45.1779 21.22 45.1432 20.8178C45.1354 20.7428 45.1264 20.6725 45.1167 20.6041C45.036 20.0446 44.911 19.4984 44.8566 19.0972C44.8493 19.036 44.8392 18.9757 44.8268 18.9172C44.7494 18.5586 44.6001 18.2962 44.4945 18.1035C44.4692 18.0574 44.4428 18.0147 44.4164 17.9755C44.094 17.5289 43.7859 17.3714 43.498 17.1851C43.4961 17.184 43.4941 17.1827 43.492 17.1813C43.4407 17.1492 43.3527 17.062 43.2045 16.8744C43.2044 16.8743 43.2043 16.8742 43.2043 16.8741C43.1131 16.748 42.8347 16.5333 42.527 16.5263C42.2293 16.5172 42.0767 16.6118 41.9817 16.6624C41.7983 16.7755 41.7458 16.8438 41.6848 16.9024C41.5772 17.0151 41.5174 17.0897 41.4732 17.1357C41.4472 17.1652 41.4205 17.181 41.4722 17.1435C41.4546 17.1552 41.4371 17.1673 41.4196 17.18C41.2182 17.3213 41.0218 17.5571 40.9242 17.8013L40.9481 17.7488C40.9485 17.748 40.9491 17.7468 40.9497 17.7456C40.976 17.7017 40.9483 17.7538 40.9078 17.8122C40.7849 17.9891 40.7236 18.2058 40.747 18.4225C40.7703 18.6393 40.8749 18.8372 41.0399 18.9744C41.2049 19.1116 41.4185 19.1784 41.6359 19.1618C41.8533 19.1453 42.0552 19.0455 42.2067 18.8925C42.2067 18.8925 42.2067 18.8925 42.2067 18.8925C42.2762 18.8168 42.3608 18.7348 42.4678 18.5369C42.4723 18.5282 42.4767 18.5197 42.4808 18.5113L42.5047 18.4589C42.4921 18.4951 42.4425 18.5503 42.4232 18.5608C42.4216 18.562 42.4201 18.5629 42.4189 18.5637C42.5842 18.4494 42.6542 18.3672 42.7218 18.2969C42.8133 18.197 42.8795 18.116 42.9097 18.0852C42.9185 18.0723 42.938 18.07 42.8402 18.132C42.7878 18.1578 42.6837 18.2322 42.4361 18.2256C42.1786 18.2204 41.9455 18.0365 41.8852 17.9491C41.8852 17.9492 41.8853 17.9493 41.8853 17.9493C42.0216 18.1158 42.2283 18.3868 42.5606 18.6055C42.5758 18.6154 42.5913 18.6253 42.6071 18.635C42.7946 18.7461 42.9618 18.9204 42.9615 18.941C42.9612 18.9412 42.9596 18.9394 42.9567 18.9348C43.0504 19.111 43.0965 19.2274 43.1062 19.2818C43.1082 19.2912 43.1096 19.2995 43.1106 19.3072C43.2005 19.9287 43.3276 20.3884 43.3952 20.8521C43.4029 20.9041 43.4095 20.9543 43.4145 21.0001C43.4382 21.2563 43.4531 21.6195 43.4682 21.941C43.4757 22.1062 43.4829 22.2713 43.4906 22.4391C43.4945 22.5235 43.4983 22.6072 43.5033 22.6967C43.5047 22.7215 43.5058 22.74 43.508 22.7724C43.509 22.7858 43.5101 22.8029 43.5133 22.8338C43.5141 22.8402 43.5148 22.8518 43.5207 22.8893C43.5241 22.9089 43.5269 22.9311 43.5422 22.9874C43.5463 23.0019 43.5514 23.019 43.5591 23.0412C43.5665 23.0607 43.5557 23.0366 43.584 23.1041C43.6182 23.1653 43.6341 23.262 43.8484 23.4417C43.9553 23.5266 44.16 23.6299 44.4021 23.6212C44.6442 23.6157 44.8414 23.5012 44.9429 23.4109C45.1457 23.2207 45.1564 23.1238 45.1872 23.0612C45.2298 22.9406 45.2279 22.9115 45.2342 22.8799C45.2442 22.8053 45.2425 22.7933 45.2438 22.7743C45.2465 22.6906 45.2455 22.6658 45.2457 22.6129C45.2455 22.6162 45.2455 22.6086 45.2467 22.5967C45.2614 22.4342 45.3099 22.064 45.4064 21.7677C45.4122 21.7505 45.4181 21.7331 45.4241 21.7156C45.5145 21.4488 45.6067 21.1655 45.6581 20.8206C45.6964 20.4946 45.7562 19.9825 45.3429 19.4916C45.3416 19.4902 45.3403 19.4888 45.3391 19.4873C45.2558 19.397 45.1366 19.2594 45.005 19.1301C44.9344 19.0622 44.8683 18.9951 44.7376 18.9022C44.6567 18.8587 44.622 18.7861 44.3064 18.7337C44.1565 18.6987 43.783 18.8036 43.6446 19.0105C43.5011 19.2045 43.499 19.3084 43.4809 19.3944C43.4598 19.6868 43.5087 19.6895 43.5151 19.7396C43.5308 19.7831 43.5362 19.7933 43.5452 19.8135C43.5602 19.846 43.5715 19.8665 43.5802 19.8825C43.6723 20.043 43.7276 20.116 43.7986 20.2183C43.8334 20.2673 43.8671 20.314 43.9088 20.3683C43.9349 20.4004 43.9356 20.4086 44.0141 20.4916C44.0241 20.5008 44.0456 20.5263 44.1103 20.5736C44.1251 20.5818 44.1777 20.6304 44.3167 20.6748C44.3891 20.6952 44.502 20.7235 44.6718 20.6874C44.8423 20.67 45.1164 20.441 45.1638 20.2746C45.2746 19.9443 45.1895 19.8621 45.2014 19.8532C45.1951 19.8247 45.189 19.8041 45.1836 19.7871C45.1404 19.6672 45.1412 19.6856 45.1298 19.6596C45.1131 19.6275 45.1043 19.6123 45.0932 19.593C44.9806 19.4138 44.9271 19.3768 44.8775 19.3193C44.7999 19.2377 44.7517 19.1808 44.7426 19.1606C44.7237 19.1356 44.8116 19.2004 44.7876 19.4163C44.7778 19.4748 44.76 19.5458 44.6958 19.6382C44.6348 19.7297 44.5067 19.8249 44.3953 19.8572C44.3607 19.8683 44.3286 19.8753 44.3 19.8796C44.3452 19.8775 44.3862 19.8811 44.4189 19.8804C44.4932 19.8686 44.5495 19.9269 44.3695 19.8394C44.4059 19.8629 44.4338 19.8816 44.4495 19.893C44.5026 19.9148 44.3947 19.9262 44.3347 19.6166C44.3313 19.5802 44.3349 19.5614 44.3357 19.5596C44.3433 19.5619 44.2883 19.7477 44.2387 19.9263C44.2298 19.9598 44.2212 19.9928 44.2129 20.0259C44.1036 20.4522 44.0825 20.8658 43.9349 21.1901C43.9291 21.2028 43.9234 21.2154 43.9177 21.2278C43.9116 21.2412 43.9054 21.2547 43.8995 21.268C43.8363 21.4082 43.7794 21.5478 43.7265 21.6797C43.7001 21.7454 43.6746 21.8095 43.6516 21.8635C43.6404 21.8898 43.6293 21.9145 43.6233 21.9264C43.6365 21.9257 43.5525 21.9772 43.7439 21.7993Z" fill="white"/>
<path d="M38.8452 19.1227C38.6826 19.1227 38.5266 19.1873 38.4116 19.3023C38.2965 19.4173 38.2319 19.5733 38.2319 19.736C38.2319 19.8986 38.2965 20.0546 38.4116 20.1696C38.5266 20.2846 38.6826 20.3492 38.8452 20.3492C38.8366 20.3478 38.9197 20.3565 38.9847 20.3678C39.1997 20.4037 39.44 20.4534 39.6746 20.5014C39.6758 20.5016 39.677 20.5019 39.6782 20.5021C40.4566 20.6615 41.221 20.8955 41.9292 21.0604C41.9326 21.0613 41.936 21.0621 41.9394 21.063C42.112 21.1067 42.2676 21.1616 42.3996 21.2229C42.5595 21.2905 42.5441 21.3275 42.9856 21.5087C42.9884 21.5097 42.9915 21.5101 42.9947 21.5099C43.0008 21.5069 43.0092 21.4953 43.0192 21.4771C43.0573 21.4077 43.1193 21.2423 43.178 21.0964C43.2286 20.9342 43.319 20.8799 43.2546 20.7624C43.2528 20.7551 43.2514 20.7466 43.251 20.7379C43.2828 20.5935 43.3039 20.6492 43.2996 20.6366C43.2989 20.6371 43.2923 20.6401 43.2852 20.6428C43.2704 20.6486 43.2513 20.655 43.2313 20.6616C43.1979 20.6728 43.1703 20.6967 43.1545 20.7282C43.1387 20.7597 43.1362 20.7962 43.1473 20.8296C43.1584 20.863 43.1824 20.8907 43.2139 20.9064C43.2454 20.9222 43.2819 20.9248 43.3153 20.9136C43.3153 20.9136 43.3153 20.9136 43.3153 20.9136C43.3355 20.9069 43.3567 20.9 43.3815 20.8904C43.3941 20.8854 43.4072 20.8802 43.4251 20.8708C43.4383 20.8479 43.4828 20.8929 43.5164 20.7261C43.516 20.7161 43.5144 20.7062 43.5122 20.6976C43.4311 20.546 43.4808 20.4807 43.4988 20.3036C43.5232 20.1439 43.5502 19.9666 43.5533 19.8854C43.5541 19.8641 43.5533 19.8495 43.5502 19.8434C43.5511 19.8425 43.5518 19.842 43.5523 19.8422C43.599 19.8683 43.2214 19.6745 42.9777 19.608C42.7096 19.5261 42.4517 19.4854 42.2044 19.4595C42.2002 19.4591 42.196 19.4587 42.1917 19.4583C41.3934 19.389 40.6413 19.4465 39.9258 19.3008C39.9245 19.3006 39.9233 19.3003 39.9221 19.3001C39.6804 19.2507 39.446 19.2015 39.1822 19.1572C39.0891 19.1437 39.014 19.1261 38.8452 19.1227Z" fill="white"/>
<path d="M39.4055 18.785C39.256 18.7685 39.1061 18.8121 38.9888 18.9061C38.8715 19.0001 38.7963 19.1369 38.7798 19.2863C38.7633 19.4358 38.8068 19.5856 38.9009 19.703C38.9949 19.8203 39.1316 19.8955 39.2811 19.912C39.2811 19.912 39.2811 19.912 39.2811 19.912C39.3579 19.9205 39.4406 19.9304 39.5228 19.9399C39.7478 19.966 39.9749 19.9907 40.2012 20.0132C40.2034 20.0135 40.2056 20.0137 40.2079 20.0139C40.9697 20.111 41.7639 20.5974 42.4755 20.84C42.4821 20.8424 42.4887 20.8446 42.4953 20.8468L42.5103 20.8519C42.7309 20.9222 43.1719 20.9235 43.5327 20.9663C43.5435 20.9677 43.5553 20.9674 43.5678 20.9656L43.5427 20.9516C43.5462 20.9486 43.549 20.9447 43.547 20.9368C43.5453 20.9324 43.5436 20.928 43.5345 20.9175C43.5174 20.889 43.5409 20.9549 43.4106 20.7571C43.3933 20.723 43.3723 20.6762 43.3613 20.6053C43.3406 20.5207 43.3736 20.3199 43.4753 20.217C43.6534 20.0432 43.7337 20.0735 43.7778 20.0593C43.8456 20.0537 43.8693 20.0606 43.8833 20.0629C43.9151 20.0696 43.9187 20.0742 43.9256 20.0786C43.9363 20.0871 43.9352 20.0934 43.9339 20.0996C43.9302 20.1118 43.9196 20.1228 43.9083 20.1342C43.8852 20.1568 43.8567 20.1802 43.8278 20.204C43.7696 20.2513 43.7076 20.2995 43.6509 20.3339C43.6343 20.3441 43.6141 20.3655 43.5977 20.3851C43.5812 20.4052 43.5699 20.4219 43.5632 20.4397C43.5565 20.4576 43.554 20.4776 43.5533 20.5036C43.5527 20.5291 43.5539 20.5586 43.5597 20.5771C43.5597 20.5771 43.5597 20.5771 43.5597 20.5771C43.5799 20.6404 43.5948 20.7175 43.6138 20.7929C43.6234 20.8307 43.6339 20.868 43.6495 20.9037C43.6578 20.9216 43.6667 20.939 43.6827 20.957C43.6911 20.966 43.6999 20.9751 43.7208 20.9859C43.7328 20.9914 43.7408 20.997 43.7783 21.0044C43.7945 21.0068 43.8214 21.014 43.8913 21.0081C43.9368 20.9937 44.0184 21.0237 44.1973 20.8491C44.2994 20.7457 44.3326 20.5441 44.3117 20.4589C44.3007 20.3875 44.2795 20.3402 44.2618 20.3055C44.1284 20.1025 44.1461 20.1642 44.1245 20.1323C44.11 20.1178 44.1037 20.1102 44.0964 20.1021C44.0841 20.0875 44.0765 20.0772 44.0686 20.0674L44.0435 20.0534C44.0371 20.0417 44.0299 20.0315 44.0219 20.0231C43.7335 19.7338 43.5194 19.406 43.0542 19.2272L43.0691 19.2324C43.0607 19.2292 43.0523 19.2261 43.0439 19.2232C42.1348 18.919 41.2542 19.0041 40.3202 18.8857C40.318 18.8855 40.3159 18.8853 40.3137 18.8851C40.0933 18.8631 39.8741 18.8393 39.6533 18.8136C39.572 18.8042 39.4915 18.7946 39.4055 18.785Z" fill="white"/>
<path d="M39.6108 19.2148C39.6781 19.3494 39.7961 19.4518 39.9388 19.4994C40.0816 19.547 40.2374 19.5359 40.372 19.4686C40.5066 19.4013 40.6089 19.2833 40.6565 19.1405C40.7041 18.9978 40.693 18.842 40.6257 18.7074C40.6257 18.7074 40.6257 18.7074 40.6257 18.7074C40.6006 18.657 40.6812 18.799 40.6478 18.9485C40.6478 18.9485 40.6478 18.9486 40.6478 18.9486C40.6247 19.0751 40.5813 19.2066 40.496 19.2969C40.4543 19.3422 40.409 19.3719 40.3717 19.3819C40.3715 19.382 40.3713 19.3821 40.3711 19.3821C40.655 19.3459 41.3081 19.6486 41.9931 19.9327C41.9943 19.9332 41.9955 19.9337 41.9967 19.9342C42.2978 20.059 42.5629 20.2198 42.942 20.4096C42.9422 20.4097 42.9424 20.4097 42.9425 20.4098C43.2786 20.5617 43.5229 20.6487 43.5404 20.6719C43.5404 20.672 43.5405 20.672 43.5406 20.6721L43.6581 20.7256C43.7662 20.7646 43.9286 20.7526 43.9644 20.6916C43.9644 20.6756 43.9626 20.6666 43.9058 20.5985C43.9033 20.5955 43.9009 20.5923 43.8984 20.5889L43.6749 20.0829C43.6658 19.9436 43.7193 19.75 43.8071 19.6309C43.8947 19.5077 43.9753 19.4562 44.0342 19.4211C44.1485 19.3591 44.1964 19.3588 44.233 19.3548C44.3008 19.3528 44.3177 19.3723 44.3319 19.3923C44.3562 19.4342 44.3505 19.492 44.3442 19.5539C44.3287 19.6781 44.2978 19.8223 44.2696 19.9236C44.2642 19.9426 44.2591 19.9746 44.2554 20.0014C44.2516 20.0288 44.2495 20.0488 44.2495 20.0681C44.2495 20.0874 44.2516 20.1075 44.2554 20.1349C44.2591 20.1617 44.2642 20.1936 44.2696 20.2127C44.2989 20.3139 44.3253 20.4583 44.3673 20.5813C44.3897 20.6425 44.4127 20.6994 44.4656 20.7385C44.494 20.7571 44.5255 20.7747 44.6069 20.7691C44.6505 20.7633 44.7053 20.7606 44.8257 20.695C44.8878 20.6578 44.971 20.6041 45.0607 20.4779C45.1506 20.3558 45.205 20.1586 45.1958 20.0158L44.7833 19.4765L44.9722 19.5097C44.9684 19.505 44.9646 19.5004 44.9608 19.4961C44.8688 19.3949 44.8264 19.3595 44.7851 19.3185C44.5786 19.1188 44.478 19.0091 44.3259 18.9485L44.4434 19.002C44.4428 19.0017 44.4422 19.0014 44.4416 19.001C44.0132 18.783 43.7495 18.7915 43.6206 18.7478C43.6205 18.7478 43.6204 18.7478 43.6202 18.7477C43.3174 18.6503 42.9084 18.4998 42.5049 18.3949C42.5032 18.3944 42.5016 18.394 42.4999 18.3935C41.8643 18.272 41.1964 17.8366 40.0663 18.0613C40.0659 18.0614 40.0654 18.0615 40.065 18.0616C39.9866 18.0812 39.9013 18.126 39.8236 18.1932C39.6683 18.3254 39.5716 18.528 39.5333 18.735C39.5333 18.7351 39.5333 18.7352 39.5333 18.7353C39.4821 18.9682 39.5981 19.1923 39.6108 19.2148Z" fill="white"/>
<path d="M39.5314 19.9038C39.4731 19.7658 39.3624 19.6567 39.2237 19.6003C39.0849 19.544 38.9295 19.5451 38.7915 19.6033C38.6535 19.6616 38.5444 19.7723 38.488 19.9111C38.4317 20.0498 38.4328 20.2053 38.491 20.3433C38.491 20.3433 38.491 20.3433 38.491 20.3433C38.6394 20.6214 38.6848 20.5973 38.7452 20.6629C38.8004 20.7089 38.8478 20.7436 38.8941 20.7767C39.222 21.005 39.5122 21.1736 39.8001 21.3618C39.8011 21.3625 39.8022 21.3632 39.8033 21.3639C40.1065 21.5566 40.2803 21.9021 40.6312 22.1696C40.632 22.1703 40.6329 22.171 40.6338 22.1716C41.3942 22.7304 42.1083 23.25 42.8189 23.7524C42.8193 23.7527 42.8197 23.7529 42.82 23.7532L42.6083 23.5355C42.6316 23.5671 42.7382 23.547 42.8391 23.4979C42.8813 23.4731 42.9116 23.4544 42.9591 23.3526C42.9597 23.3513 42.9604 23.3501 42.961 23.3488L43.1659 23.0056C43.3789 22.9028 43.404 22.9753 43.4251 22.9939C43.4412 23.023 43.4329 23.0553 43.4206 23.0873C43.3944 23.1513 43.3469 23.2162 43.3036 23.268C43.2922 23.2815 43.2785 23.306 43.2676 23.3272C43.2565 23.3489 43.2492 23.3654 43.245 23.3822C43.2408 23.3989 43.2395 23.417 43.239 23.4413C43.2387 23.4651 43.2393 23.4932 43.2429 23.5105C43.2429 23.5105 43.2429 23.5105 43.2429 23.5105C43.2577 23.5768 43.2683 23.6565 43.3009 23.7315C43.3181 23.7689 43.3394 23.8058 43.3855 23.8364C43.436 23.8559 43.4932 23.9284 43.7315 23.8089L43.7814 23.2963L43.9364 23.4657C43.9372 23.4636 43.9379 23.4614 43.9386 23.4593C43.9928 23.2858 44.0048 23.1958 44.025 23.1031C44.0683 22.8859 44.085 22.7112 44.0102 22.5953L43.7984 22.3777C43.798 22.3774 43.7976 22.3771 43.7972 22.3768C43.0323 21.8363 42.2137 21.3949 41.4681 20.9552C41.4675 20.9548 41.4669 20.9544 41.4662 20.954C41.1835 20.7849 40.7645 20.6371 40.4181 20.4165C40.4168 20.4157 40.4156 20.4149 40.4143 20.4141C40.1139 20.2184 39.7979 20.0308 39.5497 19.8571C39.5177 19.8344 39.4878 19.8118 39.4695 19.7963C39.4571 19.799 39.4253 19.7121 39.5314 19.9038Z" fill="white"/>
<path d="M39.5307 20.4269C39.5231 20.2891 39.4611 20.16 39.3582 20.0679C39.2554 19.9759 39.1203 19.9285 38.9825 19.9361C38.8447 19.9437 38.7156 20.0057 38.6236 20.1085C38.5316 20.2114 38.4841 20.3465 38.4918 20.4843C38.4918 20.4843 38.4918 20.4843 38.4918 20.4843C38.5001 20.6318 38.5147 20.7717 38.5336 20.9123C38.5774 21.2261 38.6358 21.534 38.7508 21.8638C38.7509 21.8641 38.751 21.8644 38.7511 21.8647C39.0635 22.6963 39.3484 23.4766 39.6824 24.1941C39.6826 24.1945 39.6828 24.1949 39.683 24.1954C39.9603 24.8167 40.2527 25.4841 40.5881 26.1049C40.5887 26.106 40.5893 26.1072 40.5899 26.1083C40.8047 26.5165 41.1091 26.9407 41.2921 27.2231C41.2927 27.224 41.2932 27.2248 41.2938 27.2257L41.3556 27.3123C41.4398 27.4133 41.5832 27.4653 41.7281 27.4917C41.7817 27.5013 41.8359 27.508 41.8833 27.509C41.9263 27.4999 41.9847 27.5396 41.9527 27.4213C41.9518 27.4178 41.9509 27.414 41.9501 27.41L42.0281 26.8998C42.1556 26.7576 42.2989 26.7411 42.36 26.7377C42.4263 26.7356 42.4581 26.7446 42.4808 26.7504C42.5257 26.7637 42.5397 26.7751 42.5506 26.7842C42.5705 26.8028 42.5694 26.8163 42.5668 26.8299C42.5596 26.8566 42.5368 26.882 42.5118 26.9084C42.4607 26.9608 42.396 27.0156 42.3436 27.0531C42.33 27.0628 42.3107 27.0816 42.2949 27.0978C42.2788 27.1144 42.2675 27.1272 42.2584 27.1407C42.2494 27.1542 42.242 27.1696 42.2328 27.1909C42.2239 27.2117 42.2141 27.2367 42.2103 27.253C42.2103 27.253 42.2103 27.253 42.2103 27.253C42.1963 27.316 42.17 27.3965 42.158 27.4734C42.1525 27.5121 42.1495 27.5495 42.1627 27.5871C42.1702 27.6061 42.1794 27.6248 42.2101 27.6477C42.2262 27.6588 42.2459 27.6722 42.2964 27.6866C42.3218 27.6929 42.3567 27.7024 42.4258 27.7C42.4898 27.6964 42.636 27.6791 42.7654 27.5347L42.7602 26.9849L42.8435 27.0244C42.8419 27.0188 42.8403 27.0134 42.8387 27.0082C42.7686 26.8161 42.7688 26.7958 42.7575 26.7245C42.7496 26.6642 42.7475 26.6103 42.7454 26.559C42.74 26.4219 42.7366 26.307 42.6807 26.2355L42.7425 26.3221C42.7417 26.3206 42.7408 26.3192 42.7399 26.3178C42.4604 25.8895 42.2639 25.6273 42.0748 25.288C42.0742 25.2869 42.0736 25.2858 42.0729 25.2847C41.7275 24.6753 41.3597 24.103 40.9764 23.4846C40.9761 23.4842 40.9758 23.4837 40.9755 23.4832C40.5322 22.7975 39.984 22.1907 39.7313 21.5156C39.7312 21.5154 39.7312 21.5152 39.7311 21.515C39.6543 21.2974 39.6002 21.033 39.5647 20.773C39.549 20.6563 39.5369 20.5384 39.5307 20.4269Z" fill="white"/>
<path d="M41.2988 26.2651C41.2835 26.1575 41.2261 26.0605 41.1392 25.9952C41.0523 25.93 40.9431 25.9019 40.8355 25.9172C40.7279 25.9325 40.6308 25.9899 40.5656 26.0768C40.5004 26.1637 40.4723 26.2729 40.4876 26.3805C40.4876 26.3805 40.4876 26.3805 40.4876 26.3805C40.5255 26.6118 40.5885 26.7699 40.6603 26.941C40.7022 27.0377 40.7481 27.1314 40.7974 27.2225C40.7982 27.224 40.799 27.2256 40.7998 27.2271C41.1327 27.7775 41.3556 28.2162 41.8788 28.6959C41.884 28.7001 41.8891 28.7042 41.8943 28.7085C41.9779 28.757 42.0191 28.8738 42.3848 28.8914C42.4176 28.8904 42.453 28.887 42.4904 28.8801C42.8149 28.8112 42.9499 28.6336 43.0378 28.5275C43.1242 28.4133 43.1719 28.3183 43.2139 28.2289C43.2948 28.0513 43.3429 27.8958 43.3861 27.7434C43.4702 27.4412 43.5243 27.1498 43.5745 26.88C43.5756 26.8745 43.5766 26.8689 43.5776 26.8633C43.625 26.6097 43.6615 26.3636 43.7055 26.1357C43.7061 26.1325 43.7067 26.1293 43.7073 26.1261C43.7575 25.8402 43.8824 25.5718 43.976 25.1278C43.9762 25.1271 43.9763 25.1265 43.9765 25.1258C44.0278 24.9227 44.2615 24.4519 44.4046 24.0401C44.4047 24.0399 44.4048 24.0396 44.4049 24.0394C44.5671 23.568 44.5575 23.1614 44.5856 22.8591C44.5857 22.8578 44.5858 22.8565 44.5859 22.8553C44.5636 22.8468 44.72 22.5654 44.7955 22.1235C44.7998 22.0934 44.8034 22.0628 44.8062 22.0316L44.8038 22.0545C44.8038 22.0545 44.8038 22.0545 44.8038 22.0545C44.8017 22.0554 44.814 22.0217 44.8376 21.8758C44.8376 21.8758 44.8376 21.8757 44.8376 21.8757C44.8571 21.7129 44.8322 21.8974 44.7626 21.9658C44.8539 21.8229 44.8844 21.644 44.8526 21.4721C44.8204 21.2999 44.7286 21.149 44.5922 21.0487C44.4557 20.9483 44.2842 20.9057 44.1104 20.9263C43.9368 20.9472 43.7751 21.0297 43.6659 21.1594C43.6659 21.1594 43.6659 21.1594 43.6659 21.1594C43.5021 21.349 43.4589 21.6906 43.4614 21.6757C43.4614 21.6757 43.4614 21.6757 43.4614 21.6757C43.4659 21.6597 43.439 21.7518 43.4218 21.8831C43.4217 21.8837 43.4216 21.8843 43.4216 21.8849L43.4191 21.9079C43.4186 21.9134 43.4179 21.9193 43.417 21.9256C43.422 22.0208 43.2683 22.2122 43.1967 22.7447C43.1966 22.7463 43.1964 22.7478 43.1963 22.7494C43.1699 23.1247 43.1615 23.4124 43.1001 23.5904C43.1001 23.5905 43.1001 23.5906 43.1 23.5907C42.9811 23.9812 42.8236 24.2687 42.6825 24.8891C42.6819 24.8928 42.6813 24.8965 42.6807 24.9003C42.6509 25.1292 42.523 25.502 42.4554 25.8903C42.4546 25.8946 42.4539 25.8989 42.4531 25.9033C42.4067 26.1617 42.3698 26.405 42.3288 26.638C42.3279 26.6431 42.327 26.6482 42.3261 26.6534C42.2786 26.9273 42.2337 27.1816 42.1732 27.4138C42.1435 27.5278 42.1086 27.6376 42.0758 27.7125C42.0604 27.7489 42.0431 27.7768 42.0461 27.7729C42.0505 27.776 42.0786 27.7011 42.265 27.6583C42.2935 27.6531 42.32 27.6506 42.3437 27.6499C42.6034 27.6674 42.5505 27.7257 42.5473 27.7187C42.5454 27.7183 42.5434 27.7177 42.5414 27.717C42.2221 27.5608 41.7237 27.1952 41.5201 26.8366C41.5195 26.8354 41.5189 26.8342 41.5182 26.8331C41.4794 26.7612 41.4437 26.6883 41.4121 26.6153C41.3586 26.4933 41.3111 26.3492 41.2988 26.2651Z" fill="white"/>
<path d="M42.1293 26.8383C42.0458 26.7453 41.9288 26.6893 41.804 26.6826C41.6792 26.6759 41.5569 26.719 41.4639 26.8025C41.3709 26.886 41.3149 27.003 41.3082 27.1278C41.3015 27.2526 41.3446 27.3749 41.4281 27.4679C41.4281 27.4679 41.4281 27.4679 41.4281 27.4679C41.5539 27.6076 41.699 27.7084 41.8479 27.783C42.0178 27.8674 42.1941 27.92 42.3813 27.9434C42.3831 27.9436 42.3848 27.9438 42.3866 27.944C42.727 27.9718 42.9027 27.8123 43.0183 27.7271C43.1346 27.6315 43.2177 27.5417 43.296 27.4563C43.4505 27.2849 43.5812 27.1235 43.7108 26.9624C43.9667 26.6417 44.2058 26.3292 44.4129 26.0009C44.4158 25.9961 44.4188 25.9913 44.4217 25.9866C44.8146 25.3838 45.1734 24.5187 45.2862 23.8527C45.2868 23.85 45.2874 23.8473 45.2881 23.8446C45.3569 23.5575 45.4473 23.2352 45.5336 23.0232C45.5345 23.0208 45.5355 23.0185 45.5365 23.0162C45.5732 22.9262 45.585 22.8366 45.5828 22.7388C45.5815 22.6892 45.5771 22.6387 45.5679 22.5732C45.5632 22.5398 45.5577 22.5033 45.547 22.45C45.526 22.3871 45.5536 22.3517 45.4159 22.1163L45.3837 21.579L44.3146 22.1009C44.3072 22.1126 44.3014 22.1229 44.2964 22.1322C44.216 22.3258 44.2765 22.3193 44.2935 22.3885C44.32 22.4426 44.3533 22.493 44.3788 22.5395C44.3842 22.5492 44.3892 22.5589 44.3938 22.5681C44.3942 22.569 44.3946 22.5698 44.395 22.5706C44.4661 22.6989 44.5153 22.8169 44.5605 22.959C44.5659 22.975 44.5804 22.9944 44.5948 23.0103C44.6095 23.0264 44.6229 23.0377 44.638 23.0445C44.6531 23.0512 44.6705 23.0535 44.6923 23.0536C44.7138 23.0536 44.7379 23.0513 44.7533 23.0446C44.7533 23.0446 44.7533 23.0446 44.7533 23.0446C44.8872 22.9873 45.0211 22.9044 45.1584 22.825C45.1592 22.8246 45.16 22.8242 45.1608 22.8238C45.1701 22.8192 45.1798 22.8146 45.1899 22.8104C45.2376 22.7905 45.2932 22.7744 45.3432 22.7626C45.3844 22.7661 45.467 22.6924 45.4205 22.8248C45.4166 22.8323 45.4118 22.8408 45.4056 22.851L44.3043 22.8356C44.1776 22.6185 44.2078 22.6047 44.1888 22.5629C44.1798 22.5306 44.1742 22.5155 44.1684 22.5032C44.1571 22.48 44.1468 22.4716 44.1377 22.4636C44.1195 22.449 44.1069 22.4411 44.1115 22.4295C44.1116 22.4292 44.1117 22.4289 44.1119 22.4286C43.9536 22.8257 43.8748 23.1403 43.7897 23.4909C43.789 23.494 43.7882 23.4972 43.7875 23.5004C43.6537 24.2195 43.4922 24.6782 43.1867 25.2949C43.1845 25.2993 43.1823 25.3037 43.1801 25.3081C43.0055 25.6574 42.8707 26.0234 42.7265 26.3679C42.6543 26.5395 42.5786 26.707 42.4978 26.8444C42.4585 26.9118 42.4147 26.9729 42.3865 27.0045C42.3573 27.0446 42.355 27.0027 42.4975 27.0082C42.4968 27.0081 42.4961 27.008 42.4954 27.0079C42.419 26.9987 42.3371 26.9741 42.2691 26.94C42.209 26.9102 42.16 26.8728 42.1293 26.8383Z" fill="white"/>
<path d="M42.0623 26.1737C41.8906 26.2306 41.7486 26.3534 41.6675 26.5151C41.5864 26.6767 41.5728 26.8639 41.6297 27.0356C41.6866 27.2072 41.8094 27.3492 41.9711 27.4304C42.1327 27.5115 42.3199 27.5251 42.4916 27.4682C42.4916 27.4682 42.4916 27.4682 42.4916 27.4682C42.7368 27.3736 42.7745 27.3186 42.8609 27.2597C42.9351 27.2026 42.997 27.149 43.0559 27.0956C43.1728 26.9892 43.2763 26.8844 43.376 26.7785C43.378 26.7764 43.38 26.7743 43.382 26.7721C43.6022 26.515 43.6458 26.3993 43.7431 26.2508C43.829 26.1105 43.9096 25.9789 43.9886 25.8485C44.1461 25.5875 44.295 25.333 44.4097 25.067C44.413 25.0594 44.4162 25.0518 44.4195 25.0442C44.4298 25.0199 44.44 24.9948 44.4493 24.971C44.7701 24.0461 44.8299 23.3543 44.9722 22.603C44.9749 22.5871 44.9777 22.5712 44.9804 22.5553C45.0967 21.9244 45.0874 21.211 45.0372 20.6519C45.0358 20.6313 45.0346 20.6108 45.0336 20.5914C45.0229 20.406 45.0011 20.2356 44.9648 20.0718C44.9582 20.0422 44.9505 20.0129 44.9424 19.984C44.9122 19.8715 44.857 19.6962 44.657 19.5177C44.4611 19.3424 44.1967 19.2932 44.0644 19.2977C43.782 19.311 43.7249 19.3688 43.6554 19.3956C43.5399 19.4559 43.5057 19.4889 43.4677 19.5184C43.3996 19.5753 43.3654 19.6126 43.3295 19.6514C43.2925 19.6921 43.2605 19.7309 43.2254 19.7794C43.0733 19.9972 43.0457 20.1365 43.0147 20.2164C42.9857 20.3041 42.9641 20.3762 42.9425 20.4491C42.9005 20.5919 42.8632 20.7275 42.8291 20.8641C42.8233 20.8874 42.8175 20.9105 42.8116 20.9347C42.5854 21.8559 42.3765 22.7679 42.1559 23.67C42.1481 23.7018 42.1396 23.7362 42.1318 23.7677C41.9903 24.3706 41.8482 24.8167 41.7304 25.622C41.7283 25.6533 41.7253 25.6839 41.7268 25.7533C41.7331 25.8098 41.7152 25.8145 41.7721 26.0227C41.7904 26.0701 41.7994 26.1347 41.9098 26.2932C42.0073 26.4306 42.2544 26.6627 42.6389 26.6711C42.8116 26.6744 42.9519 26.6297 43.0489 26.5845C43.1195 26.5511 43.1585 26.5252 43.1981 26.4974C43.2734 26.443 43.3169 26.3978 43.3504 26.3611C43.5811 26.0828 43.5936 25.9419 43.6376 25.8179C43.6718 25.6969 43.6888 25.6013 43.7031 25.512C43.7302 25.3351 43.7424 25.1856 43.753 25.0406C43.7731 24.7539 43.7819 24.4909 43.7982 24.2506C43.7996 24.2295 43.8011 24.2085 43.8027 24.1881C43.8611 23.4191 43.8493 22.6099 43.7181 21.8222C43.7128 21.7897 43.7074 21.7568 43.7023 21.7261C43.6137 21.22 43.5512 20.7311 43.3778 20.1261C43.3644 20.0816 43.35 20.0365 43.3344 19.9905C43.2845 19.8505 43.2352 19.5646 43.1542 19.2442C43.1425 19.1983 43.1286 19.1515 43.113 19.1039C43.1079 19.0895 43.1059 19.0768 43.0791 19.0048C43.0704 18.983 43.0629 18.9617 43.0365 18.9087C43.0245 18.8855 43.0051 18.8472 42.9651 18.7899C42.9466 18.7642 42.9171 18.7225 42.8585 18.6639C42.7922 18.6062 42.7493 18.5419 42.5174 18.4492C42.304 18.3612 41.9607 18.3897 41.7692 18.5044C41.6698 18.5571 41.5919 18.624 41.5445 18.6725C41.5086 18.7092 41.4806 18.7436 41.4576 18.7749C41.3647 18.9083 41.3555 18.9556 41.3369 18.9986C41.3038 19.0919 41.3043 19.1054 41.2959 19.1413C41.2681 19.3045 41.2787 19.2984 41.2757 19.3418C41.2753 19.4056 41.2778 19.4481 41.28 19.4926C41.2845 19.5797 41.2895 19.6589 41.2904 19.7372C41.2908 19.7675 41.2911 19.7966 41.2915 19.8274C41.3045 20.7284 41.2713 21.6075 41.2703 22.4837C41.2702 22.5219 41.2702 22.5606 41.2701 22.5986C41.2685 23.2304 41.2601 23.863 41.243 24.4905C41.2417 24.5359 41.2404 24.5813 41.239 24.6263C41.239 24.6262 41.239 24.6254 41.2395 24.6158C41.2428 24.5958 41.232 24.6207 41.26 24.4748C41.2672 24.4439 41.2765 24.4045 41.301 24.3397C41.3136 24.3072 41.3302 24.2679 41.3579 24.2173C41.383 24.1927 41.5218 23.8238 42.0719 23.7168C42.3362 23.6718 42.598 23.758 42.74 23.8483C42.8873 23.9448 42.876 23.949 42.9263 23.9943C42.9996 24.0682 43.0373 24.1247 43.0656 24.169C43.1186 24.2544 43.1397 24.3128 43.1472 24.3306C43.1752 24.4035 43.1804 24.4328 43.1834 24.4429C43.1903 24.4709 43.1905 24.4741 43.1913 24.478C43.1926 24.4847 43.1884 24.4603 43.1855 24.4408C43.179 24.3986 43.1717 24.3481 43.1645 24.2986C43.1499 24.1985 43.1346 24.0953 43.1186 23.9922C43.0866 23.7857 43.052 23.579 43.0143 23.3723C43.0116 23.3572 43.0088 23.3419 43.0059 23.3266C42.8737 22.6575 42.6532 22.1501 42.4502 21.65C42.4423 21.6308 42.4342 21.6114 42.4264 21.5925C42.0676 20.7351 41.5531 19.7915 40.6777 19.1171C40.651 19.0962 40.6229 19.0777 40.5957 19.0607C40.5909 19.0628 40.5714 19.0538 40.5552 19.0391C40.5456 19.0305 40.5256 19.0114 40.5279 19.0136C40.5178 19.0037 40.5066 18.9921 40.4773 18.9664C40.4618 18.9532 40.4429 18.9365 40.4024 18.9075C40.3815 18.8929 40.3553 18.8749 40.3117 18.8506C40.2897 18.8384 40.2631 18.8246 40.2274 18.8092C40.184 18.794 40.1786 18.778 40.001 18.7433C39.8571 18.7176 39.5089 18.7077 39.208 18.977C38.9138 19.2492 38.8915 19.5589 38.8914 19.6948C38.9067 19.9812 38.9564 20.0198 38.9745 20.0783C39.0162 20.1687 39.036 20.1928 39.0399 20.2005C39.0468 20.2114 39.0519 20.2192 39.0563 20.2256C39.0729 20.2501 39.0808 20.2604 39.0838 20.2646C39.0918 20.2754 39.0983 20.2839 39.102 20.2887C39.1111 20.3007 39.1172 20.3086 39.1243 20.3177C39.1372 20.3342 39.1488 20.3491 39.1611 20.3648C39.1843 20.3943 39.2069 20.4232 39.2299 20.4525C39.275 20.5101 39.3197 20.5673 39.3643 20.6249C39.4538 20.7403 39.5417 20.855 39.6294 20.9708C39.8045 21.2022 39.9769 21.4357 40.1455 21.6706C40.1551 21.6838 40.1646 21.6971 40.1741 21.7105C40.3709 21.9851 40.4849 22.2546 40.6306 22.6376C40.6379 22.6567 40.6451 22.6756 40.6525 22.6951C40.8677 23.2642 41.0742 23.905 41.1683 24.3925C41.1712 24.4089 41.1736 24.4233 41.1743 24.4235C41.175 24.4262 41.1746 24.4228 41.1736 24.3993C41.1762 24.3681 41.1589 24.3546 41.1971 24.1584C41.2121 24.1 41.2256 24.036 41.2922 23.9113C41.3478 23.8072 41.494 23.6056 41.7461 23.4945C42.2937 23.2941 42.5061 23.496 42.592 23.52C42.7672 23.6215 42.766 23.6451 42.7957 23.6694C42.8577 23.7383 42.8203 23.7051 42.8081 23.69C42.7709 23.6477 42.7206 23.5801 42.6755 23.5098C42.6655 23.4941 42.6556 23.4786 42.645 23.4619C42.1928 22.7358 41.7402 21.9466 41.2725 21.1705C41.2565 21.144 41.2397 21.1162 41.2238 21.0899C40.885 20.5088 40.3282 19.7813 39.9718 19.401C39.9674 19.3958 39.9714 19.4006 39.9865 19.4286C39.9602 19.383 39.9408 19.3532 39.9269 19.331C39.9173 19.3159 39.9096 19.3035 39.9119 19.3072C39.9136 19.3103 39.9166 19.3141 39.9332 19.3462C39.9423 19.3654 39.9536 19.3823 39.9814 19.4612C39.9942 19.5114 40.0203 19.5425 40.0299 19.7459C40.025 19.8426 40.0434 20.0302 39.8477 20.3161C39.7543 20.4472 39.6036 20.5651 39.4634 20.6241C39.3402 20.6775 39.2325 20.6954 39.1452 20.7012C38.8826 20.7076 38.8112 20.6251 38.8104 20.6316C38.8082 20.6294 38.8507 20.6616 38.898 20.7048C38.9965 20.7934 39.1267 20.9226 39.2667 21.0521C39.5484 21.3146 39.8863 21.5897 40.2713 21.8078C40.2914 21.8192 40.3116 21.8305 40.3321 21.8417C40.6611 22.0454 41.2162 22.0988 41.5086 22.0334C41.5392 22.0285 41.5677 22.0234 41.5942 22.0184C41.9362 21.9809 42.3595 21.6252 42.4653 21.3601C42.5939 21.0952 42.6082 20.922 42.6271 20.7814C42.6538 20.5114 42.6466 20.3203 42.6557 20.2644C42.6559 20.2628 42.6561 20.2615 42.6562 20.2607C42.661 20.2111 42.6894 20.0981 42.7473 19.9998C42.7497 19.9956 42.7522 19.9914 42.7547 19.9871C42.7198 20.0361 42.6466 20.0704 43.236 19.7359C43.2472 19.7281 43.2586 19.72 43.2701 19.7115C43.5337 19.5122 43.6315 19.2943 43.6892 19.1486C43.6957 19.1314 43.7015 19.1148 43.7067 19.0987C43.7249 19.0402 43.7531 18.9542 43.7614 18.8064C43.7711 18.6636 43.7378 18.4311 43.6243 18.2437C43.3764 17.8621 43.1452 17.8281 43.0339 17.7797C43.0043 17.7701 42.9778 17.7627 42.9529 17.7564C42.5307 17.6652 42.21 17.6675 41.7491 17.8269C41.7229 17.8375 41.7024 17.845 41.6442 17.8743C41.6965 17.8515 41.7574 17.8098 41.9517 17.7828C42.0013 17.7772 42.0612 17.7741 42.1346 17.7803C42.1774 17.7795 42.4369 17.823 42.6083 17.9626C43.0075 18.2731 42.9775 18.7019 42.9669 18.7888C42.9308 19.0385 42.88 19.0806 42.8748 19.1035C42.8481 19.1557 42.838 19.1693 42.8315 19.18C42.8172 19.2023 42.8155 19.2041 42.8125 19.2084C42.808 19.2146 42.8092 19.2124 42.8106 19.2101C42.814 19.2045 42.8208 19.194 42.8281 19.1825C42.8427 19.159 42.8603 19.1299 42.8796 19.0934C42.9157 19.016 42.9752 18.9317 43.006 18.6858C43.0126 18.6149 43.0138 18.5275 42.9955 18.424C42.9669 18.2442 42.8627 18.0163 42.7149 17.865C42.5679 17.7104 42.417 17.6337 42.3028 17.5872C42.0716 17.4991 41.9372 17.4947 41.8233 17.483C41.6132 17.4698 41.4378 17.4682 41.4769 17.4695C41.4596 17.4665 41.4425 17.4638 41.4252 17.4613C41.1072 17.4394 40.8764 17.3916 40.3901 17.7004C40.2599 17.7939 40.1316 17.9593 40.0741 18.1193C39.9493 18.5016 40.042 18.672 40.0702 18.7817C40.11 18.891 40.1468 18.9511 40.1795 19.0033C40.2451 19.1038 40.2992 19.1623 40.3531 19.2173C40.3662 19.2305 40.3796 19.2434 40.393 19.2559C40.4041 19.2662 40.4152 19.2762 40.4264 19.286C40.9385 19.6914 41.347 19.6889 41.7416 19.6772C41.7565 19.6761 41.7709 19.6748 41.7865 19.6731C42.0145 19.6621 42.4438 19.4885 42.6362 19.1491C42.6494 19.1275 42.6622 19.105 42.6743 19.0816C42.8725 18.7066 42.771 18.311 42.6994 18.1557C42.6964 18.1487 42.6934 18.1418 42.6904 18.1348C42.2989 17.3991 41.8808 17.2537 41.3951 17.0482L40.7596 16.8199L40.3585 17.3804C40.336 17.4124 40.3161 17.4451 40.3 17.4751C40.1432 17.8086 40.1974 17.9253 40.2045 18.0267C40.2227 18.1227 40.2511 18.1829 40.2814 18.2354C40.3431 18.3381 40.415 18.4042 40.4974 18.4743C40.5007 18.4771 40.504 18.4799 40.5074 18.4827C40.7152 18.6523 40.8129 18.601 40.9096 18.5876C41.0057 18.5661 41.0997 18.5397 41.193 18.5204C41.2367 18.5116 41.2975 18.4819 41.3485 18.453C41.4003 18.4233 41.4381 18.3968 41.4671 18.3642C41.4961 18.3315 41.5179 18.2908 41.5413 18.2359C41.5639 18.1818 41.5862 18.1178 41.5897 18.0734C41.5897 18.0734 41.5897 18.0734 41.5897 18.0734C41.5952 17.9762 41.6008 17.8733 41.6081 17.7756C41.6175 17.685 41.6202 17.5621 41.7613 17.6348C41.7634 17.6359 41.7656 17.6369 41.7677 17.6379C41.8203 17.6626 41.8688 17.6793 41.9143 17.7302C41.9366 17.7568 41.9589 17.7903 41.9744 17.8593C41.9793 17.9339 42.0335 18.0222 41.8892 18.3313C41.8743 18.3591 41.8558 18.3896 41.8346 18.4197L40.798 18.7518C40.9222 18.7792 41.1244 18.9987 41.0266 18.8686C41.026 18.8672 41.0254 18.8657 41.0247 18.8642C40.9955 18.8066 40.9126 18.5285 41.059 18.2508C41.0677 18.2339 41.0769 18.2178 41.0863 18.2024C41.2078 17.9841 41.4988 17.8764 41.5904 17.8781C41.5972 17.8774 41.6033 17.8768 41.6094 17.8764C41.5477 17.8935 41.4603 17.8219 41.6126 17.9259C41.6158 17.9287 41.619 17.9316 41.6224 17.9347C41.6264 17.9385 41.6305 17.9424 41.6347 17.9466C41.6495 17.9621 41.6673 17.9782 41.7028 18.0319C41.7207 18.0607 41.7442 18.0962 41.7747 18.1793C41.7938 18.2632 41.8804 18.4044 41.7653 18.7603C41.712 18.909 41.5914 19.0645 41.471 19.1507C41.3142 19.2574 41.2885 19.2413 41.2499 19.2533C41.2165 19.2587 41.1942 19.2583 41.1688 19.2551C41.1659 19.2547 41.163 19.2543 41.1601 19.2538C41.4855 19.301 41.6015 19.2808 41.6799 19.2916C41.7099 19.2919 41.721 19.3058 41.6249 19.2711C41.5776 19.2515 41.4905 19.2119 41.3934 19.1103C41.2956 19.0113 41.2237 18.8515 41.2074 18.7433C41.1909 18.6497 41.1922 18.5725 41.1979 18.5118C41.2249 18.3016 41.2691 18.2507 41.2879 18.2046C41.2985 18.1837 41.3065 18.1698 41.3112 18.1611C41.3134 18.1571 41.3151 18.1539 41.3133 18.1557C41.3122 18.157 41.3108 18.1585 41.3037 18.1684C41.2994 18.1746 41.2966 18.178 41.281 18.2024C41.274 18.2139 41.2632 18.2287 41.236 18.2817C41.2307 18.305 41.1795 18.348 41.1434 18.5979C41.1328 18.685 41.1027 19.114 41.502 19.4246C41.6735 19.5642 41.9331 19.6078 41.976 19.6069C42.0494 19.6132 42.1094 19.6101 42.159 19.6045C42.3535 19.5774 42.4147 19.5357 42.4674 19.5126C42.4235 19.5348 42.4174 19.5365 42.4067 19.541C42.3565 19.5589 42.4893 19.5426 42.4888 19.558C42.4778 19.5553 42.4648 19.5518 42.4485 19.5466C42.3916 19.5167 42.2171 19.5093 41.9992 19.1789C41.9005 19.0167 41.8724 18.8141 41.8804 18.7003C41.8869 18.5816 41.9076 18.524 41.9165 18.4931C41.9175 18.4893 41.919 18.4848 41.9209 18.4798C41.9387 18.4396 41.9778 18.3248 42.1494 18.1935C42.1515 18.192 42.1533 18.1908 42.1548 18.1897C42.2216 18.1862 41.4845 18.4059 41.1327 19.0272C41.1259 19.0386 41.1193 19.05 41.1128 19.0614C40.9573 19.3358 40.8264 19.6306 40.7719 20.0072C40.7702 20.0196 40.7686 20.0316 40.7673 20.0435C40.7381 20.3349 40.7475 20.4949 40.736 20.5721C40.7351 20.6044 40.7185 20.6065 40.7687 20.4981C40.7991 20.3907 41.0732 20.1573 41.241 20.1481C41.2282 20.1505 41.2174 20.1524 41.2086 20.1538C41.1157 20.1586 41.2586 20.1662 41.245 20.1737C41.2334 20.1674 41.2219 20.161 41.2105 20.1545C40.9905 20.0302 40.7823 19.8681 40.5554 19.6581C40.4399 19.5523 40.3244 19.4366 40.1645 19.2923C40.082 19.2196 39.9929 19.1395 39.8447 19.0417C39.6995 18.955 39.4635 18.7913 39.025 18.8085C38.9366 18.8143 38.828 18.8324 38.704 18.8862C38.5627 18.9457 38.4113 19.0641 38.3173 19.196C38.1204 19.4836 38.1386 19.6733 38.1336 19.7719C38.1434 19.9794 38.1706 20.0142 38.1847 20.0683C38.215 20.1547 38.2298 20.1787 38.2424 20.2051C38.2662 20.2513 38.2774 20.2689 38.2873 20.2856C38.306 20.3166 38.3154 20.331 38.3228 20.3427C38.3325 20.358 38.3366 20.3659 38.332 20.359C38.3806 20.4463 38.4237 20.5068 38.4605 20.5555C38.6341 20.7744 38.7146 20.8518 38.8125 20.9718C38.906 21.0837 38.9952 21.1984 39.0818 21.317C39.2557 21.5553 39.4217 21.8125 39.5811 22.079C39.5961 22.1041 39.6121 22.1309 39.6274 22.1565C40.0823 22.9199 40.5196 23.6893 41.0116 24.4888C41.0241 24.5087 41.0358 24.5273 41.0479 24.5465C41.1041 24.6347 41.1551 24.7228 41.2271 24.8323C41.2694 24.892 41.2879 24.9349 41.4153 25.0699C41.4623 25.111 41.4776 25.15 41.6736 25.2628C41.7695 25.292 41.9944 25.4987 42.5528 25.2935C42.8103 25.1801 42.9607 24.9736 43.0189 24.8647C43.0885 24.7346 43.1035 24.6655 43.1199 24.601C43.163 24.3822 43.1449 24.3449 43.1465 24.2904C43.1442 24.2436 43.1413 24.2169 43.1393 24.1964C43.1334 24.1396 43.1271 24.0981 43.1201 24.057C42.9608 23.2521 42.7313 22.6449 42.4755 21.986C42.4671 21.9649 42.4589 21.9442 42.4503 21.9229C42.29 21.5125 42.0403 21.0035 41.7323 20.5899C41.7221 20.5759 41.7119 20.5618 41.7018 20.5479C41.5223 20.3002 41.3399 20.055 41.1551 19.8124C41.0627 19.691 40.97 19.5708 40.8762 19.4502C40.8294 19.3901 40.7826 19.3303 40.7361 19.2711C40.7125 19.241 40.6893 19.2116 40.6671 19.1832C40.6554 19.1684 40.6445 19.1544 40.6349 19.1421C40.6298 19.1355 40.6254 19.1299 40.6229 19.1266C40.622 19.1254 40.621 19.1241 40.6244 19.1287C40.6256 19.1305 40.629 19.1345 40.6437 19.1561C40.6475 19.1617 40.6521 19.1688 40.6587 19.1791C40.6623 19.1863 40.6811 19.2088 40.7226 19.2987C40.7406 19.357 40.7902 19.3954 40.8055 19.6816C40.8054 19.8174 40.7831 20.1271 40.489 20.3992C40.1881 20.6685 39.84 20.6586 39.6961 20.6329C39.5186 20.5982 39.5132 20.5822 39.4699 20.567C39.4343 20.5516 39.4077 20.5379 39.3858 20.5258C39.3422 20.5015 39.3162 20.4836 39.2955 20.4691C39.2552 20.4402 39.2367 20.4239 39.2216 20.411C39.1932 20.3861 39.1831 20.3756 39.1744 20.3671C39.2175 20.4096 39.2394 20.4296 39.2723 20.4596C39.3174 20.5002 39.3608 20.545 39.4215 20.5973C39.4381 20.6137 39.4546 20.6298 39.4718 20.6436C39.9601 21.0226 40.3122 21.6274 40.602 22.3414C40.6095 22.3598 40.617 22.3785 40.6244 22.3969C40.8127 22.8626 40.9861 23.3292 41.0525 23.6865C41.0551 23.7005 41.0576 23.7144 41.0602 23.7283C41.0946 23.9172 41.1264 24.1063 41.1562 24.2974C41.1712 24.3932 41.1855 24.4888 41.2001 24.5874C41.2075 24.637 41.2147 24.6866 41.2235 24.7434C41.2284 24.7741 41.2317 24.7979 41.2424 24.8549C41.2458 24.8715 41.2484 24.8867 41.2583 24.9267C41.2624 24.9412 41.2702 24.9798 41.2998 25.0566C41.3077 25.0757 41.33 25.1366 41.3837 25.223C41.4124 25.268 41.4505 25.325 41.5242 25.3993C41.5747 25.4448 41.5634 25.4491 41.7112 25.5458C41.8535 25.6364 42.1158 25.7227 42.3804 25.6776C42.9312 25.5706 43.0709 25.2005 43.0963 25.1753C43.1243 25.1243 43.1411 25.0845 43.154 25.0513C43.179 24.9853 43.1886 24.9443 43.1963 24.9115C43.2268 24.7539 43.2167 24.7661 43.2209 24.7332C43.2222 24.7101 43.2225 24.699 43.223 24.6843C43.2243 24.6371 43.2255 24.5895 43.2267 24.5421C43.2425 23.886 43.2417 23.2332 43.2279 22.5796C43.227 22.5403 43.2261 22.5004 43.2252 22.4611C43.2039 21.5646 43.1163 20.6698 43.0963 19.7996C43.0957 19.7707 43.0953 19.7437 43.095 19.7158C43.0941 19.6444 43.0979 19.5721 43.1037 19.5079C43.1065 19.477 43.1101 19.4446 43.1134 19.4328C43.1125 19.4384 43.1247 19.3947 43.1039 19.5211C43.0967 19.5515 43.0979 19.5619 43.0667 19.6499C43.0489 19.6908 43.0406 19.736 42.9491 19.8674C42.9265 19.8982 42.8988 19.9322 42.8632 19.9685C42.8163 20.0166 42.7389 20.0831 42.64 20.1355C42.4496 20.2497 42.1074 20.278 41.8951 20.1905C41.6645 20.0983 41.6223 20.0346 41.5569 19.9777C41.4991 19.92 41.4705 19.8794 41.4525 19.8544C41.4137 19.799 41.3957 19.7631 41.3847 19.7418C41.3605 19.6932 41.3546 19.6759 41.3477 19.6588C41.3274 19.6043 41.3305 19.61 41.3307 19.6137C41.3369 19.6424 41.3436 19.6722 41.3514 19.7032C41.4106 19.9258 41.4436 20.1978 41.571 20.5908C41.5788 20.6139 41.5867 20.6384 41.5944 20.6642C41.7024 21.0298 41.7838 21.5433 41.8672 22.0323C41.8721 22.0613 41.8769 22.0904 41.8814 22.1182C41.9866 22.749 41.9976 23.3853 41.9484 24.0493C41.9465 24.0749 41.9447 24.1007 41.943 24.126C41.9241 24.4121 41.9169 24.6771 41.902 24.9166C41.8947 25.0352 41.8851 25.1488 41.8729 25.2329C41.8672 25.2739 41.8597 25.3086 41.8582 25.3142C41.8657 25.3157 41.8334 25.304 41.9773 25.1254C42.0084 25.0912 42.0498 25.0481 42.1231 24.9951C42.1616 24.9681 42.1997 24.9427 42.2692 24.9099C42.3647 24.8654 42.5035 24.821 42.6749 24.8242C43.0566 24.8326 43.3018 25.0633 43.3976 25.1984C43.5063 25.3544 43.5143 25.4164 43.5319 25.4616C43.5855 25.6582 43.5672 25.6542 43.573 25.6978C43.5739 25.7468 43.572 25.7556 43.5717 25.7633C43.6214 25.4167 43.7784 24.7312 43.9049 24.1996C43.9128 24.1668 43.9213 24.1313 43.929 24.0985C44.1473 23.1786 44.3547 22.2622 44.5691 21.3635C44.5747 21.3403 44.58 21.3181 44.5854 21.2959C44.6169 21.1659 44.6459 21.0359 44.6747 20.9152C44.6891 20.855 44.7038 20.7961 44.7158 20.7531C44.7274 20.7035 44.7397 20.709 44.6695 20.8162C44.6583 20.8313 44.6524 20.8383 44.6431 20.8486C44.6332 20.8588 44.6265 20.8687 44.5884 20.9011C44.5655 20.9184 44.5471 20.9398 44.4488 20.9915C44.388 21.014 44.34 21.0681 44.0674 21.0811C43.9398 21.0856 43.6806 21.0377 43.4882 20.8656C43.292 20.6904 43.2387 20.5194 43.2098 20.4118C43.2129 20.4282 43.2159 20.4447 43.2196 20.4609C43.2395 20.5503 43.2589 20.637 43.2658 20.7106C43.2678 20.7341 43.2697 20.7576 43.2714 20.7802C43.3222 21.3481 43.3226 21.7767 43.2426 22.2631C43.24 22.2793 43.2373 22.2955 43.2347 22.3116C43.1112 23.0433 43.0128 23.8635 42.8526 24.3721C42.849 24.3826 42.8454 24.393 42.8421 24.402C42.8391 24.4097 42.8362 24.4174 42.8333 24.425C42.7304 24.6927 42.6619 24.972 42.5897 25.2406C42.5538 25.3742 42.5166 25.5058 42.4749 25.6242C42.4418 25.7327 42.3582 25.8792 42.3874 25.8391C42.3857 25.8408 42.3841 25.8426 42.3825 25.8443C42.3011 25.9309 42.218 26.0143 42.1393 26.0858C42.1003 26.1213 42.0615 26.1541 42.0311 26.1775C42.0118 26.1979 41.9418 26.223 42.0623 26.1737Z" fill="white"/>
<path d="M41.9015 19.8038C41.846 19.6538 41.7333 19.5319 41.588 19.465C41.4427 19.3982 41.2768 19.3917 41.1268 19.4472C40.9768 19.5026 40.8549 19.6154 40.788 19.7607C40.7212 19.9059 40.7147 20.0718 40.7702 20.2218C40.7702 20.2218 40.7702 20.2218 40.7702 20.2218C40.8177 20.35 40.8669 20.4667 40.9172 20.5821C41.1438 21.0861 41.3578 21.5371 41.6794 22.0474C41.6991 22.0771 41.7035 22.1185 41.7049 22.1683C41.7295 22.3078 41.7383 22.4654 41.8075 22.5578C41.8428 22.6048 41.8816 22.6459 41.9249 22.6829C41.9621 22.7126 42.0046 22.7437 42.0748 22.7811C42.1451 22.8125 42.2053 22.8633 42.4482 22.894C42.5669 22.9035 42.7995 22.9078 43.053 22.734C43.3064 22.5553 43.3911 22.309 43.4179 22.1844C43.512 21.6574 43.3534 21.3955 43.265 21.1841C43.1626 20.9756 43.056 20.8199 42.9496 20.6739C42.7373 20.3868 42.5211 20.1496 42.3148 19.9246C42.2796 19.8862 42.244 19.8472 42.211 19.8103C42.1891 19.7871 42.1799 19.7757 42.138 19.7358C42.1261 19.7247 42.1256 19.7234 42.0962 19.6984C42.0836 19.6877 42.0686 19.6755 42.0477 19.66C42.0372 19.6522 42.0251 19.6435 42.0102 19.6336C41.9959 19.6254 41.9839 19.6112 41.8841 19.5629C41.7893 19.5417 41.627 19.3755 41.1179 19.5605C40.8693 19.6663 40.6838 19.9201 40.6304 20.0993C40.5703 20.2838 40.5795 20.4035 40.586 20.486C40.6384 20.797 40.6625 20.7529 40.6713 20.7933C40.6947 20.8429 40.7133 20.8733 40.7206 20.8862C40.7827 20.9884 40.7959 21.0041 40.8226 21.0449C40.8702 21.1155 40.9116 21.1756 40.9538 21.2367C41.0377 21.3578 41.119 21.4739 41.2031 21.5905C41.382 21.8313 41.5072 22.0225 41.8038 22.3186L43.3917 21.1627C43.377 21.1313 43.3629 21.1035 43.3493 21.0779C43.1541 20.729 42.943 20.601 42.7598 20.4489C42.7349 20.4296 42.7109 20.4107 42.6944 20.4008L42.6684 20.3639C42.6641 20.3595 42.6598 20.3553 42.6554 20.3509C42.557 20.2517 42.4163 20.2036 42.3318 20.1792C42.2097 20.1423 42.0436 20.1559 41.8947 20.1924C41.7444 20.2303 41.6236 20.2879 41.5342 20.3773C41.4449 20.4667 41.3872 20.5875 41.3493 20.7378C41.3129 20.8866 41.2993 21.0527 41.3361 21.1749C41.3361 21.1749 41.3361 21.1749 41.3361 21.1749C41.3647 21.2629 41.3356 21.3295 41.3335 21.3576C41.3334 21.3589 41.3334 21.3602 41.3333 21.3615L41.3073 21.3247C41.329 21.3719 41.3453 21.4101 41.3606 21.4473C41.4569 21.688 41.5449 21.9418 41.5828 22.0157C41.5841 22.0181 41.5842 22.0183 41.5825 22.0146L43.1704 20.8587C43.0798 20.7733 42.858 20.5407 42.6878 20.3637C42.5981 20.2697 42.5084 20.1749 42.4231 20.0811C42.3808 20.0347 42.3387 19.9872 42.305 19.9482C42.292 19.9348 42.2638 19.8947 42.2906 19.9399C42.2944 19.9469 42.3065 19.9661 42.3272 20.0099C42.3349 20.0477 42.3563 19.9983 42.4082 20.3047C42.4146 20.3861 42.4239 20.505 42.364 20.6889C42.3108 20.8675 42.1256 21.1209 41.8776 21.2264C41.3696 21.4109 41.2091 21.245 41.1169 21.225C41.02 21.178 41.0103 21.1654 40.997 21.1578C40.9835 21.1488 40.9728 21.1411 40.9638 21.1344C40.9459 21.1211 40.9344 21.1116 40.9256 21.1042C40.9061 21.0875 40.9077 21.0882 40.9024 21.0832C40.8891 21.0697 40.8973 21.0762 40.904 21.0822C40.9404 21.1166 40.9766 21.1514 41.0109 21.1849C41.2089 21.3786 41.3903 21.5685 41.5296 21.7455C41.5984 21.8324 41.6558 21.918 41.6837 21.9701C41.7212 22.0168 41.672 22.0468 41.7069 21.8088C41.7302 21.7004 41.8074 21.47 42.047 21.301C42.2867 21.1368 42.5018 21.143 42.6041 21.1511C42.8139 21.1784 42.8431 21.2154 42.884 21.2317C42.9215 21.252 42.933 21.2628 42.9403 21.271C42.9318 21.2707 42.9203 21.2723 42.9072 21.2778C42.8825 21.2893 42.8036 21.3581 42.7546 21.3976C42.724 21.4038 42.6963 21.3987 42.6846 21.381C42.4543 21.0185 42.2166 20.5367 42.0221 20.0987C41.978 19.9976 41.9355 19.8958 41.9015 19.8038Z" fill="white"/>
<circle cx="54.3239" cy="10.7552" r="3.5" fill="white"/>
<circle cx="30.324" cy="10.7552" r="3.5" fill="white"/>
</svg>
