<svg width="85" height="70" viewBox="0 0 85 70" fill="none" xmlns="http://www.w3.org/2000/svg">
<path fill-rule="evenodd" clip-rule="evenodd" d="M81.9284 46.4601C88.4484 56.4368 81.29 69.666 69.3718 69.6661H15.0241C3.10608 69.6659 -4.05143 56.4367 2.46848 46.4601L7.56223 38.6661H76.8347L81.9284 46.4601Z" fill="#78DAE5"/>
<path d="M41.3093 5.74463C61.305 5.74464 78.0693 19.9381 78.5359 43.2446H78.6189L78.6726 43.6831C78.7421 44.2457 78.7062 45.1034 78.3367 45.8433C78.1481 46.2206 77.8671 46.5772 77.4626 46.8374C77.0565 47.0986 76.5533 47.2446 75.9509 47.2446C74.8807 47.2448 73.8965 47.9711 72.9353 49.02C72.4639 49.5345 72.0239 50.097 71.5984 50.6392C71.1804 51.1718 70.7669 51.6967 70.3718 52.0962C69.4389 53.0393 68.1369 53.0234 66.9832 52.7085C65.8169 52.3901 64.6516 51.7319 63.8025 51.1597C62.7301 50.4369 61.003 49.5762 59.2078 48.8315C57.412 48.0867 55.5929 47.4765 54.3435 47.2358C53.059 46.9885 50.1269 46.4947 46.9275 46.4946C43.7062 46.4947 40.3181 46.9961 38.0408 48.6489C36.1016 50.0565 33.5198 50.0036 31.4246 49.603C29.312 49.1991 27.55 48.4148 27.1238 48.1851C26.2583 47.7185 23.5349 46.7333 20.6121 46.3022C19.1556 46.0875 17.6768 46.0146 16.3738 46.2007C15.068 46.3872 13.9859 46.8259 13.2576 47.5894C11.1704 49.7776 9.37385 50.5064 7.97241 50.4683C6.5906 50.4303 5.64576 49.6354 5.37964 48.9185C5.29151 48.6807 5.22971 48.3311 5.18237 47.9575C5.13337 47.5706 5.09433 47.1114 5.06421 46.6294C5.00394 45.6645 4.9773 44.5827 4.97729 43.7446V43.2446H5.11694C5.55527 19.9383 21.3139 5.74486 41.3093 5.74463ZM31.0701 13.2446C29.8413 13.2449 28.8447 14.5882 28.8445 16.2446C28.8447 17.9011 29.8413 19.2443 31.0701 19.2446C32.299 19.2446 33.2955 17.9013 33.2957 16.2446C33.2954 14.588 32.299 13.2446 31.0701 13.2446ZM53.325 13.2446C52.0962 13.2449 51.0996 14.5882 51.0994 16.2446C51.0996 17.9011 52.0962 19.2443 53.325 19.2446C54.5539 19.2446 55.5503 17.9013 55.5505 16.2446C55.5503 14.588 54.5539 13.2446 53.325 13.2446Z" fill="#78DAE5"/>
<path d="M50.0996 20.7931C49.6441 22.5328 49.0346 23.706 48.293 24.4064C47.7869 24.8842 47.2333 25.1267 46.6689 25.1876C45.9297 28.3471 45.2545 30.728 44.5986 32.3331C44.2579 33.1669 43.9096 33.8257 43.5391 34.2784C43.1729 34.7258 42.7116 35.0565 42.1523 35.0245C41.6116 34.9934 41.1651 34.63 40.7979 34.1671C40.4209 33.6919 40.0531 33.0192 39.6846 32.1779C38.9701 30.547 38.2083 28.1791 37.3555 25.1202C36.9208 25.0079 36.4969 24.7788 36.1025 24.4064C35.361 23.706 34.7514 22.5327 34.2959 20.7931L35.2627 20.5392C35.6972 22.1987 36.2436 23.1635 36.7891 23.6788C37.3083 24.1692 37.8506 24.2761 38.4072 24.1632C38.9952 24.0438 39.6244 23.671 40.2305 23.1437C40.6696 22.7616 41.0772 22.3146 41.4268 21.8683H41.4258L41.7959 21.3683L42.2119 20.8077L42.6094 21.382C43.0235 21.98 43.5651 22.6217 44.165 23.1437C44.7712 23.6711 45.4003 24.0438 45.9883 24.1632C46.545 24.2762 47.0871 24.1692 47.6064 23.6788C48.152 23.1635 48.6983 22.1988 49.1328 20.5392L50.0996 20.7931ZM42.1992 22.5021C41.8191 22.9855 41.374 23.4735 40.8867 23.8976C40.2179 24.4795 39.434 24.9756 38.6064 25.1437C38.5405 25.1571 38.4743 25.1669 38.4082 25.1759C39.2214 28.0666 39.9402 30.2689 40.6006 31.7765C40.9557 32.5871 41.2824 33.1696 41.5811 33.546C41.8895 33.9348 42.1005 34.0202 42.21 34.0265C42.301 34.0316 42.4834 33.9882 42.7646 33.6447C43.0418 33.306 43.3459 32.7552 43.6729 31.9552C44.2877 30.4506 44.9365 28.1832 45.6592 25.1105C44.8798 24.9191 44.1423 24.4488 43.5088 23.8976C43.0218 23.4739 42.579 22.9852 42.1992 22.5021Z" fill="white"/>
<path d="M77.6978 37.1738C77.6575 37.0132 77.5551 36.8752 77.413 36.7901C77.271 36.7051 77.101 36.6799 76.9404 36.7202C76.7798 36.7605 76.6418 36.863 76.5567 37.005C76.4717 37.1471 76.4465 37.3171 76.4868 37.4777C76.4868 37.4777 76.4868 37.4777 76.4868 37.4777C76.6077 38.1074 76.7433 38.8917 76.8831 39.6012C76.8836 39.6036 76.884 39.6059 76.8845 39.6082C76.9758 40.0764 76.8993 40.5469 76.9808 40.9828C76.9815 40.9865 76.9822 40.9902 76.983 40.994C77.0487 41.3397 77.1137 41.6872 77.181 42.0345C77.2739 42.5142 77.3708 42.9937 77.4777 43.4709C77.4792 43.4774 77.4806 43.4839 77.4821 43.4905C77.7422 44.6505 78.0034 45.8088 78.2693 46.9699C78.2717 46.9801 78.274 46.9903 78.2763 47.0003C78.3089 47.1422 78.3411 47.282 78.3741 47.4238C78.3904 47.4942 78.4072 47.5659 78.424 47.6372C78.4326 47.6735 78.4412 47.7096 78.4502 47.7468C78.4549 47.7663 78.4592 47.7841 78.4645 47.8053C78.4672 47.8161 78.4699 47.8268 78.4732 47.8396C78.4751 47.8466 78.4769 47.8535 78.4796 47.8636C78.4809 47.8682 78.483 47.8756 78.4856 47.8845C78.4874 47.8907 78.4895 47.8977 78.4927 47.9077C78.4944 47.9132 78.4981 47.9246 78.5035 47.9396C78.5064 47.9477 78.5092 47.9554 78.5151 47.9701C78.5394 48.0098 78.5059 48.0158 78.6782 48.2321C78.7008 48.2573 78.7293 48.2866 78.7696 48.3203C78.8223 48.3614 79.0427 48.5538 79.4228 48.5211C79.8205 48.484 80.0529 48.1872 80.1143 48.0598C80.188 47.9168 80.1965 47.8419 80.2076 47.7868C80.2314 47.5687 80.2163 47.655 80.2192 47.6156C80.2183 47.5842 80.2166 47.5669 80.2152 47.5528C80.212 47.5225 80.2115 47.5217 80.2102 47.5121C80.2079 47.4964 80.2067 47.4894 80.2057 47.4835C80.2034 47.4708 80.2024 47.4657 80.2011 47.4591C80.0734 46.9162 79.994 46.6234 79.8864 46.2238C79.885 46.2189 79.8837 46.2141 79.8823 46.2093C79.6444 45.3058 79.3871 44.2867 79.1013 43.3277C79.0989 43.3196 79.0966 43.3116 79.0942 43.3035C78.6379 41.7559 78.1429 40.2351 77.7084 38.7246C77.7048 38.712 77.7013 38.6995 77.6977 38.6871C77.4811 37.9167 77.281 37.1537 77.195 36.4312C77.1933 36.4165 77.1915 36.4019 77.1898 36.3874C77.1814 36.3172 77.1735 36.2484 77.1697 36.2058C77.1671 36.1898 77.1698 36.161 77.1639 36.2242C77.1612 36.2431 77.1595 36.2696 77.1417 36.3359C77.1343 36.3618 77.1153 36.4271 77.0732 36.5048C77.0335 36.5731 76.9313 36.7654 76.6462 36.8865C76.5022 36.9475 76.3249 36.9613 76.1996 36.9408C76.0942 36.9252 76.011 36.8935 75.9478 36.8624C75.809 36.7883 75.7999 36.7674 75.756 36.731C75.6882 36.666 75.6816 36.6503 75.6645 36.6285C75.608 36.5375 75.6678 36.6287 75.6872 36.672C75.7148 36.727 75.7431 36.7871 75.7732 36.8541C75.8903 37.1153 76.0046 37.3997 76.1073 37.6905C76.1088 37.6948 76.1103 37.6991 76.1119 37.7034C76.9927 40.252 77.8156 42.8606 78.6556 45.4525C78.6597 45.4651 78.6638 45.4776 78.6678 45.49C78.8976 46.1929 79.1633 46.8719 79.4235 47.5822C79.4252 47.5868 79.4276 47.5932 79.4292 47.5975C79.4303 47.6003 79.431 47.6021 79.4314 47.6031C79.4312 47.6025 79.4321 47.605 79.4293 47.5965C79.4286 47.5943 79.4277 47.5914 79.4262 47.5866C79.4257 47.585 79.4243 47.581 79.4188 47.561C79.4177 47.5189 79.3901 47.5852 79.3969 47.2837C79.4027 47.2365 79.4104 47.1717 79.4523 47.0701C79.487 46.9876 79.5583 46.8634 79.6926 46.7622C79.8296 46.6537 80.038 46.599 80.1876 46.6112C80.489 46.6413 80.5736 46.7472 80.636 46.7904C80.6927 46.8395 80.7168 46.8704 80.735 46.8925C80.7985 46.9758 80.7961 46.9831 80.8065 46.9992C80.8166 47.0177 80.8144 47.014 80.8169 47.0188C80.8198 47.0245 80.8204 47.0256 80.8202 47.0253C80.5576 46.5058 80.2804 45.7515 80.0321 45.0855C80.0276 45.0732 80.0231 45.0608 80.0186 45.0483C79.5653 43.8097 79.1213 42.5802 78.682 41.3519C78.6761 41.3357 78.6704 41.3196 78.6649 41.3037C78.4818 40.7748 78.3212 40.2856 78.2448 39.8131C78.2414 39.7948 78.2382 39.7773 78.2348 39.7585C78.1197 39.1154 78.0234 38.4349 77.8628 37.7611C77.8576 37.7393 77.8524 37.7176 77.8471 37.6958C77.6603 36.9046 77.4012 36.0402 77.2139 35.351C77.2105 35.3365 77.2079 35.3234 77.2076 35.3199C77.1829 35.1873 77.1602 35.0586 77.1435 34.9437C77.1263 34.8402 77.1188 34.6923 77.125 34.752C77.1241 34.7701 77.1265 34.7992 77.1063 34.884C77.0765 35.0218 76.9325 35.3257 76.6318 35.4751C76.3405 35.6176 76.1396 35.5789 76.0377 35.5642C75.8292 35.5189 75.791 35.4781 75.7432 35.4545C75.6644 35.4059 75.65 35.3889 75.6331 35.3755C75.6058 35.3513 75.6063 35.3508 75.6068 35.352C75.6076 35.353 75.6095 35.3555 75.6118 35.3588C75.6132 35.3449 75.7308 35.5945 75.8071 35.7746C75.8916 35.97 75.9767 36.1723 76.0618 36.3771C76.2313 36.7859 76.3995 37.2032 76.552 37.621C76.56 37.6431 76.5681 37.6653 76.5763 37.6878C77.5651 40.4137 78.54 43.1606 79.4935 45.908C79.5042 45.9392 79.5149 45.9699 79.5253 46.0001C79.6325 46.31 79.7381 46.6162 79.8424 46.9215C79.8945 47.0743 79.9472 47.2292 79.9966 47.3778C80.0209 47.451 80.0466 47.5292 80.0662 47.5927C80.0707 47.6072 80.0754 47.623 80.0768 47.6282C80.0771 47.6285 80.0784 47.6361 80.0717 47.6061C80.0697 47.5962 80.069 47.5955 80.0636 47.5615C80.0613 47.546 80.0586 47.5262 80.0565 47.4954C80.0794 47.4655 79.9645 47.4586 80.1786 46.9928C80.2581 46.876 80.352 46.7158 80.6835 46.6073C80.9885 46.5241 81.2151 46.6182 81.323 46.6743C81.5468 46.8071 81.5417 46.8477 81.5648 46.8636C81.6032 46.9073 81.6195 46.9317 81.6325 46.9505C81.6539 46.9827 81.6561 46.9877 81.6624 46.9983C81.693 47.0556 81.6546 46.9801 81.64 46.9478C81.6277 46.9221 81.6168 46.8996 81.6071 46.8792C81.3261 46.2651 81.0781 45.499 80.8036 44.7943C80.7958 44.7741 80.788 44.7538 80.78 44.7332C79.8608 42.3557 78.9522 39.9642 78.0551 37.579C78.0501 37.5657 78.0452 37.5526 78.0402 37.5395C77.7225 36.6927 77.4306 35.8977 77.1188 35.0044C77.1175 35.0009 77.1162 34.9973 77.1149 34.9937C77.1091 34.9777 77.1041 34.9585 77.1043 34.9594C77.1043 34.9611 77.1061 34.9654 77.109 34.9985C77.1101 35.0162 77.1125 35.0397 77.1092 35.095C77.0934 35.157 77.1377 35.2205 76.959 35.5169C76.9085 35.5841 76.807 35.7372 76.539 35.8431C76.2589 35.9479 76.0047 35.8854 75.874 35.8275C75.6601 35.7256 75.6344 35.6694 75.5932 35.634C75.4779 35.5013 75.5176 35.533 75.5112 35.5282C75.5147 35.5328 75.5233 35.5467 75.5325 35.5628C75.5513 35.5954 75.5738 35.6375 75.5965 35.6808C75.642 35.7682 75.6889 35.8617 75.7364 35.9575C75.8296 36.1457 75.9259 36.3453 76.019 36.5413C76.2067 36.9373 76.3884 37.3355 76.5574 37.747C76.5632 37.7614 76.5691 37.7758 76.5751 37.7903C77.8391 40.9138 79.0767 44.0629 80.2902 47.2107C80.3346 47.3263 80.3824 47.451 80.4264 47.5661C80.4281 47.5704 80.4297 47.5746 80.4313 47.5789C80.8661 48.7331 81.3536 49.9177 81.6891 51.0213C81.6892 51.0218 81.6894 51.0223 81.6895 51.0228C81.7326 51.1745 81.8098 51.3509 81.8267 51.3996C81.8712 51.5811 81.9914 51.7421 82.1528 51.8486C82.3147 51.9549 82.5046 51.998 82.6887 51.967C82.8728 51.9361 83.0381 51.8332 83.1563 51.6796C83.274 51.5262 83.3348 51.3347 83.3175 51.1487C83.3175 51.1487 83.3175 51.1487 83.3175 51.1487C83.2803 50.8805 83.2528 50.7532 83.2125 50.5947C83.2124 50.5942 83.2122 50.5937 83.2121 50.5932C82.8391 49.3092 82.3952 48.1766 81.9529 46.9973C81.9512 46.9931 81.9496 46.9888 81.948 46.9845C81.9037 46.8686 81.8556 46.7432 81.811 46.627C80.5924 43.4637 79.3573 40.3201 78.0856 37.1756C78.0797 37.161 78.0738 37.1464 78.0679 37.1319C77.8995 36.7155 77.7471 36.3003 77.5899 35.8784C77.5119 35.6692 77.4313 35.4548 77.3474 35.2432C77.3043 35.135 77.2609 35.0282 77.2112 34.9145C77.1861 34.8574 77.1599 34.7993 77.128 34.7342C77.1115 34.7008 77.0951 34.6681 77.0698 34.6228C77.0354 34.5707 77.0466 34.5536 76.8946 34.3809C76.8451 34.337 76.8108 34.2729 76.5871 34.1668C76.4505 34.1064 76.191 34.0431 75.9054 34.15C75.632 34.2579 75.5266 34.4152 75.4727 34.4872C75.28 34.8049 75.3212 34.8944 75.3035 34.9812C75.2987 35.0615 75.3022 35.1103 75.3054 35.1531C75.3126 35.2362 75.3231 35.29 75.3337 35.3409C75.3552 35.44 75.379 35.5173 75.4065 35.5961C75.4125 35.6133 75.4188 35.6303 75.4252 35.6474C75.7035 36.4491 76.0324 37.3427 76.345 38.1751C76.3499 38.1883 76.3549 38.2016 76.3599 38.2149C77.2607 40.6097 78.1676 42.9971 79.092 45.3881C79.1001 45.4088 79.108 45.4293 79.116 45.4495C79.4051 46.1767 79.6879 46.8447 80.0441 47.6265C80.0556 47.6505 80.0662 47.6724 80.0752 47.6914C80.096 47.7328 80.0902 47.7315 80.1601 47.861C80.1693 47.8767 80.1733 47.8847 80.198 47.9218C80.2127 47.9431 80.2305 47.9696 80.2702 48.0148C80.2938 48.0311 80.2901 48.0733 80.5151 48.2068C80.6236 48.2632 80.8508 48.3574 81.1562 48.274C81.4882 48.1654 81.5823 48.005 81.662 47.8878C81.8771 47.4209 81.7621 47.4086 81.7849 47.3777C81.7826 47.3449 81.7796 47.3227 81.7769 47.3043C81.7704 47.2634 81.7691 47.26 81.766 47.245C81.7544 47.1924 81.7509 47.1828 81.7457 47.1634C81.7362 47.1293 81.7288 47.1051 81.7218 47.0823C81.6933 46.9905 81.6668 46.9107 81.6406 46.8317C81.5883 46.6742 81.5349 46.517 81.4819 46.3619C81.3762 46.0523 81.2701 45.7449 81.1625 45.4337C81.1521 45.4034 81.1414 45.3726 81.1306 45.3414C80.1743 42.586 79.2297 39.8342 78.2554 37.0832C78.2473 37.0604 78.2393 37.0379 78.2313 37.0156C78.0805 36.5925 77.9399 36.1603 77.7941 35.7275C77.7206 35.51 77.6469 35.2943 77.5643 35.0716C77.4694 34.8393 77.4338 34.658 77.1863 34.2706C77.1652 34.2401 77.1429 34.2093 77.1184 34.1778C77.0706 34.117 77.0195 34.0567 76.9347 33.9788C76.8891 33.9387 76.8444 33.8961 76.7321 33.8269C76.6675 33.7932 76.6115 33.7431 76.3837 33.694C76.2724 33.6776 76.0609 33.6386 75.7608 33.7857C75.4512 33.9396 75.3018 34.2527 75.2695 34.4C75.2372 34.5313 75.2349 34.6089 75.232 34.6752C75.2325 35.0014 75.2745 35.1174 75.3024 35.2754C75.3331 35.4224 75.3639 35.5544 75.3913 35.6828C75.4 35.7245 75.4086 35.7601 75.4164 35.791C75.6683 36.6661 75.8809 37.3544 76.0846 38.1406C76.0899 38.1606 76.0951 38.1806 76.1004 38.2007C76.2645 38.8277 76.4397 39.4611 76.6169 40.1258C76.6222 40.1457 76.6273 40.1644 76.6327 40.1844C76.7873 40.793 77.0528 41.3269 77.2495 41.8346C77.2558 41.8505 77.2622 41.8665 77.2686 41.8828C77.7504 43.1039 78.2488 44.3144 78.6949 45.5304C78.6994 45.5428 78.7039 45.5551 78.7084 45.5674C78.9696 46.2597 79.1259 46.8997 79.4713 47.6997C79.4716 47.7002 79.4724 47.7019 79.4756 47.7082C79.4782 47.7132 79.4761 47.7096 79.4864 47.7285C79.497 47.745 79.4947 47.7524 79.5583 47.8358C79.5765 47.8579 79.6007 47.8889 79.6574 47.938C79.7198 47.9812 79.8044 48.0871 80.1057 48.1172C80.2554 48.1294 80.4638 48.0747 80.6008 47.9662C80.7351 47.865 80.8064 47.7407 80.8411 47.6583C80.883 47.5566 80.8907 47.4919 80.8965 47.4446C80.9033 47.143 80.8756 47.2091 80.8745 47.1666C80.8689 47.1462 80.8672 47.1416 80.8667 47.1398C80.8651 47.1346 80.864 47.1311 80.8631 47.1283C80.8593 47.1166 80.8596 47.1176 80.8585 47.1143C80.8567 47.1088 80.8564 47.1078 80.8553 47.1044C80.8539 47.0997 80.8521 47.0942 80.8508 47.09C80.6399 46.4065 80.4562 45.6829 80.2328 44.9851C80.2288 44.9727 80.2248 44.9602 80.2207 44.9476C79.3839 42.3526 78.5684 39.7593 77.6726 37.1551C77.6711 37.1506 77.6695 37.1462 77.668 37.1418C77.5612 36.8385 77.4663 36.5387 77.3522 36.2206C77.3219 36.1374 77.2931 36.0598 77.2562 35.9699C77.2104 35.8707 77.2065 35.8177 77.0614 35.5997C77.0308 35.5598 77.0148 35.5324 76.931 35.4522C76.8788 35.4084 76.8655 35.3837 76.7156 35.3038C76.6478 35.2704 76.5602 35.2373 76.4507 35.2211C76.3204 35.1998 76.1379 35.2141 75.9895 35.277C75.6959 35.4014 75.5865 35.6029 75.5426 35.679C75.4965 35.7639 75.4731 35.8418 75.4638 35.8752C75.441 35.9596 75.4363 36.0062 75.4316 36.0444C75.4183 36.1862 75.4239 36.2351 75.4251 36.2972C75.4299 36.412 75.4383 36.497 75.4473 36.583C75.4491 36.6003 75.451 36.6177 75.4531 36.6354C75.5581 37.5386 75.7811 38.359 76.0021 39.1642C76.0057 39.1772 76.0093 39.1903 76.013 39.2034C76.4541 40.7646 76.9358 42.2844 77.3704 43.803C77.3726 43.8108 77.3748 43.8186 77.3771 43.8264C77.6505 44.7725 77.8576 45.6864 78.1249 46.7019C78.1263 46.7069 78.1277 46.712 78.1291 46.717C78.2319 47.0926 78.4098 47.5631 78.467 47.8017C78.4665 47.7992 78.4661 47.7973 78.4646 47.7888C78.4639 47.7846 78.463 47.7797 78.4609 47.7658C78.4598 47.7572 78.4594 47.7569 78.4563 47.7279C78.455 47.7144 78.4534 47.6976 78.4524 47.6666C78.4554 47.6274 78.4403 47.7137 78.464 47.4961C78.4751 47.4411 78.4836 47.3663 78.5572 47.2233C78.6186 47.096 78.851 46.7992 79.2486 46.7621C79.6287 46.7294 79.849 46.9218 79.9017 46.9629C79.942 46.9966 79.9705 47.0259 79.9931 47.051C80.1652 47.2671 80.1315 47.2726 80.1554 47.3114C80.1611 47.3257 80.1637 47.333 80.1665 47.3406C80.1716 47.3547 80.1747 47.3646 80.1762 47.3691C80.1788 47.3773 80.1802 47.3822 80.1813 47.3858C80.1828 47.3911 80.1834 47.3933 80.1836 47.394C80.184 47.3956 80.1836 47.394 80.183 47.3919C80.1819 47.3877 80.1802 47.3811 80.1784 47.374C80.1747 47.3595 80.171 47.3445 80.1669 47.3279C80.159 47.2958 80.1508 47.2621 80.1426 47.228C80.1265 47.1607 80.11 47.091 80.0939 47.0222C80.0614 46.8837 80.0294 46.7455 79.9971 46.6049C79.9948 46.595 79.9925 46.5849 79.9902 46.5747C79.7258 45.4206 79.4643 44.2611 79.205 43.1046C79.2036 43.0981 79.2021 43.0916 79.2007 43.0851C79.0941 42.6092 78.9788 42.1354 78.8605 41.6623C78.7749 41.3197 78.6878 40.9776 78.6004 40.6344C78.5995 40.6307 78.5985 40.6269 78.5976 40.6231C78.4865 40.1823 78.1938 39.7814 78.11 39.3694C78.1095 39.3671 78.1091 39.3648 78.1086 39.3625C77.9651 38.6369 77.8562 37.9777 77.6978 37.1738Z" fill="#78DAE5"/>
<path d="M77.1079 32.9554C77.0498 32.7898 76.9283 32.6541 76.7702 32.5781C76.612 32.5021 76.4301 32.492 76.2646 32.5501C76.099 32.6082 75.9633 32.7297 75.8873 32.8879C75.8113 33.0461 75.8012 33.2279 75.8593 33.3935C75.8593 33.3935 75.8593 33.3935 75.8593 33.3935C75.9673 33.7012 76.072 34.0101 76.1738 34.3202C76.391 34.982 76.5949 35.6492 76.7865 36.3199C76.7865 36.3199 76.7865 36.3199 76.7865 36.3199C76.9224 36.7955 76.9666 37.2896 77.0786 37.7569C77.0786 37.7569 77.0786 37.7569 77.0786 37.757C77.241 38.4326 77.3875 39.1139 77.5817 39.7825C77.5817 39.7826 77.5817 39.7826 77.5818 39.7827C77.9276 40.999 78.3787 42.2221 78.8476 43.4071C78.8476 43.4071 78.8476 43.4071 78.8476 43.4071C79.5383 45.151 80.2674 46.8542 81.0268 48.5501C81.0268 48.5501 81.0268 48.5501 81.0268 48.5501C81.3265 49.2186 81.7041 49.8696 82.0737 50.4943C82.0737 50.4943 82.0737 50.4943 82.0737 50.4943C82.1843 50.684 82.4153 50.8266 82.6044 50.991C82.715 51.087 82.8111 51.1903 82.859 51.3123C82.859 51.3123 82.859 51.3123 82.859 51.3123C82.9319 51.4974 83.0026 51.682 83.0723 51.8685C83.0831 51.8974 83.105 51.9207 83.133 51.9335C83.1611 51.9462 83.1931 51.9473 83.2219 51.9365C83.2508 51.9257 83.2741 51.9038 83.2869 51.8758C83.2997 51.8477 83.3007 51.8158 83.2899 51.7869C83.2899 51.7869 83.2899 51.7869 83.2899 51.7869C83.2202 51.6002 83.1485 51.413 83.0753 51.2273C83.0753 51.2273 83.0753 51.2273 83.0753 51.2273C83.0272 51.1048 83.0259 50.9633 83.0378 50.8156C83.0583 50.5635 83.1167 50.2914 83.0475 50.0693C83.0475 50.0693 83.0475 50.0693 83.0475 50.0692C82.8207 49.3581 82.6162 48.6721 82.3448 47.991C82.3448 47.991 82.3448 47.991 82.3448 47.991C81.6632 46.2784 80.9713 44.5626 80.3589 42.8427C80.3589 42.8427 80.3589 42.8427 80.3589 42.8427C79.9423 41.67 79.6146 40.4966 79.2717 39.292C79.2717 39.2919 79.2717 39.2919 79.2717 39.2918C79.0768 38.621 78.8325 37.9643 78.5965 37.3041C78.5965 37.3041 78.5965 37.3041 78.5964 37.3041C78.432 36.8428 78.1891 36.4122 78.0588 35.9565C78.0588 35.9564 78.0588 35.9564 78.0588 35.9564C77.8627 35.2701 77.654 34.5868 77.4311 33.9076C77.3266 33.5893 77.219 33.2719 77.1079 32.9554Z" fill="#78DAE5"/>
<path d="M77.927 36.8276C77.927 36.6944 77.8741 36.5666 77.7798 36.4724C77.6856 36.3781 77.5578 36.3252 77.4246 36.3252C77.2913 36.3252 77.1635 36.3781 77.0693 36.4724C76.9751 36.5666 76.9221 36.6944 76.9221 36.8276C76.9385 37.0204 76.9395 36.9452 76.9443 36.9811C76.9481 36.9954 76.9514 37.0064 76.9542 37.016C76.9601 37.0361 76.9656 37.0536 76.9708 37.0702C76.9817 37.1044 76.9918 37.1354 77.0023 37.1672C77.0231 37.2298 77.0439 37.2912 77.0648 37.3522C77.1067 37.4744 77.1488 37.5951 77.1911 37.7155C77.3211 38.0847 77.4527 38.4504 77.5857 38.8173C77.5858 38.8175 77.5859 38.8177 77.5859 38.8179C77.748 39.2672 77.8506 39.7477 77.9971 40.1889C77.9971 40.189 77.9972 40.1892 77.9973 40.1894C78.1502 40.6505 78.2812 41.1124 78.4628 41.557C78.4628 41.5571 78.4629 41.5573 78.463 41.5574C78.8626 42.5322 79.2811 43.4989 79.6715 44.4827C79.6716 44.4828 79.6716 44.4829 79.6716 44.483C80.2928 46.051 80.8941 47.6327 81.508 49.2076C81.508 49.2077 81.5081 49.2077 81.5081 49.2077C81.6812 49.6518 81.8999 50.0792 82.1199 50.5063C82.1964 50.655 82.2747 50.8057 82.3466 50.9501C82.3466 50.9501 82.3466 50.9502 82.3467 50.9502L82.3373 50.9225C82.3542 50.9417 82.5794 50.9459 82.6959 51.0528C82.7076 51.0615 82.7281 51.0698 82.7462 51.0759C82.7648 51.082 82.7794 51.0854 82.7936 51.0854C82.8078 51.0854 82.8225 51.082 82.841 51.0759C82.8591 51.0698 82.8796 51.0615 82.8913 51.0528C83.0088 50.9852 83.2321 50.8115 83.1935 50.6634L83.1841 50.6357C83.1841 50.6357 83.1841 50.6357 83.1841 50.6357C83.1389 50.4697 83.0972 50.311 83.0557 50.1495C82.9369 49.6879 82.8209 49.2239 82.6605 48.7766C82.6605 48.7766 82.6605 48.7766 82.6605 48.7765C82.0897 47.1846 81.5056 45.596 80.9193 44.0053C80.9192 44.0052 80.9192 44.0051 80.9191 44.005C80.5506 43.007 80.1982 42.0003 79.7934 41.013C79.7933 41.0129 79.7933 41.0127 79.7932 41.0126C79.6102 40.5647 79.3704 40.1385 79.1538 39.71C79.1537 39.7098 79.1536 39.7096 79.1535 39.7095C78.9403 39.2883 78.6857 38.9049 78.5306 38.4751C78.5305 38.4749 78.5304 38.4747 78.5304 38.4745C78.3981 38.1098 78.2672 37.7461 78.1391 37.382C78.0974 37.2635 78.0559 37.1448 78.0155 37.0266C77.9953 36.9678 77.9753 36.9088 77.9563 36.8514C77.9467 36.8224 77.9376 36.7945 77.929 36.7674C77.9249 36.7544 77.9208 36.7412 77.9177 36.7308C77.9163 36.726 77.9149 36.721 77.9146 36.7199C77.9153 36.7402 77.9119 36.6505 77.927 36.8276Z" fill="#78DAE5"/>
<path d="M78.2365 38.3835C78.1941 38.2562 78.1028 38.151 77.9828 38.091C77.8628 38.031 77.7239 38.0211 77.5966 38.0636C77.4693 38.106 77.3641 38.1972 77.3041 38.3172C77.2441 38.4372 77.2343 38.5761 77.2767 38.7034C77.2767 38.7034 77.2767 38.7034 77.2767 38.7034C77.3738 38.9734 77.4548 39.1489 77.5441 39.3654C77.5449 39.3672 77.5456 39.3689 77.5463 39.3707C77.5463 39.3707 77.5464 39.3707 77.5464 39.3707C77.857 40.107 78.125 40.859 78.4183 41.6031C78.4183 41.6031 78.4183 41.6031 78.4183 41.6032C78.6122 42.0949 78.8092 42.5912 79.0123 43.0793C79.0123 43.0793 79.0123 43.0794 79.0124 43.0794C79.2906 43.7473 79.5398 44.425 79.8297 45.0909C79.8297 45.0909 79.8298 45.091 79.8298 45.0911C80.4485 46.5154 81.0871 47.9389 81.7043 49.359C81.7043 49.3592 81.7044 49.3593 81.7045 49.3594L81.7002 49.349C81.868 49.7568 82.1343 50.1267 82.3772 50.4935C82.4639 50.6264 82.5446 50.7496 82.6072 50.8795C82.6072 50.8796 82.6073 50.8797 82.6073 50.8798L82.6004 50.8406C82.6145 50.8456 82.7617 50.8652 82.8107 50.9662C82.8185 50.979 82.835 50.9942 82.8502 51.0064C82.8658 51.0188 82.8788 51.0271 82.8928 51.0318C82.9067 51.0364 82.9222 51.0376 82.9421 51.037C82.9616 51.0364 82.9839 51.0341 82.9978 51.0286C83.0916 51.0052 83.2667 50.8913 83.2628 50.764L83.2559 50.7248C83.2559 50.7247 83.2559 50.7246 83.2559 50.7244C83.2461 50.5452 83.2254 50.3683 83.2065 50.2006C83.1517 49.7329 83.089 49.2769 82.9282 48.8587L82.9239 48.8483C82.9239 48.8482 82.9238 48.848 82.9238 48.8479C82.3333 47.3998 81.735 45.9623 81.1139 44.5323C81.1138 44.5322 81.1138 44.5321 81.1138 44.532C80.8233 43.8651 80.4902 43.2113 80.1673 42.557C80.1673 42.5569 80.1672 42.5569 80.1672 42.5568C79.935 42.0858 79.7071 41.6185 79.4832 41.1428C79.4832 41.1428 79.4832 41.1428 79.4832 41.1427C79.1452 40.4243 78.7873 39.7093 78.4788 38.9782C78.4788 38.9782 78.4788 38.9782 78.4788 38.9782C78.4781 38.9765 78.4774 38.9747 78.4766 38.973C78.3932 38.7727 78.2913 38.5378 78.2365 38.3835Z" fill="#78DAE5"/>
<path d="M78.0761 37.4205C78.0278 37.2917 77.9304 37.1874 77.8052 37.1305C77.68 37.0736 77.5373 37.0687 77.4085 37.117C77.2797 37.1653 77.1754 37.2628 77.1185 37.388C77.0616 37.5132 77.0567 37.6558 77.105 37.7846C77.105 37.7846 77.105 37.7846 77.105 37.7846C77.1963 38.0296 77.2935 38.2651 77.3889 38.4984C77.4272 38.5919 77.4661 38.6862 77.5049 38.78C77.5049 38.78 77.5049 38.78 77.5049 38.78C77.8834 39.6944 78.2284 40.6199 78.585 41.5423C78.585 41.5423 78.585 41.5423 78.585 41.5423C78.8283 42.1718 79.0233 42.8216 79.2847 43.4402C79.2847 43.4402 79.2847 43.4402 79.2847 43.4402C79.6865 44.3888 80.1259 45.3181 80.5336 46.2651C80.5336 46.2651 80.5336 46.2651 80.5336 46.2651C81.0829 47.5421 81.6156 48.8329 82.1605 50.1145C82.1605 50.1145 82.1605 50.1145 82.1605 50.1146C82.2874 50.4136 82.5823 50.6469 82.7909 50.9154C82.867 51.013 82.9297 51.1139 82.9742 51.2269C82.9742 51.2269 82.9742 51.227 82.9742 51.227C83.0247 51.3545 83.085 51.4782 83.1447 51.5968C83.1568 51.6212 83.1781 51.6397 83.2039 51.6483C83.2297 51.6569 83.2579 51.6549 83.2822 51.6427C83.3066 51.6305 83.325 51.6092 83.3336 51.5834C83.3422 51.5576 83.3402 51.5294 83.3281 51.5051C83.3281 51.5051 83.3281 51.5051 83.3281 51.5051C83.2683 51.3863 83.2122 51.2708 83.1647 51.151C83.1647 51.151 83.1647 51.151 83.1647 51.151C83.1228 51.0447 83.1063 50.9241 83.0998 50.8007C83.0824 50.4601 83.1484 50.088 83.0441 49.7787C83.0441 49.7787 83.0441 49.7786 83.0441 49.7786C82.5965 48.4542 82.1236 47.1395 81.6444 45.8237C81.6444 45.8236 81.6444 45.8236 81.6444 45.8236C81.2888 44.8483 80.9431 43.865 80.5387 42.9103C80.5387 42.9103 80.5387 42.9103 80.5387 42.9103C80.2757 42.2882 79.9436 41.701 79.6653 41.0881C79.6653 41.0881 79.6653 41.0881 79.6653 41.0881C79.2574 40.1902 78.84 39.2938 78.4634 38.3839C78.4634 38.3839 78.4634 38.3839 78.4634 38.3839C78.4249 38.2907 78.3863 38.1972 78.3484 38.1048C78.2538 37.8733 78.1599 37.6456 78.0761 37.4205Z" fill="#78DAE5"/>
<path d="M7.56056 35.0186C7.67423 34.8489 7.71586 34.6411 7.67627 34.4407C7.63669 34.2404 7.51914 34.0639 7.34948 33.9503C7.17982 33.8366 6.97195 33.795 6.7716 33.8346C6.57125 33.8741 6.39484 33.9917 6.28116 34.1613C6.28116 34.1613 6.28116 34.1613 6.28116 34.1613C6.10365 34.4512 6.07679 34.5737 6.00596 34.7475C5.94573 34.908 5.89192 35.0647 5.84024 35.2196C5.5125 36.218 5.23533 37.1929 4.94852 38.1748C4.94837 38.1753 4.94823 38.1758 4.94808 38.1763C4.43706 39.9182 3.76762 41.6454 3.28259 43.4381C3.28192 43.4406 3.28124 43.443 3.28057 43.4455C2.8308 45.0971 2.45097 46.7709 2.05024 48.3893C2.0492 48.3934 2.04816 48.3975 2.04713 48.4016C1.77861 49.4776 1.53545 50.5116 1.29212 51.6501C1.27473 51.7512 1.25545 51.8036 1.23911 52.0232C1.23828 52.0411 1.23946 52.0604 1.24275 52.0819C1.24295 52.0823 1.24316 52.0827 1.24337 52.0834C1.24464 52.1036 1.24025 52.0189 1.24727 52.1569C1.24888 52.1717 1.24912 52.1863 1.25881 52.2393C1.2657 52.269 1.26763 52.3013 1.30825 52.4031C1.33321 52.4557 1.3569 52.531 1.48163 52.6636C1.579 52.7914 1.9876 52.9996 2.32723 52.8691C2.647 52.7504 2.72222 52.5878 2.776 52.5136C2.82502 52.4312 2.83958 52.3858 2.85228 52.3507C2.87466 52.283 2.87824 52.2563 2.8829 52.2335C2.89036 52.1915 2.89114 52.1777 2.89257 52.165C2.89629 52.1233 2.89542 52.1237 2.8959 52.1161C2.89625 52.1059 2.89621 52.1043 2.89625 52.1021C2.89628 52.0981 2.89621 52.0985 2.89616 52.098C2.89606 52.0972 2.89595 52.0968 2.89584 52.0964C2.89562 52.0957 2.89539 52.0953 2.89515 52.0951C2.89419 52.0941 2.89315 52.0936 2.89202 52.0928C2.88976 52.0915 2.88718 52.0901 2.8843 52.0885C2.87854 52.0855 2.87156 52.082 2.86355 52.0785C2.84752 52.0714 2.82735 52.0637 2.80444 52.0557C2.75861 52.0395 2.70185 52.0217 2.64552 52.0028C2.53283 51.9655 2.42211 51.9215 2.40359 51.8884C2.40359 51.8884 2.40358 51.8884 2.40358 51.8884C2.33611 51.7732 2.35025 51.5917 2.31508 51.4359C2.30907 51.4087 2.28924 51.3803 2.26589 51.3579C2.2422 51.3354 2.21691 51.3207 2.18966 51.3161C2.16241 51.3116 2.13372 51.3171 2.10397 51.3306C2.07457 51.3442 2.04653 51.3645 2.03195 51.3882C2.03195 51.3882 2.03195 51.3882 2.03195 51.3882C1.95185 51.523 1.8831 51.6243 1.77111 51.7995C1.77111 51.7995 1.7711 51.7996 1.77109 51.7996C1.74138 51.8465 1.62325 51.8829 1.5051 51.9263C1.44607 51.9477 1.38714 51.9704 1.33963 51.9945C1.31588 52.0066 1.29498 52.0191 1.27836 52.0323C1.27006 52.0387 1.26282 52.0457 1.25683 52.0526C1.25383 52.0562 1.25115 52.0598 1.24881 52.0634C1.24764 52.0653 1.24655 52.0672 1.24555 52.0687C1.2453 52.069 1.24506 52.0695 1.24483 52.0694C1.24471 52.0694 1.2446 52.0692 1.2445 52.0687C1.24445 52.0683 1.24438 52.0688 1.2444 52.0651C1.24443 52.063 1.24439 52.0615 1.24474 52.0513C1.24522 52.0438 1.24435 52.0442 1.24807 52.0025C1.2495 51.9898 1.25028 51.976 1.25774 51.934C1.2624 51.9113 1.26597 51.8845 1.28835 51.8168C1.30106 51.7817 1.31562 51.7363 1.36464 51.6539C1.41842 51.5797 1.49364 51.4171 1.81341 51.2984C2.15304 51.1679 2.56163 51.3761 2.659 51.5039C2.78373 51.6365 2.80742 51.7118 2.83238 51.7644C2.873 51.8662 2.87493 51.8985 2.88182 51.9282C2.89152 51.9812 2.89176 51.9958 2.89337 52.0106C2.90037 52.1486 2.89599 52.0626 2.89726 52.0824C2.89747 52.0825 2.89767 52.0823 2.89787 52.0819C2.90117 52.0939 2.90263 52.103 2.90238 52.1099C2.8979 52.1668 2.91445 52.0609 2.93021 52.003C3.19138 50.9979 3.52278 49.9059 3.78912 48.8423C3.79021 48.838 3.79129 48.8338 3.79237 48.8295C4.20552 47.16 4.57155 45.5278 5.00469 43.9085C5.00533 43.9061 5.00598 43.9036 5.00662 43.9012C5.47123 42.152 5.90616 40.3809 6.42708 38.6056C6.42723 38.6051 6.42738 38.6045 6.42753 38.604C6.71225 37.6286 6.99304 36.6447 7.30133 35.7063C7.34911 35.563 7.39831 35.4204 7.44756 35.2892C7.4905 35.1682 7.57186 34.9939 7.56056 35.0186Z" fill="#78DAE5"/>
<path d="M7.45499 32.8356C7.45499 32.9129 7.4857 32.987 7.54037 33.0417C7.59504 33.0964 7.66918 33.1271 7.74649 33.1271C7.8238 33.1271 7.89795 33.0964 7.95262 33.0417C8.00728 32.987 8.038 32.9129 8.038 32.8356C8.03331 32.5982 8.01765 32.3828 7.91159 32.1192C7.91121 32.1183 7.91082 32.1175 7.91044 32.1166C7.895 32.0841 7.87001 32.0309 7.79383 31.9815C7.71995 31.9246 7.5599 31.9303 7.50479 31.9675C7.4148 32.0179 7.40989 32.0429 7.39179 32.062C7.37042 32.0905 7.35974 32.1113 7.3528 32.1241C7.33633 32.1556 7.32874 32.1736 7.3197 32.1943C7.30224 32.2351 7.28867 32.27 7.2753 32.3046C7.24841 32.3745 7.22374 32.4411 7.1984 32.5091C6.88834 33.3595 6.51043 34.1682 6.20107 35.0064C6.19399 35.0256 6.18691 35.045 6.17984 35.0645C5.67146 36.4598 5.14203 37.8558 4.62465 39.2557C4.61943 39.2697 4.61421 39.2838 4.60899 39.2979C4.01794 40.894 3.40444 42.4822 2.81783 44.0802C2.8149 44.0881 2.81198 44.0961 2.80906 44.1041C2.31136 45.4655 1.80578 46.8169 1.32088 48.2084L1.30274 48.2701C1.302 48.273 1.30126 48.2759 1.30052 48.2789C1.15249 48.8682 1.0065 49.4644 0.884708 50.0669C0.859491 50.1907 0.82942 50.3397 0.817491 50.375L0.813142 50.3896C0.812903 50.3904 0.812665 50.3913 0.812429 50.3921C0.759507 50.588 0.769339 50.7481 0.812719 50.9923C0.836305 51.1233 0.869864 51.2533 0.93246 51.3642C0.995172 51.4752 1.08279 51.5585 1.19015 51.6013C1.2975 51.6441 1.41836 51.644 1.54024 51.6066C1.66201 51.5692 1.77582 51.498 1.88308 51.4191C1.88308 51.4191 1.88308 51.4191 1.88308 51.4191C2.08386 51.2695 2.23934 51.0302 2.29598 50.8162C2.29615 50.8156 2.29633 50.8149 2.2965 50.8143L2.29215 50.829C2.35461 50.6132 2.36839 50.5022 2.39612 50.3707C2.50855 49.7956 2.63731 49.2245 2.77902 48.6462C2.77972 48.6433 2.78043 48.6404 2.78114 48.6376L2.76301 48.6992C3.22465 47.3492 3.73584 45.9823 4.22148 44.6149C4.22433 44.6069 4.22719 44.5988 4.23005 44.5908C4.80327 42.9809 5.32923 41.3538 5.84822 39.7244C5.8528 39.71 5.85738 39.6956 5.86196 39.6812C6.31459 38.2552 6.75518 36.8246 7.15271 35.3726C7.15824 35.3523 7.16368 35.3321 7.16903 35.312C7.40112 34.4459 7.53181 33.5469 7.76831 32.6973C7.78741 32.6308 7.80691 32.5663 7.82754 32.5051C7.83758 32.4753 7.84822 32.4455 7.85824 32.4206C7.8629 32.409 7.86791 32.3979 7.86908 32.3956C7.86906 32.395 7.86927 32.3968 7.85662 32.414C7.84436 32.4255 7.84543 32.4438 7.76247 32.4905C7.71195 32.5253 7.55643 32.5313 7.48562 32.4764C7.41253 32.429 7.39026 32.3794 7.37717 32.3522C7.37732 32.3526 7.37746 32.3529 7.37761 32.3532C7.42702 32.4679 7.45507 32.6667 7.45499 32.8356Z" fill="#78DAE5"/>
<path d="M43.7438 27.5439C43.6157 27.6392 43.5307 27.7816 43.5076 27.9396C43.4844 28.0975 43.525 28.2583 43.6203 28.3863C43.7157 28.5144 43.858 28.5994 44.016 28.6225C44.174 28.6457 44.3347 28.6051 44.4628 28.5098C44.4628 28.5098 44.4628 28.5098 44.4628 28.5098C44.7077 28.2869 44.6551 28.2711 44.7003 28.2092C44.7258 28.158 44.743 28.1181 44.7593 28.0799C44.7915 28.0042 44.8176 27.9381 44.8438 27.8729C44.8956 27.7437 44.945 27.623 44.9974 27.5066C45.0024 27.4956 45.0074 27.4845 45.0124 27.4736C45.0171 27.4633 45.0219 27.4531 45.0268 27.443C45.2391 26.9998 45.4367 26.5923 45.591 26.2154C45.603 26.1854 45.6149 26.1555 45.6268 26.1252C45.6807 25.9773 45.7613 25.8446 45.8209 25.5068C45.8331 25.4213 45.8407 25.3172 45.8281 25.1967C45.7413 24.6636 45.4483 24.5183 45.3293 24.4144C45.2667 24.3695 45.2131 24.3363 45.1678 24.3086C44.7524 24.0805 44.5226 24.139 44.3304 24.1403C44.2505 24.1464 44.1792 24.1619 44.1125 24.1743C44.0656 24.181 44.0153 24.1917 43.9631 24.2083C43.7952 24.2577 43.6169 24.3892 43.5215 24.5287C43.4227 24.6689 43.3843 24.7968 43.3643 24.9132C43.3037 25.3354 43.4928 25.5996 43.5922 25.7379C43.7036 25.8835 43.8015 25.9714 43.8659 26.0373C43.9013 26.0694 43.9365 26.1215 43.8884 26.0478C43.8922 26.0539 43.8954 26.0596 43.8908 26.0506C43.8855 26.0364 43.8918 26.0649 43.8536 25.9593C43.8487 25.9438 43.843 25.9245 43.8369 25.8972C43.849 25.8886 43.7645 25.8105 43.8747 25.4811C43.9218 25.3154 44.1954 25.0867 44.3653 25.0694C44.5347 25.0335 44.647 25.0617 44.7186 25.0819C44.8564 25.126 44.9062 25.1729 44.92 25.1804C44.9812 25.2252 44.9952 25.2436 45.002 25.2496C45.044 25.2948 45.012 25.261 45.0057 25.2522C44.9822 25.2231 44.9538 25.1859 44.9268 25.1492C44.8757 25.0806 44.8089 24.9815 44.7969 24.959C44.7972 24.9597 44.7987 24.9619 44.806 24.9774C44.8106 24.9879 44.8134 24.9924 44.8251 25.0249C44.8286 25.0663 44.8742 25.0583 44.8541 25.343C44.8423 25.3897 44.8491 25.4593 44.7294 25.6223C44.6137 25.799 44.2801 25.8914 44.1671 25.8611C43.9273 25.8187 43.9569 25.7879 43.9375 25.7865C43.9292 25.7806 43.9711 25.8175 44.0059 25.8562C44.0838 25.9403 44.1572 26.0344 44.268 26.17C44.2678 26.1699 44.2676 26.1697 44.2674 26.1695C44.2007 26.0793 44.2501 26.1417 44.2029 26.3116C44.1642 26.4737 44.0829 26.6783 43.9848 26.8892C43.9783 26.9032 43.9716 26.9173 43.9649 26.9312C43.7989 27.302 43.5985 27.6144 43.5249 28.1667C43.5191 28.2236 43.5147 28.285 43.5145 28.3576C43.5145 28.3965 43.5138 28.4456 43.5136 28.4455C43.5144 28.4393 43.5119 28.4397 43.521 28.3707C43.5271 28.3411 43.5248 28.3134 43.5671 28.1938C43.5977 28.1316 43.6083 28.035 43.8109 27.8449C43.9123 27.7547 44.1094 27.6403 44.3514 27.6348C44.5934 27.6261 44.798 27.7293 44.9048 27.8142C45.119 27.9937 45.1346 28.0902 45.1687 28.1509C45.1967 28.2179 45.186 28.1939 45.1933 28.2132C45.201 28.2351 45.206 28.2519 45.2099 28.266C45.2248 28.3209 45.2272 28.341 45.2302 28.3579C45.2351 28.3898 45.235 28.3933 45.2354 28.3967C45.2368 28.4101 45.236 28.4017 45.2357 28.397C45.2347 28.3824 45.2339 28.3665 45.2328 28.347C45.229 28.2725 45.2254 28.1891 45.222 28.1073C45.215 27.9428 45.2083 27.7768 45.2013 27.6097C45.1854 27.2686 45.1778 26.9646 45.1431 26.5624C45.1353 26.4874 45.1263 26.4171 45.1166 26.3487C45.0359 25.7892 44.9109 25.243 44.8564 24.8418C44.8491 24.7806 44.839 24.7203 44.8266 24.6618C44.7493 24.3032 44.6 24.0408 44.4944 23.8482C44.4691 23.8021 44.4426 23.7593 44.4162 23.7201C44.0938 23.2735 43.7858 23.1161 43.4979 22.9297C43.496 22.9286 43.494 22.9274 43.4919 22.926C43.4405 22.8938 43.3525 22.8066 43.2044 22.619C43.2043 22.6189 43.2042 22.6188 43.2041 22.6187C43.113 22.4927 42.8346 22.278 42.5269 22.2709C42.2292 22.2619 42.0766 22.3564 41.9816 22.4071C41.7982 22.5202 41.7457 22.5884 41.6847 22.647C41.5771 22.7597 41.5173 22.8343 41.4731 22.8803C41.4471 22.9099 41.4204 22.9256 41.472 22.8882C41.4545 22.8998 41.437 22.9119 41.4195 22.9246C41.2181 23.0659 41.0217 23.3018 40.924 23.5459L40.948 23.4934C40.9484 23.4926 40.949 23.4915 40.9496 23.4902C40.9759 23.4464 40.9482 23.4984 40.9077 23.5568C40.7848 23.7337 40.7235 23.9504 40.7469 24.1672C40.7702 24.3839 40.8748 24.5818 41.0398 24.719C41.2048 24.8562 41.4184 24.923 41.6357 24.9064C41.8532 24.8899 42.055 24.7901 42.2066 24.6371C42.2066 24.6371 42.2066 24.6371 42.2066 24.6371C42.2761 24.5615 42.3607 24.4794 42.4677 24.2815C42.4722 24.2729 42.4765 24.2643 42.4807 24.256L42.5046 24.2035C42.492 24.2398 42.4424 24.2949 42.4231 24.3054C42.4215 24.3066 42.42 24.3075 42.4188 24.3083C42.5841 24.1941 42.6541 24.1118 42.7216 24.0415C42.8132 23.9416 42.8793 23.8607 42.9095 23.8298C42.9183 23.8169 42.9379 23.8147 42.8401 23.8766C42.7877 23.9024 42.6835 23.9768 42.4359 23.9703C42.1785 23.965 41.9454 23.7811 41.885 23.6937C41.8851 23.6938 41.8852 23.6939 41.8852 23.694C42.0215 23.8604 42.2282 24.1314 42.5605 24.3501C42.5757 24.3601 42.5911 24.3699 42.6069 24.3796C42.7945 24.4907 42.9617 24.665 42.9613 24.6856C42.9611 24.6858 42.9594 24.684 42.9566 24.6795C43.0503 24.8556 43.0964 24.9721 43.1061 25.0264C43.1081 25.0359 43.1094 25.0441 43.1104 25.0519C43.2004 25.6734 43.3275 26.1331 43.3951 26.5968C43.4028 26.6488 43.4094 26.6989 43.4144 26.7448C43.438 27.0009 43.453 27.3642 43.4681 27.6856C43.4756 27.8509 43.4827 28.0159 43.4904 28.1837C43.4943 28.2681 43.4982 28.3518 43.5032 28.4413C43.5046 28.4661 43.5057 28.4846 43.5079 28.517C43.5089 28.5305 43.51 28.5475 43.5132 28.5784C43.514 28.5848 43.5147 28.5964 43.5206 28.6339C43.524 28.6536 43.5268 28.6757 43.5421 28.732C43.5461 28.7465 43.5512 28.7637 43.559 28.7858C43.5664 28.8053 43.5556 28.7812 43.5838 28.8488C43.6181 28.9099 43.634 29.0066 43.8483 29.1863C43.9552 29.2712 44.1598 29.3745 44.4019 29.3658C44.644 29.3603 44.8412 29.2458 44.9427 29.1556C45.1455 28.9653 45.1562 28.8685 45.1871 28.8058C45.2297 28.6853 45.2277 28.6562 45.2341 28.6245C45.2441 28.5499 45.2424 28.538 45.2437 28.519C45.2464 28.4353 45.2454 28.4104 45.2455 28.3576C45.2454 28.3609 45.2454 28.3533 45.2465 28.3413C45.2613 28.1789 45.3098 27.8086 45.4063 27.5123C45.412 27.4951 45.418 27.4778 45.424 27.4602C45.5144 27.1935 45.6066 26.9101 45.658 26.5653C45.6963 26.2392 45.7561 25.7271 45.3428 25.2362C45.3415 25.2348 45.3402 25.2334 45.3389 25.232C45.2557 25.1417 45.1365 25.004 45.0049 24.8748C44.9343 24.8068 44.8682 24.7398 44.7374 24.6468C44.6566 24.6034 44.6218 24.5307 44.3063 24.4783C44.1564 24.4434 43.7829 24.5482 43.6444 24.7552C43.501 24.9491 43.4989 25.053 43.4808 25.1391C43.4597 25.4315 43.5085 25.4341 43.515 25.4842C43.5307 25.5277 43.536 25.5379 43.545 25.5581C43.5601 25.5906 43.5713 25.6112 43.58 25.6271C43.6722 25.7876 43.7275 25.8606 43.7985 25.963C43.8333 26.0119 43.867 26.0586 43.9087 26.1129C43.9348 26.145 43.9355 26.1533 44.0139 26.2362C44.024 26.2455 44.0455 26.271 44.1102 26.3182C44.125 26.3264 44.1776 26.375 44.3166 26.4194C44.389 26.4398 44.5019 26.4681 44.6717 26.4321C44.8422 26.4146 45.1163 26.1856 45.1636 26.0192C45.2744 25.6889 45.1893 25.6067 45.2013 25.5978C45.195 25.5693 45.1889 25.5487 45.1834 25.5317C45.1403 25.4118 45.1411 25.4302 45.1297 25.4042C45.113 25.3721 45.1042 25.3569 45.0931 25.3376C44.9805 25.1584 44.9269 25.1214 44.8774 25.0639C44.7998 24.9823 44.7516 24.9255 44.7424 24.9052C44.7236 24.8802 44.8115 24.945 44.7875 25.161C44.7777 25.2194 44.7598 25.2905 44.6957 25.3828C44.6347 25.4743 44.5066 25.5696 44.3951 25.6019C44.3606 25.6129 44.3284 25.6199 44.2999 25.6242C44.3451 25.6221 44.386 25.6257 44.4188 25.625C44.4931 25.6133 44.5494 25.6715 44.3694 25.584C44.4058 25.6075 44.4336 25.6262 44.4494 25.6376C44.5025 25.6595 44.3946 25.6708 44.3345 25.3612C44.3312 25.3248 44.3348 25.306 44.3356 25.3043C44.3432 25.3065 44.2882 25.4924 44.2386 25.6709C44.2296 25.7044 44.2211 25.7374 44.2128 25.7705C44.1035 26.1969 44.0823 26.6104 43.9347 26.9347C43.929 26.9474 43.9233 26.96 43.9176 26.9725C43.9114 26.9858 43.9053 26.9993 43.8993 27.0126C43.8362 27.1528 43.7792 27.2924 43.7264 27.4244C43.7 27.49 43.6745 27.5542 43.6515 27.6081C43.6403 27.6345 43.6292 27.6591 43.6232 27.671C43.6364 27.6703 43.5524 27.7218 43.7438 27.5439Z" fill="white"/>
<path d="M38.845 24.8673C38.6823 24.8673 38.5263 24.9319 38.4113 25.0469C38.2963 25.1619 38.2317 25.3179 38.2317 25.4806C38.2317 25.6432 38.2963 25.7992 38.4113 25.9142C38.5263 26.0293 38.6823 26.0939 38.845 26.0939C38.8364 26.0924 38.9194 26.1011 38.9845 26.1124C39.1995 26.1483 39.4398 26.198 39.6744 26.246C39.6755 26.2463 39.6767 26.2465 39.6779 26.2467C40.4564 26.4061 41.2207 26.6401 41.9289 26.8051C41.9324 26.8059 41.9358 26.8068 41.9391 26.8076C42.1117 26.8514 42.2673 26.9062 42.3994 26.9676C42.5593 27.0351 42.5438 27.0722 42.9854 27.2534C42.9882 27.2543 42.9912 27.2547 42.9945 27.2545C43.0006 27.2515 43.0089 27.2399 43.0189 27.2217C43.0571 27.1523 43.1191 26.9869 43.1777 26.8411C43.2284 26.6789 43.3187 26.6246 43.2544 26.507C43.2525 26.4997 43.2512 26.4912 43.2508 26.4826C43.2826 26.3381 43.3036 26.3938 43.2994 26.3813C43.2986 26.3817 43.2921 26.3847 43.2849 26.3875C43.2701 26.3932 43.251 26.3996 43.231 26.4063C43.1976 26.4174 43.17 26.4414 43.1543 26.4729C43.1385 26.5044 43.1359 26.5408 43.147 26.5743C43.1582 26.6077 43.1821 26.6353 43.2136 26.651C43.2452 26.6668 43.2816 26.6694 43.315 26.6583C43.315 26.6583 43.315 26.6583 43.315 26.6583C43.3353 26.6515 43.3565 26.6446 43.3812 26.635C43.3938 26.63 43.4069 26.6249 43.4249 26.6154C43.438 26.5926 43.4826 26.6375 43.5161 26.4707C43.5157 26.4607 43.5142 26.4508 43.512 26.4422C43.4309 26.2907 43.4805 26.2254 43.4986 26.0482C43.5229 25.8886 43.5499 25.7113 43.5531 25.6301C43.5539 25.6088 43.553 25.5941 43.5499 25.5881C43.5508 25.5871 43.5515 25.5867 43.552 25.5868C43.5988 25.6129 43.2212 25.4191 42.9775 25.3526C42.7093 25.2708 42.4515 25.23 42.2042 25.2041C42.2 25.2037 42.1957 25.2033 42.1915 25.2029C41.3932 25.1337 40.6411 25.1911 39.9255 25.0454C39.9243 25.0452 39.9231 25.0449 39.9219 25.0447C39.6801 24.9954 39.4457 24.9461 39.182 24.9019C39.0889 24.8883 39.0138 24.8707 38.845 24.8673Z" fill="white"/>
<path d="M39.4052 24.5297C39.2558 24.5132 39.1059 24.5567 38.9886 24.6507C38.8712 24.7447 38.796 24.8815 38.7795 25.031C38.7631 25.1804 38.8066 25.3303 38.9006 25.4476C38.9946 25.5649 39.1314 25.6401 39.2808 25.6566C39.2808 25.6566 39.2808 25.6566 39.2808 25.6566C39.3577 25.6651 39.4404 25.675 39.5225 25.6845C39.7476 25.7107 39.9746 25.7353 40.201 25.7579C40.2032 25.7581 40.2054 25.7583 40.2076 25.7585C40.9695 25.8556 41.7637 26.342 42.4752 26.5847C42.4819 26.587 42.4885 26.5892 42.4951 26.5914L42.51 26.5966C42.7306 26.6668 43.1716 26.6681 43.5325 26.711C43.5433 26.7124 43.555 26.712 43.5676 26.7102L43.5424 26.6962C43.5459 26.6932 43.5488 26.6893 43.5468 26.6815C43.5451 26.677 43.5434 26.6727 43.5342 26.6621C43.5171 26.6337 43.5407 26.6995 43.4104 26.5017C43.393 26.4676 43.3721 26.4208 43.3611 26.3499C43.3403 26.2653 43.3734 26.0645 43.4751 25.9616C43.6532 25.7878 43.7335 25.8181 43.7775 25.8039C43.8454 25.7983 43.869 25.8053 43.883 25.8075C43.9149 25.8142 43.9184 25.8189 43.9253 25.8232C43.936 25.8317 43.9349 25.838 43.9337 25.8442C43.93 25.8564 43.9193 25.8675 43.908 25.8788C43.885 25.9014 43.8565 25.9248 43.8276 25.9486C43.7694 25.9959 43.7073 26.0441 43.6506 26.0785C43.6341 26.0887 43.6138 26.1101 43.5975 26.1298C43.5809 26.1498 43.5696 26.1665 43.5629 26.1844C43.5562 26.2022 43.5538 26.2222 43.553 26.2482C43.5525 26.2738 43.5537 26.3032 43.5594 26.3218C43.5594 26.3218 43.5594 26.3218 43.5594 26.3218C43.5796 26.3851 43.5946 26.4621 43.6136 26.5376C43.6232 26.5753 43.6336 26.6126 43.6493 26.6483C43.6576 26.6662 43.6664 26.6836 43.6825 26.7016C43.6909 26.7107 43.6996 26.7197 43.7205 26.7305C43.7325 26.736 43.7406 26.7416 43.7781 26.749C43.7943 26.7515 43.8211 26.7586 43.891 26.7527C43.9365 26.7384 44.0181 26.7683 44.197 26.5937C44.2992 26.4903 44.3324 26.2888 44.3115 26.2036C44.3004 26.1322 44.2793 26.0848 44.2616 26.0501C44.1282 25.8472 44.1459 25.9089 44.1242 25.8769C44.1098 25.8624 44.1035 25.8549 44.0962 25.8467C44.0839 25.8322 44.0763 25.8218 44.0684 25.812L44.0433 25.798C44.0369 25.7863 44.0297 25.7762 44.0216 25.7678C43.7332 25.4785 43.5192 25.1507 43.0539 24.9718L43.0688 24.977C43.0605 24.9738 43.0521 24.9708 43.0437 24.9678C42.1345 24.6637 41.254 24.7488 40.32 24.6303C40.3178 24.6301 40.3156 24.6299 40.3135 24.6297C40.093 24.6077 39.8739 24.5839 39.653 24.5582C39.5717 24.5489 39.4913 24.5392 39.4052 24.5297Z" fill="white"/>
<path d="M39.6104 24.9595C39.6777 25.0941 39.7957 25.1964 39.9384 25.244C40.0812 25.2916 40.237 25.2805 40.3716 25.2132C40.5062 25.1459 40.6086 25.0279 40.6561 24.8852C40.7037 24.7424 40.6926 24.5866 40.6254 24.452C40.6254 24.452 40.6254 24.452 40.6254 24.452C40.6003 24.4016 40.6808 24.5437 40.6475 24.6931C40.6475 24.6931 40.6474 24.6932 40.6474 24.6932C40.6244 24.8197 40.5809 24.9512 40.4956 25.0416C40.4539 25.0868 40.4086 25.1165 40.3714 25.1266C40.3712 25.1266 40.3709 25.1267 40.3707 25.1267C40.6546 25.0906 41.3077 25.3932 41.9927 25.6774C41.9939 25.6779 41.9951 25.6784 41.9963 25.6789C42.2975 25.8037 42.5626 25.9644 42.9417 26.1542C42.9418 26.1543 42.942 26.1544 42.9421 26.1544C43.2782 26.3063 43.5225 26.3934 43.54 26.4166C43.5401 26.4166 43.5401 26.4166 43.5402 26.4167L43.6577 26.4702C43.7658 26.5092 43.9282 26.4973 43.964 26.4363C43.964 26.4202 43.9623 26.4112 43.9054 26.3431C43.903 26.3401 43.9005 26.3369 43.8981 26.3335L43.6745 25.8275C43.6655 25.6882 43.7189 25.4947 43.8067 25.3756C43.8944 25.2524 43.9749 25.2008 44.0338 25.1657C44.1481 25.1038 44.196 25.1034 44.2326 25.0994C44.3004 25.0974 44.3173 25.1169 44.3316 25.1369C44.3558 25.1788 44.3502 25.2366 44.3438 25.2985C44.3283 25.4227 44.2974 25.5669 44.2692 25.6682C44.2639 25.6873 44.2588 25.7192 44.255 25.746C44.2512 25.7734 44.2491 25.7935 44.2491 25.8128C44.2491 25.832 44.2512 25.8521 44.255 25.8795C44.2588 25.9063 44.2639 25.9382 44.2692 25.9573C44.2985 26.0586 44.3249 26.2029 44.3669 26.3259C44.3893 26.3872 44.4124 26.444 44.4652 26.4831C44.4936 26.5017 44.5251 26.5194 44.6066 26.5138C44.6501 26.5079 44.705 26.5052 44.8253 26.4396C44.8874 26.4025 44.9706 26.3487 45.0604 26.2225C45.1502 26.1004 45.2046 25.9033 45.1954 25.7604L44.783 25.2211L44.9719 25.2544C44.968 25.2496 44.9642 25.2451 44.9604 25.2407C44.8684 25.1395 44.826 25.1041 44.7847 25.0631C44.5783 24.8635 44.4776 24.7538 44.3255 24.6931L44.443 24.7466C44.4424 24.7463 44.4418 24.746 44.4412 24.7457C44.0128 24.5276 43.7491 24.5361 43.6202 24.4925C43.6201 24.4924 43.62 24.4924 43.6199 24.4924C43.317 24.3949 42.908 24.2444 42.5045 24.1395C42.5029 24.1391 42.5012 24.1386 42.4995 24.1382C41.8639 24.0167 41.196 23.5812 40.0659 23.8059C40.0655 23.806 40.065 23.8062 40.0646 23.8063C39.9863 23.8259 39.901 23.8707 39.8232 23.9379C39.668 24.0701 39.5713 24.2726 39.533 24.4797C39.5329 24.4798 39.5329 24.4798 39.5329 24.4799C39.4817 24.7128 39.5977 24.9369 39.6104 24.9595Z" fill="white"/>
<path d="M39.5312 25.6484C39.4729 25.5105 39.3622 25.4013 39.2234 25.345C39.0847 25.2886 38.9292 25.2897 38.7913 25.348C38.6533 25.4063 38.5441 25.5169 38.4878 25.6557C38.4314 25.7945 38.4325 25.9499 38.4908 26.0879C38.4908 26.0879 38.4908 26.0879 38.4908 26.0879C38.6392 26.366 38.6845 26.3419 38.745 26.4076C38.8002 26.4535 38.8476 26.4882 38.8938 26.5213C39.2217 26.7496 39.512 26.9182 39.7998 27.1064C39.8009 27.1071 39.802 27.1079 39.8031 27.1086C40.1062 27.3012 40.2801 27.6467 40.6309 27.9143C40.6318 27.9149 40.6327 27.9156 40.6336 27.9163C41.394 28.475 42.108 28.9947 42.8187 29.497C42.8191 29.4973 42.8194 29.4976 42.8198 29.4978L42.6081 29.2802C42.6313 29.3118 42.738 29.2917 42.8388 29.2426C42.8811 29.2177 42.9114 29.199 42.9588 29.0972C42.9595 29.096 42.9601 29.0947 42.9608 29.0934L43.1657 28.7502C43.3786 28.6475 43.4038 28.72 43.4248 28.7385C43.441 28.7676 43.4326 28.8 43.4204 28.8319C43.3941 28.8959 43.3466 28.9608 43.3033 29.0126C43.292 29.0262 43.2782 29.0506 43.2673 29.0718C43.2563 29.0935 43.249 29.1101 43.2448 29.1268C43.2406 29.1436 43.2392 29.1616 43.2388 29.186C43.2385 29.2098 43.2391 29.2378 43.2427 29.2551C43.2427 29.2551 43.2427 29.2551 43.2427 29.2551C43.2575 29.3214 43.2681 29.4011 43.3006 29.4761C43.3178 29.5135 43.3392 29.5504 43.3852 29.581C43.4357 29.6005 43.493 29.673 43.7312 29.5535L43.7812 29.0409L43.9362 29.2103C43.9369 29.2082 43.9377 29.2061 43.9384 29.2039C43.9926 29.0304 44.0046 28.9404 44.0248 28.8477C44.0681 28.6305 44.0847 28.4559 44.0099 28.34L43.7982 28.1223C43.7978 28.122 43.7974 28.1217 43.797 28.1215C43.032 27.5809 42.2134 27.1395 41.4679 26.6998C41.4673 26.6994 41.4666 26.699 41.466 26.6987C41.1833 26.5296 40.7642 26.3818 40.4178 26.1611C40.4166 26.1603 40.4153 26.1595 40.4141 26.1587C40.1137 25.963 39.7977 25.7755 39.5495 25.6018C39.5175 25.579 39.4876 25.5564 39.4692 25.541C39.4569 25.5437 39.425 25.4567 39.5312 25.6484Z" fill="white"/>
<path d="M39.5305 26.1715C39.5228 26.0337 39.4608 25.9046 39.358 25.8126C39.2552 25.7205 39.12 25.6731 38.9823 25.6807C38.8445 25.6883 38.7154 25.7504 38.6234 25.8532C38.5313 25.956 38.4839 26.0911 38.4915 26.2289C38.4915 26.2289 38.4915 26.2289 38.4915 26.2289C38.4998 26.3765 38.5144 26.5164 38.5333 26.6569C38.5772 26.9707 38.6356 27.2786 38.7505 27.6084C38.7506 27.6087 38.7508 27.609 38.7509 27.6094C39.0633 28.4409 39.3482 29.2212 39.6822 29.9387C39.6824 29.9391 39.6826 29.9396 39.6828 29.94C39.96 30.5614 40.2525 31.2288 40.5879 31.8495C40.5885 31.8507 40.5891 31.8518 40.5897 31.8529C40.8045 32.2611 41.1089 32.6853 41.2919 32.9677C41.2924 32.9686 41.293 32.9695 41.2935 32.9703L41.3554 33.0569C41.4395 33.1579 41.583 33.21 41.7279 33.2363C41.7815 33.246 41.8357 33.2526 41.883 33.2537C41.926 33.2445 41.9844 33.2842 41.9524 33.1659C41.9515 33.1624 41.9507 33.1587 41.9498 33.1547L42.0278 32.6444C42.1553 32.5022 42.2986 32.4857 42.3598 32.4824C42.426 32.4802 42.4579 32.4893 42.4806 32.4951C42.5255 32.5083 42.5395 32.5197 42.5504 32.5288C42.5703 32.5474 42.5692 32.5609 42.5665 32.5745C42.5593 32.6012 42.5365 32.6266 42.5115 32.6531C42.4605 32.7055 42.3957 32.7603 42.3433 32.7977C42.3298 32.8074 42.3105 32.8262 42.2946 32.8424C42.2785 32.859 42.2672 32.8718 42.2582 32.8853C42.2492 32.8989 42.2418 32.9142 42.2326 32.9355C42.2237 32.9563 42.2138 32.9814 42.2101 32.9976C42.2101 32.9976 42.2101 32.9976 42.2101 32.9976C42.1961 33.0606 42.1697 33.1412 42.1578 33.2181C42.1523 33.2567 42.1493 33.2942 42.1624 33.3317C42.17 33.3508 42.1791 33.3694 42.2098 33.3923C42.2259 33.4035 42.2456 33.4169 42.2962 33.4312C42.3215 33.4376 42.3564 33.447 42.4255 33.4446C42.4896 33.4411 42.6358 33.4237 42.7652 33.2793L42.76 32.7296L42.8432 32.7691C42.8417 32.7635 42.8401 32.7581 42.8384 32.7529C42.7683 32.5608 42.7685 32.5404 42.7572 32.4691C42.7494 32.4088 42.7473 32.3549 42.7451 32.3037C42.7398 32.1666 42.7364 32.0517 42.6805 31.9801L42.7423 32.0667C42.7414 32.0653 42.7406 32.0638 42.7397 32.0624C42.4601 31.6341 42.2637 31.3719 42.0746 31.0326C42.0739 31.0315 42.0733 31.0304 42.0727 31.0293C41.7272 30.4199 41.3595 29.8476 40.9761 29.2292C40.9758 29.2288 40.9755 29.2283 40.9753 29.2279C40.532 28.5421 39.9838 27.9353 39.7311 27.2602C39.731 27.26 39.7309 27.2598 39.7309 27.2596C39.6541 27.042 39.5999 26.7777 39.5645 26.5177C39.5487 26.401 39.5367 26.283 39.5305 26.1715Z" fill="white"/>
<path d="M41.2984 32.0097C41.2831 31.9022 41.2257 31.8051 41.1388 31.7398C41.0519 31.6746 40.9427 31.6465 40.8351 31.6618C40.7276 31.6771 40.6305 31.7346 40.5652 31.8214C40.5 31.9083 40.4719 32.0176 40.4872 32.1251C40.4872 32.1251 40.4872 32.1251 40.4872 32.1251C40.5252 32.3564 40.5881 32.5145 40.6599 32.6856C40.7018 32.7823 40.7478 32.8761 40.797 32.9672C40.7978 32.9687 40.7986 32.9702 40.7994 32.9717C41.1324 33.5221 41.3552 33.9608 41.8784 34.4406C41.8836 34.4447 41.8887 34.4489 41.8939 34.4531C41.9775 34.5016 42.0187 34.6184 42.3845 34.636C42.4172 34.635 42.4526 34.6316 42.4901 34.6247C42.8146 34.5559 42.9496 34.3782 43.0374 34.2721C43.1239 34.1579 43.1715 34.0629 43.2135 33.9735C43.2944 33.7959 43.3425 33.6405 43.3858 33.488C43.4698 33.1858 43.5239 32.8945 43.5742 32.6247C43.5752 32.6191 43.5763 32.6135 43.5773 32.608C43.6246 32.3543 43.6612 32.1083 43.7051 31.8803C43.7057 31.8771 43.7063 31.8739 43.707 31.8707C43.7572 31.5849 43.8821 31.3164 43.9756 30.8724C43.9758 30.8718 43.976 30.8711 43.9761 30.8704C44.0274 30.6673 44.2611 30.1965 44.4043 29.7848C44.4044 29.7845 44.4045 29.7842 44.4046 29.784C44.5667 29.3127 44.5572 28.906 44.5852 28.6037C44.5853 28.6024 44.5854 28.6012 44.5855 28.5999C44.5633 28.5914 44.7196 28.31 44.7952 27.8681C44.7995 27.8381 44.8031 27.8074 44.8058 27.7762L44.8034 27.7991C44.8034 27.7991 44.8034 27.7991 44.8034 27.7991C44.8013 27.8 44.8136 27.7663 44.8372 27.6205C44.8372 27.6204 44.8372 27.6204 44.8372 27.6203C44.8567 27.4575 44.8319 27.642 44.7623 27.7105C44.8535 27.5676 44.884 27.3886 44.8522 27.2167C44.8201 27.0446 44.7283 26.8936 44.5918 26.7933C44.4553 26.6929 44.2839 26.6503 44.11 26.671C43.9364 26.6918 43.7747 26.7743 43.6655 26.904C43.6655 26.904 43.6655 26.904 43.6655 26.904C43.5017 27.0936 43.4586 27.4352 43.461 27.4204C43.461 27.4204 43.461 27.4204 43.461 27.4204C43.4656 27.4043 43.4386 27.4964 43.4214 27.6278C43.4213 27.6284 43.4213 27.629 43.4212 27.6296L43.4188 27.6525C43.4183 27.6581 43.4176 27.6639 43.4167 27.6702C43.4216 27.7654 43.2679 27.9568 43.1963 28.4893C43.1962 28.4909 43.1961 28.4924 43.196 28.494C43.1695 28.8694 43.1612 29.157 43.0998 29.335C43.0997 29.3351 43.0997 29.3352 43.0997 29.3353C42.9808 29.7258 42.8232 30.0134 42.6822 30.6338C42.6816 30.6375 42.6809 30.6412 42.6803 30.6449C42.6505 30.8738 42.5226 31.2467 42.4551 31.6349C42.4543 31.6393 42.4535 31.6436 42.4527 31.6479C42.4063 31.9063 42.3694 32.1497 42.3284 32.3826C42.3275 32.3877 42.3266 32.3929 42.3257 32.398C42.2782 32.6719 42.2333 32.9262 42.1728 33.1584C42.1431 33.2725 42.1082 33.3822 42.0754 33.4572C42.06 33.4936 42.0428 33.5215 42.0458 33.5176C42.0501 33.5206 42.0782 33.4457 42.2646 33.4029C42.2932 33.3977 42.3196 33.3953 42.3433 33.3945C42.603 33.412 42.5502 33.4703 42.5469 33.4634C42.545 33.4629 42.5431 33.4623 42.541 33.4616C42.2217 33.3054 41.7234 32.9398 41.5198 32.5813C41.5191 32.5801 41.5185 32.5789 41.5178 32.5777C41.479 32.5059 41.4433 32.4329 41.4117 32.3599C41.3582 32.2379 41.3108 32.0938 41.2984 32.0097Z" fill="white"/>
<path d="M42.1292 32.5829C42.0457 32.4899 41.9287 32.4339 41.8039 32.4272C41.6791 32.4205 41.5567 32.4636 41.4638 32.5471C41.3708 32.6306 41.3148 32.7476 41.3081 32.8724C41.3013 32.9972 41.3445 33.1196 41.428 33.2125C41.428 33.2125 41.428 33.2125 41.428 33.2125C41.5538 33.3522 41.6989 33.453 41.8478 33.5277C42.0177 33.612 42.194 33.6647 42.3812 33.688C42.3829 33.6882 42.3847 33.6884 42.3865 33.6886C42.7269 33.7165 42.9026 33.557 43.0181 33.4717C43.1345 33.3761 43.2176 33.2864 43.2959 33.2009C43.4504 33.0295 43.5811 32.8682 43.7107 32.707C43.9666 32.3863 44.2057 32.0739 44.4127 31.7455C44.4157 31.7407 44.4187 31.736 44.4216 31.7312C44.8144 31.1284 45.1733 30.2633 45.286 29.5973C45.2867 29.5946 45.2873 29.5919 45.2879 29.5892C45.3568 29.3022 45.4471 28.9799 45.5334 28.7678C45.5344 28.7654 45.5354 28.7631 45.5363 28.7608C45.5731 28.6708 45.5848 28.5812 45.5827 28.4834C45.5814 28.4338 45.5769 28.3834 45.5678 28.3178C45.563 28.2844 45.5576 28.2479 45.5469 28.1946C45.5259 28.1318 45.5534 28.0963 45.4158 27.8609L45.3835 27.3237L44.3144 27.8455C44.3071 27.8573 44.3013 27.8675 44.2962 27.8769C44.2158 28.0704 44.2763 28.064 44.2934 28.1331C44.3199 28.1873 44.3531 28.2376 44.3787 28.2841C44.3841 28.2939 44.3891 28.3035 44.3937 28.3128C44.3941 28.3136 44.3945 28.3144 44.3949 28.3152C44.466 28.4435 44.5152 28.5615 44.5604 28.7036C44.5658 28.7196 44.5803 28.739 44.5946 28.7549C44.6093 28.771 44.6227 28.7824 44.6379 28.7891C44.653 28.7958 44.6704 28.7981 44.6922 28.7982C44.7137 28.7982 44.7378 28.7959 44.7532 28.7892C44.7532 28.7892 44.7532 28.7892 44.7532 28.7892C44.8871 28.7319 45.021 28.6491 45.1583 28.5697C45.1591 28.5693 45.1599 28.5688 45.1607 28.5684C45.17 28.5638 45.1797 28.5593 45.1898 28.5551C45.2375 28.5351 45.2931 28.519 45.3431 28.5072C45.3843 28.5107 45.4669 28.4371 45.4203 28.5694C45.4165 28.5769 45.4117 28.5855 45.4055 28.5956L44.3041 28.5802C44.1774 28.3631 44.2077 28.3494 44.1887 28.3076C44.1797 28.2752 44.1741 28.2601 44.1683 28.2478C44.157 28.2247 44.1467 28.2162 44.1376 28.2082C44.1194 28.1937 44.1068 28.1857 44.1114 28.1741C44.1115 28.1738 44.1116 28.1735 44.1117 28.1732C43.9535 28.5703 43.8747 28.885 43.7896 29.2355C43.7888 29.2387 43.7881 29.2418 43.7874 29.245C43.6536 29.9642 43.4921 30.4228 43.1866 31.0396C43.1844 31.0439 43.1822 31.0483 43.18 31.0527C43.0053 31.402 42.8706 31.768 42.7264 32.1125C42.6541 32.2841 42.5785 32.4517 42.4977 32.589C42.4584 32.6564 42.4146 32.7176 42.3864 32.7491C42.3572 32.7893 42.3549 32.7474 42.4974 32.7528C42.4967 32.7527 42.496 32.7526 42.4953 32.7525C42.4189 32.7434 42.337 32.7188 42.269 32.6846C42.2089 32.6548 42.1599 32.6175 42.1292 32.5829Z" fill="white"/>
<path d="M42.062 31.9183C41.8904 31.9753 41.7484 32.0981 41.6672 32.2597C41.5861 32.4213 41.5725 32.6086 41.6295 32.7802C41.6864 32.9519 41.8092 33.0939 41.9708 33.175C42.1324 33.2561 42.3197 33.2697 42.4913 33.2128C42.4913 33.2128 42.4913 33.2128 42.4913 33.2128C42.7366 33.1182 42.7743 33.0632 42.8606 33.0044C42.9349 32.9473 42.9967 32.8936 43.0556 32.8402C43.1725 32.7339 43.276 32.629 43.3758 32.5231C43.3778 32.521 43.3798 32.5189 43.3818 32.5168C43.602 32.2596 43.6456 32.144 43.7429 31.9954C43.8288 31.8551 43.9094 31.7235 43.9884 31.5931C44.1458 31.3321 44.2947 31.0776 44.4095 30.8117C44.4127 30.8041 44.416 30.7965 44.4193 30.7889C44.4296 30.7645 44.4398 30.7394 44.4491 30.7157C44.7698 29.7907 44.8297 29.0989 44.9719 28.3476C44.9747 28.3317 44.9774 28.3158 44.9802 28.2999C45.0965 27.669 45.0872 26.9556 45.037 26.3965C45.0356 26.3759 45.0343 26.3555 45.0334 26.336C45.0227 26.1506 45.0009 25.9802 44.9645 25.8164C44.9579 25.7868 44.9503 25.7576 44.9422 25.7287C44.912 25.6161 44.8568 25.4409 44.6568 25.2623C44.4608 25.087 44.1965 25.0378 44.0642 25.0423C43.7817 25.0556 43.7247 25.1134 43.6551 25.1402C43.5397 25.2005 43.5054 25.2336 43.4675 25.263C43.3994 25.3199 43.3652 25.3572 43.3292 25.396C43.2923 25.4367 43.2603 25.4756 43.2251 25.5241C43.073 25.7419 43.0454 25.8812 43.0144 25.9611C42.9854 26.0487 42.9638 26.1208 42.9423 26.1937C42.9003 26.3366 42.863 26.4721 42.8288 26.6088C42.823 26.632 42.8173 26.6551 42.8113 26.6793C42.5852 27.6006 42.3763 28.5126 42.1556 29.4146C42.1478 29.4464 42.1393 29.4808 42.1315 29.5124C41.99 30.1153 41.848 30.5613 41.7302 31.3667C41.728 31.398 41.725 31.4285 41.7266 31.498C41.7328 31.5544 41.715 31.5592 41.7718 31.7673C41.7901 31.8147 41.7991 31.8793 41.9096 32.0378C42.0071 32.1752 42.2541 32.4073 42.6386 32.4158C42.8114 32.419 42.9516 32.3743 43.0487 32.3291C43.1192 32.2957 43.1582 32.2699 43.1978 32.242C43.2731 32.1876 43.3166 32.1425 43.3501 32.1058C43.5809 31.8275 43.5933 31.6865 43.6374 31.5625C43.6716 31.4415 43.6886 31.3459 43.7028 31.2566C43.73 31.0798 43.7422 30.9302 43.7528 30.7853C43.7728 30.4986 43.7816 30.2356 43.798 29.9952C43.7994 29.9742 43.8009 29.9531 43.8024 29.9327C43.8609 29.1637 43.8491 28.3545 43.7178 27.5668C43.7126 27.5343 43.7072 27.5014 43.702 27.4707C43.6135 26.9646 43.5509 26.4757 43.3776 25.8707C43.3642 25.8262 43.3498 25.7811 43.3341 25.7351C43.2843 25.5952 43.2349 25.3092 43.154 24.9888C43.1422 24.9429 43.1284 24.8961 43.1128 24.8485C43.1077 24.8341 43.1057 24.8215 43.0789 24.7494C43.0702 24.7276 43.0627 24.7063 43.0363 24.6533C43.0243 24.6302 43.0049 24.5918 42.9649 24.5346C42.9463 24.5088 42.9168 24.4671 42.8582 24.4085C42.7919 24.3508 42.7491 24.2865 42.5172 24.1938C42.3037 24.1059 41.9605 24.1343 41.7689 24.2491C41.6696 24.3017 41.5916 24.3686 41.5443 24.4172C41.5083 24.4538 41.4803 24.4882 41.4574 24.5195C41.3644 24.6529 41.3552 24.7002 41.3367 24.7432C41.3035 24.8366 41.3041 24.8501 41.2956 24.886C41.2679 25.0492 41.2784 25.0431 41.2754 25.0864C41.2751 25.1502 41.2776 25.1927 41.2797 25.2373C41.2843 25.3243 41.2893 25.4035 41.2902 25.4818C41.2905 25.5122 41.2909 25.5412 41.2912 25.572C41.3043 26.473 41.271 27.3521 41.27 28.2284C41.27 28.2665 41.2699 28.3053 41.2698 28.3432C41.2682 28.975 41.2598 29.6076 41.2427 30.2352C41.2415 30.2805 41.2401 30.3259 41.2388 30.371C41.2388 30.3708 41.2387 30.37 41.2393 30.3604C41.2426 30.3405 41.2317 30.3654 41.2598 30.2194C41.267 30.1886 41.2762 30.1491 41.3008 30.0844C41.3134 30.0518 41.3299 30.0125 41.3577 29.9619C41.3828 29.9373 41.5216 29.5684 42.0717 29.4615C42.3359 29.4164 42.5978 29.5026 42.7397 29.593C42.8871 29.6894 42.8757 29.6936 42.926 29.7389C42.9993 29.8128 43.0371 29.8693 43.0654 29.9137C43.1184 29.999 43.1395 30.0574 43.1469 30.0752C43.1749 30.1481 43.1801 30.1774 43.1831 30.1875C43.19 30.2155 43.1902 30.2187 43.1911 30.2226C43.1923 30.2294 43.1881 30.2049 43.1852 30.1854C43.1788 30.1432 43.1715 30.0927 43.1642 30.0432C43.1496 29.9431 43.1343 29.8399 43.1184 29.7368C43.0864 29.5304 43.0517 29.3236 43.0141 29.117C43.0113 29.1018 43.0085 29.0866 43.0057 29.0712C42.8735 28.4021 42.653 27.8947 42.45 27.3946C42.4421 27.3755 42.434 27.356 42.4261 27.3371C42.0674 26.4797 41.5529 25.5361 40.6774 24.8617C40.6508 24.8409 40.6227 24.8223 40.5955 24.8054C40.5907 24.8074 40.5712 24.7985 40.555 24.7838C40.5453 24.7752 40.5254 24.7561 40.5277 24.7583C40.5176 24.7483 40.5063 24.7367 40.4771 24.711C40.4616 24.6978 40.4427 24.6812 40.4021 24.6521C40.3813 24.6375 40.3551 24.6195 40.3114 24.5952C40.2894 24.583 40.2628 24.5693 40.2271 24.5538C40.1838 24.5387 40.1783 24.5227 40.0007 24.4879C39.8568 24.4623 39.5087 24.4524 39.2078 24.7216C38.9136 24.9938 38.8913 25.3036 38.8912 25.4394C38.9065 25.7258 38.9562 25.7644 38.9743 25.823C39.0159 25.9134 39.0357 25.9374 39.0396 25.9451C39.0465 25.956 39.0517 25.9638 39.056 25.9703C39.0726 25.9947 39.0806 26.005 39.0835 26.0092C39.0916 26.0201 39.0981 26.0286 39.1017 26.0333C39.1109 26.0453 39.117 26.0532 39.1241 26.0623C39.1369 26.0788 39.1486 26.0937 39.1609 26.1094C39.1841 26.139 39.2067 26.1678 39.2297 26.1971C39.2748 26.2547 39.3195 26.312 39.3641 26.3695C39.4536 26.4849 39.5415 26.5996 39.6291 26.7154C39.8043 26.9468 39.9766 27.1803 40.1453 27.4152C40.1548 27.4284 40.1643 27.4418 40.1739 27.4551C40.3707 27.7298 40.4846 27.9992 40.6303 28.3822C40.6376 28.4014 40.6448 28.4203 40.6522 28.4398C40.8675 29.0088 41.0739 29.6496 41.168 30.1371C41.1709 30.1535 41.1733 30.1679 41.1741 30.1681C41.1748 30.1708 41.1743 30.1674 41.1733 30.144C41.176 30.1127 41.1587 30.0992 41.1969 29.903C41.2119 29.8446 41.2253 29.7806 41.292 29.6559C41.3475 29.5518 41.4937 29.3503 41.7459 29.2391C42.2935 29.0387 42.5059 29.2406 42.5918 29.2647C42.767 29.3661 42.7658 29.3898 42.7954 29.414C42.8574 29.4829 42.8201 29.4497 42.8078 29.4346C42.7707 29.3924 42.7203 29.3248 42.6752 29.2544C42.6652 29.2388 42.6553 29.2233 42.6447 29.2065C42.1925 28.4805 41.7399 27.6912 41.2723 26.9151C41.2563 26.8886 41.2395 26.8608 41.2236 26.8346C40.8848 26.2535 40.328 25.526 39.9716 25.1456C39.9672 25.1404 39.9711 25.1452 39.9863 25.1732C39.96 25.1276 39.9406 25.0979 39.9266 25.0757C39.9171 25.0605 39.9093 25.0481 39.9116 25.0518C39.9133 25.0549 39.9164 25.0587 39.933 25.0908C39.942 25.1101 39.9533 25.1269 39.9811 25.2058C39.994 25.256 40.0201 25.2872 40.0297 25.4905C40.0247 25.5872 40.0432 25.7748 39.8475 26.0608C39.7541 26.1919 39.6034 26.3097 39.4631 26.3687C39.3399 26.4222 39.2322 26.44 39.145 26.4458C38.8824 26.4523 38.8109 26.3697 38.8102 26.3763C38.8079 26.3741 38.8504 26.4063 38.8978 26.4495C38.9963 26.5381 39.1264 26.6672 39.2664 26.7968C39.5481 27.0592 39.886 27.3343 40.2711 27.5524C40.2911 27.5638 40.3114 27.5751 40.3319 27.5864C40.6609 27.7901 41.216 27.8435 41.5083 27.778C41.5389 27.7731 41.5675 27.768 41.5939 27.763C41.9359 27.7255 42.3592 27.3698 42.4651 27.1048C42.5937 26.8398 42.608 26.6666 42.6269 26.526C42.6535 26.256 42.6463 26.0649 42.6555 26.009C42.6557 26.0074 42.6558 26.0062 42.6559 26.0054C42.6607 25.9557 42.6892 25.8427 42.747 25.7445C42.7495 25.7402 42.7519 25.736 42.7545 25.7317C42.7196 25.7807 42.6463 25.8151 43.2357 25.4806C43.2469 25.4728 43.2583 25.4646 43.2699 25.4561C43.5335 25.2568 43.6312 25.0389 43.689 24.8932C43.6955 24.876 43.7013 24.8594 43.7065 24.8433C43.7247 24.7849 43.7529 24.6988 43.7611 24.551C43.7709 24.4083 43.7375 24.1757 43.6241 23.9883C43.3761 23.6067 43.145 23.5727 43.0336 23.5244C43.0041 23.5147 42.9776 23.5073 42.9526 23.5011C42.5305 23.4099 42.2098 23.4121 41.7489 23.5715C41.7227 23.5821 41.7022 23.5896 41.6439 23.6189C41.6963 23.5961 41.7572 23.5544 41.9514 23.5274C42.0011 23.5218 42.0609 23.5187 42.1343 23.525C42.1772 23.5241 42.4367 23.5676 42.6081 23.7072C43.0073 24.0178 42.9772 24.4466 42.9666 24.5335C42.9306 24.7831 42.8797 24.8252 42.8745 24.8482C42.8478 24.9003 42.8377 24.914 42.8313 24.9246C42.817 24.9469 42.8153 24.9487 42.8123 24.953C42.8077 24.9592 42.809 24.957 42.8104 24.9547C42.8138 24.9492 42.8206 24.9387 42.8278 24.9271C42.8425 24.9036 42.86 24.8745 42.8794 24.838C42.9155 24.7607 42.9749 24.6764 43.0057 24.4304C43.0124 24.3596 43.0136 24.2721 42.9952 24.1686C42.9667 23.9888 42.8625 23.761 42.7146 23.6096C42.5677 23.4551 42.4168 23.3784 42.3025 23.3318C42.0714 23.2438 41.937 23.2393 41.8231 23.2276C41.6129 23.2145 41.4376 23.2128 41.4767 23.2142C41.4594 23.2111 41.4423 23.2084 41.4249 23.2059C41.107 23.184 40.8761 23.1362 40.3898 23.4451C40.2597 23.5385 40.1314 23.7039 40.0739 23.864C39.9491 24.2463 40.0418 24.4166 40.0699 24.5263C40.1097 24.6357 40.1466 24.6958 40.1793 24.7479C40.2449 24.8484 40.2989 24.9069 40.3528 24.9619C40.366 24.9752 40.3793 24.988 40.3927 25.0005C40.4038 25.0108 40.415 25.0209 40.4262 25.0306C40.9383 25.436 41.3468 25.4336 41.7414 25.4218C41.7563 25.4207 41.7706 25.4194 41.7862 25.4177C42.0143 25.4068 42.4435 25.2332 42.6359 24.8937C42.6492 24.8721 42.6619 24.8496 42.674 24.8262C42.8722 24.4513 42.7707 24.0556 42.6991 23.9004C42.6962 23.8933 42.6932 23.8864 42.6901 23.8795C42.2987 23.1437 41.8806 22.9983 41.3949 22.7928L40.7594 22.5646L40.3583 23.125C40.3357 23.157 40.3159 23.1898 40.2998 23.2197C40.1429 23.5532 40.1971 23.67 40.2042 23.7713C40.2224 23.8673 40.2508 23.9275 40.2812 23.98C40.3428 24.0827 40.4148 24.1488 40.4971 24.2189C40.5005 24.2218 40.5038 24.2246 40.5071 24.2274C40.7149 24.3969 40.8126 24.3456 40.9094 24.3323C41.0055 24.3108 41.0995 24.2843 41.1927 24.265C41.2364 24.2563 41.2973 24.2265 41.3483 24.1977C41.4001 24.1679 41.4379 24.1415 41.4669 24.1088C41.4959 24.0761 41.5177 24.0355 41.541 23.9805C41.5636 23.9264 41.5859 23.8624 41.5894 23.818C41.5894 23.818 41.5894 23.818 41.5894 23.818C41.595 23.7208 41.6005 23.6179 41.6079 23.5202C41.6173 23.4296 41.62 23.3067 41.761 23.3795C41.7632 23.3805 41.7653 23.3815 41.7675 23.3825C41.8201 23.4073 41.8685 23.4239 41.914 23.4748C41.9364 23.5014 41.9586 23.535 41.9742 23.604C41.979 23.6786 42.0333 23.7668 41.889 24.0759C41.874 24.1037 41.8555 24.1343 41.8344 24.1643L40.7977 24.4965C40.922 24.5239 41.1242 24.7433 41.0264 24.6132C41.0258 24.6118 41.0251 24.6104 41.0245 24.6089C40.9952 24.5512 40.9123 24.2731 41.0587 23.9954C41.0675 23.9785 41.0766 23.9624 41.086 23.9471C41.2076 23.7287 41.4986 23.621 41.5902 23.6227C41.597 23.622 41.6031 23.6215 41.6092 23.621C41.5474 23.6382 41.4601 23.5666 41.6123 23.6705C41.6155 23.6733 41.6188 23.6762 41.6221 23.6794C41.6262 23.6831 41.6303 23.6871 41.6345 23.6912C41.6493 23.7067 41.6671 23.7228 41.7026 23.7765C41.7204 23.8053 41.744 23.8409 41.7744 23.924C41.7936 24.0078 41.8802 24.1491 41.7651 24.5049C41.7118 24.6536 41.5911 24.8091 41.4707 24.8954C41.314 25.002 41.2882 24.9859 41.2496 24.9979C41.2163 25.0033 41.1939 25.0029 41.1685 24.9997C41.1656 24.9993 41.1628 24.9989 41.1599 24.9984C41.4853 25.0457 41.6013 25.0255 41.6796 25.0362C41.7097 25.0365 41.7207 25.0504 41.6246 25.0157C41.5773 24.9961 41.4903 24.9565 41.3932 24.8549C41.2953 24.756 41.2234 24.5962 41.2072 24.4879C41.1906 24.3943 41.1919 24.3171 41.1977 24.2564C41.2247 24.0462 41.2688 23.9953 41.2877 23.9492C41.2983 23.9284 41.3063 23.9144 41.311 23.9058C41.3131 23.9017 41.3149 23.8985 41.3131 23.9003C41.3119 23.9016 41.3106 23.9031 41.3035 23.913C41.2992 23.9192 41.2963 23.9227 41.2807 23.947C41.2738 23.9585 41.2629 23.9734 41.2358 24.0263C41.2304 24.0496 41.1792 24.0926 41.1432 24.3426C41.1325 24.4296 41.1025 24.8586 41.5018 25.1693C41.6733 25.3089 41.9329 25.3524 41.9757 25.3516C42.0492 25.3578 42.1091 25.3547 42.1588 25.3491C42.3533 25.3221 42.4145 25.2803 42.4672 25.2573C42.4233 25.2795 42.4171 25.2811 42.4065 25.2857C42.3562 25.3035 42.489 25.2873 42.4886 25.3026C42.4776 25.3 42.4645 25.2965 42.4483 25.2912C42.3914 25.2613 42.2168 25.2539 41.999 24.9235C41.9003 24.7614 41.8721 24.5587 41.8801 24.4449C41.8867 24.3262 41.9073 24.2686 41.9163 24.2377C41.9173 24.2339 41.9187 24.2295 41.9206 24.2244C41.9385 24.1843 41.9776 24.0694 42.1492 23.9382C42.1513 23.9367 42.1531 23.9354 42.1546 23.9344C42.2213 23.9308 41.4842 24.1506 41.1324 24.7718C41.1257 24.7833 41.119 24.7946 41.1125 24.806C40.9571 25.0804 40.8261 25.3753 40.7716 25.7519C40.7699 25.7642 40.7684 25.7763 40.767 25.7881C40.7378 26.0796 40.7473 26.2395 40.7358 26.3167C40.7349 26.349 40.7182 26.3511 40.7684 26.2427C40.7988 26.1353 41.073 25.902 41.2408 25.8928C41.228 25.8952 41.2172 25.8971 41.2083 25.8985C41.1154 25.9032 41.2584 25.9109 41.2447 25.9183C41.2331 25.912 41.2216 25.9056 41.2102 25.8991C40.9902 25.7748 40.7821 25.6127 40.5551 25.4028C40.4396 25.297 40.3241 25.1813 40.1643 25.0369C40.0818 24.9642 39.9926 24.8841 39.8444 24.7864C39.6992 24.6996 39.4632 24.5359 39.0248 24.5531C38.9364 24.559 38.8278 24.577 38.7037 24.6309C38.5625 24.6903 38.411 24.8087 38.3171 24.9407C38.1202 25.2282 38.1383 25.4179 38.1334 25.5165C38.1431 25.7241 38.1703 25.7588 38.1844 25.8129C38.2148 25.8993 38.2295 25.9233 38.2421 25.9497C38.266 25.996 38.2772 26.0135 38.287 26.0303C38.3058 26.0612 38.3152 26.0756 38.3225 26.0873C38.3323 26.1027 38.3363 26.1106 38.3318 26.1036C38.3803 26.1909 38.4235 26.2514 38.4602 26.3001C38.6338 26.519 38.7144 26.5964 38.8123 26.7164C38.9057 26.8283 38.9949 26.943 39.0815 27.0616C39.2554 27.2999 39.4215 27.5571 39.5809 27.8236C39.5959 27.8487 39.6119 27.8755 39.6271 27.9011C40.082 28.6645 40.5193 29.434 41.0114 30.2334C41.0238 30.2533 41.0355 30.2719 41.0477 30.2911C41.1039 30.3793 41.1548 30.4675 41.2268 30.5769C41.2692 30.6366 41.2877 30.6796 41.4151 30.8145C41.462 30.8556 41.4774 30.8946 41.6734 31.0075C41.7692 31.0367 41.9942 31.2434 42.5526 31.0381C42.8101 30.9247 42.9605 30.7183 43.0186 30.6094C43.0882 30.4792 43.1032 30.4101 43.1197 30.3457C43.1628 30.1269 43.1447 30.0895 43.1462 30.035C43.1439 29.9883 43.141 29.9615 43.139 29.941C43.1332 29.8842 43.1269 29.8427 43.1199 29.8016C42.9606 28.9967 42.7311 28.3895 42.4753 27.7306C42.4669 27.7095 42.4586 27.6888 42.4501 27.6675C42.2898 27.2571 42.0401 26.7482 41.732 26.3346C41.7218 26.3205 41.7117 26.3065 41.7015 26.2925C41.5221 26.0448 41.3396 25.7997 41.1549 25.5571C41.0624 25.4357 40.9698 25.3154 40.8759 25.1948C40.8292 25.1347 40.7823 25.0749 40.7359 25.0157C40.7123 24.9857 40.6891 24.9562 40.6668 24.9279C40.6552 24.913 40.6442 24.899 40.6346 24.8867C40.6295 24.8802 40.6252 24.8745 40.6226 24.8712C40.6217 24.87 40.6208 24.8687 40.6241 24.8733C40.6254 24.8751 40.6288 24.8792 40.6434 24.9007C40.6472 24.9063 40.6519 24.9134 40.6584 24.9237C40.662 24.931 40.6809 24.9534 40.7224 25.0434C40.7403 25.1016 40.7899 25.14 40.8052 25.4262C40.8052 25.562 40.7829 25.8717 40.4887 26.1439C40.1878 26.4131 39.8397 26.4032 39.6959 26.3776C39.5184 26.3428 39.513 26.3268 39.4697 26.3117C39.434 26.2963 39.4075 26.2825 39.3855 26.2704C39.342 26.2462 39.3159 26.2282 39.2952 26.2137C39.2549 26.1849 39.2364 26.1685 39.2214 26.1557C39.1929 26.1307 39.1828 26.1202 39.1742 26.1117C39.2172 26.1542 39.2391 26.1743 39.272 26.2042C39.3172 26.2448 39.3605 26.2896 39.4213 26.3419C39.4379 26.3584 39.4544 26.3744 39.4716 26.3882C39.9598 26.7672 40.312 27.3721 40.6018 28.086C40.6092 28.1044 40.6168 28.1232 40.6242 28.1415C40.8124 28.6072 40.9859 29.0738 41.0523 29.4311C41.0548 29.4451 41.0574 29.4591 41.0599 29.4729C41.0943 29.6619 41.1261 29.8509 41.156 30.0421C41.171 30.1378 41.1853 30.2334 41.1999 30.332C41.2072 30.3816 41.2145 30.4312 41.2233 30.488C41.2281 30.5187 41.2314 30.5425 41.2422 30.5995C41.2455 30.6161 41.2482 30.6313 41.2581 30.6714C41.2621 30.6858 41.27 30.7244 41.2996 30.8013C41.3075 30.8203 41.3297 30.8812 41.3834 30.9677C41.4121 31.0127 41.4503 31.0696 41.524 31.1439C41.5745 31.1894 41.5632 31.1937 41.711 31.2905C41.8533 31.3811 42.1155 31.4674 42.3801 31.4222C42.9309 31.3152 43.0707 30.9452 43.0961 30.9199C43.1241 30.8689 43.1409 30.8291 43.1537 30.7959C43.1787 30.7299 43.1884 30.6889 43.196 30.6562C43.2265 30.4986 43.2165 30.5108 43.2206 30.4778C43.2219 30.4547 43.2223 30.4437 43.2227 30.429C43.224 30.3818 43.2253 30.3341 43.2264 30.2867C43.2422 29.6306 43.2415 28.9778 43.2276 28.3242C43.2268 28.285 43.2259 28.245 43.225 28.2058C43.2037 27.3092 43.1161 26.4145 43.0961 25.5442C43.0955 25.5153 43.0951 25.4883 43.0947 25.4604C43.0939 25.3891 43.0977 25.3167 43.1034 25.2526C43.1063 25.2216 43.1098 25.1892 43.1131 25.1774C43.1122 25.183 43.1244 25.1394 43.1037 25.2657C43.0964 25.2961 43.0977 25.3065 43.0664 25.3945C43.0487 25.4354 43.0404 25.4806 42.9488 25.612C42.9262 25.6428 42.8986 25.6768 42.8629 25.7132C42.816 25.7613 42.7386 25.8277 42.6398 25.8801C42.4493 25.9943 42.1072 26.0227 41.8949 25.9351C41.6642 25.8429 41.6221 25.7792 41.5566 25.7224C41.4989 25.6647 41.4702 25.624 41.4523 25.5991C41.4135 25.5436 41.3955 25.5077 41.3844 25.4864C41.3602 25.4379 41.3543 25.4206 41.3474 25.4034C41.3271 25.3489 41.3303 25.3547 41.3304 25.3584C41.3366 25.387 41.3433 25.4168 41.3511 25.4478C41.4104 25.6704 41.4433 25.9424 41.5707 26.3354C41.5786 26.3585 41.5864 26.3831 41.5942 26.4088C41.7022 26.7744 41.7836 27.288 41.867 27.777C41.8719 27.806 41.8767 27.835 41.8812 27.8628C41.9864 28.4936 41.9973 29.1299 41.9482 29.7939C41.9463 29.8195 41.9445 29.8454 41.9428 29.8706C41.9239 30.1567 41.9167 30.4217 41.9018 30.6612C41.8945 30.7799 41.8849 30.8934 41.8727 30.9775C41.8669 31.0186 41.8595 31.0533 41.858 31.0589C41.8655 31.0603 41.8332 31.0486 41.977 30.87C42.0082 30.8359 42.0495 30.7927 42.1228 30.7398C42.1613 30.7127 42.1995 30.6874 42.269 30.6545C42.3645 30.61 42.5033 30.5656 42.6747 30.5689C43.0564 30.5772 43.3016 30.8079 43.3974 30.9431C43.506 31.099 43.514 31.161 43.5317 31.2062C43.5852 31.4028 43.567 31.3988 43.5727 31.4424C43.5737 31.4914 43.5718 31.5002 43.5714 31.508C43.6212 31.1613 43.7782 30.4758 43.9047 29.9442C43.9125 29.9114 43.921 29.8759 43.9288 29.8432C44.1471 28.9233 44.3544 28.0068 44.5688 27.1082C44.5744 27.0849 44.5798 27.0627 44.5851 27.0405C44.6166 26.9106 44.6457 26.7805 44.6745 26.6598C44.6888 26.5996 44.7035 26.5408 44.7156 26.4977C44.7271 26.4482 44.7395 26.4537 44.6692 26.5609C44.6581 26.576 44.6521 26.5829 44.6428 26.5932C44.633 26.6035 44.6262 26.6133 44.5882 26.6457C44.5653 26.663 44.5469 26.6844 44.4485 26.7361C44.3877 26.7586 44.3397 26.8127 44.0671 26.8258C43.9396 26.8302 43.6803 26.7823 43.488 26.6102C43.2917 26.435 43.2385 26.2641 43.2095 26.1564C43.2126 26.1729 43.2157 26.1893 43.2193 26.2055C43.2393 26.2949 43.2586 26.3816 43.2656 26.4552C43.2675 26.4787 43.2694 26.5022 43.2711 26.5249C43.322 27.0927 43.3223 27.5214 43.2424 28.0077C43.2397 28.024 43.2371 28.0402 43.2345 28.0563C43.111 28.788 43.0126 29.6081 42.8523 30.1167C42.8488 30.1273 42.8451 30.1376 42.8419 30.1467C42.8389 30.1543 42.836 30.162 42.833 30.1696C42.7302 30.4374 42.6616 30.7166 42.5894 30.9852C42.5535 31.1188 42.5163 31.2504 42.4747 31.3688C42.4415 31.4773 42.3579 31.6238 42.3871 31.5837C42.3855 31.5855 42.3839 31.5872 42.3822 31.5889C42.3008 31.6755 42.2178 31.7589 42.139 31.8304C42.1 31.8659 42.0613 31.8988 42.0308 31.9221C42.0115 31.9426 41.9416 31.9676 42.062 31.9183Z" fill="white"/>
<path d="M41.9013 25.5484C41.8459 25.3984 41.7331 25.2766 41.5879 25.2097C41.4426 25.1428 41.2767 25.1364 41.1267 25.1918C40.9766 25.2472 40.8548 25.36 40.7879 25.5053C40.721 25.6506 40.7146 25.8165 40.7701 25.9665C40.7701 25.9665 40.7701 25.9665 40.7701 25.9665C40.8176 26.0946 40.8667 26.2113 40.9171 26.3267C41.1437 26.8307 41.3577 27.2817 41.6793 27.792C41.699 27.8217 41.7034 27.8631 41.7048 27.9129C41.7293 28.0524 41.7381 28.21 41.8074 28.3024C41.8427 28.3495 41.8815 28.3906 41.9248 28.4275C41.962 28.4573 42.0045 28.4883 42.0747 28.5258C42.145 28.5571 42.2051 28.6079 42.4481 28.6386C42.5668 28.6481 42.7994 28.6524 43.0528 28.4786C43.3063 28.3 43.391 28.0536 43.4178 27.929C43.5119 27.402 43.3533 27.1401 43.2649 26.9287C43.1625 26.7202 43.0559 26.5645 42.9495 26.4185C42.7372 26.1314 42.521 25.8943 42.3147 25.6692C42.2795 25.6309 42.2439 25.5918 42.2109 25.5549C42.189 25.5317 42.1798 25.5204 42.1379 25.4804C42.126 25.4694 42.1254 25.468 42.0961 25.443C42.0834 25.4324 42.0685 25.4202 42.0476 25.4046C42.037 25.3968 42.025 25.3882 42.0101 25.3782C41.9958 25.37 41.9837 25.3559 41.884 25.3075C41.7892 25.2863 41.6269 25.1201 41.1178 25.3051C40.8692 25.4109 40.6837 25.6647 40.6303 25.844C40.5701 26.0285 40.5794 26.1481 40.5859 26.2306C40.6383 26.5416 40.6624 26.4975 40.6712 26.5379C40.6946 26.5875 40.7132 26.618 40.7205 26.6308C40.7825 26.7331 40.7958 26.7488 40.8225 26.7895C40.8701 26.8601 40.9115 26.9203 40.9537 26.9813C41.0376 27.1024 41.1189 27.2186 41.203 27.3351C41.3819 27.5759 41.5071 27.7671 41.8037 28.0632L43.3916 26.9073C43.3769 26.8759 43.3628 26.8481 43.3492 26.8225C43.1539 26.4737 42.9429 26.3457 42.7597 26.1935C42.7347 26.1743 42.7108 26.1554 42.6943 26.1454L42.6683 26.1086C42.6639 26.1042 42.6597 26.0999 42.6553 26.0956C42.5569 25.9963 42.4162 25.9483 42.3317 25.9238C42.2096 25.887 42.0435 25.9006 41.8946 25.937C41.7443 25.9749 41.6235 26.0325 41.5341 26.1219C41.4447 26.2113 41.3871 26.3321 41.3492 26.4824C41.3128 26.6313 41.2992 26.7974 41.336 26.9195C41.336 26.9195 41.336 26.9195 41.336 26.9195C41.3646 27.0075 41.3355 27.0741 41.3334 27.1022C41.3333 27.1035 41.3333 27.1048 41.3332 27.1062L41.3072 27.0693C41.3288 27.1166 41.3452 27.1547 41.3605 27.1919C41.4568 27.4326 41.5447 27.6864 41.5827 27.7604C41.584 27.7627 41.584 27.7629 41.5824 27.7593L43.1703 26.6034C43.0797 26.5179 42.8579 26.2853 42.6877 26.1083C42.5979 26.0143 42.5083 25.9195 42.423 25.8257C42.3807 25.7793 42.3386 25.7318 42.3049 25.6928C42.2918 25.6794 42.2637 25.6394 42.2905 25.6846C42.2942 25.6915 42.3064 25.7107 42.3271 25.7545C42.3348 25.7924 42.3562 25.7429 42.4081 26.0493C42.4144 26.1308 42.4238 26.2496 42.3638 26.4335C42.3106 26.6121 42.1255 26.8655 41.8774 26.971C41.3695 27.1555 41.209 26.9896 41.1168 26.9696C41.0199 26.9226 41.0102 26.91 40.9969 26.9025C40.9833 26.8934 40.9727 26.8857 40.9637 26.8791C40.9457 26.8657 40.9343 26.8563 40.9255 26.8488C40.906 26.8321 40.9076 26.8328 40.9023 26.8278C40.889 26.8143 40.8972 26.8208 40.9038 26.8268C40.9402 26.8612 40.9765 26.896 41.0108 26.9295C41.2088 27.1232 41.3902 27.3132 41.5295 27.4901C41.5983 27.5771 41.6557 27.6627 41.6836 27.7148C41.721 27.7615 41.6718 27.7914 41.7068 27.5534C41.73 27.4451 41.8073 27.2146 42.0469 27.0456C42.2865 26.8815 42.5017 26.8877 42.604 26.8957C42.8137 26.923 42.843 26.96 42.8839 26.9763C42.9214 26.9966 42.9329 27.0074 42.9401 27.0157C42.9317 27.0153 42.9202 27.017 42.9071 27.0225C42.8824 27.0339 42.8035 27.1027 42.7545 27.1422C42.7239 27.1485 42.6962 27.1433 42.6845 27.1256C42.4542 26.7631 42.2164 26.2813 42.022 25.8433C41.9778 25.7423 41.9354 25.6404 41.9013 25.5484Z" fill="white"/>
<circle cx="54.3237" cy="16.4999" r="3.5" fill="white"/>
<circle cx="30.3237" cy="16.4999" r="3.5" fill="white"/>
<circle cx="15.5" cy="8.5" r="8.5" fill="#78DAE5"/>
<circle cx="68.5" cy="8.5" r="8.5" fill="#78DAE5"/>
</svg>
