<svg width="85" height="72" viewBox="0 0 85 72" fill="none" xmlns="http://www.w3.org/2000/svg">
<path fill-rule="evenodd" clip-rule="evenodd" d="M81.9283 48.1262C88.4482 58.1029 81.2907 71.332 69.3726 71.3323H15.025C3.10681 71.3321 -4.05158 58.1029 2.46833 48.1262L7.56208 40.3323H76.8345L81.9283 48.1262Z" fill="#E4B72F"/>
<path fill-rule="evenodd" clip-rule="evenodd" d="M65.8315 0.455924C67.4991 -0.852657 69.9707 0.817999 70.1899 3.40221L71.7505 21.8055C71.7762 22.109 71.7672 22.3985 71.73 22.6688C75.856 28.5991 78.3602 36.104 78.5366 44.911H78.6196L78.6733 45.3495C78.7428 45.9121 78.707 46.7697 78.3374 47.5096C78.1489 47.8869 77.8676 48.2436 77.4634 48.5038C77.0573 48.7649 76.5538 48.911 75.9517 48.911C74.8814 48.9112 73.8972 49.6375 72.936 50.6864C72.4647 51.2008 72.0245 51.7635 71.5991 52.3055C71.1812 52.838 70.7676 53.3632 70.3726 53.7626C69.4396 54.7054 68.1376 54.6897 66.9839 54.3749C65.8176 54.0565 64.6524 53.3983 63.8032 52.826C62.7308 52.1032 61.004 51.2427 59.2085 50.4979C57.4126 49.753 55.5937 49.1429 54.3442 48.9022C53.0598 48.6549 50.1278 48.1611 46.9282 48.161C43.707 48.161 40.3188 48.6625 38.0415 50.3153C36.1024 51.7226 33.5204 51.6699 31.4253 51.2694C29.3125 50.8654 27.5506 50.0811 27.1245 49.8514C26.2593 49.3849 23.536 48.3997 20.6128 47.9686C19.1563 47.7539 17.6776 47.681 16.3745 47.8671C15.0688 48.0536 13.9866 48.4923 13.2583 49.2557C11.1712 51.4438 9.37453 52.1728 7.97314 52.1346C6.59131 52.0967 5.64649 51.3018 5.38037 50.5848C5.29217 50.347 5.23047 49.9976 5.18311 49.6239C5.13408 49.2369 5.09507 48.7779 5.06494 48.2958C5.00466 47.3308 4.97803 46.2492 4.97803 45.411V44.911H5.11768C5.28171 36.1935 7.5895 28.7511 11.4604 22.8495L12.7075 4.72448C12.885 2.1432 15.2972 0.422898 16.98 1.6776L27.8413 9.77721C31.9874 8.22295 36.5278 7.41203 41.3101 7.41198C45.8412 7.41198 50.206 8.14233 54.2534 9.54088L65.8315 0.455924ZM31.0708 14.912C29.8419 14.9123 28.8452 16.2553 28.8452 17.912C28.8458 19.568 29.8422 20.9117 31.0708 20.912C32.2996 20.912 33.2958 19.5682 33.2964 17.912C33.2964 16.2551 32.2999 14.912 31.0708 14.912ZM53.3257 14.912C52.0968 14.9123 51.1001 16.2553 51.1001 17.912C51.1006 19.568 52.0971 20.9117 53.3257 20.912C54.5544 20.912 55.5507 19.5682 55.5513 17.912C55.5513 16.2551 54.5548 14.912 53.3257 14.912Z" fill="#E4B72F"/>
<path d="M50.1003 22.4592C49.6448 24.199 49.0353 25.3722 48.2937 26.0725C47.7877 26.5503 47.2341 26.7928 46.6697 26.8538C45.9305 30.0133 45.2552 32.3942 44.5994 33.9993C44.2587 34.833 43.9103 35.4919 43.5398 35.9446C43.1736 36.3919 42.7124 36.7226 42.1531 36.6907C41.6124 36.6596 41.1658 36.2961 40.7986 35.8333C40.4216 35.358 40.0539 34.6853 39.6853 33.844C38.9709 32.2131 38.209 29.8452 37.3562 26.7864C36.9215 26.674 36.4977 26.4449 36.1033 26.0725C35.3617 25.3721 34.7521 24.1988 34.2966 22.4592L35.2634 22.2053C35.6979 23.8648 36.2443 24.8296 36.7898 25.345C37.3091 25.8353 37.8514 25.9423 38.408 25.8293C38.9959 25.7099 39.6251 25.3371 40.2312 24.8098C40.6704 24.4277 41.0779 23.9808 41.4275 23.5344H41.4265L41.7966 23.0344L42.2126 22.4739L42.6101 23.0481C43.0242 23.6461 43.5659 24.2879 44.1658 24.8098C44.7719 25.3372 45.401 25.7099 45.989 25.8293C46.5457 25.9424 47.0878 25.8354 47.6072 25.345C48.1527 24.8297 48.699 23.865 49.1335 22.2053L50.1003 22.4592ZM42.2 24.1682C41.8198 24.6516 41.3748 25.1397 40.8875 25.5637C40.2186 26.1456 39.4348 26.6417 38.6072 26.8098C38.5412 26.8232 38.475 26.833 38.4089 26.842C39.2221 29.7328 39.9409 31.935 40.6013 33.4426C40.9564 34.2533 41.2832 34.8357 41.5818 35.2122C41.8902 35.6009 42.1012 35.6864 42.2107 35.6926C42.3018 35.6977 42.4842 35.6543 42.7654 35.3108C43.0425 34.9721 43.3467 34.4214 43.6736 33.6213C44.2884 32.1168 44.9372 29.8494 45.6599 26.7766C44.8806 26.5852 44.1431 26.115 43.5095 25.5637C43.0226 25.14 42.5797 24.6513 42.2 24.1682Z" fill="white"/>
<path d="M77.6984 38.8399C77.6581 38.6793 77.5557 38.5413 77.4136 38.4563C77.2716 38.3712 77.1016 38.3461 76.941 38.3864C76.7804 38.4267 76.6424 38.5291 76.5574 38.6711C76.4723 38.8132 76.4472 38.9832 76.4875 39.1438C76.4875 39.1438 76.4875 39.1438 76.4875 39.1438C76.6083 39.7736 76.7439 40.5578 76.8837 41.2674C76.8842 41.2697 76.8846 41.272 76.8851 41.2744C76.9764 41.7425 76.8999 42.213 76.9814 42.6489C76.9821 42.6526 76.9829 42.6564 76.9836 42.6601C77.0493 43.0059 77.1143 43.3533 77.1816 43.7006C77.2745 44.1803 77.3714 44.6598 77.4783 45.1371C77.4798 45.1436 77.4812 45.1501 77.4827 45.1566C77.7428 46.3166 78.004 47.4749 78.2699 48.636C78.2723 48.6463 78.2746 48.6564 78.2769 48.6665C78.3095 48.8084 78.3417 48.9481 78.3747 49.0899C78.391 49.1603 78.4078 49.232 78.4246 49.3033C78.4332 49.3396 78.4418 49.3758 78.4508 49.413C78.4555 49.4324 78.4598 49.4502 78.4651 49.4715C78.4678 49.4822 78.4705 49.493 78.4738 49.5057C78.4757 49.5128 78.4775 49.5197 78.4802 49.5297C78.4815 49.5344 78.4836 49.5418 78.4862 49.5506C78.488 49.5568 78.4901 49.5639 78.4933 49.5738C78.495 49.5793 78.4987 49.5908 78.5041 49.6057C78.5071 49.6139 78.5099 49.6216 78.5157 49.6363C78.54 49.676 78.5065 49.682 78.6788 49.8983C78.7014 49.9234 78.7299 49.9527 78.7702 49.9864C78.8229 50.0275 79.0433 50.2199 79.4234 50.1872C79.8211 50.1501 80.0535 49.8534 80.1149 49.7259C80.1886 49.5829 80.1971 49.5081 80.2082 49.4529C80.232 49.2348 80.2169 49.3211 80.2199 49.2817C80.2189 49.2504 80.2172 49.2331 80.2158 49.219C80.2126 49.1887 80.2121 49.1878 80.2108 49.1782C80.2085 49.1625 80.2073 49.1555 80.2063 49.1496C80.204 49.137 80.203 49.1319 80.2017 49.1253C80.074 48.5824 79.9946 48.2895 79.887 47.8899C79.8857 47.8851 79.8843 47.8802 79.8829 47.8754C79.645 46.9719 79.3877 45.9528 79.1019 44.9938C79.0995 44.9858 79.0972 44.9777 79.0948 44.9696C78.6385 43.4221 78.1435 41.9012 77.709 40.3907C77.7054 40.3782 77.7019 40.3656 77.6983 40.3532C77.4817 39.5829 77.2816 38.8198 77.1956 38.0973C77.1939 38.0826 77.1921 38.068 77.1904 38.0535C77.182 37.9834 77.1742 37.9146 77.1704 37.8719C77.1678 37.856 77.1704 37.8272 77.1645 37.8903C77.1618 37.9093 77.1601 37.9358 77.1423 38.002C77.135 38.0279 77.1159 38.0933 77.0739 38.1709C77.0341 38.2392 76.9319 38.4315 76.6468 38.5526C76.5028 38.6137 76.3255 38.6274 76.2002 38.6069C76.0948 38.5913 76.0116 38.5597 75.9484 38.5286C75.8096 38.4545 75.8005 38.4335 75.7566 38.3971C75.6888 38.3321 75.6822 38.3165 75.6651 38.2947C75.6086 38.2036 75.6684 38.2949 75.6878 38.3382C75.7154 38.3931 75.7437 38.4533 75.7738 38.5203C75.8909 38.7815 76.0052 39.0658 76.1079 39.3567C76.1094 39.3609 76.111 39.3652 76.1125 39.3695C76.9934 41.9181 77.8162 44.5267 78.6562 47.1186C78.6603 47.1312 78.6644 47.1437 78.6684 47.1562C78.8982 47.859 79.1639 48.538 79.4241 49.2483C79.4259 49.253 79.4282 49.2593 79.4299 49.2637C79.4309 49.2665 79.4316 49.2682 79.432 49.2692C79.4318 49.2687 79.4327 49.2712 79.4299 49.2627C79.4292 49.2605 79.4283 49.2575 79.4268 49.2528C79.4263 49.2511 79.4249 49.2471 79.4194 49.2272C79.4183 49.185 79.3907 49.2514 79.3975 48.9498C79.4034 48.9026 79.411 48.8379 79.4529 48.7362C79.4876 48.6538 79.5589 48.5295 79.6932 48.4283C79.8302 48.3198 80.0386 48.2651 80.1883 48.2774C80.4896 48.3074 80.5742 48.4134 80.6366 48.4565C80.6933 48.5056 80.7174 48.5366 80.7356 48.5586C80.7991 48.6419 80.7967 48.6492 80.8071 48.6654C80.8172 48.6838 80.8151 48.6802 80.8175 48.6849C80.8204 48.6906 80.821 48.6917 80.8208 48.6914C80.5582 48.1719 80.281 47.4176 80.0327 46.7517C80.0282 46.7393 80.0237 46.7269 80.0192 46.7144C79.5659 45.4758 79.1219 44.2463 78.6826 43.0181C78.6768 43.0018 78.6711 42.9858 78.6655 42.9699C78.4824 42.4409 78.3218 41.9518 78.2454 41.4792C78.242 41.4609 78.2388 41.4435 78.2354 41.4247C78.1204 40.7815 78.0241 40.101 77.8634 39.4272C77.8582 39.4054 77.853 39.3837 77.8477 39.362C77.661 38.5708 77.4018 37.7064 77.2145 37.0171C77.2111 37.0026 77.2085 36.9896 77.2082 36.986C77.1835 36.8534 77.1608 36.7247 77.1441 36.6098C77.1269 36.5064 77.1194 36.3584 77.1256 36.4181C77.1247 36.4362 77.1271 36.4653 77.1069 36.5501C77.0771 36.6879 76.9331 36.9918 76.6324 37.1413C76.3411 37.2838 76.1402 37.245 76.0383 37.2304C75.8299 37.1851 75.7916 37.1443 75.7438 37.1206C75.665 37.072 75.6506 37.055 75.6338 37.0416C75.6064 37.0174 75.6069 37.0169 75.6074 37.0182C75.6082 37.0191 75.6101 37.0216 75.6125 37.0249C75.6138 37.011 75.7314 37.2607 75.8078 37.4407C75.8922 37.6361 75.9773 37.8385 76.0624 38.0432C76.232 38.4521 76.4001 38.8694 76.5526 39.2871C76.5606 39.3092 76.5687 39.3315 76.5769 39.354C77.5657 42.0798 78.5406 44.8268 79.4941 47.5742C79.5049 47.6053 79.5155 47.636 79.5259 47.6662C79.6331 47.9761 79.7387 48.2823 79.843 48.5876C79.8951 48.7404 79.9478 48.8954 79.9972 49.044C80.0215 49.1171 80.0472 49.1954 80.0668 49.2588C80.0713 49.2733 80.076 49.2891 80.0775 49.2944C80.0777 49.2946 80.079 49.3022 80.0723 49.2722C80.0703 49.2623 80.0696 49.2616 80.0642 49.2277C80.062 49.2121 80.0592 49.1923 80.0571 49.1616C80.08 49.1316 79.9651 49.1248 80.1792 48.659C80.2587 48.5422 80.3526 48.3819 80.6841 48.2735C80.9891 48.1902 81.2157 48.2844 81.3236 48.3404C81.5474 48.4733 81.5423 48.5139 81.5654 48.5297C81.6038 48.5734 81.6201 48.5978 81.6331 48.6166C81.6545 48.6488 81.6567 48.6538 81.663 48.6644C81.6936 48.7218 81.6552 48.6463 81.6406 48.614C81.6283 48.5882 81.6175 48.5657 81.6077 48.5453C81.3267 47.9312 81.0787 47.1651 80.8042 46.4604C80.7964 46.4402 80.7886 46.4199 80.7806 46.3994C79.8614 44.0219 78.9529 41.6303 78.0557 39.2451C78.0507 39.2319 78.0458 39.2187 78.0409 39.2056C77.7232 38.3588 77.4312 37.5639 77.1194 36.6705C77.1181 36.6671 77.1168 36.6635 77.1155 36.6598C77.1097 36.6438 77.1047 36.6247 77.1049 36.6256C77.1049 36.6272 77.1067 36.6316 77.1096 36.6646C77.1107 36.6823 77.1131 36.7059 77.1098 36.7611C77.094 36.8232 77.1383 36.8866 76.9596 37.1831C76.9091 37.2503 76.8076 37.4033 76.5396 37.5092C76.2595 37.614 76.0053 37.5515 75.8746 37.4937C75.6607 37.3918 75.635 37.3355 75.5938 37.3002C75.4786 37.1674 75.5183 37.1992 75.5118 37.1943C75.5153 37.1989 75.5239 37.2129 75.5331 37.2289C75.5519 37.2615 75.5744 37.3037 75.5971 37.347C75.6426 37.4343 75.6895 37.5278 75.737 37.6236C75.8302 37.8118 75.9266 38.0114 76.0196 38.2074C76.2073 38.6035 76.389 39.0016 76.558 39.4132C76.5639 39.4275 76.5698 39.4419 76.5757 39.4565C77.8398 42.5799 79.0773 45.729 80.2908 48.8769C80.3352 48.9924 80.383 49.1172 80.427 49.2323C80.4287 49.2365 80.4303 49.2408 80.4319 49.245C80.8667 50.3993 81.3542 51.5838 81.6897 52.6875C81.6898 52.688 81.69 52.6885 81.6901 52.689C81.7332 52.8406 81.8104 53.0171 81.8273 53.0657C81.8719 53.2472 81.992 53.4082 82.1534 53.5147C82.3153 53.6211 82.5052 53.6642 82.6893 53.6332C82.8734 53.6022 83.0388 53.4993 83.1569 53.3458C83.2746 53.1924 83.3354 53.0009 83.3181 52.8148C83.3181 52.8148 83.3181 52.8148 83.3181 52.8148C83.2809 52.5467 83.2534 52.4193 83.2131 52.2608C83.213 52.2603 83.2128 52.2598 83.2127 52.2593C82.8397 50.9754 82.3958 49.8427 81.9535 48.6635C81.9518 48.6592 81.9502 48.6549 81.9486 48.6506C81.9043 48.5348 81.8562 48.4093 81.8117 48.2931C80.593 45.1299 79.3579 41.9862 78.0863 38.8418C78.0803 38.8271 78.0744 38.8125 78.0685 38.798C77.9001 38.3816 77.7477 37.9665 77.5905 37.5446C77.5125 37.3354 77.4319 37.1209 77.348 36.9093C77.3049 36.8011 77.2615 36.6943 77.2118 36.5807C77.1867 36.5235 77.1606 36.4654 77.1286 36.4003C77.1121 36.367 77.0957 36.3342 77.0704 36.289C77.036 36.2368 77.0472 36.2198 76.8952 36.0471C76.8457 36.0031 76.8114 35.9391 76.5878 35.8329C76.4511 35.7725 76.1916 35.7093 75.906 35.8161C75.6326 35.924 75.5272 36.0814 75.4734 36.1534C75.2806 36.471 75.3218 36.5605 75.3041 36.6473C75.2993 36.7276 75.3028 36.7765 75.306 36.8192C75.3132 36.9023 75.3237 36.9561 75.3343 37.007C75.3558 37.1061 75.3796 37.1835 75.4071 37.2623C75.4131 37.2794 75.4194 37.2964 75.4259 37.3135C75.7041 38.1153 76.033 39.0089 76.3456 39.8413C76.3505 39.8544 76.3555 39.8677 76.3605 39.881C77.2613 42.2759 78.1682 44.6632 79.0926 47.0542C79.1007 47.0749 79.1087 47.0954 79.1166 47.1157C79.4057 47.8428 79.6885 48.5109 80.0448 49.2926C80.0562 49.3167 80.0668 49.3385 80.0758 49.3575C80.0966 49.3989 80.0908 49.3976 80.1607 49.5272C80.1699 49.5428 80.1739 49.5509 80.1986 49.5879C80.2133 49.6092 80.2311 49.6357 80.2708 49.6809C80.2944 49.6973 80.2907 49.7394 80.5157 49.8729C80.6242 49.9293 80.8514 50.0235 81.1568 49.9402C81.4888 49.8316 81.5829 49.6711 81.6626 49.5539C81.8777 49.087 81.7627 49.0748 81.7855 49.0438C81.7832 49.011 81.7802 48.9888 81.7775 48.9705C81.771 48.9295 81.7697 48.9261 81.7667 48.9111C81.755 48.8586 81.7515 48.849 81.7464 48.8295C81.7368 48.7954 81.7294 48.7712 81.7224 48.7484C81.6939 48.6567 81.6675 48.5769 81.6413 48.4978C81.5889 48.3404 81.5355 48.1832 81.4825 48.028C81.3768 47.7185 81.2707 47.411 81.1632 47.0999C81.1527 47.0696 81.142 47.0388 81.1312 47.0075C80.1749 44.2522 79.2303 41.5004 78.256 38.7493C78.2479 38.7266 78.2399 38.704 78.2319 38.6817C78.0811 38.2587 77.9405 37.8265 77.7947 37.3936C77.7213 37.1762 77.6475 36.9604 77.5649 36.7377C77.47 36.5055 77.4344 36.3241 77.1869 35.9368C77.1658 35.9062 77.1435 35.8755 77.119 35.8439C77.0712 35.7832 77.0201 35.7228 76.9354 35.6449C76.8897 35.6048 76.845 35.5622 76.7327 35.493C76.6681 35.4593 76.6121 35.4092 76.3844 35.3601C76.273 35.3437 76.0615 35.3048 75.7614 35.4518C75.4518 35.6058 75.3024 35.9189 75.2701 36.0662C75.2378 36.1974 75.2355 36.2751 75.2326 36.3413C75.2331 36.6675 75.2751 36.7835 75.303 36.9416C75.3337 37.0885 75.3645 37.2205 75.3919 37.3489C75.4006 37.3906 75.4092 37.4262 75.417 37.4572C75.6689 38.3322 75.8815 39.0205 76.0852 39.8068C76.0905 39.8267 76.0957 39.8468 76.101 39.8669C76.2651 40.4938 76.4403 41.1273 76.6175 41.7919C76.6228 41.8118 76.6279 41.8305 76.6333 41.8505C76.7879 42.4591 77.0534 42.9931 77.2501 43.5008C77.2564 43.5166 77.2628 43.5327 77.2692 43.5489C77.7511 44.7701 78.2494 45.9806 78.6955 47.1965C78.7001 47.2089 78.7046 47.2213 78.709 47.2335C78.9702 47.9259 79.1265 48.5659 79.4719 49.3659C79.4722 49.3663 79.473 49.3681 79.4762 49.3743C79.4788 49.3793 79.4767 49.3757 79.487 49.3947C79.4976 49.4111 79.4953 49.4186 79.5589 49.502C79.5771 49.5241 79.6013 49.555 79.658 49.6041C79.7204 49.6473 79.805 49.7533 80.1064 49.7833C80.256 49.7955 80.4644 49.7409 80.6014 49.6324C80.7357 49.5311 80.807 49.4069 80.8417 49.3244C80.8836 49.2228 80.8913 49.158 80.8971 49.1108C80.9039 48.8092 80.8763 48.8753 80.8751 48.8327C80.8695 48.8124 80.8678 48.8077 80.8674 48.806C80.8657 48.8007 80.8646 48.7973 80.8637 48.7944C80.8599 48.7827 80.8602 48.7837 80.8591 48.7804C80.8573 48.775 80.857 48.774 80.8559 48.7706C80.8545 48.7659 80.8527 48.7603 80.8514 48.7562C80.6406 48.0726 80.4568 47.3491 80.2334 46.6513C80.2294 46.6388 80.2254 46.6263 80.2214 46.6138C79.3845 44.0187 78.569 41.4255 77.6732 38.8212C77.6717 38.8168 77.6701 38.8123 77.6686 38.8079C77.5618 38.5047 77.4669 38.2048 77.3528 37.8867C77.3225 37.8035 77.2938 37.7259 77.2568 37.636C77.211 37.5368 77.2071 37.4838 77.062 37.2658C77.0314 37.226 77.0154 37.1985 76.9316 37.1183C76.8794 37.0746 76.8661 37.0499 76.7162 36.9699C76.6484 36.9365 76.5608 36.9034 76.4513 36.8872C76.321 36.866 76.1385 36.8803 75.9901 36.9431C75.6965 37.0675 75.5871 37.269 75.5432 37.3452C75.4971 37.43 75.4737 37.508 75.4644 37.5414C75.4416 37.6257 75.4369 37.6723 75.4323 37.7106C75.4189 37.8524 75.4245 37.9012 75.4257 37.9633C75.4305 38.0781 75.4389 38.1632 75.4479 38.2492C75.4497 38.2664 75.4516 38.2839 75.4537 38.3015C75.5587 39.2047 75.7817 40.0251 76.0027 40.8303C76.0063 40.8433 76.0099 40.8564 76.0136 40.8695C76.4547 42.4307 76.9364 43.9505 77.371 45.4691C77.3732 45.477 77.3755 45.4848 77.3777 45.4926C77.6511 46.4386 77.8582 47.3526 78.1255 48.368C78.1269 48.3731 78.1283 48.3781 78.1297 48.3831C78.2325 48.7587 78.4104 49.2293 78.4676 49.4678C78.4671 49.4653 78.4667 49.4634 78.4652 49.4549C78.4645 49.4508 78.4636 49.4458 78.4616 49.432C78.4604 49.4234 78.46 49.423 78.4569 49.3941C78.4556 49.3805 78.454 49.3637 78.453 49.3327C78.456 49.2935 78.4409 49.3798 78.4647 49.1623C78.4757 49.1072 78.4842 49.0324 78.5578 48.8895C78.6192 48.7621 78.8516 48.4654 79.2493 48.4283C79.6293 48.3955 79.8497 48.588 79.9023 48.629C79.9426 48.6627 79.9711 48.692 79.9937 48.7171C80.1658 48.9332 80.1321 48.9387 80.156 48.9775C80.1617 48.9918 80.1643 48.9991 80.1671 49.0068C80.1722 49.0208 80.1753 49.0308 80.1768 49.0352C80.1794 49.0435 80.1809 49.0484 80.1819 49.052C80.1834 49.0572 80.184 49.0594 80.1842 49.0601C80.1847 49.0617 80.1842 49.0602 80.1837 49.0581C80.1825 49.0539 80.1808 49.0473 80.179 49.0401C80.1753 49.0256 80.1716 49.0106 80.1675 48.994C80.1596 48.9619 80.1514 48.9282 80.1432 48.8941C80.1271 48.8268 80.1106 48.7571 80.0945 48.6884C80.062 48.5498 80.03 48.4116 79.9977 48.2711C79.9954 48.2611 79.9931 48.251 79.9908 48.2409C79.7264 47.0867 79.4649 45.9273 79.2056 44.7707C79.2042 44.7642 79.2027 44.7577 79.2013 44.7513C79.0947 44.2753 78.9794 43.8015 78.8611 43.3285C78.7755 42.9858 78.6884 42.6437 78.601 42.3006C78.6001 42.2968 78.5991 42.293 78.5982 42.2892C78.4871 41.8485 78.1944 41.4475 78.1106 41.0356C78.1101 41.0332 78.1097 41.0309 78.1092 41.0286C77.9657 40.303 77.8568 39.6438 77.6984 38.8399Z" fill="#E4B72F"/>
<path d="M77.1085 34.6215C77.0504 34.4559 76.9289 34.3202 76.7708 34.2442C76.6126 34.1682 76.4307 34.1582 76.2652 34.2163C76.0996 34.2744 75.9639 34.3959 75.8879 34.554C75.8119 34.7122 75.8019 34.8941 75.86 35.0597C75.86 35.0597 75.86 35.0597 75.86 35.0597C75.9679 35.3673 76.0726 35.6762 76.1744 35.9864C76.3916 36.6481 76.5955 37.3153 76.7871 37.986C76.7871 37.986 76.7871 37.9861 76.7871 37.9861C76.923 38.4616 76.9672 38.9557 77.0792 39.423C77.0792 39.423 77.0792 39.4231 77.0792 39.4231C77.2416 40.0987 77.3881 40.78 77.5823 41.4487C77.5823 41.4487 77.5824 41.4487 77.5824 41.4488C77.9282 42.6651 78.3793 43.8882 78.8482 45.0732C78.8482 45.0732 78.8482 45.0732 78.8482 45.0733C79.5389 46.8171 80.268 48.5204 81.0274 50.2163C81.0274 50.2163 81.0274 50.2163 81.0274 50.2163C81.3271 50.8848 81.7047 51.5357 82.0743 52.1604C82.0743 52.1604 82.0743 52.1604 82.0743 52.1604C82.1849 52.3501 82.416 52.4928 82.605 52.6572C82.7156 52.7532 82.8117 52.8565 82.8596 52.9784C82.8596 52.9784 82.8596 52.9784 82.8596 52.9784C82.9325 53.1635 83.0032 53.3482 83.0729 53.5346C83.0837 53.5635 83.1056 53.5869 83.1336 53.5996C83.1617 53.6124 83.1937 53.6135 83.2225 53.6027C83.2514 53.5918 83.2748 53.57 83.2875 53.5419C83.3003 53.5139 83.3013 53.4819 83.2905 53.453C83.2905 53.453 83.2905 53.453 83.2905 53.453C83.2208 53.2664 83.1491 53.0792 83.0759 52.8934C83.0759 52.8934 83.0759 52.8934 83.0759 52.8934C83.0278 52.7709 83.0265 52.6294 83.0384 52.4817C83.0589 52.2296 83.1173 51.9575 83.0481 51.7354C83.0481 51.7354 83.0481 51.7354 83.0481 51.7354C82.8213 51.0242 82.6168 50.3382 82.3454 49.6571C82.3454 49.6571 82.3454 49.6571 82.3454 49.6571C81.6638 47.9445 80.972 46.2287 80.3595 44.5088C80.3595 44.5088 80.3595 44.5088 80.3595 44.5088C79.9429 43.3361 79.6153 42.1627 79.2723 40.9581C79.2723 40.958 79.2723 40.958 79.2723 40.958C79.0775 40.2871 78.8331 39.6304 78.5971 38.9703C78.5971 38.9703 78.5971 38.9702 78.5971 38.9702C78.4326 38.509 78.1897 38.0784 78.0595 37.6226C78.0594 37.6226 78.0594 37.6226 78.0594 37.6225C77.8633 36.9362 77.6546 36.2529 77.4317 35.5737C77.3272 35.2554 77.2196 34.938 77.1085 34.6215Z" fill="#E4B72F"/>
<path d="M77.9276 38.4938C77.9276 38.3605 77.8747 38.2327 77.7805 38.1385C77.6862 38.0443 77.5584 37.9913 77.4252 37.9913C77.2919 37.9913 77.1641 38.0443 77.0699 38.1385C76.9757 38.2327 76.9227 38.3605 76.9227 38.4938C76.9391 38.6865 76.9401 38.6113 76.9449 38.6473C76.9487 38.6615 76.952 38.6726 76.9548 38.6822C76.9607 38.7022 76.9662 38.7197 76.9715 38.7364C76.9823 38.7705 76.9924 38.8015 77.0029 38.8333C77.0237 38.8959 77.0445 38.9573 77.0654 39.0184C77.1073 39.1405 77.1494 39.2613 77.1917 39.3816C77.3217 39.7508 77.4533 40.1165 77.5863 40.4834C77.5864 40.4836 77.5865 40.4838 77.5866 40.484C77.7486 40.9333 77.8512 41.4138 77.9977 41.855C77.9978 41.8552 77.9978 41.8554 77.9979 41.8555C78.1508 42.3166 78.2818 42.7786 78.4634 43.2231C78.4634 43.2233 78.4635 43.2234 78.4636 43.2236C78.8632 44.1983 79.2817 45.165 79.6721 46.1488C79.6722 46.1489 79.6722 46.149 79.6723 46.1491C80.2934 47.7171 80.8947 49.2988 81.5086 50.8738C81.5087 50.8738 81.5087 50.8738 81.5087 50.8738C81.6818 51.3179 81.9005 51.7453 82.1205 52.1725C82.197 52.3212 82.2753 52.4718 82.3472 52.6163C82.3472 52.6163 82.3473 52.6163 82.3473 52.6163L82.3379 52.5887C82.3548 52.6078 82.58 52.6121 82.6966 52.719C82.7082 52.7276 82.7287 52.7359 82.7469 52.742C82.7654 52.7481 82.78 52.7516 82.7942 52.7516C82.8084 52.7516 82.8231 52.7481 82.8416 52.742C82.8597 52.7359 82.8802 52.7276 82.8919 52.719C83.0094 52.6513 83.2327 52.4776 83.1941 52.3295L83.1847 52.3019C83.1847 52.3019 83.1847 52.3018 83.1847 52.3018C83.1395 52.1358 83.0978 51.9772 83.0563 51.8156C82.9375 51.354 82.8216 50.89 82.6611 50.4427C82.6611 50.4427 82.6611 50.4427 82.6611 50.4427C82.0904 48.8507 81.5062 47.2621 80.9199 45.6714C80.9198 45.6713 80.9198 45.6712 80.9198 45.6711C80.5512 44.6732 80.1988 43.6665 79.794 42.6792C79.7939 42.679 79.7939 42.6789 79.7938 42.6787C79.6108 42.2308 79.371 41.8046 79.1544 41.3761C79.1543 41.3759 79.1542 41.3758 79.1541 41.3756C78.941 40.9544 78.6863 40.571 78.5312 40.1412C78.5311 40.1411 78.531 40.1409 78.531 40.1407C78.3987 39.7759 78.2678 39.4123 78.1397 39.0482C78.098 38.9296 78.0566 38.8109 78.0161 38.6928C77.9959 38.6339 77.9759 38.5749 77.9569 38.5175C77.9473 38.4886 77.9382 38.4606 77.9296 38.4335C77.9255 38.4206 77.9214 38.4073 77.9183 38.3969C77.9169 38.3921 77.9155 38.3871 77.9152 38.3861C77.916 38.4063 77.9125 38.3166 77.9276 38.4938Z" fill="#E4B72F"/>
<path d="M78.2371 40.0496C78.1947 39.9224 78.1034 39.8171 77.9834 39.7571C77.8634 39.6971 77.7245 39.6873 77.5972 39.7297C77.47 39.7721 77.3647 39.8634 77.3047 39.9834C77.2447 40.1034 77.2349 40.2423 77.2773 40.3696C77.2773 40.3696 77.2773 40.3696 77.2773 40.3696C77.3744 40.6395 77.4554 40.8151 77.5447 41.0316C77.5455 41.0333 77.5462 41.0351 77.547 41.0368C77.547 41.0368 77.547 41.0368 77.547 41.0368C77.8576 41.7731 78.1256 42.5251 78.4189 43.2692C78.4189 43.2693 78.4189 43.2693 78.4189 43.2693C78.6128 43.761 78.8098 44.2574 79.0129 44.7454C79.0129 44.7455 79.0129 44.7455 79.013 44.7456C79.2912 45.4135 79.5404 46.0912 79.8303 46.757C79.8303 46.7571 79.8304 46.7572 79.8304 46.7572C80.4491 48.1815 81.0877 49.6051 81.7049 51.0252C81.7049 51.0253 81.705 51.0254 81.7051 51.0256L81.7008 51.0152C81.8686 51.4229 82.1349 51.7929 82.3778 52.1596C82.4646 52.2926 82.5452 52.4158 82.6078 52.5456C82.6078 52.5457 82.6079 52.5458 82.6079 52.5459L82.601 52.5067C82.6151 52.5118 82.7623 52.5313 82.8113 52.6324C82.8191 52.6451 82.8356 52.6603 82.8508 52.6725C82.8664 52.6849 82.8795 52.6933 82.8934 52.6979C82.9073 52.7026 82.9228 52.7037 82.9427 52.7032C82.9622 52.7025 82.9845 52.7002 82.9984 52.6947C83.0922 52.6713 83.2673 52.5574 83.2635 52.4302L83.2565 52.391C83.2565 52.3908 83.2565 52.3907 83.2565 52.3906C83.2467 52.2114 83.226 52.0344 83.2071 51.8667C83.1523 51.399 83.0896 50.9431 82.9288 50.5248L82.9245 50.5144C82.9245 50.5143 82.9244 50.5142 82.9244 50.514C82.3339 49.0659 81.7356 47.6284 81.1145 46.1984C81.1144 46.1983 81.1144 46.1982 81.1144 46.1982C80.8239 45.5312 80.4908 44.8774 80.1679 44.2231C80.1679 44.2231 80.1678 44.223 80.1678 44.223C79.9356 43.7519 79.7077 43.2846 79.4839 42.809C79.4838 42.8089 79.4838 42.8089 79.4838 42.8089C79.1458 42.0904 78.7879 41.3755 78.4794 40.6444C78.4794 40.6444 78.4794 40.6444 78.4794 40.6443C78.4787 40.6426 78.478 40.6409 78.4772 40.6391C78.3938 40.4388 78.2919 40.2039 78.2371 40.0496Z" fill="#E4B72F"/>
<path d="M78.0767 39.0866C78.0284 38.9578 77.931 38.8535 77.8058 38.7966C77.6806 38.7397 77.5379 38.7348 77.4091 38.7831C77.2803 38.8314 77.176 38.9289 77.1191 39.0541C77.0622 39.1793 77.0574 39.322 77.1056 39.4508C77.1056 39.4508 77.1056 39.4508 77.1056 39.4508C77.1969 39.6957 77.2941 39.9312 77.3895 40.1646C77.4278 40.258 77.4667 40.3523 77.5055 40.4461C77.5055 40.4461 77.5055 40.4461 77.5055 40.4461C77.884 41.3605 78.229 42.286 78.5856 43.2084C78.5856 43.2084 78.5856 43.2084 78.5856 43.2084C78.829 43.838 79.0239 44.4878 79.2853 45.1063C79.2853 45.1063 79.2853 45.1064 79.2853 45.1064C79.6871 46.0549 80.1265 46.9842 80.5342 47.9312C80.5342 47.9312 80.5342 47.9312 80.5342 47.9312C81.0835 49.2082 81.6162 50.499 82.1611 51.7806C82.1611 51.7807 82.1611 51.7807 82.1611 51.7807C82.288 52.0798 82.5829 52.313 82.7915 52.5815C82.8676 52.6791 82.9303 52.7801 82.9748 52.8931C82.9748 52.8931 82.9749 52.8931 82.9749 52.8931C83.0253 53.0206 83.0856 53.1444 83.1453 53.263C83.1574 53.2873 83.1788 53.3058 83.2046 53.3144C83.2304 53.323 83.2585 53.321 83.2828 53.3088C83.3072 53.2967 83.3257 53.2753 83.3343 53.2495C83.3429 53.2237 83.3409 53.1956 83.3287 53.1713C83.3287 53.1713 83.3287 53.1713 83.3287 53.1713C83.2689 53.0524 83.2128 52.9369 83.1653 52.8171C83.1653 52.8171 83.1653 52.8171 83.1653 52.8171C83.1234 52.7109 83.1069 52.5902 83.1004 52.4668C83.083 52.1262 83.1491 51.7541 83.0447 51.4448C83.0447 51.4448 83.0447 51.4448 83.0447 51.4447C82.5971 50.1203 82.1243 48.8057 81.645 47.4898C81.645 47.4898 81.645 47.4898 81.645 47.4898C81.2894 46.5144 80.9437 45.5312 80.5393 44.5765C80.5393 44.5764 80.5393 44.5764 80.5393 44.5764C80.2763 43.9543 79.9442 43.3671 79.6659 42.7543C79.6659 42.7543 79.6659 42.7543 79.6659 42.7542C79.258 41.8563 78.8406 40.96 78.464 40.0501C78.464 40.0501 78.464 40.0501 78.464 40.0501C78.4255 39.9569 78.3869 39.8633 78.349 39.7709C78.2544 39.5394 78.1605 39.3117 78.0767 39.0866Z" fill="#E4B72F"/>
<path d="M7.56129 36.6847C7.67497 36.5151 7.71659 36.3072 7.67701 36.1068C7.63742 35.9065 7.51987 35.7301 7.35021 35.6164C7.18055 35.5027 6.97268 35.4611 6.77233 35.5007C6.57199 35.5403 6.39557 35.6578 6.28189 35.8275C6.28189 35.8275 6.28189 35.8275 6.28189 35.8275C6.10438 36.1174 6.07752 36.2399 6.00669 36.4136C5.94647 36.5742 5.89265 36.7308 5.84098 36.8857C5.51323 37.8842 5.23606 38.8591 4.94925 39.8409C4.94911 39.8414 4.94896 39.8419 4.94881 39.8424C4.43779 41.5843 3.76835 43.3116 3.28332 45.1042C3.28265 45.1067 3.28198 45.1092 3.2813 45.1117C2.83153 46.7633 2.4517 48.437 2.05097 50.0555C2.04993 50.0596 2.04889 50.0637 2.04786 50.0678C1.77935 51.1438 1.53619 52.1777 1.29285 53.3163C1.27546 53.4173 1.25618 53.4698 1.23984 53.6893C1.23901 53.7072 1.24019 53.7266 1.24348 53.748C1.24368 53.7484 1.24389 53.7488 1.2441 53.7495C1.24537 53.7697 1.24098 53.685 1.248 53.8231C1.24961 53.8378 1.24985 53.8524 1.25954 53.9055C1.26644 53.9351 1.26837 53.9674 1.30898 54.0693C1.33395 54.1218 1.35763 54.1971 1.48237 54.3297C1.57974 54.4575 1.98833 54.6658 2.32796 54.5352C2.64773 54.4165 2.72295 54.2539 2.77673 54.1797C2.82575 54.0974 2.84031 54.0519 2.85302 54.0168C2.87539 53.9491 2.87897 53.9224 2.88363 53.8997C2.89109 53.8576 2.89187 53.8439 2.8933 53.8311C2.89702 53.7894 2.89615 53.7898 2.89663 53.7823C2.89699 53.772 2.89694 53.7705 2.89698 53.7682C2.89701 53.7642 2.89694 53.7646 2.89689 53.7641C2.89679 53.7634 2.89668 53.7629 2.89657 53.7625C2.89635 53.7618 2.89612 53.7614 2.89588 53.7612C2.89493 53.7603 2.89388 53.7597 2.89275 53.759C2.8905 53.7577 2.88792 53.7562 2.88504 53.7546C2.87927 53.7516 2.8723 53.7481 2.86428 53.7447C2.84826 53.7375 2.82808 53.7299 2.80517 53.7218C2.75934 53.7057 2.70258 53.6878 2.64625 53.669C2.53356 53.6317 2.42285 53.5876 2.40433 53.5545C2.40432 53.5545 2.40432 53.5545 2.40431 53.5545C2.33684 53.4393 2.35098 53.2578 2.31581 53.102C2.3098 53.0749 2.28997 53.0464 2.26662 53.024C2.24293 53.0015 2.21765 52.9869 2.19039 52.9823C2.16314 52.9777 2.13445 52.9833 2.1047 52.9967C2.0753 53.0103 2.04726 53.0307 2.03268 53.0544C2.03268 53.0544 2.03268 53.0544 2.03268 53.0544C1.95259 53.1891 1.88383 53.2905 1.77185 53.4657C1.77184 53.4657 1.77183 53.4657 1.77182 53.4657C1.74211 53.5126 1.62398 53.5491 1.50584 53.5925C1.44681 53.6139 1.38787 53.6365 1.34036 53.6607C1.31661 53.6727 1.29571 53.6852 1.2791 53.6984C1.27079 53.7049 1.26355 53.7118 1.25756 53.7187C1.25457 53.7223 1.25189 53.7259 1.24954 53.7295C1.24837 53.7315 1.24728 53.7334 1.24628 53.7349C1.24604 53.7351 1.24579 53.7356 1.24556 53.7355C1.24545 53.7355 1.24533 53.7353 1.24523 53.7348C1.24518 53.7344 1.24511 53.735 1.24513 53.7313C1.24516 53.7291 1.24512 53.7277 1.24547 53.7175C1.24595 53.7099 1.24508 53.7104 1.2488 53.6686C1.25023 53.6559 1.25101 53.6421 1.25847 53.6001C1.26313 53.5774 1.26671 53.5507 1.28908 53.483C1.30179 53.4478 1.31635 53.4024 1.36537 53.3201C1.41915 53.2459 1.49437 53.0833 1.81414 52.9646C2.15377 52.834 2.56236 53.0423 2.65973 53.1701C2.78446 53.3027 2.80815 53.378 2.83311 53.4305C2.87373 53.5324 2.87566 53.5647 2.88256 53.5943C2.89225 53.6473 2.89249 53.662 2.8941 53.6767C2.90111 53.8147 2.89672 53.7287 2.89799 53.7485C2.8982 53.7487 2.89841 53.7484 2.89861 53.748C2.9019 53.76 2.90336 53.7691 2.90311 53.776C2.89863 53.8329 2.91518 53.727 2.93094 53.6691C3.19211 52.664 3.52352 51.572 3.78985 50.5085C3.79094 50.5042 3.79202 50.4999 3.79311 50.4956C4.20625 48.8261 4.57228 47.194 5.00542 45.5746C5.00606 45.5722 5.00671 45.5698 5.00735 45.5674C5.47196 43.8181 5.90689 42.0471 6.42782 40.2717C6.42797 40.2712 6.42811 40.2707 6.42826 40.2702C6.71298 39.2947 6.99377 38.3109 7.30206 37.3725C7.34984 37.2292 7.39904 37.0866 7.44829 36.9554C7.49124 36.8344 7.57259 36.66 7.56129 36.6847Z" fill="#E4B72F"/>
<path d="M7.45572 34.5017C7.45572 34.579 7.48643 34.6532 7.5411 34.7078C7.59577 34.7625 7.66991 34.7932 7.74722 34.7932C7.82454 34.7932 7.89868 34.7625 7.95335 34.7078C8.00802 34.6532 8.03873 34.579 8.03873 34.5017C8.03404 34.2643 8.01838 34.0489 7.91232 33.7853C7.91194 33.7845 7.91156 33.7836 7.91117 33.7827C7.89573 33.7502 7.87074 33.697 7.79456 33.6477C7.72068 33.5907 7.56063 33.5965 7.50552 33.6336C7.41553 33.684 7.41062 33.7091 7.39252 33.7281C7.37116 33.7566 7.36047 33.7774 7.35354 33.7902C7.33706 33.8218 7.32948 33.8397 7.32043 33.8604C7.30297 33.9012 7.2894 33.9362 7.27603 33.9707C7.24914 34.0407 7.22447 34.1073 7.19913 34.1753C6.88907 35.0256 6.51116 35.8343 6.2018 36.6725C6.19472 36.6918 6.18764 36.7111 6.18057 36.7306C5.67219 38.1259 5.14276 39.5219 4.62538 40.9218C4.62016 40.9359 4.61494 40.95 4.60972 40.9641C4.01867 42.5601 3.40518 44.1483 2.81856 45.7463C2.81563 45.7543 2.81271 45.7622 2.80979 45.7702C2.31209 47.1317 1.80651 48.483 1.32161 49.8745L1.30348 49.9362C1.30273 49.9391 1.30199 49.9421 1.30125 49.945C1.15322 50.5343 1.00723 51.1305 0.88544 51.7331C0.860224 51.8569 0.830153 52.0058 0.818223 52.0411L0.813874 52.0557C0.813635 52.0566 0.813398 52.0574 0.813161 52.0582C0.760239 52.2541 0.770072 52.4143 0.813451 52.6584C0.837038 52.7894 0.870596 52.9194 0.933193 53.0304C0.995905 53.1413 1.08353 53.2246 1.19088 53.2674C1.29823 53.3102 1.4191 53.3101 1.54098 53.2727C1.66274 53.2353 1.77655 53.1641 1.88381 53.0853C1.88381 53.0853 1.88381 53.0853 1.88381 53.0853C2.08459 52.9356 2.24007 52.6963 2.29671 52.4823C2.29689 52.4817 2.29706 52.4811 2.29724 52.4805L2.29289 52.4951C2.35534 52.2794 2.36912 52.1683 2.39686 52.0368C2.50928 51.4617 2.63804 50.8907 2.77975 50.3123C2.78045 50.3095 2.78116 50.3066 2.78187 50.3037L2.76374 50.3654C3.22538 49.0153 3.73657 47.6485 4.22221 46.281C4.22507 46.273 4.22792 46.265 4.23078 46.2569C4.804 44.6471 5.32996 43.0199 5.84895 41.3905C5.85353 41.3761 5.85811 41.3617 5.86269 41.3473C6.31533 39.9213 6.75591 38.4907 7.15345 37.0387C7.15897 37.0185 7.16441 36.9982 7.16976 36.9781C7.40185 36.1121 7.53254 35.213 7.76904 34.3634C7.78814 34.2969 7.80765 34.2324 7.82827 34.1712C7.83831 34.1415 7.84895 34.1116 7.85898 34.0868C7.86363 34.0751 7.86864 34.064 7.86981 34.0617C7.8698 34.0612 7.87001 34.063 7.85735 34.0802C7.84509 34.0916 7.84616 34.1099 7.76321 34.1566C7.71268 34.1914 7.55716 34.1974 7.48635 34.1426C7.41326 34.0951 7.39099 34.0456 7.3779 34.0184C7.37805 34.0187 7.3782 34.019 7.37834 34.0194C7.42775 34.1341 7.4558 34.3328 7.45572 34.5017Z" fill="#E4B72F"/>
<path d="M43.7444 29.21C43.6163 29.3054 43.5313 29.4477 43.5082 29.6057C43.485 29.7637 43.5256 29.9244 43.6209 30.0525C43.7163 30.1806 43.8586 30.2655 44.0166 30.2887C44.1746 30.3118 44.3353 30.2713 44.4634 30.1759C44.4634 30.1759 44.4634 30.1759 44.4634 30.1759C44.7084 29.953 44.6557 29.9373 44.7009 29.8754C44.7264 29.8241 44.7436 29.7843 44.7599 29.7461C44.7921 29.6703 44.8182 29.6042 44.8444 29.5391C44.8962 29.4098 44.9456 29.2892 44.9981 29.1727C45.003 29.1617 45.008 29.1506 45.013 29.1397C45.0177 29.1295 45.0225 29.1193 45.0274 29.1091C45.2397 28.666 45.4373 28.2584 45.5916 27.8815C45.6036 27.8515 45.6155 27.8217 45.6274 27.7914C45.6813 27.6434 45.7619 27.5107 45.8215 27.1729C45.8337 27.0874 45.8414 26.9834 45.8287 26.8628C45.7419 26.3297 45.4489 26.1844 45.3299 26.0805C45.2673 26.0356 45.2137 26.0024 45.1684 25.9747C44.753 25.7466 44.5232 25.8052 44.331 25.8065C44.2511 25.8125 44.1798 25.8281 44.1131 25.8404C44.0662 25.8471 44.0159 25.8579 43.9637 25.8744C43.7958 25.9238 43.6175 26.0554 43.5221 26.1949C43.4233 26.335 43.3849 26.4629 43.3649 26.5793C43.3043 27.0016 43.4934 27.2658 43.5928 27.4041C43.7042 27.5497 43.8021 27.6376 43.8665 27.7034C43.902 27.7356 43.9371 27.7876 43.889 27.7139C43.8929 27.72 43.896 27.7257 43.8914 27.7167C43.8861 27.7025 43.8924 27.731 43.8543 27.6255C43.8493 27.6099 43.8436 27.5907 43.8375 27.5633C43.8496 27.5548 43.7652 27.4766 43.8753 27.1473C43.9224 26.9815 44.196 26.7529 44.3659 26.7355C44.5353 26.6996 44.6476 26.7279 44.7193 26.748C44.8571 26.7922 44.9068 26.839 44.9207 26.8465C44.9818 26.8913 44.9958 26.9098 45.0026 26.9157C45.0446 26.9609 45.0126 26.9272 45.0063 26.9183C44.9828 26.8893 44.9544 26.852 44.9274 26.8154C44.8763 26.7468 44.8095 26.6476 44.7975 26.6252C44.7978 26.6259 44.7993 26.628 44.8066 26.6436C44.8112 26.654 44.814 26.6585 44.8257 26.691C44.8292 26.7325 44.8748 26.7245 44.8547 27.0092C44.8429 27.0559 44.8497 27.1254 44.73 27.2885C44.6143 27.4651 44.2807 27.5575 44.1677 27.5272C43.9279 27.4848 43.9575 27.454 43.9382 27.4526C43.9298 27.4468 43.9717 27.4837 44.0065 27.5224C44.0844 27.6064 44.1578 27.7005 44.2686 27.8362C44.2684 27.836 44.2682 27.8358 44.268 27.8356C44.2013 27.7454 44.2507 27.8078 44.2035 27.9778C44.1648 28.1398 44.0835 28.3444 43.9854 28.5553C43.9789 28.5694 43.9722 28.5834 43.9655 28.5973C43.7995 28.9681 43.5991 29.2805 43.5255 29.8328C43.5197 29.8897 43.5153 29.9512 43.5151 30.0237C43.5151 30.0627 43.5144 30.1118 43.5142 30.1117C43.515 30.1054 43.5125 30.1058 43.5216 30.0368C43.5277 30.0072 43.5254 29.9796 43.5677 29.8599C43.5983 29.7977 43.6089 29.7012 43.8115 29.511C43.9129 29.4208 44.11 29.3064 44.352 29.3009C44.5941 29.2922 44.7986 29.3955 44.9054 29.4803C45.1196 29.6599 45.1352 29.7563 45.1693 29.817C45.1973 29.884 45.1866 29.8601 45.1939 29.8794C45.2016 29.9012 45.2066 29.9181 45.2106 29.9322C45.2254 29.9871 45.2278 30.0071 45.2308 30.024C45.2357 30.0559 45.2356 30.0595 45.2361 30.0628C45.2374 30.0762 45.2366 30.0678 45.2363 30.0631C45.2354 30.0485 45.2345 30.0327 45.2335 30.0131C45.2296 29.9386 45.2261 29.8553 45.2226 29.7734C45.2156 29.6089 45.209 29.443 45.2019 29.2759C45.186 28.9348 45.1784 28.6308 45.1437 28.2286C45.1359 28.1535 45.1269 28.0833 45.1172 28.0149C45.0365 27.4554 44.9115 26.9091 44.8571 26.508C44.8498 26.4467 44.8397 26.3865 44.8273 26.328C44.7499 25.9693 44.6006 25.707 44.495 25.5143C44.4697 25.4682 44.4433 25.4255 44.4168 25.3863C44.0945 24.9396 43.7864 24.7822 43.4985 24.5959C43.4966 24.5947 43.4946 24.5935 43.4925 24.5921C43.4411 24.56 43.3531 24.4728 43.205 24.2851C43.2049 24.2851 43.2048 24.285 43.2047 24.2849C43.1136 24.1588 42.8352 23.9441 42.5275 23.9371C42.2298 23.928 42.0772 24.0226 41.9822 24.0732C41.7988 24.1863 41.7463 24.2546 41.6853 24.3131C41.5777 24.4258 41.5179 24.5005 41.4737 24.5465C41.4477 24.576 41.421 24.5917 41.4726 24.5543C41.4551 24.5659 41.4376 24.578 41.4201 24.5907C41.2187 24.732 41.0223 24.9679 40.9247 25.212L40.9486 25.1596C40.949 25.1587 40.9496 25.1576 40.9502 25.1564C40.9765 25.1125 40.9488 25.1645 40.9083 25.2229C40.7854 25.3998 40.7241 25.6165 40.7475 25.8333C40.7708 26.05 40.8754 26.2479 41.0404 26.3851C41.2054 26.5223 41.419 26.5891 41.6363 26.5725C41.8538 26.556 42.0557 26.4563 42.2072 26.3032C42.2072 26.3032 42.2072 26.3032 42.2072 26.3032C42.2767 26.2276 42.3613 26.1456 42.4683 25.9477C42.4728 25.939 42.4771 25.9304 42.4813 25.9221L42.5052 25.8696C42.4926 25.9059 42.443 25.9611 42.4237 25.9716C42.4221 25.9727 42.4206 25.9737 42.4194 25.9744C42.5847 25.8602 42.6547 25.778 42.7222 25.7076C42.8138 25.6077 42.88 25.5268 42.9101 25.496C42.919 25.483 42.9385 25.4808 42.8407 25.5428C42.7883 25.5686 42.6841 25.6429 42.4366 25.6364C42.1791 25.6312 41.946 25.4472 41.8857 25.3599C41.8857 25.36 41.8858 25.36 41.8858 25.3601C42.0221 25.5266 42.2288 25.7976 42.5611 26.0162C42.5763 26.0262 42.5918 26.036 42.6076 26.0458C42.7951 26.1569 42.9623 26.3311 42.9619 26.3517C42.9617 26.3519 42.96 26.3501 42.9572 26.3456C43.0509 26.5218 43.097 26.6382 43.1067 26.6925C43.1087 26.702 43.11 26.7103 43.111 26.718C43.201 27.3395 43.3281 27.7992 43.3957 28.2629C43.4034 28.3149 43.41 28.3651 43.415 28.4109C43.4386 28.6671 43.4536 29.0303 43.4687 29.3517C43.4762 29.517 43.4834 29.682 43.491 29.8499C43.495 29.9343 43.4988 30.0179 43.5038 30.1074C43.5052 30.1323 43.5063 30.1507 43.5085 30.1832C43.5095 30.1966 43.5106 30.2136 43.5138 30.2446C43.5146 30.2509 43.5153 30.2626 43.5212 30.3C43.5246 30.3197 43.5274 30.3418 43.5427 30.3982C43.5467 30.4127 43.5519 30.4298 43.5596 30.452C43.567 30.4715 43.5562 30.4474 43.5844 30.5149C43.6187 30.576 43.6346 30.6728 43.8489 30.8524C43.9558 30.9374 44.1604 31.0406 44.4025 31.0319C44.6446 31.0264 44.8419 30.912 44.9433 30.8217C45.1462 30.6314 45.1569 30.5346 45.1877 30.4719C45.2303 30.3514 45.2284 30.3223 45.2347 30.2906C45.2447 30.216 45.243 30.2041 45.2443 30.1851C45.247 30.1014 45.246 30.0766 45.2462 30.0237C45.246 30.027 45.246 30.0194 45.2472 30.0074C45.2619 29.845 45.3104 29.4748 45.4069 29.1785C45.4127 29.1613 45.4186 29.1439 45.4246 29.1264C45.515 28.8596 45.6072 28.5762 45.6586 28.2314C45.6969 27.9054 45.7567 27.3932 45.3434 26.9024C45.3421 26.901 45.3408 26.8995 45.3395 26.8981C45.2563 26.8078 45.1371 26.6702 45.0055 26.5409C44.9349 26.473 44.8688 26.4059 44.738 26.3129C44.6572 26.2695 44.6224 26.1969 44.3069 26.1444C44.157 26.1095 43.7835 26.2143 43.645 26.4213C43.5016 26.6153 43.4995 26.7191 43.4814 26.8052C43.4603 27.0976 43.5091 27.1002 43.5156 27.1503C43.5313 27.1938 43.5366 27.2041 43.5457 27.2242C43.5607 27.2568 43.572 27.2773 43.5807 27.2933C43.6728 27.4537 43.7281 27.5268 43.7991 27.6291C43.8339 27.678 43.8676 27.7248 43.9093 27.7791C43.9354 27.8111 43.9361 27.8194 44.0146 27.9024C44.0246 27.9116 44.0461 27.9371 44.1108 27.9844C44.1256 27.9926 44.1782 28.0412 44.3172 28.0856C44.3896 28.1059 44.5025 28.1342 44.6723 28.0982C44.8428 28.0808 45.1169 27.8517 45.1642 27.6853C45.275 27.3551 45.1899 27.2729 45.2019 27.2639C45.1956 27.2354 45.1895 27.2149 45.184 27.1978C45.1409 27.078 45.1417 27.0964 45.1303 27.0704C45.1136 27.0382 45.1048 27.0231 45.0937 27.0038C44.9811 26.8245 44.9275 26.7876 44.878 26.73C44.8004 26.6485 44.7522 26.5916 44.7431 26.5713C44.7242 26.5464 44.8121 26.6111 44.7881 26.8271C44.7783 26.8855 44.7605 26.9566 44.6963 27.0489C44.6353 27.1405 44.5072 27.2357 44.3958 27.268C44.3612 27.2791 44.329 27.286 44.3005 27.2903C44.3457 27.2883 44.3867 27.2918 44.4194 27.2912C44.4937 27.2794 44.55 27.3376 44.37 27.2502C44.4064 27.2737 44.4342 27.2924 44.45 27.3038C44.5031 27.3256 44.3952 27.3369 44.3352 27.0274C44.3318 26.991 44.3354 26.9722 44.3362 26.9704C44.3438 26.9727 44.2888 27.1585 44.2392 27.337C44.2303 27.3706 44.2217 27.4036 44.2134 27.4367C44.1041 27.863 44.0829 28.2765 43.9353 28.6008C43.9296 28.6135 43.9239 28.6261 43.9182 28.6386C43.9121 28.652 43.9059 28.6654 43.9 28.6787C43.8368 28.819 43.7799 28.9586 43.727 29.0905C43.7006 29.1562 43.6751 29.2203 43.6521 29.2742C43.6409 29.3006 43.6298 29.3253 43.6238 29.3371C43.637 29.3364 43.553 29.3879 43.7444 29.21Z" fill="white"/>
<path d="M38.8456 26.5334C38.6829 26.5334 38.5269 26.5981 38.4119 26.7131C38.2969 26.8281 38.2323 26.9841 38.2323 27.1467C38.2323 27.3094 38.2969 27.4654 38.4119 27.5804C38.5269 27.6954 38.6829 27.76 38.8456 27.76C38.837 27.7586 38.92 27.7672 38.9851 27.7786C39.2001 27.8144 39.4404 27.8641 39.675 27.9122C39.6762 27.9124 39.6773 27.9126 39.6785 27.9129C40.457 28.0722 41.2213 28.3063 41.9295 28.4712C41.933 28.4721 41.9364 28.4729 41.9398 28.4737C42.1124 28.5175 42.2679 28.5724 42.4 28.6337C42.5599 28.7013 42.5445 28.7383 42.986 28.9195C42.9888 28.9205 42.9918 28.9208 42.9951 28.9206C43.0012 28.9177 43.0095 28.906 43.0195 28.8878C43.0577 28.8184 43.1197 28.653 43.1783 28.5072C43.229 28.345 43.3193 28.2907 43.255 28.1732C43.2531 28.1659 43.2518 28.1573 43.2514 28.1487C43.2832 28.0042 43.3042 28.0599 43.3 28.0474C43.2992 28.0479 43.2927 28.0509 43.2855 28.0536C43.2708 28.0594 43.2517 28.0657 43.2317 28.0724C43.1982 28.0835 43.1706 28.1075 43.1549 28.139C43.1391 28.1705 43.1365 28.207 43.1477 28.2404C43.1588 28.2738 43.1828 28.3014 43.2143 28.3172C43.2458 28.3329 43.2822 28.3355 43.3157 28.3244C43.3157 28.3244 43.3157 28.3244 43.3157 28.3244C43.3359 28.3176 43.3571 28.3107 43.3818 28.3012C43.3945 28.2962 43.4075 28.291 43.4255 28.2815C43.4386 28.2587 43.4832 28.3037 43.5168 28.1368C43.5163 28.1269 43.5148 28.117 43.5126 28.1083C43.4315 27.9568 43.4812 27.8915 43.4992 27.7143C43.5236 27.5547 43.5506 27.3774 43.5537 27.2962C43.5545 27.2749 43.5537 27.2602 43.5506 27.2542C43.5515 27.2532 43.5521 27.2528 43.5526 27.253C43.5994 27.279 43.2218 27.0852 42.9781 27.0187C42.7099 26.9369 42.4521 26.8961 42.2048 26.8703C42.2006 26.8699 42.1963 26.8695 42.1921 26.869C41.3938 26.7998 40.6417 26.8572 39.9261 26.7116C39.9249 26.7113 39.9237 26.7111 39.9225 26.7108C39.6808 26.6615 39.4463 26.6122 39.1826 26.568C39.0895 26.5544 39.0144 26.5368 38.8456 26.5334Z" fill="white"/>
<path d="M39.4058 26.1958C39.2564 26.1793 39.1065 26.2229 38.9892 26.3169C38.8718 26.4109 38.7966 26.5476 38.7802 26.6971C38.7637 26.8465 38.8072 26.9964 38.9012 27.1137C38.9952 27.2311 39.132 27.3063 39.2814 27.3228C39.2814 27.3228 39.2814 27.3228 39.2814 27.3228C39.3583 27.3313 39.441 27.3412 39.5231 27.3506C39.7482 27.3768 39.9752 27.4015 40.2016 27.424C40.2038 27.4242 40.206 27.4245 40.2082 27.4247C40.9701 27.5217 41.7643 28.0082 42.4758 28.2508C42.4825 28.2531 42.4891 28.2554 42.4957 28.2575L42.5106 28.2627C42.7313 28.333 43.1722 28.3343 43.5331 28.3771C43.5439 28.3785 43.5556 28.3782 43.5682 28.3764L43.543 28.3624C43.5465 28.3594 43.5494 28.3554 43.5474 28.3476C43.5457 28.3432 43.544 28.3388 43.5348 28.3283C43.5177 28.2998 43.5413 28.3656 43.411 28.1679C43.3936 28.1338 43.3727 28.087 43.3617 28.0161C43.3409 27.9315 43.374 27.7306 43.4757 27.6277C43.6538 27.454 43.7341 27.4843 43.7782 27.4701C43.846 27.4644 43.8696 27.4714 43.8836 27.4736C43.9155 27.4804 43.919 27.485 43.9259 27.4893C43.9367 27.4978 43.9356 27.5041 43.9343 27.5103C43.9306 27.5226 43.92 27.5336 43.9086 27.545C43.8856 27.5676 43.8571 27.591 43.8282 27.6147C43.77 27.6621 43.7079 27.7102 43.6513 27.7447C43.6347 27.7549 43.6144 27.7763 43.5981 27.7959C43.5815 27.816 43.5702 27.8326 43.5635 27.8505C43.5568 27.8684 43.5544 27.8884 43.5536 27.9144C43.5531 27.9399 43.5543 27.9693 43.56 27.9879C43.56 27.9879 43.56 27.9879 43.56 27.9879C43.5803 28.0512 43.5952 28.1283 43.6142 28.2037C43.6238 28.2415 43.6342 28.2788 43.6499 28.3144C43.6582 28.3324 43.667 28.3498 43.6831 28.3678C43.6915 28.3768 43.7002 28.3859 43.7212 28.3967C43.7331 28.4021 43.7412 28.4077 43.7787 28.4151C43.7949 28.4176 43.8217 28.4248 43.8917 28.4189C43.9372 28.4045 44.0188 28.4345 44.1977 28.2599C44.2998 28.1565 44.333 27.9549 44.3121 27.8697C44.301 27.7983 44.2799 27.7509 44.2622 27.7163C44.1288 27.5133 44.1465 27.575 44.1248 27.543C44.1104 27.5285 44.1041 27.521 44.0968 27.5128C44.0845 27.4983 44.0769 27.488 44.069 27.4782L44.0439 27.4641C44.0375 27.4525 44.0303 27.4423 44.0222 27.4339C43.7338 27.1446 43.5198 26.8168 43.0545 26.638L43.0694 26.6431C43.0611 26.64 43.0527 26.6369 43.0443 26.6339C42.1351 26.3298 41.2546 26.4149 40.3206 26.2965C40.3184 26.2962 40.3163 26.296 40.3141 26.2958C40.0936 26.2739 39.8745 26.2501 39.6536 26.2244C39.5723 26.215 39.4919 26.2054 39.4058 26.1958Z" fill="white"/>
<path d="M39.6111 26.6256C39.6784 26.7602 39.7964 26.8626 39.9392 26.9101C40.0819 26.9577 40.2378 26.9467 40.3723 26.8794C40.5069 26.8121 40.6093 26.6941 40.6569 26.5513C40.7045 26.4085 40.6934 26.2527 40.6261 26.1181C40.6261 26.1181 40.6261 26.1181 40.6261 26.1181C40.601 26.0677 40.6816 26.2098 40.6482 26.3592C40.6482 26.3593 40.6482 26.3593 40.6482 26.3594C40.6251 26.4859 40.5817 26.6174 40.4964 26.7077C40.4546 26.753 40.4094 26.7826 40.3721 26.7927C40.3719 26.7928 40.3717 26.7928 40.3715 26.7929C40.6553 26.7567 41.3085 27.0593 41.9934 27.3435C41.9946 27.344 41.9958 27.3445 41.997 27.345C42.2982 27.4698 42.5633 27.6305 42.9424 27.8204C42.9426 27.8204 42.9427 27.8205 42.9429 27.8206C43.2789 27.9725 43.5233 28.0595 43.5407 28.0827C43.5408 28.0827 43.5409 28.0828 43.5409 28.0828L43.6584 28.1364C43.7666 28.1754 43.9289 28.1634 43.9648 28.1024C43.9648 28.0863 43.963 28.0773 43.9061 28.0092C43.9037 28.0063 43.9013 28.0031 43.8988 27.9996L43.6753 27.4936C43.6662 27.3544 43.7196 27.1608 43.8075 27.0417C43.8951 26.9185 43.9756 26.867 44.0346 26.8318C44.1489 26.7699 44.1968 26.7696 44.2334 26.7655C44.3011 26.7635 44.318 26.783 44.3323 26.803C44.3566 26.8449 44.3509 26.9027 44.3446 26.9647C44.3291 27.0889 44.2981 27.233 44.2699 27.3344C44.2646 27.3534 44.2595 27.3853 44.2557 27.4121C44.252 27.4395 44.2498 27.4596 44.2498 27.4789C44.2498 27.4982 44.252 27.5182 44.2557 27.5457C44.2595 27.5724 44.2646 27.6044 44.2699 27.6234C44.2993 27.7247 44.3256 27.8691 44.3677 27.9921C44.39 28.0533 44.4131 28.1102 44.4659 28.1493C44.4943 28.1679 44.5258 28.1855 44.6073 28.1799C44.6508 28.174 44.7057 28.1714 44.8261 28.1057C44.8882 28.0686 44.9714 28.0149 45.0611 27.8886C45.151 27.7666 45.2054 27.5694 45.1961 27.4265L44.7837 26.8873L44.9726 26.9205C44.9688 26.9157 44.965 26.9112 44.9611 26.9068C44.8691 26.8057 44.8267 26.7703 44.7854 26.7293C44.579 26.5296 44.4783 26.4199 44.3262 26.3592L44.4437 26.4128C44.4431 26.4125 44.4425 26.4121 44.4419 26.4118C44.0136 26.1937 43.7498 26.2023 43.6209 26.1586C43.6208 26.1586 43.6207 26.1585 43.6206 26.1585C43.3177 26.0611 42.9087 25.9105 42.5053 25.8056C42.5036 25.8052 42.5019 25.8048 42.5003 25.8043C41.8647 25.6828 41.1967 25.2474 40.0667 25.4721C40.0662 25.4722 40.0658 25.4723 40.0653 25.4724C39.987 25.492 39.9017 25.5368 39.824 25.604C39.6687 25.7362 39.572 25.9387 39.5337 26.1458C39.5337 26.1459 39.5337 26.146 39.5336 26.146C39.4824 26.3789 39.5985 26.603 39.6111 26.6256Z" fill="white"/>
<path d="M39.5318 27.3146C39.4735 27.1766 39.3628 27.0674 39.2241 27.0111C39.0853 26.9547 38.9298 26.9558 38.7919 27.0141C38.6539 27.0724 38.5447 27.1831 38.4884 27.3218C38.432 27.4606 38.4331 27.6161 38.4914 27.754C38.4914 27.754 38.4914 27.754 38.4914 27.754C38.6398 28.0322 38.6851 28.008 38.7456 28.0737C38.8008 28.1196 38.8482 28.1544 38.8944 28.1875C39.2224 28.4157 39.5126 28.5844 39.8004 28.7726C39.8015 28.7733 39.8026 28.774 39.8037 28.7747C40.1068 28.9674 40.2807 29.3129 40.6315 29.5804C40.6324 29.5811 40.6333 29.5817 40.6342 29.5824C41.3946 30.1411 42.1086 30.6608 42.8193 31.1632C42.8197 31.1634 42.82 31.1637 42.8204 31.1639L42.6087 30.9463C42.6319 30.9779 42.7386 30.9578 42.8394 30.9087C42.8817 30.8839 42.912 30.8652 42.9594 30.7634C42.9601 30.7621 42.9607 30.7608 42.9614 30.7595L43.1663 30.4164C43.3792 30.3136 43.4044 30.3861 43.4254 30.4046C43.4416 30.4338 43.4333 30.4661 43.421 30.4981C43.3947 30.5621 43.3472 30.6269 43.3039 30.6787C43.2926 30.6923 43.2788 30.7168 43.2679 30.7379C43.2569 30.7596 43.2496 30.7762 43.2454 30.793C43.2412 30.8097 43.2399 30.8278 43.2394 30.8521C43.2391 30.8759 43.2397 30.904 43.2433 30.9213C43.2433 30.9213 43.2433 30.9213 43.2433 30.9213C43.2581 30.9876 43.2687 31.0672 43.3012 31.1423C43.3185 31.1796 43.3398 31.2166 43.3858 31.2472C43.4363 31.2667 43.4936 31.3391 43.7319 31.2196L43.7818 30.707L43.9368 30.8764C43.9375 30.8743 43.9383 30.8722 43.939 30.8701C43.9932 30.6965 44.0052 30.6066 44.0254 30.5139C44.0687 30.2966 44.0853 30.122 44.0105 30.0061L43.7988 29.7885C43.7984 29.7882 43.798 29.7879 43.7976 29.7876C43.0326 29.247 42.214 28.8056 41.4685 28.3659C41.4679 28.3655 41.4672 28.3652 41.4666 28.3648C41.1839 28.1957 40.7649 28.0479 40.4184 27.8273C40.4172 27.8265 40.4159 27.8256 40.4147 27.8248C40.1143 27.6291 39.7983 27.4416 39.5501 27.2679C39.5181 27.2451 39.4882 27.2225 39.4698 27.2071C39.4575 27.2098 39.4256 27.1229 39.5318 27.3146Z" fill="white"/>
<path d="M39.5311 27.8376C39.5235 27.6998 39.4614 27.5707 39.3586 27.4787C39.2558 27.3867 39.1207 27.3392 38.9829 27.3469C38.8451 27.3545 38.716 27.4165 38.624 27.5193C38.5319 27.6221 38.4845 27.7573 38.4921 27.895C38.4921 27.895 38.4921 27.895 38.4921 27.895C38.5005 28.0426 38.515 28.1825 38.5339 28.3231C38.5778 28.6369 38.6362 28.9448 38.7511 29.2746C38.7513 29.2749 38.7514 29.2752 38.7515 29.2755C39.0639 30.107 39.3488 30.8873 39.6828 31.6048C39.683 31.6053 39.6832 31.6057 39.6834 31.6061C39.9606 32.2275 40.2531 32.8949 40.5885 33.5157C40.5891 33.5168 40.5897 33.5179 40.5903 33.519C40.8051 33.9272 41.1095 34.3514 41.2925 34.6339C41.2931 34.6347 41.2936 34.6356 41.2942 34.6364L41.356 34.7231C41.4402 34.8241 41.5836 34.8761 41.7285 34.9025C41.7821 34.9121 41.8363 34.9187 41.8836 34.9198C41.9266 34.9106 41.9851 34.9503 41.953 34.8321C41.9521 34.8285 41.9513 34.8248 41.9504 34.8208L42.0285 34.3105C42.1559 34.1684 42.2992 34.1519 42.3604 34.1485C42.4266 34.1463 42.4585 34.1554 42.4812 34.1612C42.5261 34.1744 42.5401 34.1859 42.551 34.195C42.5709 34.2135 42.5698 34.2271 42.5671 34.2407C42.56 34.2674 42.5371 34.2928 42.5121 34.3192C42.4611 34.3716 42.3963 34.4264 42.3439 34.4639C42.3304 34.4736 42.3111 34.4923 42.2953 34.5085C42.2791 34.5252 42.2678 34.5379 42.2588 34.5515C42.2498 34.565 42.2424 34.5803 42.2332 34.6016C42.2243 34.6225 42.2144 34.6475 42.2107 34.6637C42.2107 34.6637 42.2107 34.6637 42.2107 34.6637C42.1967 34.7268 42.1703 34.8073 42.1584 34.8842C42.1529 34.9229 42.1499 34.9603 42.1631 34.9979C42.1706 35.0169 42.1797 35.0356 42.2105 35.0584C42.2266 35.0696 42.2462 35.083 42.2968 35.0973C42.3222 35.1037 42.357 35.1131 42.4262 35.1108C42.4902 35.1072 42.6364 35.0899 42.7658 34.9455L42.7606 34.3957L42.8438 34.4352C42.8423 34.4296 42.8407 34.4242 42.839 34.419C42.7689 34.2269 42.7692 34.2065 42.7579 34.1353C42.75 34.0749 42.7479 34.0211 42.7457 33.9698C42.7404 33.8327 42.737 33.7178 42.6811 33.6462L42.7429 33.7328C42.742 33.7314 42.7412 33.73 42.7403 33.7286C42.4608 33.3003 42.2643 33.0381 42.0752 32.6987C42.0745 32.6977 42.0739 32.6966 42.0733 32.6955C41.7278 32.0861 41.3601 31.5138 40.9767 30.8954C40.9764 30.8949 40.9762 30.8945 40.9759 30.894C40.5326 30.2083 39.9844 29.6014 39.7317 28.9264C39.7316 28.9262 39.7315 28.926 39.7315 28.9258C39.6547 28.7082 39.6005 28.4438 39.5651 28.1838C39.5494 28.0671 39.5373 27.9491 39.5311 27.8376Z" fill="white"/>
<path d="M41.2991 33.6759C41.2838 33.5683 41.2264 33.4712 41.1396 33.406C41.0527 33.3407 40.9434 33.3127 40.8359 33.328C40.7283 33.3433 40.6312 33.4007 40.566 33.4876C40.5007 33.5745 40.4727 33.6837 40.488 33.7913C40.488 33.7913 40.488 33.7913 40.488 33.7913C40.5259 34.0225 40.5888 34.1807 40.6606 34.3517C40.7025 34.4484 40.7485 34.5422 40.7977 34.6333C40.7985 34.6348 40.7994 34.6363 40.8002 34.6378C41.1331 35.1883 41.356 35.6269 41.8792 36.1067C41.8843 36.1108 41.8895 36.115 41.8946 36.1192C41.9782 36.1678 42.0194 36.2845 42.3852 36.3022C42.4179 36.3011 42.4534 36.2977 42.4908 36.2909C42.8153 36.222 42.9503 36.0444 43.0382 35.9382C43.1246 35.8241 43.1723 35.7291 43.2143 35.6396C43.2951 35.4621 43.3432 35.3066 43.3865 35.1541C43.4706 34.852 43.5247 34.5606 43.5749 34.2908C43.5759 34.2852 43.577 34.2797 43.578 34.2741C43.6254 34.0205 43.6619 33.7744 43.7058 33.5464C43.7065 33.5432 43.7071 33.5401 43.7077 33.5369C43.7579 33.251 43.8828 32.9825 43.9764 32.5385C43.9765 32.5379 43.9767 32.5372 43.9769 32.5365C44.0281 32.3335 44.2618 31.8627 44.405 31.4509C44.4051 31.4506 44.4052 31.4504 44.4053 31.4501C44.5675 30.9788 44.5579 30.5722 44.5859 30.2698C44.586 30.2686 44.5861 30.2673 44.5862 30.266C44.564 30.2575 44.7204 29.9761 44.7959 29.5342C44.8002 29.5042 44.8038 29.4736 44.8066 29.4423L44.8042 29.4653C44.8042 29.4653 44.8042 29.4652 44.8042 29.4652C44.802 29.4662 44.8143 29.4324 44.8379 29.2866C44.8379 29.2866 44.8379 29.2865 44.8379 29.2865C44.8574 29.1236 44.8326 29.3082 44.763 29.3766C44.8543 29.2337 44.8847 29.0547 44.8529 28.8828C44.8208 28.7107 44.729 28.5598 44.5925 28.4594C44.456 28.3591 44.2846 28.3164 44.1107 28.3371C43.9372 28.358 43.7754 28.4404 43.6662 28.5702C43.6662 28.5702 43.6662 28.5702 43.6662 28.5702C43.5024 28.7598 43.4593 29.1014 43.4618 29.0865C43.4618 29.0865 43.4618 29.0865 43.4618 29.0865C43.4663 29.0704 43.4394 29.1626 43.4222 29.2939C43.4221 29.2945 43.422 29.2951 43.4219 29.2957L43.4195 29.3187C43.419 29.3242 43.4183 29.33 43.4174 29.3364C43.4224 29.4315 43.2687 29.623 43.1971 30.1555C43.1969 30.157 43.1968 30.1586 43.1967 30.1601C43.1702 30.5355 43.1619 30.8232 43.1005 31.0011C43.1005 31.0012 43.1004 31.0013 43.1004 31.0014C42.9815 31.392 42.824 31.6795 42.6829 32.2999C42.6823 32.3036 42.6817 32.3073 42.6811 32.311C42.6513 32.5399 42.5234 32.9128 42.4558 33.3011C42.455 33.3054 42.4542 33.3097 42.4534 33.3141C42.4071 33.5725 42.3701 33.8158 42.3291 34.0487C42.3283 34.0538 42.3274 34.059 42.3264 34.0642C42.2789 34.3381 42.2341 34.5924 42.1735 34.8245C42.1439 34.9386 42.109 35.0484 42.0761 35.1233C42.0608 35.1597 42.0435 35.1876 42.0465 35.1837C42.0508 35.1867 42.0789 35.1119 42.2653 35.0691C42.2939 35.0639 42.3203 35.0614 42.344 35.0607C42.6037 35.0782 42.5509 35.1365 42.5477 35.1295C42.5458 35.1291 42.5438 35.1285 42.5418 35.1277C42.2224 34.9716 41.7241 34.606 41.5205 34.2474C41.5199 34.2462 41.5192 34.245 41.5186 34.2438C41.4798 34.172 41.4441 34.099 41.4125 34.0261C41.359 33.904 41.3115 33.76 41.2991 33.6759Z" fill="white"/>
<path d="M42.1298 34.2491C42.0463 34.1561 41.9293 34.1001 41.8045 34.0934C41.6797 34.0866 41.5574 34.1298 41.4644 34.2133C41.3714 34.2968 41.3154 34.4138 41.3087 34.5386C41.302 34.6633 41.3451 34.7857 41.4286 34.8787C41.4286 34.8787 41.4286 34.8787 41.4286 34.8787C41.5544 35.0184 41.6995 35.1191 41.8484 35.1938C42.0183 35.2781 42.1946 35.3308 42.3818 35.3541C42.3836 35.3543 42.3853 35.3546 42.3871 35.3548C42.7275 35.3826 42.9032 35.2231 43.0187 35.1379C43.1351 35.0423 43.2182 34.9525 43.2965 34.8671C43.451 34.6957 43.5817 34.5343 43.7113 34.3731C43.9672 34.0525 44.2063 33.74 44.4134 33.4116C44.4163 33.4069 44.4193 33.4021 44.4222 33.3974C44.815 32.7946 45.1739 31.9294 45.2866 31.2634C45.2873 31.2607 45.2879 31.2581 45.2886 31.2554C45.3574 30.9683 45.4477 30.646 45.534 30.4339C45.535 30.4316 45.536 30.4292 45.5369 30.4269C45.5737 30.3369 45.5855 30.2473 45.5833 30.1496C45.582 30.0999 45.5775 30.0495 45.5684 29.984C45.5636 29.9505 45.5582 29.914 45.5475 29.8607C45.5265 29.7979 45.554 29.7624 45.4164 29.5271L45.3841 28.9898L44.315 29.5117C44.3077 29.5234 44.3019 29.5337 44.2969 29.543C44.2165 29.7366 44.277 29.7301 44.294 29.7992C44.3205 29.8534 44.3538 29.9038 44.3793 29.9503C44.3847 29.96 44.3897 29.9696 44.3943 29.9789C44.3947 29.9797 44.3951 29.9805 44.3955 29.9813C44.4666 30.1097 44.5158 30.2276 44.561 30.3698C44.5664 30.3857 44.5809 30.4051 44.5952 30.4211C44.6099 30.4372 44.6233 30.4485 44.6385 30.4552C44.6536 30.462 44.671 30.4643 44.6928 30.4644C44.7143 30.4643 44.7384 30.462 44.7538 30.4553C44.7538 30.4553 44.7538 30.4553 44.7538 30.4553C44.8877 30.3981 45.0216 30.3152 45.1589 30.2358C45.1597 30.2354 45.1605 30.235 45.1613 30.2346C45.1706 30.2299 45.1803 30.2254 45.1904 30.2212C45.2381 30.2013 45.2937 30.1852 45.3437 30.1734C45.3849 30.1769 45.4675 30.1032 45.421 30.2355C45.4171 30.243 45.4123 30.2516 45.4061 30.2618L44.3048 30.2464C44.178 30.0292 44.2083 30.0155 44.1893 29.9737C44.1803 29.9414 44.1747 29.9262 44.1689 29.914C44.1576 29.8908 44.1473 29.8823 44.1382 29.8744C44.12 29.8598 44.1074 29.8518 44.112 29.8402C44.1121 29.8399 44.1122 29.8396 44.1124 29.8393C43.9541 30.2364 43.8753 30.5511 43.7902 30.9016C43.7895 30.9048 43.7887 30.908 43.788 30.9111C43.6542 31.6303 43.4927 32.089 43.1872 32.7057C43.185 32.7101 43.1828 32.7145 43.1806 32.7189C43.006 33.0681 42.8712 33.4341 42.727 33.7786C42.6548 33.9502 42.5791 34.1178 42.4983 34.2551C42.459 34.3225 42.4152 34.3837 42.387 34.4152C42.3578 34.4554 42.3555 34.4135 42.498 34.4189C42.4973 34.4188 42.4966 34.4188 42.4959 34.4187C42.4195 34.4095 42.3376 34.3849 42.2696 34.3508C42.2095 34.3209 42.1605 34.2836 42.1298 34.2491Z" fill="white"/>
<path d="M42.0626 33.5845C41.891 33.6414 41.749 33.7642 41.6679 33.9258C41.5867 34.0875 41.5731 34.2747 41.6301 34.4464C41.687 34.618 41.8098 34.76 41.9714 34.8411C42.1331 34.9223 42.3203 34.9358 42.4919 34.8789C42.4919 34.8789 42.4919 34.8789 42.4919 34.8789C42.7372 34.7843 42.7749 34.7294 42.8612 34.6705C42.9355 34.6134 42.9973 34.5597 43.0562 34.5064C43.1731 34.4 43.2766 34.2952 43.3764 34.1892C43.3784 34.1871 43.3804 34.185 43.3824 34.1829C43.6026 33.9258 43.6462 33.8101 43.7435 33.6615C43.8294 33.5212 43.91 33.3897 43.989 33.2592C44.1465 32.9983 44.2953 32.7437 44.4101 32.4778C44.4133 32.4702 44.4166 32.4626 44.4199 32.455C44.4302 32.4307 44.4404 32.4055 44.4497 32.3818C44.7705 31.4568 44.8303 30.7651 44.9726 30.0137C44.9753 29.9979 44.978 29.982 44.9808 29.966C45.0971 29.3352 45.0878 28.6218 45.0376 28.0627C45.0362 28.0421 45.0349 28.0216 45.034 28.0021C45.0233 27.8167 45.0015 27.6463 44.9652 27.4825C44.9586 27.4529 44.9509 27.4237 44.9428 27.3948C44.9126 27.2822 44.8574 27.107 44.6574 26.9285C44.4614 26.7532 44.1971 26.704 44.0648 26.7085C43.7823 26.7217 43.7253 26.7796 43.6558 26.8064C43.5403 26.8666 43.506 26.8997 43.4681 26.9292C43.4 26.9861 43.3658 27.0233 43.3299 27.0621C43.2929 27.1028 43.2609 27.1417 43.2257 27.1902C43.0736 27.408 43.046 27.5473 43.015 27.6272C42.986 27.7149 42.9644 27.7869 42.9429 27.8599C42.9009 28.0027 42.8636 28.1382 42.8294 28.2749C42.8236 28.2982 42.8179 28.3213 42.8119 28.3455C42.5858 29.2667 42.3769 30.1787 42.1562 31.0807C42.1484 31.1125 42.14 31.1469 42.1321 31.1785C41.9906 31.7814 41.8486 32.2275 41.7308 33.0328C41.7286 33.0641 41.7256 33.0946 41.7272 33.1641C41.7334 33.2205 41.7156 33.2253 41.7724 33.4335C41.7907 33.4808 41.7998 33.5455 41.9102 33.704C42.0077 33.8413 42.2547 34.0735 42.6392 34.0819C42.812 34.0852 42.9522 34.0405 43.0493 33.9953C43.1198 33.9619 43.1589 33.936 43.1984 33.9082C43.2737 33.8538 43.3173 33.8086 43.3507 33.7719C43.5815 33.4936 43.5939 33.3527 43.638 33.2287C43.6722 33.1076 43.6892 33.0121 43.7034 32.9227C43.7306 32.7459 43.7428 32.5963 43.7534 32.4514C43.7734 32.1647 43.7823 31.9017 43.7986 31.6613C43.8 31.6403 43.8015 31.6193 43.803 31.5989C43.8615 30.8299 43.8497 30.0207 43.7184 29.2329C43.7132 29.2004 43.7078 29.1675 43.7027 29.1368C43.6141 28.6307 43.5516 28.1419 43.3782 27.5369C43.3648 27.4924 43.3504 27.4472 43.3347 27.4013C43.2849 27.2613 43.2355 26.9754 43.1546 26.655C43.1428 26.6091 43.129 26.5623 43.1134 26.5146C43.1083 26.5002 43.1063 26.4876 43.0795 26.4156C43.0708 26.3938 43.0633 26.3724 43.0369 26.3194C43.0249 26.2963 43.0055 26.2579 42.9655 26.2007C42.9469 26.175 42.9175 26.1332 42.8588 26.0747C42.7925 26.017 42.7497 25.9526 42.5178 25.8599C42.3043 25.772 41.9611 25.8004 41.7695 25.9152C41.6702 25.9679 41.5922 26.0347 41.5449 26.0833C41.5089 26.12 41.4809 26.1544 41.458 26.1856C41.3651 26.319 41.3559 26.3664 41.3373 26.4094C41.3041 26.5027 41.3047 26.5162 41.2962 26.5521C41.2685 26.7153 41.279 26.7092 41.276 26.7526C41.2757 26.8164 41.2782 26.8589 41.2804 26.9034C41.2849 26.9904 41.2899 27.0696 41.2908 27.1479C41.2911 27.1783 41.2915 27.2074 41.2918 27.2382C41.3049 28.1392 41.2716 29.0182 41.2706 29.8945C41.2706 29.9327 41.2705 29.9714 41.2704 30.0094C41.2689 30.6412 41.2604 31.2738 41.2433 31.9013C41.2421 31.9466 41.2408 31.9921 41.2394 32.0371C41.2394 32.037 41.2393 32.0362 41.2399 32.0265C41.2432 32.0066 41.2324 32.0315 41.2604 31.8856C41.2676 31.8547 41.2768 31.8153 41.3014 31.7505C41.314 31.7179 41.3306 31.6786 41.3583 31.6281C41.3834 31.6035 41.5222 31.2346 42.0723 31.1276C42.3365 31.0825 42.5984 31.1687 42.7403 31.2591C42.8877 31.3556 42.8764 31.3598 42.9266 31.4051C42.9999 31.479 43.0377 31.5355 43.066 31.5798C43.119 31.6652 43.1401 31.7235 43.1475 31.7414C43.1755 31.8143 43.1807 31.8436 43.1838 31.8537C43.1906 31.8816 43.1908 31.8849 43.1917 31.8887C43.1929 31.8955 43.1887 31.8711 43.1858 31.8515C43.1794 31.8093 43.1721 31.7589 43.1649 31.7093C43.1503 31.6092 43.135 31.506 43.119 31.4029C43.087 31.1965 43.0524 30.9898 43.0147 30.7831C43.0119 30.768 43.0091 30.7527 43.0063 30.7373C42.8741 30.0683 42.6536 29.5609 42.4506 29.0607C42.4427 29.0416 42.4346 29.0222 42.4267 29.0033C42.068 28.1459 41.5535 27.2023 40.678 26.5278C40.6514 26.507 40.6233 26.4885 40.5961 26.4715C40.5913 26.4735 40.5718 26.4646 40.5556 26.4499C40.5459 26.4413 40.526 26.4222 40.5283 26.4244C40.5182 26.4145 40.5069 26.4028 40.4777 26.3772C40.4622 26.3639 40.4433 26.3473 40.4027 26.3183C40.3819 26.3036 40.3557 26.2856 40.3121 26.2613C40.29 26.2492 40.2634 26.2354 40.2277 26.22C40.1844 26.2048 40.179 26.1888 40.0014 26.154C39.8574 26.1284 39.5093 26.1185 39.2084 26.3878C38.9142 26.66 38.8919 26.9697 38.8918 27.1056C38.9071 27.3919 38.9568 27.4305 38.9749 27.4891C39.0166 27.5795 39.0364 27.6035 39.0402 27.6112C39.0472 27.6222 39.0523 27.6299 39.0567 27.6364C39.0733 27.6609 39.0812 27.6712 39.0842 27.6753C39.0922 27.6862 39.0987 27.6947 39.1023 27.6995C39.1115 27.7115 39.1176 27.7193 39.1247 27.7285C39.1375 27.745 39.1492 27.7599 39.1615 27.7755C39.1847 27.8051 39.2073 27.8339 39.2303 27.8633C39.2754 27.9208 39.3201 27.9781 39.3647 28.0357C39.4542 28.151 39.5421 28.2657 39.6298 28.3816C39.8049 28.613 39.9772 28.8465 40.1459 29.0813C40.1554 29.0946 40.1649 29.1079 40.1745 29.1213C40.3713 29.3959 40.4852 29.6654 40.6309 30.0484C40.6383 30.0675 40.6455 30.0864 40.6528 30.1059C40.8681 30.6749 41.0745 31.3157 41.1687 31.8032C41.1715 31.8196 41.1739 31.8341 41.1747 31.8343C41.1754 31.837 41.1749 31.8335 41.174 31.8101C41.1766 31.7788 41.1593 31.7653 41.1975 31.5692C41.2125 31.5107 41.2259 31.4467 41.2926 31.322C41.3482 31.2179 41.4943 31.0164 41.7465 30.9053C42.2941 30.7048 42.5065 30.9068 42.5924 30.9308C42.7676 31.0323 42.7664 31.0559 42.796 31.0802C42.858 31.1491 42.8207 31.1158 42.8084 31.1008C42.7713 31.0585 42.7209 30.9909 42.6759 30.9206C42.6658 30.9049 42.656 30.8894 42.6453 30.8726C42.1931 30.1466 41.7405 29.3573 41.2729 28.5813C41.2569 28.5548 41.2401 28.5269 41.2242 28.5007C40.8854 27.9196 40.3286 27.1921 39.9722 26.8117C39.9678 26.8065 39.9718 26.8113 39.9869 26.8393C39.9606 26.7937 39.9412 26.764 39.9273 26.7418C39.9177 26.7267 39.9099 26.7142 39.9122 26.7179C39.9139 26.7211 39.917 26.7248 39.9336 26.757C39.9426 26.7762 39.954 26.7931 39.9817 26.8719C39.9946 26.9221 40.0207 26.9533 40.0303 27.1567C40.0253 27.2533 40.0438 27.441 39.8481 27.7269C39.7547 27.858 39.604 27.9758 39.4637 28.0348C39.3405 28.0883 39.2329 28.1062 39.1456 28.1119C38.883 28.1184 38.8116 28.0359 38.8108 28.0424C38.8085 28.0402 38.851 28.0724 38.8984 28.1156C38.9969 28.2042 39.127 28.3333 39.2671 28.4629C39.5487 28.7254 39.8866 29.0004 40.2717 29.2185C40.2917 29.2299 40.312 29.2413 40.3325 29.2525C40.6615 29.4562 41.2166 29.5096 41.5089 29.4441C41.5396 29.4392 41.5681 29.4341 41.5946 29.4292C41.9365 29.3916 42.3598 29.036 42.4657 28.7709C42.5943 28.5059 42.6086 28.3328 42.6275 28.1921C42.6542 27.9221 42.6469 27.7311 42.6561 27.6751C42.6563 27.6735 42.6564 27.6723 42.6565 27.6715C42.6613 27.6219 42.6898 27.5089 42.7477 27.4106C42.7501 27.4064 42.7526 27.4021 42.7551 27.3978C42.7202 27.4469 42.6469 27.4812 43.2364 27.1467C43.2476 27.1389 43.2589 27.1308 43.2705 27.1223C43.5341 26.923 43.6318 26.705 43.6896 26.5594C43.6961 26.5422 43.7019 26.5255 43.7071 26.5095C43.7253 26.451 43.7535 26.3649 43.7617 26.2172C43.7715 26.0744 43.7381 25.8418 43.6247 25.6544C43.3767 25.2728 43.1456 25.2388 43.0342 25.1905C43.0047 25.1809 42.9782 25.1735 42.9532 25.1672C42.5311 25.076 42.2104 25.0782 41.7495 25.2377C41.7233 25.2483 41.7028 25.2557 41.6445 25.2851C41.6969 25.2623 41.7578 25.2206 41.9521 25.1935C42.0017 25.188 42.0615 25.1848 42.135 25.1911C42.1778 25.1902 42.4373 25.2338 42.6087 25.3733C43.0079 25.6839 42.9778 26.1127 42.9672 26.1996C42.9312 26.4492 42.8803 26.4914 42.8752 26.5143C42.8484 26.5664 42.8383 26.5801 42.8319 26.5908C42.8176 26.613 42.8159 26.6148 42.8129 26.6191C42.8084 26.6253 42.8096 26.6231 42.811 26.6208C42.8144 26.6153 42.8212 26.6048 42.8284 26.5933C42.8431 26.5698 42.8606 26.5407 42.88 26.5041C42.9161 26.4268 42.9755 26.3425 43.0063 26.0965C43.013 26.0257 43.0142 25.9383 42.9958 25.8347C42.9673 25.6549 42.8631 25.4271 42.7152 25.2757C42.5683 25.1212 42.4174 25.0445 42.3031 24.998C42.072 24.9099 41.9376 24.9054 41.8237 24.8938C41.6135 24.8806 41.4382 24.8789 41.4773 24.8803C41.46 24.8773 41.4429 24.8745 41.4255 24.8721C41.1076 24.8501 40.8767 24.8023 40.3904 25.1112C40.2603 25.2046 40.132 25.3701 40.0745 25.5301C39.9497 25.9124 40.0424 26.0828 40.0705 26.1925C40.1103 26.3018 40.1472 26.3619 40.1799 26.4141C40.2455 26.5146 40.2995 26.573 40.3534 26.6281C40.3666 26.6413 40.3799 26.6542 40.3933 26.6667C40.4044 26.677 40.4156 26.687 40.4268 26.6968C40.9389 27.1021 41.3474 27.0997 41.742 27.0879C41.7569 27.0869 41.7713 27.0856 41.7868 27.0839C42.0149 27.0729 42.4441 26.8993 42.6366 26.5599C42.6498 26.5382 42.6625 26.5157 42.6746 26.4923C42.8728 26.1174 42.7713 25.7217 42.6998 25.5665C42.6968 25.5595 42.6938 25.5525 42.6907 25.5456C42.2993 24.8098 41.8812 24.6645 41.3955 24.459L40.76 24.2307L40.3589 24.7912C40.3363 24.8232 40.3165 24.8559 40.3004 24.8859C40.1435 25.2194 40.1977 25.3361 40.2049 25.4374C40.223 25.5335 40.2514 25.5936 40.2818 25.6461C40.3434 25.7488 40.4154 25.815 40.4977 25.8851C40.5011 25.8879 40.5044 25.8907 40.5077 25.8935C40.7155 26.0631 40.8133 26.0117 40.91 25.9984C41.0061 25.9769 41.1001 25.9505 41.1933 25.9312C41.237 25.9224 41.2979 25.8927 41.3489 25.8638C41.4007 25.8341 41.4385 25.8076 41.4675 25.7749C41.4965 25.7422 41.5183 25.7016 41.5416 25.6466C41.5642 25.5925 41.5865 25.5286 41.59 25.4841C41.59 25.4841 41.59 25.4841 41.59 25.4841C41.5956 25.387 41.6011 25.2841 41.6085 25.1864C41.6179 25.0958 41.6206 24.9728 41.7616 25.0456C41.7638 25.0466 41.7659 25.0477 41.7681 25.0487C41.8207 25.0734 41.8691 25.09 41.9146 25.1409C41.937 25.1676 41.9592 25.2011 41.9748 25.2701C41.9796 25.3447 42.0339 25.4329 41.8896 25.742C41.8746 25.7699 41.8561 25.8004 41.835 25.8304L40.7984 26.1626C40.9226 26.19 41.1248 26.4094 41.027 26.2794C41.0264 26.278 41.0257 26.2765 41.0251 26.275C40.9958 26.2173 40.9129 25.9393 41.0594 25.6615C41.0681 25.6447 41.0772 25.6285 41.0867 25.6132C41.2082 25.3948 41.4992 25.2871 41.5908 25.2889C41.5976 25.2881 41.6037 25.2876 41.6098 25.2872C41.548 25.3043 41.4607 25.2327 41.6129 25.3366C41.6161 25.3394 41.6194 25.3424 41.6227 25.3455C41.6268 25.3492 41.6309 25.3532 41.6351 25.3574C41.6499 25.3729 41.6677 25.389 41.7032 25.4427C41.721 25.4714 41.7446 25.507 41.775 25.5901C41.7942 25.6739 41.8808 25.8152 41.7657 26.171C41.7124 26.3197 41.5917 26.4752 41.4713 26.5615C41.3146 26.6681 41.2888 26.652 41.2502 26.6641C41.2169 26.6694 41.1945 26.6691 41.1691 26.6659C41.1663 26.6655 41.1634 26.665 41.1605 26.6645C41.4859 26.7118 41.6019 26.6916 41.6802 26.7023C41.7103 26.7026 41.7213 26.7166 41.6252 26.6819C41.578 26.6623 41.4909 26.6226 41.3938 26.521C41.296 26.4221 41.224 26.2623 41.2078 26.154C41.1912 26.0605 41.1926 25.9832 41.1983 25.9225C41.2253 25.7124 41.2694 25.6614 41.2883 25.6153C41.2989 25.5945 41.3069 25.5805 41.3116 25.5719C41.3138 25.5678 41.3155 25.5647 41.3137 25.5665C41.3125 25.5677 41.3112 25.5692 41.3041 25.5792C41.2998 25.5854 41.297 25.5888 41.2813 25.6132C41.2744 25.6247 41.2636 25.6395 41.2364 25.6925C41.231 25.7157 41.1798 25.7588 41.1438 26.0087C41.1331 26.0958 41.1031 26.5248 41.5024 26.8354C41.6739 26.975 41.9335 27.0186 41.9764 27.0177C42.0498 27.024 42.1097 27.0208 42.1594 27.0153C42.3539 26.9882 42.4151 26.9464 42.4678 26.9234C42.4239 26.9456 42.4177 26.9472 42.4071 26.9518C42.3568 26.9696 42.4896 26.9534 42.4892 26.9688C42.4782 26.9661 42.4652 26.9626 42.4489 26.9574C42.392 26.9275 42.2175 26.9201 41.9996 26.5897C41.9009 26.4275 41.8728 26.2248 41.8807 26.111C41.8873 25.9924 41.9079 25.9348 41.9169 25.9038C41.9179 25.9 41.9193 25.8956 41.9212 25.8905C41.9391 25.8504 41.9782 25.7355 42.1498 25.6043C42.1519 25.6028 42.1537 25.6015 42.1552 25.6005C42.2219 25.597 41.4848 25.8167 41.1331 26.438C41.1263 26.4494 41.1197 26.4608 41.1131 26.4722C40.9577 26.7465 40.8268 27.0414 40.7722 27.418C40.7705 27.4303 40.769 27.4424 40.7676 27.4542C40.7385 27.7457 40.7479 27.9057 40.7364 27.9828C40.7355 28.0152 40.7188 28.0172 40.769 27.9088C40.7994 27.8014 41.0736 27.5681 41.2414 27.5589C41.2286 27.5613 41.2178 27.5632 41.2089 27.5646C41.116 27.5693 41.259 27.577 41.2453 27.5844C41.2337 27.5781 41.2222 27.5717 41.2108 27.5653C40.9908 27.441 40.7827 27.2789 40.5557 27.0689C40.4402 26.9631 40.3247 26.8474 40.1649 26.7031C40.0824 26.6303 39.9932 26.5503 39.845 26.4525C39.6999 26.3657 39.4638 26.2021 39.0254 26.2193C38.937 26.2251 38.8284 26.2432 38.7043 26.297C38.5631 26.3565 38.4116 26.4749 38.3177 26.6068C38.1208 26.8943 38.1389 27.0841 38.134 27.1827C38.1437 27.3902 38.1709 27.4249 38.185 27.4791C38.2154 27.5655 38.2301 27.5894 38.2427 27.6158C38.2666 27.6621 38.2778 27.6797 38.2876 27.6964C38.3064 27.7273 38.3158 27.7417 38.3231 27.7535C38.3329 27.7688 38.3369 27.7767 38.3324 27.7697C38.381 27.8571 38.4241 27.9176 38.4608 27.9663C38.6344 28.1852 38.715 28.2626 38.8129 28.3825C38.9063 28.4945 38.9956 28.6091 39.0821 28.7278C39.256 28.9661 39.4221 29.2232 39.5815 29.4898C39.5965 29.5149 39.6125 29.5416 39.6277 29.5672C40.0826 30.3307 40.5199 31.1001 41.012 31.8996C41.0244 31.9194 41.0361 31.9381 41.0483 31.9573C41.1045 32.0455 41.1554 32.1336 41.2274 32.243C41.2698 32.3028 41.2883 32.3457 41.4157 32.4807C41.4627 32.5218 41.478 32.5607 41.674 32.6736C41.7698 32.7028 41.9948 32.9095 42.5532 32.7043C42.8107 32.5908 42.9611 32.3844 43.0192 32.2755C43.0888 32.1453 43.1038 32.0763 43.1203 32.0118C43.1634 31.793 43.1453 31.7557 43.1468 31.7012C43.1445 31.6544 43.1416 31.6277 43.1397 31.6071C43.1338 31.5504 43.1275 31.5089 43.1205 31.4677C42.9612 30.6629 42.7317 30.0557 42.4759 29.3967C42.4675 29.3757 42.4592 29.355 42.4507 29.3337C42.2904 28.9233 42.0407 28.4143 41.7327 28.0007C41.7224 27.9866 41.7123 27.9726 41.7022 27.9586C41.5227 27.711 41.3402 27.4658 41.1555 27.2232C41.063 27.1018 40.9704 26.9815 40.8766 26.861C40.8298 26.8009 40.783 26.741 40.7365 26.6819C40.7129 26.6518 40.6897 26.6224 40.6675 26.594C40.6558 26.5791 40.6448 26.5652 40.6352 26.5528C40.6301 26.5463 40.6258 26.5407 40.6232 26.5374C40.6223 26.5362 40.6214 26.5349 40.6247 26.5394C40.626 26.5412 40.6294 26.5453 40.644 26.5668C40.6478 26.5725 40.6525 26.5795 40.659 26.5898C40.6626 26.5971 40.6815 26.6196 40.723 26.7095C40.741 26.7678 40.7906 26.8061 40.8058 27.0924C40.8058 27.2282 40.7835 27.5378 40.4893 27.81C40.1884 28.0792 39.8403 28.0693 39.6965 28.0437C39.519 28.0089 39.5136 27.993 39.4703 27.9778C39.4346 27.9624 39.4081 27.9486 39.3861 27.9365C39.3426 27.9123 39.3165 27.8944 39.2958 27.8798C39.2555 27.851 39.237 27.8347 39.222 27.8218C39.1935 27.7969 39.1834 27.7863 39.1748 27.7778C39.2178 27.8204 39.2398 27.8404 39.2726 27.8703C39.3178 27.911 39.3611 27.9558 39.4219 28.008C39.4385 28.0245 39.455 28.0405 39.4722 28.0544C39.9604 28.4334 40.3126 29.0382 40.6024 29.7521C40.6098 29.7706 40.6174 29.7893 40.6248 29.8076C40.8131 30.2733 40.9865 30.7399 41.0529 31.0972C41.0555 31.1113 41.058 31.1252 41.0605 31.139C41.0949 31.328 41.1268 31.5171 41.1566 31.7082C41.1716 31.804 41.1859 31.8996 41.2005 31.9982C41.2078 32.0477 41.2151 32.0974 41.2239 32.1542C41.2288 32.1849 41.232 32.2087 41.2428 32.2656C41.2462 32.2823 41.2488 32.2974 41.2587 32.3375C41.2628 32.3519 41.2706 32.3905 41.3002 32.4674C41.3081 32.4864 41.3303 32.5474 41.3841 32.6338C41.4127 32.6788 41.4509 32.7358 41.5246 32.8101C41.5751 32.8556 41.5638 32.8598 41.7116 32.9566C41.8539 33.0472 42.1161 33.1335 42.3808 33.0884C42.9315 32.9814 43.0713 32.6113 43.0967 32.5861C43.1247 32.5351 43.1415 32.4952 43.1543 32.462C43.1793 32.3961 43.189 32.355 43.1967 32.3223C43.2271 32.1647 43.2171 32.1769 43.2212 32.144C43.2225 32.1209 43.2229 32.1098 43.2233 32.0951C43.2246 32.0479 43.2259 32.0003 43.227 31.9528C43.2428 31.2968 43.2421 30.644 43.2282 29.9903C43.2274 29.9511 43.2265 29.9112 43.2256 29.8719C43.2043 28.9754 43.1167 28.0806 43.0967 27.2104C43.0961 27.1814 43.0957 27.1544 43.0953 27.1266C43.0945 27.0552 43.0983 26.9828 43.104 26.9187C43.1069 26.8878 43.1104 26.8554 43.1137 26.8435C43.1128 26.8491 43.1251 26.8055 43.1043 26.9319C43.097 26.9622 43.0983 26.9727 43.0671 27.0607C43.0493 27.1016 43.041 27.1467 42.9494 27.2782C42.9269 27.309 42.8992 27.343 42.8635 27.3793C42.8167 27.4274 42.7392 27.4938 42.6404 27.5463C42.4499 27.6605 42.1078 27.6888 41.8955 27.6013C41.6648 27.5091 41.6227 27.4454 41.5572 27.3885C41.4995 27.3308 41.4708 27.2901 41.4529 27.2652C41.4141 27.2098 41.3961 27.1738 41.385 27.1526C41.3608 27.104 41.3549 27.0867 41.348 27.0695C41.3277 27.015 41.3309 27.0208 41.3311 27.0245C41.3372 27.0531 41.344 27.083 41.3518 27.114C41.411 27.3366 41.4439 27.6085 41.5713 28.0015C41.5792 28.0247 41.587 28.0492 41.5948 28.075C41.7028 28.4406 41.7842 28.9541 41.8676 29.4431C41.8725 29.4721 41.8773 29.5011 41.8818 29.529C41.987 30.1597 41.998 30.7961 41.9488 31.4601C41.9469 31.4857 41.9451 31.5115 41.9434 31.5368C41.9245 31.8228 41.9173 32.0878 41.9024 32.3274C41.8951 32.446 41.8855 32.5595 41.8733 32.6437C41.8675 32.6847 41.8601 32.7194 41.8586 32.725C41.8661 32.7265 41.8338 32.7147 41.9776 32.5361C42.0088 32.502 42.0501 32.4589 42.1234 32.4059C42.162 32.3788 42.2001 32.3535 42.2696 32.3206C42.3651 32.2761 42.5039 32.2318 42.6753 32.235C43.057 32.2433 43.3022 32.4741 43.398 32.6092C43.5066 32.7652 43.5147 32.8271 43.5323 32.8723C43.5858 33.069 43.5676 33.0649 43.5733 33.1085C43.5743 33.1576 43.5724 33.1663 43.572 33.1741C43.6218 32.8275 43.7788 32.1419 43.9053 31.6103C43.9131 31.5776 43.9216 31.542 43.9294 31.5093C44.1477 30.5894 44.355 29.6729 44.5694 28.7743C44.575 28.751 44.5804 28.7289 44.5858 28.7067C44.6173 28.5767 44.6463 28.4466 44.6751 28.326C44.6894 28.2657 44.7042 28.2069 44.7162 28.1639C44.7277 28.1143 44.7401 28.1198 44.6698 28.227C44.6587 28.2421 44.6527 28.2491 44.6434 28.2594C44.6336 28.2696 44.6268 28.2794 44.5888 28.3118C44.5659 28.3292 44.5475 28.3506 44.4491 28.4022C44.3883 28.4248 44.3403 28.4788 44.0677 28.4919C43.9402 28.4964 43.6809 28.4485 43.4886 28.2764C43.2923 28.1011 43.2391 27.9302 43.2102 27.8226C43.2132 27.839 43.2163 27.8554 43.2199 27.8716C43.2399 27.961 43.2592 28.0478 43.2662 28.1213C43.2681 28.1449 43.27 28.1683 43.2717 28.191C43.3226 28.7589 43.3229 29.1875 43.243 29.6739C43.2404 29.6901 43.2377 29.7063 43.2351 29.7224C43.1116 30.4541 43.0132 31.2742 42.853 31.7829C42.8494 31.7934 42.8458 31.8037 42.8425 31.8128C42.8395 31.8205 42.8366 31.8281 42.8336 31.8358C42.7308 32.1035 42.6622 32.3828 42.59 32.6514C42.5541 32.7849 42.5169 32.9166 42.4753 33.0349C42.4421 33.1435 42.3585 33.29 42.3877 33.2499C42.3861 33.2516 42.3845 33.2533 42.3829 33.2551C42.3014 33.3416 42.2184 33.425 42.1396 33.4966C42.1006 33.532 42.0619 33.5649 42.0314 33.5882C42.0121 33.6087 41.9422 33.6338 42.0626 33.5845Z" fill="white"/>
<path d="M41.9019 27.2146C41.8465 27.0645 41.7337 26.9427 41.5885 26.8758C41.4432 26.8089 41.2773 26.8025 41.1273 26.8579C40.9773 26.9134 40.8554 27.0261 40.7885 27.1714C40.7217 27.3167 40.7152 27.4826 40.7707 27.6326C40.7707 27.6326 40.7707 27.6326 40.7707 27.6326C40.8182 27.7607 40.8673 27.8774 40.9177 27.9928C41.1443 28.4969 41.3583 28.9478 41.6799 29.4582C41.6996 29.4879 41.704 29.5292 41.7054 29.579C41.7299 29.7186 41.7387 29.8762 41.808 29.9686C41.8433 30.0156 41.8821 30.0567 41.9254 30.0936C41.9626 30.1234 42.0051 30.1545 42.0753 30.1919C42.1456 30.2233 42.2058 30.274 42.4487 30.3048C42.5674 30.3143 42.8 30.3186 43.0534 30.1447C43.3069 29.9661 43.3916 29.7198 43.4184 29.5952C43.5125 29.0682 43.3539 28.8062 43.2655 28.5949C43.1631 28.3864 43.0565 28.2306 42.9501 28.0847C42.7378 27.7975 42.5216 27.5604 42.3153 27.3353C42.2801 27.297 42.2445 27.2579 42.2115 27.221C42.1896 27.1978 42.1804 27.1865 42.1385 27.1465C42.1266 27.1355 42.126 27.1342 42.0967 27.1092C42.084 27.0985 42.0691 27.0863 42.0482 27.0707C42.0377 27.063 42.0256 27.0543 42.0107 27.0444C41.9964 27.0362 41.9844 27.022 41.8846 26.9736C41.7898 26.9524 41.6275 26.7862 41.1184 26.9713C40.8698 27.077 40.6843 27.3308 40.6309 27.5101C40.5707 27.6946 40.58 27.8143 40.5865 27.8967C40.6389 28.2077 40.663 28.1636 40.6718 28.204C40.6952 28.2536 40.7138 28.2841 40.7211 28.297C40.7832 28.3992 40.7964 28.4149 40.8231 28.4557C40.8707 28.5262 40.9121 28.5864 40.9543 28.6474C41.0382 28.7686 41.1195 28.8847 41.2036 29.0012C41.3825 29.242 41.5077 29.4332 41.8043 29.7293L43.3922 28.5735C43.3775 28.542 43.3634 28.5143 43.3498 28.4887C43.1545 28.1398 42.9435 28.0118 42.7603 27.8597C42.7353 27.8404 42.7114 27.8215 42.6949 27.8115L42.6689 27.7747C42.6646 27.7703 42.6603 27.766 42.6559 27.7617C42.5575 27.6624 42.4168 27.6144 42.3323 27.5899C42.2102 27.5531 42.0441 27.5667 41.8952 27.6031C41.7449 27.641 41.6241 27.6987 41.5347 27.7881C41.4453 27.8774 41.3877 27.9982 41.3498 28.1485C41.3134 28.2974 41.2998 28.4635 41.3366 28.5857C41.3366 28.5857 41.3366 28.5857 41.3366 28.5857C41.3652 28.6736 41.3361 28.7402 41.334 28.7684C41.3339 28.7697 41.3339 28.771 41.3338 28.7723L41.3078 28.7355C41.3295 28.7827 41.3458 28.8209 41.3611 28.8581C41.4574 29.0988 41.5453 29.3526 41.5833 29.4265C41.5846 29.4288 41.5847 29.4291 41.583 29.4254L43.1709 28.2695C43.0803 28.1841 42.8585 27.9514 42.6883 27.7744C42.5986 27.6805 42.5089 27.5857 42.4236 27.4918C42.3813 27.4454 42.3392 27.3979 42.3055 27.359C42.2925 27.3456 42.2643 27.3055 42.2911 27.3507C42.2949 27.3577 42.307 27.3769 42.3277 27.4206C42.3354 27.4585 42.3568 27.409 42.4087 27.7154C42.4151 27.7969 42.4244 27.9157 42.3644 28.0996C42.3113 28.2783 42.1261 28.5316 41.8781 28.6371C41.3701 28.8217 41.2096 28.6558 41.1174 28.6357C41.0205 28.5887 41.0108 28.5762 40.9975 28.5686C40.9839 28.5595 40.9733 28.5519 40.9643 28.5452C40.9464 28.5319 40.9349 28.5224 40.9261 28.515C40.9066 28.4983 40.9082 28.499 40.9029 28.494C40.8896 28.4805 40.8978 28.4869 40.9045 28.4929C40.9409 28.5274 40.9771 28.5621 41.0114 28.5956C41.2094 28.7893 41.3908 28.9793 41.5301 29.1563C41.5989 29.2432 41.6563 29.3288 41.6842 29.3809C41.7217 29.4276 41.6725 29.4575 41.7074 29.2196C41.7306 29.1112 41.8079 28.8807 42.0475 28.7118C42.2872 28.5476 42.5023 28.5538 42.6046 28.5618C42.8143 28.5891 42.8436 28.6262 42.8845 28.6424C42.922 28.6627 42.9335 28.6736 42.9407 28.6818C42.9323 28.6815 42.9208 28.6831 42.9077 28.6886C42.883 28.7001 42.8041 28.7688 42.7551 28.8084C42.7245 28.8146 42.6968 28.8095 42.6851 28.7917C42.4548 28.4292 42.2171 27.9474 42.0226 27.5094C41.9785 27.4084 41.936 27.3065 41.9019 27.2146Z" fill="white"/>
<circle cx="54.3243" cy="18.166" r="3.5" fill="white"/>
<circle cx="30.3243" cy="18.166" r="3.5" fill="white"/>
</svg>
