<svg width="417" height="42" viewBox="0 0 417 42" fill="none" xmlns="http://www.w3.org/2000/svg">
<path d="M57.8295 10.9091L63.7955 31.4205H64.0227L69.9886 10.9091H78.9091L69.3068 40H58.5114L48.9091 10.9091H57.8295ZM101.425 40V18.1818H109.265V40H101.425ZM105.345 15.9091C104.284 15.9091 103.375 15.5587 102.618 14.858C101.86 14.1572 101.481 13.3144 101.481 12.3295C101.481 11.3447 101.86 10.5019 102.618 9.80114C103.375 9.10038 104.284 8.75 105.345 8.75C106.415 8.75 107.324 9.10038 108.072 9.80114C108.83 10.5019 109.209 11.3447 109.209 12.3295C109.209 13.3144 108.83 14.1572 108.072 14.858C107.324 15.5587 106.415 15.9091 105.345 15.9091ZM154.849 18.1818L147.52 40H138.429L131.099 18.1818H139.338L142.861 32.6136H143.088L146.611 18.1818H154.849ZM182.212 40.3409C180.82 40.3409 179.589 40.1136 178.519 39.6591C177.458 39.1951 176.625 38.4943 176.019 37.5568C175.413 36.6193 175.11 35.4261 175.11 33.9773C175.11 32.7841 175.313 31.7661 175.72 30.9233C176.128 30.071 176.696 29.375 177.425 28.8352C178.154 28.2955 179.002 27.8835 179.968 27.5994C180.943 27.3153 181.994 27.1307 183.121 27.0455C184.343 26.9508 185.323 26.8371 186.061 26.7045C186.809 26.5625 187.349 26.3684 187.681 26.1222C188.012 25.8665 188.178 25.5303 188.178 25.1136V25.0568C188.178 24.4886 187.96 24.053 187.524 23.75C187.089 23.447 186.53 23.2955 185.848 23.2955C185.1 23.2955 184.489 23.4612 184.016 23.7926C183.552 24.1146 183.273 24.6117 183.178 25.2841H175.962C176.057 23.9583 176.478 22.7367 177.226 21.6193C177.984 20.4924 179.087 19.5928 180.536 18.9205C181.985 18.2386 183.793 17.8977 185.962 17.8977C187.524 17.8977 188.926 18.0824 190.166 18.4517C191.407 18.8116 192.463 19.3182 193.334 19.9716C194.205 20.6155 194.868 21.3731 195.323 22.2443C195.787 23.1061 196.019 24.0436 196.019 25.0568V40H188.689V36.9318H188.519C188.083 37.7462 187.553 38.4044 186.928 38.9062C186.312 39.4081 185.607 39.7727 184.811 40C184.025 40.2273 183.159 40.3409 182.212 40.3409ZM184.769 35.3977C185.365 35.3977 185.924 35.2746 186.445 35.0284C186.975 34.7822 187.406 34.4271 187.738 33.9631C188.069 33.4991 188.235 32.9356 188.235 32.2727V30.4545C188.026 30.5398 187.804 30.6203 187.567 30.696C187.34 30.7718 187.094 30.8428 186.828 30.9091C186.573 30.9754 186.298 31.0369 186.005 31.0938C185.72 31.1506 185.422 31.2027 185.11 31.25C184.504 31.3447 184.006 31.5009 183.618 31.7188C183.239 31.9271 182.955 32.1875 182.766 32.5C182.586 32.803 182.496 33.1439 182.496 33.5227C182.496 34.1288 182.709 34.5928 183.135 34.9148C183.561 35.2367 184.106 35.3977 184.769 35.3977ZM219.365 40V18.1818H226.979V22.3295H227.206C227.604 20.7955 228.234 19.6733 229.095 18.9631C229.967 18.2528 230.985 17.8977 232.149 17.8977C232.49 17.8977 232.826 17.9261 233.158 17.983C233.499 18.0303 233.825 18.1013 234.138 18.196V24.8864C233.75 24.7538 233.271 24.6544 232.703 24.5881C232.135 24.5218 231.647 24.4886 231.24 24.4886C230.473 24.4886 229.782 24.6638 229.166 25.0142C228.56 25.3551 228.082 25.8381 227.732 26.4631C227.381 27.0786 227.206 27.803 227.206 28.6364V40H219.365ZM256.309 40V18.1818H264.15V40H256.309ZM260.229 15.9091C259.169 15.9091 258.26 15.5587 257.502 14.858C256.745 14.1572 256.366 13.3144 256.366 12.3295C256.366 11.3447 256.745 10.5019 257.502 9.80114C258.26 9.10038 259.169 8.75 260.229 8.75C261.299 8.75 262.209 9.10038 262.957 9.80114C263.714 10.5019 264.093 11.3447 264.093 12.3295C264.093 13.3144 263.714 14.1572 262.957 14.858C262.209 15.5587 261.299 15.9091 260.229 15.9091ZM301.893 30.4545V18.1818H309.734V40H302.29V35.8523H302.063C301.59 37.2443 300.761 38.3333 299.577 39.1193C298.394 39.8958 296.987 40.2841 295.359 40.2841C293.834 40.2841 292.499 39.9337 291.353 39.233C290.216 38.5322 289.331 37.5663 288.697 36.3352C288.072 35.1042 287.754 33.6932 287.745 32.1023V18.1818H295.586V30.4545C295.595 31.5341 295.87 32.3816 296.41 32.9972C296.959 33.6127 297.726 33.9205 298.711 33.9205C299.364 33.9205 299.928 33.7831 300.401 33.5085C300.884 33.2244 301.253 32.8267 301.509 32.3153C301.774 31.7945 301.902 31.1742 301.893 30.4545ZM333.321 40V18.1818H340.765V22.3295H340.992C341.446 20.9659 342.223 19.8864 343.321 19.0909C344.42 18.2955 345.727 17.8977 347.242 17.8977C348.776 17.8977 350.097 18.3049 351.205 19.1193C352.313 19.9242 352.981 20.9943 353.208 22.3295H353.435C353.804 20.9943 354.59 19.9242 355.793 19.1193C356.996 18.3049 358.407 17.8977 360.026 17.8977C362.119 17.8977 363.814 18.5701 365.111 19.9148C366.418 21.2595 367.071 23.0492 367.071 25.2841V40H359.231V27.2727C359.231 26.3163 358.989 25.5682 358.506 25.0284C358.023 24.4792 357.374 24.2045 356.56 24.2045C355.755 24.2045 355.116 24.4792 354.642 25.0284C354.178 25.5682 353.946 26.3163 353.946 27.2727V40H346.446V27.2727C346.446 26.3163 346.205 25.5682 345.722 25.0284C345.239 24.4792 344.59 24.2045 343.776 24.2045C343.236 24.2045 342.772 24.3277 342.384 24.5739C341.996 24.8201 341.693 25.1752 341.475 25.6392C341.267 26.0937 341.162 26.6383 341.162 27.2727V40H333.321Z" fill="#5D6939"/>
<path d="M378.779 38.2022C372.546 27.971 375.319 20.3145 393.062 2.73058C393.949 29.9481 389.336 34.6442 378.779 38.2022Z" fill="#AAB97E" stroke="#AAB97E"/>
<path d="M389.233 36.5565C391.001 28.0647 396.256 25.3907 414.334 24.877C401.335 39.7006 396.573 39.9002 389.233 36.5565Z" fill="#AAB97E" stroke="#AAB97E"/>
<path d="M37.7922 38.2803C44.0256 28.0491 41.2519 20.3926 23.5097 2.80869C22.6226 30.0262 27.2349 34.7223 37.7922 38.2803Z" fill="#AAB97E" stroke="#AAB97E"/>
<path d="M27.3383 36.6346C25.57 28.1428 20.3154 25.4688 2.2374 24.9551C15.2367 39.7787 19.9982 39.9783 27.3383 36.6346Z" fill="#AAB97E" stroke="#AAB97E"/>
</svg>
