<svg width="55" height="55" viewBox="0 0 55 55" fill="none" xmlns="http://www.w3.org/2000/svg">
<path d="M18.9062 18.9062C19.3621 18.9062 19.7993 19.0873 20.1216 19.4097C20.4439 19.732 20.625 20.1692 20.625 20.625V41.25C20.625 41.7058 20.4439 42.143 20.1216 42.4653C19.7993 42.7877 19.3621 42.9688 18.9062 42.9688C18.4504 42.9688 18.0132 42.7877 17.6909 42.4653C17.3686 42.143 17.1875 41.7058 17.1875 41.25V20.625C17.1875 20.1692 17.3686 19.732 17.6909 19.4097C18.0132 19.0873 18.4504 18.9062 18.9062 18.9062ZM27.5 18.9062C27.9558 18.9062 28.393 19.0873 28.7153 19.4097C29.0377 19.732 29.2188 20.1692 29.2188 20.625V41.25C29.2188 41.7058 29.0377 42.143 28.7153 42.4653C28.393 42.7877 27.9558 42.9688 27.5 42.9688C27.0442 42.9688 26.607 42.7877 26.2847 42.4653C25.9623 42.143 25.7812 41.7058 25.7812 41.25V20.625C25.7812 20.1692 25.9623 19.732 26.2847 19.4097C26.607 19.0873 27.0442 18.9062 27.5 18.9062ZM37.8125 20.625C37.8125 20.1692 37.6314 19.732 37.3091 19.4097C36.9868 19.0873 36.5496 18.9062 36.0938 18.9062C35.6379 18.9062 35.2007 19.0873 34.8784 19.4097C34.5561 19.732 34.375 20.1692 34.375 20.625V41.25C34.375 41.7058 34.5561 42.143 34.8784 42.4653C35.2007 42.7877 35.6379 42.9688 36.0938 42.9688C36.5496 42.9688 36.9868 42.7877 37.3091 42.4653C37.6314 42.143 37.8125 41.7058 37.8125 41.25V20.625Z" fill="black"/>
<path d="M49.8438 10.3125C49.8438 11.2242 49.4816 12.0985 48.8369 12.7432C48.1923 13.3878 47.3179 13.75 46.4062 13.75H44.6875V44.6875C44.6875 46.5109 43.9632 48.2595 42.6739 49.5489C41.3845 50.8382 39.6359 51.5625 37.8125 51.5625H17.1875C15.3641 51.5625 13.6155 50.8382 12.3261 49.5489C11.0368 48.2595 10.3125 46.5109 10.3125 44.6875V13.75H8.59375C7.68207 13.75 6.80773 13.3878 6.16307 12.7432C5.51841 12.0985 5.15625 11.2242 5.15625 10.3125V6.875C5.15625 5.96332 5.51841 5.08898 6.16307 4.44432C6.80773 3.79966 7.68207 3.4375 8.59375 3.4375H20.625C20.625 2.52582 20.9872 1.65148 21.6318 1.00682C22.2765 0.362164 23.1508 0 24.0625 0L30.9375 0C31.8492 0 32.7235 0.362164 33.3682 1.00682C34.0128 1.65148 34.375 2.52582 34.375 3.4375H46.4062C47.3179 3.4375 48.1923 3.79966 48.8369 4.44432C49.4816 5.08898 49.8438 5.96332 49.8438 6.875V10.3125ZM14.1556 13.75L13.75 13.9528V44.6875C13.75 45.5992 14.1122 46.4735 14.7568 47.1182C15.4015 47.7628 16.2758 48.125 17.1875 48.125H37.8125C38.7242 48.125 39.5985 47.7628 40.2432 47.1182C40.8878 46.4735 41.25 45.5992 41.25 44.6875V13.9528L40.8444 13.75H14.1556ZM8.59375 10.3125H46.4062V6.875H8.59375V10.3125Z" fill="black"/>
</svg>
