<svg width="315" height="108" viewBox="0 0 315 108" fill="none" xmlns="http://www.w3.org/2000/svg">
<ellipse cx="73.0963" cy="62.7241" rx="10.0725" ry="10.173" fill="#5D6939"/>
<ellipse cx="207.396" cy="62.7241" rx="10.0725" ry="10.173" fill="#5D6939"/>
<path d="M5.94651 54.2466C3.93204 50.8556 -0.0970188 51.1942 0.574479 43.3949C1.11168 37.1555 7.961 34.5788 12.3257 34.5788C15.3475 34.5788 21.5253 36.749 24.7485 41.3608C27.9717 45.9725 27.5463 49.0463 27.4344 50.1766C27.3225 51.42 26.9644 54.2458 26.4272 55.6022C25.7557 57.2977 25.42 56.9594 24.077 61.0286C23.6293 62.8371 23.0696 66.4537 23.0696 67.8101C23.0696 69.5056 22.7339 70.1838 23.7412 73.9136C24.1364 75.3767 25.0841 78.6613 26.7629 78.6613C28.1472 78.6613 29.7846 73.2357 30.4561 71.2011C31.1276 69.1665 32.688 60.4262 33.8136 58.315C36.1638 53.907 39.8571 52.5506 42.2073 52.5506C48.3323 52.5506 51.6083 55.9416 53.287 57.9762C54.0704 58.8804 56.3088 60.7565 58.9948 59.6714C61.6808 58.5863 64.9264 56.6203 66.7171 55.2639L66.3812 69.8447C64.7025 68.4883 61.0092 63.4018 59.3305 63.4018C57.6185 63.4018 56.9803 63.0624 54.9658 64.4188C52.9513 65.7752 49.5938 72.2184 46.572 76.6267C43.6611 80.8733 35.1566 99.0072 34.8208 99.3463C34.4851 99.6854 28.4417 109.858 19.7122 102.737C12.7286 97.0402 9.63965 90.7558 8.63241 87.8169C7.40133 83.9738 5.27498 74.9798 5.27498 68.1492C5.27498 61.3674 6.64373 55.4202 5.94651 54.2466Z" fill="#5D6939"/>
<path fill-rule="evenodd" clip-rule="evenodd" d="M61.6809 79.0009C61.569 79.566 61.5466 81.2389 62.3524 82.0527C63.3596 83.07 65.0384 83.7482 65.3741 85.1046C65.7099 86.461 66.7171 88.4956 65.0384 93.243C63.3596 97.9904 61.6809 100.025 65.7099 104.094C68.9331 107.35 75.3347 104.32 78.1326 102.399C79.0279 101.607 81.02 99.4825 81.8258 97.3122C82.8331 94.5994 85.1833 89.5129 87.1978 88.1565C88.8094 87.0714 89.2123 88.8347 89.2123 89.852C89.3242 91.7736 90.1524 96.2949 92.5698 99.0077C95.5915 102.399 93.9128 99.0077 100.292 105.112C102.195 106.468 107.746 105.315 114.729 87.1392C121.713 68.9635 128.159 68.4888 130.509 70.5234C131.293 70.9755 132.591 72.3545 131.517 74.2535C130.174 76.6272 126.816 76.9663 124.466 79.6791C122.116 82.3918 119.765 84.7655 119.094 89.5129C118.422 94.2603 117.751 104.094 128.831 105.79C137.694 107.146 139.91 102.964 139.91 100.703C141.589 102.399 145.685 105.722 148.64 105.451C151.594 105.179 153.452 103.529 154.012 102.738C154.795 101.268 155.355 97.5835 151.326 94.5994C147.297 91.6154 147.633 88.8347 148.304 87.8174C149.311 85.3307 151.93 80.2894 154.348 80.0182C156.765 79.7469 157.817 81.9397 158.041 83.07C158.488 85.8959 159.25 92.7005 158.712 97.3122C158.041 103.077 160.727 105.451 161.398 105.79C162.07 106.129 166.435 106.807 169.456 103.755C172.478 100.703 173.821 99.0077 173.821 96.9731C173.821 94.9385 170.464 92.5648 169.792 92.2257C169.121 91.8866 167.442 91.5475 167.778 86.1219C168.113 80.6963 168.113 81.3745 168.449 80.6963C168.718 80.1538 174.604 89.739 177.514 94.5994C179.529 98.4426 184.565 105.993 188.594 105.451C193.63 104.772 199.002 99.6859 200.009 100.364C201.017 101.042 204.71 105.79 209.075 105.79C213.439 105.79 219.483 102.06 220.826 97.6513C222.169 93.243 217.362 91.6718 216.461 89.852C215.454 87.8174 214.447 86.1219 217.133 79.6791C219.281 74.5247 214.782 75.2708 212.096 75.2708C208.067 75.4968 200.009 76.695 200.009 79.6791C200.009 83.4091 203.367 82.3918 204.038 85.7828C204.7 89.1246 205.717 91.5475 202.695 95.2776C200.278 98.2617 191.84 94.0343 187.923 91.5475C185.572 89.9651 181.006 86.1219 181.543 83.4091C182.08 80.6963 184.901 81.0354 186.579 80.3573C189.937 79.0009 194.503 73.7109 189.937 66.1151C185.371 58.5192 180.872 55.9421 179.193 55.2639C177.067 54.4726 171.807 52.958 167.778 53.2293C163.749 53.5006 159.608 54.6987 158.041 55.2639C156.362 55.829 153.072 57.2985 153.34 58.6549C153.676 60.3504 155.355 60.0113 155.019 64.7587C154.683 69.5061 151.997 75.2708 150.654 77.9836C149.311 80.6963 147.633 84.7655 145.618 84.4264C143.604 84.0873 145.954 69.8452 145.954 68.8279C145.954 67.8106 146.625 64.4196 141.925 59.6722C137.212 54.9127 135.21 52.5511 126.816 52.8902C120.101 53.1615 114.314 57.6376 113.05 60.3504C111.26 64.1935 107.343 73.1683 106 78.3227C104.321 84.7655 103.649 87.8174 101.971 88.4956C100.292 89.1738 98.6133 84.0873 98.949 82.3918C99.2848 80.6963 101.299 77.3054 100.628 74.5926C99.9563 71.8798 97.9418 68.8279 93.9128 69.5061C89.8838 70.1843 87.8693 72.558 87.1978 75.949C86.5263 79.34 88.2838 80.6963 86.1905 84.4264C84.0973 88.1565 82.1616 92.2257 80.4828 92.2257C78.8041 92.2257 76.7896 89.5129 77.1253 86.461C77.4611 83.4091 81.1543 80.0182 80.1471 77.6445C79.1398 75.2708 79.1398 75.2708 76.1181 74.9317C73.0963 74.5926 65.3741 75.949 64.0311 76.9663C62.9567 77.7801 62.0166 78.5487 61.6809 79.0009ZM129.838 89.852C130.107 88.4956 132.636 86.5741 133.867 85.7828C134.426 86.6871 135.277 88.9704 134.203 90.8693C133.128 92.7683 131.74 92.7909 131.181 92.5648C130.621 92.2257 129.569 91.2084 129.838 89.852ZM165.763 64.0805C165.494 62.9953 166.099 62.7241 166.435 62.7241C167.778 62.4528 169.232 63.2892 169.792 63.7414C170.799 64.4196 172.747 66.5898 172.478 69.8452C172.209 73.1005 171.247 74.3665 170.799 74.5926C170.464 74.9317 169.523 75.4064 168.449 74.5926C167.106 73.5753 168.113 70.5234 168.113 68.4888C168.113 66.4542 166.099 65.4369 165.763 64.0805Z" fill="#5D6939"/>
<path d="M216.461 59.3331C217.468 60.6895 219.281 63.5379 222.505 62.7241C225.728 61.9102 230.115 57.8636 231.906 55.9421C233.025 54.9248 235.733 53.0258 237.613 53.5684C239.964 54.2466 241.307 55.2639 243.321 57.6376C244.933 59.5365 245.336 62.498 245.336 63.7414C245.336 64.6456 245.268 66.6576 245 67.4715C244.664 68.4888 241.978 79.34 240.635 83.4091C239.292 87.4783 238.621 89.1738 238.621 91.5475C238.621 93.9212 240.299 94.2603 241.307 93.243C242.057 92.4848 244.328 87.8174 244.664 85.4437C245 83.07 246.679 76.2881 249.029 73.9144C250.53 72.3979 259.437 69.5061 260.78 76.6272C262.123 83.7482 260.109 82.0527 257.758 86.461C255.408 90.8693 257.087 92.2257 257.758 92.9039C258.43 93.5821 261.452 93.9212 263.466 91.5475L263.528 91.4741C265.569 89.0701 269.849 84.0286 270.181 78.3227C270.517 72.558 270.793 63.2195 272.531 58.6549C274.21 54.2466 276.56 52.212 281.932 53.5684C286.23 54.6535 290.214 67.5845 291.669 73.9144C292.34 69.7321 293.348 60.3504 293.348 56.6203C293.348 51.8608 298.048 52.212 300.398 54.5857C301.741 55.9421 310.135 65.4369 311.478 73.9144C312.821 82.3918 310.807 89.852 311.478 91.5475C312.15 93.243 314.5 95.6167 314.5 98.3295C314.5 100.798 312.485 106.129 306.442 106.468C300.463 106.803 298.756 102.492 297.42 99.116L297.377 99.0077C296.034 95.6167 297.377 90.8693 297.712 88.1565C298.048 85.4437 299.055 82.3918 297.712 81.3745C296.369 80.3573 295.026 81.7136 295.026 82.3918C295.026 83.07 294.691 86.8001 294.019 88.1565C293.348 89.5129 292.676 91.5475 290.662 91.5475C288.647 91.5475 285.961 89.1738 285.625 86.461C285.29 83.7482 284.954 79.34 283.275 77.6445C281.596 75.949 280.589 75.949 280.589 77.6445C280.589 79.34 280.925 95.2776 274.882 101.042C270.047 105.654 264.361 106.581 262.123 106.468C259.437 106.468 253.461 105.858 251.043 103.416C248.626 100.975 248.245 101.042 248.357 101.381C246.455 103.416 241.441 107.282 236.606 106.468C230.563 105.451 228.548 102.399 227.541 98.3295C226.534 94.2603 228.212 83.07 229.22 79.0009C230.227 74.9317 230.227 66.4542 223.512 65.776C216.797 65.0978 215.118 69.8452 213.439 69.8452C212.689 69.8452 215.79 62.7241 216.461 59.3331Z" fill="#5D6939"/>
<path d="M263.466 91.5475C261.452 93.9212 258.43 93.5821 257.758 92.9039C257.087 92.2257 255.408 90.8693 257.758 86.461C260.109 82.0527 262.123 83.7482 260.78 76.6272C259.437 69.5061 250.53 72.3979 249.029 73.9144C246.679 76.2881 245 83.07 244.664 85.4437C244.328 87.8174 242.057 92.4848 241.307 93.243C240.299 94.2603 238.621 93.9212 238.621 91.5475C238.621 89.1738 239.292 87.4783 240.635 83.4091C241.978 79.3399 244.664 68.4888 245 67.4715C245.268 66.6576 245.336 64.6456 245.336 63.7414C245.336 62.498 244.933 59.5365 243.321 57.6376C241.307 55.2639 239.964 54.2466 237.613 53.5684C235.733 53.0258 233.025 54.9248 231.906 55.9421C230.115 57.8636 225.728 61.9102 222.505 62.7241C219.281 63.5379 217.468 60.6895 216.461 59.3331C215.79 62.7241 212.689 69.8452 213.439 69.8452C215.118 69.8452 216.797 65.0978 223.512 65.776C230.227 66.4542 230.227 74.9317 229.22 79.0008C228.212 83.07 226.534 94.2603 227.541 98.3295C228.548 102.399 230.563 105.451 236.606 106.468C241.441 107.282 246.455 103.416 248.357 101.381C248.245 101.042 248.626 100.975 251.043 103.416C253.461 105.858 259.437 106.468 262.123 106.468C264.361 106.581 270.047 105.654 274.881 101.042C280.925 95.2776 280.589 79.3399 280.589 77.6445C280.589 75.949 281.596 75.949 283.275 77.6445C284.954 79.3399 285.29 83.7482 285.625 86.461C285.961 89.1738 288.647 91.5475 290.662 91.5475C292.676 91.5475 293.348 89.5129 294.019 88.1565C294.691 86.8001 295.026 83.07 295.026 82.3918C295.026 81.7136 296.369 80.3572 297.712 81.3745C299.055 82.3918 298.048 85.4437 297.712 88.1565C297.377 90.8693 296.034 95.6167 297.377 99.0077M263.466 91.5475L263.528 91.4741M263.466 91.5475C263.487 91.5233 263.507 91.4989 263.528 91.4741M297.377 99.0077L297.42 99.116M297.377 99.0077C297.391 99.0437 297.405 99.0798 297.42 99.116M263.528 91.4741C265.569 89.0701 269.849 84.0286 270.181 78.3227C270.517 72.558 270.793 63.2195 272.531 58.6549C274.21 54.2466 276.56 52.212 281.932 53.5684C286.23 54.6535 290.214 67.5845 291.669 73.9144C292.34 69.7321 293.348 60.3504 293.348 56.6203C293.348 51.8608 298.048 52.212 300.398 54.5857C301.741 55.9421 310.135 65.4369 311.478 73.9144C312.821 82.3918 310.807 89.852 311.478 91.5475C312.15 93.243 314.5 95.6167 314.5 98.3295C314.5 100.798 312.485 106.129 306.442 106.468C300.463 106.803 298.756 102.492 297.42 99.116M5.94651 54.2466C3.93204 50.8556 -0.0970189 51.1942 0.574479 43.3949C1.11168 37.1555 7.961 34.5788 12.3257 34.5788C15.3475 34.5788 21.5253 36.749 24.7485 41.3608C27.9717 45.9725 27.5463 49.0463 27.4344 50.1766C27.3225 51.42 26.9644 54.2458 26.4272 55.6022C25.7557 57.2977 25.42 56.9594 24.077 61.0286C23.6293 62.8371 23.0696 66.4537 23.0696 67.8101C23.0696 69.5056 22.7339 70.1838 23.7412 73.9136C24.1364 75.3767 25.0841 78.6613 26.7629 78.6613C28.1472 78.6613 29.7846 73.2357 30.4561 71.2011C31.1276 69.1665 32.688 60.4262 33.8136 58.315C36.1638 53.907 39.8571 52.5506 42.2073 52.5506C48.3323 52.5506 51.6083 55.9416 53.287 57.9762C54.0704 58.8804 56.3088 60.7565 58.9948 59.6714C61.6808 58.5863 64.9264 56.6203 66.7171 55.2639L66.3812 69.8447C64.7025 68.4883 61.0092 63.4018 59.3305 63.4018C57.6185 63.4018 56.9803 63.0624 54.9658 64.4188C52.9513 65.7752 49.5938 72.2184 46.572 76.6267C43.6611 80.8733 35.1566 99.0072 34.8208 99.3463C34.4851 99.6854 28.4417 109.858 19.7122 102.737C12.7286 97.0402 9.63965 90.7558 8.63241 87.8169C7.40133 83.9738 5.27498 74.9798 5.27498 68.1492C5.27498 61.3674 6.64373 55.4202 5.94651 54.2466ZM61.6809 79.0008C61.569 79.566 61.5466 81.2389 62.3524 82.0527C63.3596 83.07 65.0384 83.7482 65.3741 85.1046C65.7099 86.461 66.7171 88.4956 65.0384 93.243C63.3596 97.9904 61.6809 100.025 65.7099 104.094C68.933 107.35 75.3347 104.32 78.1326 102.399C79.0279 101.607 81.02 99.4825 81.8258 97.3122C82.8331 94.5994 85.1833 89.5129 87.1978 88.1565C88.8094 87.0714 89.2123 88.8347 89.2123 89.852C89.3242 91.7736 90.1524 96.2949 92.5698 99.0077C95.5915 102.399 93.9128 99.0077 100.292 105.112C102.195 106.468 107.746 105.315 114.729 87.1392C121.713 68.9635 128.159 68.4888 130.509 70.5234C131.293 70.9755 132.591 72.3545 131.517 74.2535C130.174 76.6272 126.816 76.9663 124.466 79.679C122.116 82.3918 119.765 84.7655 119.094 89.5129C118.422 94.2603 117.751 104.094 128.831 105.79C137.694 107.146 139.91 102.964 139.91 100.703C141.589 102.399 145.685 105.722 148.64 105.451C151.594 105.179 153.452 103.529 154.012 102.738C154.795 101.268 155.355 97.5835 151.326 94.5994C147.297 91.6154 147.633 88.8347 148.304 87.8174C149.311 85.3307 151.93 80.2894 154.348 80.0181C156.765 79.7469 157.817 81.9397 158.041 83.07C158.488 85.8959 159.25 92.7005 158.712 97.3122C158.041 103.077 160.727 105.451 161.398 105.79C162.07 106.129 166.435 106.807 169.456 103.755C172.478 100.703 173.821 99.0077 173.821 96.9731C173.821 94.9385 170.464 92.5648 169.792 92.2257C169.121 91.8866 167.442 91.5475 167.778 86.1219C168.113 80.6963 168.113 81.3745 168.449 80.6963C168.718 80.1538 174.604 89.739 177.514 94.5994C179.529 98.4426 184.565 105.993 188.594 105.451C193.63 104.772 199.002 99.6859 200.009 100.364C201.017 101.042 204.71 105.79 209.075 105.79C213.439 105.79 219.483 102.06 220.826 97.6513C222.169 93.243 217.362 91.6718 216.461 89.852C215.454 87.8174 214.447 86.1219 217.133 79.679C219.281 74.5247 214.782 75.2708 212.096 75.2708C208.067 75.4968 200.009 76.695 200.009 79.679C200.009 83.4091 203.367 82.3918 204.038 85.7828C204.7 89.1246 205.717 91.5475 202.695 95.2776C200.278 98.2617 191.84 94.0343 187.922 91.5475C185.572 89.9651 181.006 86.1219 181.543 83.4091C182.08 80.6963 184.901 81.0354 186.579 80.3572C189.937 79.0008 194.503 73.7109 189.937 66.1151C185.371 58.5192 180.872 55.9421 179.193 55.2639C177.067 54.4726 171.807 52.958 167.778 53.2293C163.749 53.5006 159.608 54.6987 158.041 55.2639C156.362 55.829 153.072 57.2985 153.34 58.6549C153.676 60.3504 155.355 60.0113 155.019 64.7587C154.683 69.5061 151.997 75.2708 150.654 77.9836C149.311 80.6963 147.633 84.7655 145.618 84.4264C143.604 84.0873 145.954 69.8452 145.954 68.8279C145.954 67.8106 146.625 64.4196 141.925 59.6722C137.212 54.9127 135.21 52.5511 126.816 52.8902C120.101 53.1615 114.314 57.6376 113.05 60.3504C111.26 64.1935 107.343 73.1683 106 78.3227C104.321 84.7655 103.649 87.8174 101.971 88.4956C100.292 89.1738 98.6133 84.0873 98.949 82.3918C99.2848 80.6963 101.299 77.3054 100.628 74.5926C99.9563 71.8798 97.9418 68.8279 93.9128 69.5061C89.8838 70.1843 87.8693 72.558 87.1978 75.949C86.5263 79.3399 88.2838 80.6963 86.1905 84.4264C84.0973 88.1565 82.1616 92.2257 80.4828 92.2257C78.8041 92.2257 76.7896 89.5129 77.1253 86.461C77.4611 83.4091 81.1543 80.0181 80.1471 77.6445C79.1398 75.2708 79.1398 75.2708 76.1181 74.9317C73.0963 74.5926 65.3741 75.949 64.0311 76.9663C62.9567 77.7801 62.0166 78.5487 61.6809 79.0008ZM133.867 85.7828C132.636 86.5741 130.107 88.4956 129.838 89.852C129.569 91.2084 130.621 92.2257 131.181 92.5648C131.74 92.7909 133.128 92.7683 134.203 90.8693C135.277 88.9704 134.426 86.6871 133.867 85.7828ZM166.435 62.7241C166.099 62.7241 165.494 62.9953 165.763 64.0805C166.099 65.4369 168.113 66.4542 168.113 68.4888C168.113 70.5234 167.106 73.5753 168.449 74.5926C169.523 75.4064 170.464 74.9317 170.799 74.5926C171.247 74.3665 172.209 73.1005 172.478 69.8452C172.747 66.5898 170.799 64.4196 169.792 63.7414C169.232 63.2892 167.778 62.4528 166.435 62.7241Z" stroke="#5D6939" stroke-linejoin="round"/>
<path d="M99.2921 43.781C105.525 33.5498 102.752 25.8933 85.0096 8.30938C84.1225 35.5269 88.7348 40.223 99.2921 43.781Z" fill="#AAB97E" stroke="#AAB97E"/>
<path d="M88.8382 42.1353C87.0699 33.6435 81.8152 30.9695 63.7373 30.4558C76.7366 45.2794 81.4981 45.4789 88.8382 42.1353Z" fill="#AAB97E" stroke="#AAB97E"/>
<path d="M216.281 43.781C210.048 33.5498 212.822 25.8933 230.564 8.30938C231.451 35.5269 226.839 40.223 216.281 43.781Z" fill="#AAB97E" stroke="#AAB97E"/>
<path d="M226.735 42.1353C228.504 33.6435 233.758 30.9695 251.836 30.4558C238.837 45.2794 234.075 45.479 226.735 42.1353Z" fill="#AAB97E" stroke="#AAB97E"/>
<path fill-rule="evenodd" clip-rule="evenodd" d="M191.582 0.410448C193.452 -0.678472 195.826 0.511169 196.072 2.66142L198.339 22.4935C198.372 22.7887 198.364 23.074 198.318 23.345C203.963 29.3676 207.353 37.0129 207.493 45.9964C207.591 46.5859 207.537 47.4747 207.027 48.2327C206.496 49.022 205.532 49.5784 204 49.5784C202.422 49.5784 201.034 50.3669 199.752 51.4046C199.113 51.9215 198.518 52.4861 197.945 53.0276C197.38 53.5616 196.827 54.0834 196.3 54.4788C195.122 55.3617 193.496 55.3552 191.989 55.0501C190.459 54.7402 188.914 54.0948 187.776 53.5257C184.827 52.0511 178.379 50.0664 174.93 49.5735C173.19 49.325 169.216 48.8284 164.875 48.8284C160.512 48.8284 155.871 49.3318 152.737 51.0188C150.208 52.3805 146.83 52.3375 144.033 51.9407C141.217 51.5412 138.869 50.7641 138.314 50.5423C137.117 50.0634 133.413 49.072 129.445 48.638C127.466 48.4215 125.442 48.3462 123.646 48.5364C121.84 48.7277 120.324 49.1817 119.307 49.9729C116.499 52.1568 114.14 52.838 112.371 52.802C111.489 52.7841 110.759 52.5877 110.203 52.3138C109.663 52.0475 109.244 51.6854 109.053 51.302C108.927 51.0516 108.842 50.6889 108.778 50.3128C108.711 49.9211 108.658 49.4581 108.617 48.9739C108.551 48.1878 108.516 47.3251 108.505 46.5784H108.5C108.5 46.4953 108.501 46.4123 108.502 46.3294C108.501 46.2437 108.5 46.1599 108.5 46.0784V45.5784H108.514C108.735 36.8602 111.847 29.4189 117.066 23.5169L118.872 4.03252C119.072 1.87782 121.418 0.63639 123.311 1.68389L139.147 10.4446C144.736 8.89048 150.856 8.07842 157.303 8.07842C163.41 8.07842 169.294 8.80987 174.75 10.2083L191.582 0.410448ZM143.5 15.5784C141.843 15.5784 140.5 16.9217 140.5 18.5784C140.5 20.2353 141.843 21.5784 143.5 21.5784C145.157 21.5784 146.5 20.2353 146.5 18.5784C146.5 16.9217 145.157 15.5784 143.5 15.5784ZM173.5 15.5784C171.843 15.5784 170.5 16.9217 170.5 18.5784C170.5 20.2353 171.843 21.5784 173.5 21.5784C175.157 21.5784 176.5 20.2353 176.5 18.5784C176.5 16.9217 175.157 15.5784 173.5 15.5784Z" fill="#454135"/>
</svg>
