<svg width="100" height="56" viewBox="0 0 100 56" fill="none" xmlns="http://www.w3.org/2000/svg">
<path d="M83.082 0.410541C84.9527 -0.678527 87.3261 0.511069 87.5723 2.66152L89.8389 22.4935C89.8725 22.7887 89.8638 23.0742 89.8184 23.3451C95.4632 29.3678 98.8528 37.0128 98.9932 45.9965C99.0913 46.5861 99.0377 47.4748 98.5273 48.2328C97.9959 49.022 97.0319 49.5785 95.5 49.5785C93.9222 49.5785 92.534 50.3669 91.252 51.4047C90.6134 51.9216 90.0182 52.4862 89.4453 53.0277C88.8804 53.5617 88.327 54.0835 87.7998 54.4789C86.6223 55.3617 84.9961 55.3553 83.4893 55.0502C81.9588 54.7403 80.4146 54.0949 79.2764 53.5258C76.3271 52.0511 69.8795 50.0665 66.4297 49.5736C64.6903 49.3251 60.7162 48.8285 56.375 48.8285C52.012 48.8285 47.3706 49.3318 44.2373 51.0189C41.7085 52.3806 38.3303 52.3376 35.5332 51.9408C32.7171 51.5414 30.3691 50.7642 29.8145 50.5424C28.6172 50.0635 24.9133 49.0721 20.9453 48.6381C18.9658 48.4216 16.942 48.3463 15.1465 48.5365C13.3404 48.7278 11.8241 49.1817 10.8066 49.973C7.99879 52.1569 5.63995 52.8381 3.87109 52.8021C2.98932 52.7842 2.25873 52.5877 1.70312 52.3139C1.16306 52.0476 0.744497 51.6855 0.552734 51.3021C0.427526 51.0517 0.342579 50.6891 0.27832 50.3129C0.211419 49.9212 0.157976 49.4582 0.117188 48.974C0.0509859 48.1879 0.0160836 47.3252 0.00488281 46.5785H0C2.93391e-07 46.4955 0.00143564 46.4122 0.00195312 46.3295C0.00127556 46.2438 5.10919e-07 46.16 0 46.0785V45.5785H0.0136719C0.234701 36.8601 3.34734 29.4191 8.56641 23.517L10.3721 4.03261C10.5717 1.87772 12.9179 0.636341 14.8115 1.68398L30.6475 10.4447C36.2363 8.89057 42.3562 8.07852 48.8027 8.07851C54.9106 8.07851 60.7943 8.80996 66.25 10.2084L83.082 0.410541ZM35 15.5785C33.3432 15.5785 32.0001 16.9217 32 18.5785C32.0002 20.2352 33.3433 21.5785 35 21.5785C36.6567 21.5785 37.9998 20.2352 38 18.5785C37.9999 16.9217 36.6568 15.5785 35 15.5785ZM65 15.5785C63.3432 15.5785 62.0001 16.9217 62 18.5785C62.0002 20.2352 63.3433 21.5785 65 21.5785C66.6567 21.5785 67.9998 20.2352 68 18.5785C67.9999 16.9217 66.6568 15.5785 65 15.5785Z" fill="#454135"/>
</svg>
