<svg width="85" height="74" viewBox="0 0 85 74" fill="none" xmlns="http://www.w3.org/2000/svg">
<path fill-rule="evenodd" clip-rule="evenodd" d="M81.9284 50.063C88.4484 60.0397 81.29 73.2689 69.3718 73.269H15.0241C3.10608 73.2688 -4.05143 60.0396 2.46848 50.063L7.56223 42.269H76.8347L81.9284 50.063Z" fill="#CA5C5C"/>
<path d="M41.3093 9.34753C61.305 9.34754 78.0693 23.541 78.5359 46.8475H78.6189L78.6726 47.286C78.7421 47.8486 78.7062 48.7063 78.3367 49.4462C78.1481 49.8235 77.8671 50.1801 77.4626 50.4403C77.0565 50.7015 76.5533 50.8475 75.9509 50.8475C74.8807 50.8477 73.8965 51.574 72.9353 52.6229C72.4639 53.1374 72.0239 53.7 71.5984 54.2421C71.1804 54.7747 70.7669 55.2996 70.3718 55.6991C69.4389 56.6422 68.1369 56.6263 66.9832 56.3114C65.8169 55.993 64.6516 55.3348 63.8025 54.7626C62.7301 54.0398 61.003 53.1791 59.2078 52.4344C57.412 51.6896 55.5929 51.0794 54.3435 50.8387C53.059 50.5914 50.1269 50.0976 46.9275 50.0975C43.7062 50.0976 40.3181 50.599 38.0408 52.2518C36.1016 53.6594 33.5198 53.6065 31.4246 53.2059C29.312 52.802 27.55 52.0177 27.1238 51.788C26.2583 51.3214 23.5349 50.3362 20.6121 49.9052C19.1556 49.6904 17.6768 49.6175 16.3738 49.8036C15.068 49.9901 13.9859 50.4288 13.2576 51.1923C11.1704 53.3806 9.37385 54.1093 7.97241 54.0712C6.5906 54.0332 5.64576 53.2383 5.37964 52.5214C5.29151 52.2836 5.22971 51.934 5.18237 51.5604C5.13337 51.1735 5.09433 50.7143 5.06421 50.2323C5.00394 49.2674 4.9773 48.1856 4.97729 47.3475V46.8475H5.11694C5.55527 23.5412 21.3139 9.34777 41.3093 9.34753ZM31.0701 16.8475C29.8413 16.8478 28.8447 18.1911 28.8445 19.8475C28.8447 21.504 29.8413 22.8472 31.0701 22.8475C32.299 22.8475 33.2955 21.5042 33.2957 19.8475C33.2954 18.1909 32.299 16.8475 31.0701 16.8475ZM53.325 16.8475C52.0962 16.8478 51.0996 18.1911 51.0994 19.8475C51.0996 21.504 52.0962 22.8472 53.325 22.8475C54.5539 22.8475 55.5503 21.5042 55.5505 19.8475C55.5503 18.1909 54.5539 16.8475 53.325 16.8475Z" fill="#CA5C5C"/>
<path d="M50.0996 24.396C49.6441 26.1358 49.0346 27.3089 48.293 28.0093C47.7869 28.4871 47.2333 28.7296 46.6689 28.7905C45.9297 31.95 45.2545 34.331 44.5986 35.936C44.2579 36.7698 43.9096 37.4286 43.5391 37.8813C43.1729 38.3287 42.7116 38.6594 42.1523 38.6274C41.6116 38.5963 41.1651 38.2329 40.7979 37.77C40.4209 37.2948 40.0531 36.6221 39.6846 35.7808C38.9701 34.1499 38.2083 31.782 37.3555 28.7231C36.9208 28.6108 36.4969 28.3817 36.1025 28.0093C35.361 27.3089 34.7514 26.1356 34.2959 24.396L35.2627 24.1421C35.6972 25.8016 36.2436 26.7664 36.7891 27.2817C37.3083 27.7721 37.8506 27.879 38.4072 27.7661C38.9952 27.6467 39.6244 27.2739 40.2305 26.7466C40.6696 26.3645 41.0772 25.9176 41.4268 25.4712H41.4258L41.7959 24.9712L42.2119 24.4106L42.6094 24.9849C43.0235 25.5829 43.5651 26.2246 44.165 26.7466C44.7712 27.274 45.4003 27.6467 45.9883 27.7661C46.545 27.8791 47.0871 27.7721 47.6064 27.2817C48.152 26.7664 48.6983 25.8017 49.1328 24.1421L50.0996 24.396ZM42.1992 26.105C41.8191 26.5884 41.374 27.0765 40.8867 27.5005C40.2179 28.0824 39.434 28.5785 38.6064 28.7466C38.5405 28.76 38.4743 28.7698 38.4082 28.7788C39.2214 31.6695 39.9402 33.8718 40.6006 35.3794C40.9557 36.19 41.2824 36.7725 41.5811 37.1489C41.8895 37.5377 42.1005 37.6231 42.21 37.6294C42.301 37.6345 42.4834 37.5911 42.7646 37.2476C43.0418 36.9089 43.3459 36.3581 43.6729 35.5581C44.2877 34.0535 44.9365 31.7861 45.6592 28.7134C44.8798 28.522 44.1423 28.0517 43.5088 27.5005C43.0218 27.0768 42.579 26.5881 42.1992 26.105Z" fill="white"/>
<path d="M77.6978 40.7767C77.6575 40.6161 77.5551 40.4781 77.413 40.393C77.271 40.308 77.101 40.2828 76.9404 40.3231C76.7798 40.3634 76.6418 40.4659 76.5567 40.6079C76.4717 40.75 76.4465 40.92 76.4868 41.0806C76.4868 41.0806 76.4868 41.0806 76.4868 41.0806C76.6077 41.7103 76.7433 42.4946 76.8831 43.2041C76.8836 43.2065 76.884 43.2088 76.8845 43.2111C76.9758 43.6793 76.8993 44.1498 76.9808 44.5857C76.9815 44.5894 76.9822 44.5931 76.983 44.5969C77.0487 44.9426 77.1137 45.2901 77.181 45.6374C77.2739 46.1171 77.3708 46.5966 77.4777 47.0738C77.4792 47.0803 77.4806 47.0868 77.4821 47.0934C77.7422 48.2534 78.0034 49.4117 78.2693 50.5728C78.2717 50.583 78.274 50.5932 78.2763 50.6032C78.3089 50.7451 78.3411 50.8849 78.3741 51.0267C78.3904 51.0971 78.4072 51.1688 78.424 51.2401C78.4326 51.2764 78.4412 51.3125 78.4502 51.3497C78.4549 51.3692 78.4592 51.387 78.4645 51.4082C78.4672 51.419 78.4699 51.4298 78.4732 51.4425C78.4751 51.4495 78.4769 51.4565 78.4796 51.4665C78.4809 51.4711 78.483 51.4785 78.4856 51.4874C78.4874 51.4936 78.4895 51.5006 78.4927 51.5106C78.4944 51.5161 78.4981 51.5275 78.5035 51.5425C78.5064 51.5506 78.5092 51.5583 78.5151 51.573C78.5394 51.6127 78.5059 51.6187 78.6782 51.835C78.7008 51.8602 78.7293 51.8895 78.7696 51.9232C78.8223 51.9643 79.0427 52.1567 79.4228 52.124C79.8205 52.0869 80.0529 51.7901 80.1143 51.6627C80.188 51.5197 80.1965 51.4448 80.2076 51.3897C80.2314 51.1716 80.2163 51.2579 80.2192 51.2185C80.2183 51.1871 80.2166 51.1698 80.2152 51.1557C80.212 51.1254 80.2115 51.1246 80.2102 51.115C80.2079 51.0993 80.2067 51.0923 80.2057 51.0864C80.2034 51.0737 80.2024 51.0686 80.2011 51.062C80.0734 50.5192 79.994 50.2263 79.8864 49.8267C79.885 49.8218 79.8837 49.817 79.8823 49.8122C79.6444 48.9087 79.3871 47.8896 79.1013 46.9306C79.0989 46.9225 79.0966 46.9145 79.0942 46.9064C78.6379 45.3589 78.1429 43.838 77.7084 42.3275C77.7048 42.3149 77.7013 42.3024 77.6977 42.29C77.4811 41.5196 77.281 40.7566 77.195 40.0341C77.1933 40.0194 77.1915 40.0048 77.1898 39.9903C77.1814 39.9201 77.1735 39.8513 77.1697 39.8087C77.1671 39.7927 77.1698 39.764 77.1639 39.8271C77.1612 39.846 77.1595 39.8725 77.1417 39.9388C77.1343 39.9647 77.1153 40.03 77.0732 40.1077C77.0335 40.176 76.9313 40.3683 76.6462 40.4894C76.5022 40.5504 76.3249 40.5642 76.1996 40.5437C76.0942 40.5281 76.011 40.4964 75.9478 40.4653C75.809 40.3912 75.7999 40.3703 75.756 40.3339C75.6882 40.2689 75.6816 40.2532 75.6645 40.2314C75.608 40.1404 75.6678 40.2316 75.6872 40.2749C75.7148 40.3299 75.7431 40.3901 75.7732 40.457C75.8903 40.7182 76.0046 41.0026 76.1073 41.2934C76.1088 41.2977 76.1103 41.302 76.1119 41.3063C76.9927 43.8549 77.8156 46.4635 78.6556 49.0554C78.6597 49.068 78.6638 49.0805 78.6678 49.0929C78.8976 49.7958 79.1633 50.4748 79.4235 51.1851C79.4252 51.1897 79.4276 51.1961 79.4292 51.2004C79.4303 51.2032 79.431 51.205 79.4314 51.206C79.4312 51.2054 79.4321 51.208 79.4293 51.1995C79.4286 51.1973 79.4277 51.1943 79.4262 51.1895C79.4257 51.1879 79.4243 51.1839 79.4188 51.1639C79.4177 51.1218 79.3901 51.1881 79.3969 50.8866C79.4027 50.8394 79.4104 50.7746 79.4523 50.673C79.487 50.5906 79.5583 50.4663 79.6926 50.3651C79.8296 50.2566 80.038 50.2019 80.1876 50.2141C80.489 50.2442 80.5736 50.3501 80.636 50.3933C80.6927 50.4424 80.7168 50.4733 80.735 50.4954C80.7985 50.5787 80.7961 50.586 80.8065 50.6021C80.8166 50.6206 80.8144 50.6169 80.8169 50.6217C80.8198 50.6274 80.8204 50.6285 80.8202 50.6282C80.5576 50.1087 80.2804 49.3544 80.0321 48.6884C80.0276 48.6761 80.0231 48.6637 80.0186 48.6512C79.5653 47.4126 79.1213 46.1831 78.682 44.9548C78.6761 44.9386 78.6704 44.9225 78.6649 44.9066C78.4818 44.3777 78.3212 43.8886 78.2448 43.416C78.2414 43.3977 78.2382 43.3802 78.2348 43.3615C78.1197 42.7183 78.0234 42.0378 77.8628 41.364C77.8576 41.3422 77.8524 41.3205 77.8471 41.2988C77.6603 40.5075 77.4012 39.6431 77.2139 38.9539C77.2105 38.9394 77.2079 38.9264 77.2076 38.9228C77.1829 38.7902 77.1602 38.6615 77.1435 38.5466C77.1263 38.4431 77.1188 38.2952 77.125 38.3549C77.1241 38.373 77.1265 38.4021 77.1063 38.4869C77.0765 38.6247 76.9325 38.9286 76.6318 39.078C76.3405 39.2205 76.1396 39.1818 76.0377 39.1671C75.8292 39.1218 75.791 39.081 75.7432 39.0574C75.6644 39.0088 75.65 38.9918 75.6331 38.9784C75.6058 38.9542 75.6063 38.9537 75.6068 38.9549C75.6076 38.9559 75.6095 38.9584 75.6118 38.9617C75.6132 38.9478 75.7308 39.1974 75.8071 39.3775C75.8916 39.5729 75.9767 39.7752 76.0618 39.98C76.2313 40.3888 76.3995 40.8062 76.552 41.2239C76.56 41.246 76.5681 41.2683 76.5763 41.2907C77.5651 44.0166 78.54 46.7635 79.4935 49.511C79.5042 49.5421 79.5149 49.5728 79.5253 49.603C79.6325 49.9129 79.7381 50.2191 79.8424 50.5244C79.8945 50.6772 79.9472 50.8321 79.9966 50.9807C80.0209 51.0539 80.0466 51.1321 80.0662 51.1956C80.0707 51.2101 80.0754 51.2259 80.0768 51.2311C80.0771 51.2314 80.0784 51.239 80.0717 51.209C80.0697 51.1991 80.069 51.1984 80.0636 51.1644C80.0613 51.1489 80.0586 51.1291 80.0565 51.0983C80.0794 51.0684 79.9645 51.0615 80.1786 50.5957C80.2581 50.4789 80.352 50.3187 80.6835 50.2102C80.9885 50.127 81.2151 50.2212 81.323 50.2772C81.5468 50.41 81.5417 50.4506 81.5648 50.4665C81.6032 50.5102 81.6195 50.5346 81.6325 50.5534C81.6539 50.5856 81.6561 50.5906 81.6624 50.6012C81.693 50.6585 81.6546 50.583 81.64 50.5507C81.6277 50.525 81.6168 50.5025 81.6071 50.4821C81.3261 49.868 81.0781 49.1019 80.8036 48.3972C80.7958 48.377 80.788 48.3567 80.78 48.3361C79.8608 45.9586 78.9522 43.5671 78.0551 41.1819C78.0501 41.1686 78.0452 41.1555 78.0402 41.1424C77.7225 40.2956 77.4306 39.5006 77.1188 38.6073C77.1175 38.6038 77.1162 38.6002 77.1149 38.5966C77.1091 38.5806 77.1041 38.5614 77.1043 38.5623C77.1043 38.564 77.1061 38.5683 77.109 38.6014C77.1101 38.6191 77.1125 38.6426 77.1092 38.6979C77.0934 38.7599 77.1377 38.8234 76.959 39.1198C76.9085 39.187 76.807 39.3401 76.539 39.446C76.2589 39.5508 76.0047 39.4883 75.874 39.4304C75.6601 39.3285 75.6344 39.2723 75.5932 39.2369C75.4779 39.1042 75.5176 39.136 75.5112 39.1311C75.5147 39.1357 75.5233 39.1497 75.5325 39.1657C75.5513 39.1983 75.5738 39.2404 75.5965 39.2837C75.642 39.3711 75.6889 39.4646 75.7364 39.5604C75.8296 39.7486 75.9259 39.9482 76.019 40.1442C76.2067 40.5402 76.3884 40.9384 76.5574 41.3499C76.5632 41.3643 76.5691 41.3787 76.5751 41.3932C77.8391 44.5167 79.0767 47.6658 80.2902 50.8137C80.3346 50.9292 80.3824 51.0539 80.4264 51.169C80.4281 51.1733 80.4297 51.1775 80.4313 51.1818C80.8661 52.336 81.3536 53.5206 81.6891 54.6242C81.6892 54.6247 81.6894 54.6252 81.6895 54.6257C81.7326 54.7774 81.8098 54.9539 81.8267 55.0025C81.8712 55.184 81.9914 55.345 82.1528 55.4515C82.3147 55.5578 82.5046 55.6009 82.6887 55.57C82.8728 55.539 83.0381 55.4361 83.1563 55.2826C83.274 55.1291 83.3348 54.9377 83.3175 54.7516C83.3175 54.7516 83.3175 54.7516 83.3175 54.7516C83.2803 54.4834 83.2528 54.3561 83.2125 54.1976C83.2124 54.1971 83.2122 54.1966 83.2121 54.1961C82.8391 52.9121 82.3952 51.7795 81.9529 50.6002C81.9512 50.596 81.9496 50.5917 81.948 50.5874C81.9037 50.4715 81.8556 50.3461 81.811 50.2299C80.5924 47.0666 79.3573 43.923 78.0856 40.7785C78.0797 40.7639 78.0738 40.7493 78.0679 40.7348C77.8995 40.3184 77.7471 39.9032 77.5899 39.4813C77.5119 39.2721 77.4313 39.0577 77.3474 38.8461C77.3043 38.7379 77.2609 38.6311 77.2112 38.5174C77.1861 38.4603 77.1599 38.4022 77.128 38.3371C77.1115 38.3037 77.0951 38.271 77.0698 38.2258C77.0354 38.1736 77.0466 38.1565 76.8946 37.9838C76.8451 37.9399 76.8108 37.8758 76.5871 37.7697C76.4505 37.7093 76.191 37.6461 75.9054 37.7529C75.632 37.8608 75.5266 38.0181 75.4727 38.0901C75.28 38.4078 75.3212 38.4973 75.3035 38.5841C75.2987 38.6644 75.3022 38.7132 75.3054 38.756C75.3126 38.8391 75.3231 38.8929 75.3337 38.9438C75.3552 39.0429 75.379 39.1203 75.4065 39.199C75.4125 39.2162 75.4188 39.2332 75.4252 39.2503C75.7035 40.0521 76.0324 40.9456 76.345 41.778C76.3499 41.7912 76.3549 41.8045 76.3599 41.8178C77.2607 44.2126 78.1676 46.6 79.092 48.991C79.1001 49.0117 79.108 49.0322 79.116 49.0524C79.4051 49.7796 79.6879 50.4476 80.0441 51.2294C80.0556 51.2534 80.0662 51.2753 80.0752 51.2943C80.096 51.3357 80.0902 51.3344 80.1601 51.464C80.1693 51.4796 80.1733 51.4876 80.198 51.5247C80.2127 51.546 80.2305 51.5725 80.2702 51.6177C80.2938 51.634 80.2901 51.6762 80.5151 51.8097C80.6236 51.8661 80.8508 51.9603 81.1562 51.8769C81.4882 51.7683 81.5823 51.6079 81.662 51.4907C81.8771 51.0238 81.7621 51.0115 81.7849 50.9806C81.7826 50.9478 81.7796 50.9256 81.7769 50.9072C81.7704 50.8663 81.7691 50.8629 81.766 50.8479C81.7544 50.7953 81.7509 50.7857 81.7457 50.7663C81.7362 50.7322 81.7288 50.708 81.7218 50.6852C81.6933 50.5934 81.6668 50.5136 81.6406 50.4346C81.5883 50.2771 81.5349 50.1199 81.4819 49.9648C81.3762 49.6552 81.2701 49.3478 81.1625 49.0366C81.1521 49.0063 81.1414 48.9755 81.1306 48.9443C80.1743 46.189 79.2297 43.4371 78.2554 40.6861C78.2473 40.6633 78.2393 40.6408 78.2313 40.6185C78.0805 40.1954 77.9399 39.7632 77.7941 39.3304C77.7206 39.1129 77.6469 38.8972 77.5643 38.6745C77.4694 38.4422 77.4338 38.2609 77.1863 37.8735C77.1652 37.843 77.1429 37.8122 77.1184 37.7807C77.0706 37.7199 77.0195 37.6596 76.9347 37.5817C76.8891 37.5416 76.8444 37.499 76.7321 37.4298C76.6675 37.3961 76.6115 37.346 76.3837 37.2969C76.2724 37.2805 76.0609 37.2416 75.7608 37.3886C75.4512 37.5425 75.3018 37.8556 75.2695 38.0029C75.2372 38.1342 75.2349 38.2118 75.232 38.2781C75.2325 38.6043 75.2745 38.7203 75.3024 38.8783C75.3331 39.0253 75.3639 39.1573 75.3913 39.2857C75.4 39.3274 75.4086 39.363 75.4164 39.3939C75.6683 40.269 75.8809 40.9573 76.0846 41.7435C76.0899 41.7635 76.0951 41.7835 76.1004 41.8036C76.2645 42.4306 76.4397 43.064 76.6169 43.7287C76.6222 43.7486 76.6273 43.7673 76.6327 43.7873C76.7873 44.3959 77.0528 44.9298 77.2495 45.4375C77.2558 45.4534 77.2622 45.4694 77.2686 45.4857C77.7504 46.7069 78.2488 47.9173 78.6949 49.1333C78.6994 49.1457 78.7039 49.158 78.7084 49.1703C78.9696 49.8626 79.1259 50.5026 79.4713 51.3026C79.4716 51.3031 79.4724 51.3048 79.4756 51.3111C79.4782 51.3161 79.4761 51.3125 79.4864 51.3314C79.497 51.3479 79.4947 51.3553 79.5583 51.4387C79.5765 51.4608 79.6007 51.4918 79.6574 51.5409C79.7198 51.5841 79.8044 51.69 80.1057 51.7201C80.2554 51.7323 80.4638 51.6776 80.6008 51.5691C80.7351 51.4679 80.8064 51.3436 80.8411 51.2612C80.883 51.1596 80.8907 51.0948 80.8965 51.0476C80.9033 50.7459 80.8756 50.812 80.8745 50.7695C80.8689 50.7491 80.8672 50.7445 80.8667 50.7427C80.8651 50.7375 80.864 50.734 80.8631 50.7312C80.8593 50.7195 80.8596 50.7205 80.8585 50.7172C80.8567 50.7117 80.8564 50.7107 80.8553 50.7073C80.8539 50.7026 80.8521 50.6971 80.8508 50.6929C80.6399 50.0094 80.4562 49.2858 80.2328 48.588C80.2288 48.5756 80.2248 48.5631 80.2207 48.5505C79.3839 45.9555 78.5684 43.3622 77.6726 40.758C77.6711 40.7535 77.6695 40.7491 77.668 40.7447C77.5612 40.4414 77.4663 40.1416 77.3522 39.8235C77.3219 39.7403 77.2931 39.6627 77.2562 39.5728C77.2104 39.4736 77.2065 39.4206 77.0614 39.2026C77.0308 39.1627 77.0148 39.1353 76.931 39.0551C76.8788 39.0113 76.8655 38.9866 76.7156 38.9067C76.6478 38.8733 76.5602 38.8402 76.4507 38.824C76.3204 38.8028 76.1379 38.817 75.9895 38.8799C75.6959 39.0043 75.5865 39.2058 75.5426 39.2819C75.4965 39.3668 75.4731 39.4447 75.4638 39.4781C75.441 39.5625 75.4363 39.6091 75.4316 39.6473C75.4183 39.7891 75.4239 39.838 75.4251 39.9001C75.4299 40.0149 75.4383 40.0999 75.4473 40.1859C75.4491 40.2032 75.451 40.2206 75.4531 40.2383C75.5581 41.1415 75.7811 41.9619 76.0021 42.7671C76.0057 42.7801 76.0093 42.7932 76.013 42.8063C76.4541 44.3675 76.9358 45.8873 77.3704 47.4059C77.3726 47.4137 77.3748 47.4216 77.3771 47.4293C77.6505 48.3754 77.8576 49.2893 78.1249 50.3048C78.1263 50.3098 78.1277 50.3149 78.1291 50.3199C78.2319 50.6955 78.4098 51.1661 78.467 51.4046C78.4665 51.4021 78.4661 51.4002 78.4646 51.3917C78.4639 51.3875 78.463 51.3826 78.4609 51.3687C78.4598 51.3601 78.4594 51.3598 78.4563 51.3308C78.455 51.3173 78.4534 51.3005 78.4524 51.2695C78.4554 51.2303 78.4403 51.3166 78.464 51.099C78.4751 51.044 78.4836 50.9692 78.5572 50.8262C78.6186 50.6989 78.851 50.4021 79.2486 50.365C79.6287 50.3323 79.849 50.5247 79.9017 50.5658C79.942 50.5995 79.9705 50.6288 79.9931 50.6539C80.1652 50.87 80.1315 50.8755 80.1554 50.9143C80.1611 50.9286 80.1637 50.9359 80.1665 50.9435C80.1716 50.9576 80.1747 50.9675 80.1762 50.972C80.1788 50.9802 80.1802 50.9851 80.1813 50.9888C80.1828 50.994 80.1834 50.9962 80.1836 50.9969C80.184 50.9985 80.1836 50.9969 80.183 50.9948C80.1819 50.9907 80.1802 50.984 80.1784 50.9769C80.1747 50.9624 80.171 50.9474 80.1669 50.9308C80.159 50.8987 80.1508 50.865 80.1426 50.8309C80.1265 50.7636 80.11 50.6939 80.0939 50.6251C80.0614 50.4866 80.0294 50.3484 79.9971 50.2078C79.9948 50.1979 79.9925 50.1878 79.9902 50.1776C79.7258 49.0235 79.4643 47.864 79.205 46.7075C79.2036 46.701 79.2021 46.6945 79.2007 46.688C79.0941 46.2121 78.9788 45.7383 78.8605 45.2652C78.7749 44.9226 78.6878 44.5805 78.6004 44.2373C78.5995 44.2336 78.5985 44.2298 78.5976 44.226C78.4865 43.7853 78.1938 43.3843 78.11 42.9723C78.1095 42.97 78.1091 42.9677 78.1086 42.9654C77.9651 42.2398 77.8562 41.5806 77.6978 40.7767Z" fill="#CA5C5C"/>
<path d="M77.1079 36.5583C77.0498 36.3927 76.9283 36.257 76.7702 36.181C76.612 36.105 76.4301 36.0949 76.2646 36.153C76.099 36.2112 75.9633 36.3326 75.8873 36.4908C75.8113 36.649 75.8012 36.8309 75.8593 36.9964C75.8593 36.9964 75.8593 36.9964 75.8593 36.9964C75.9673 37.3041 76.072 37.613 76.1738 37.9231C76.391 38.5849 76.5949 39.2521 76.7865 39.9228C76.7865 39.9228 76.7865 39.9228 76.7865 39.9228C76.9224 40.3984 76.9666 40.8925 77.0786 41.3598C77.0786 41.3598 77.0786 41.3598 77.0786 41.3599C77.241 42.0355 77.3875 42.7168 77.5817 43.3854C77.5817 43.3855 77.5817 43.3855 77.5818 43.3856C77.9276 44.6019 78.3787 45.825 78.8476 47.01C78.8476 47.01 78.8476 47.01 78.8476 47.01C79.5383 48.7539 80.2674 50.4571 81.0268 52.1531C81.0268 52.1531 81.0268 52.1531 81.0268 52.1531C81.3265 52.8215 81.7041 53.4725 82.0737 54.0972C82.0737 54.0972 82.0737 54.0972 82.0737 54.0972C82.1843 54.2869 82.4153 54.4295 82.6044 54.5939C82.715 54.69 82.8111 54.7932 82.859 54.9152C82.859 54.9152 82.859 54.9152 82.859 54.9152C82.9319 55.1003 83.0026 55.2849 83.0723 55.4714C83.0831 55.5003 83.105 55.5236 83.133 55.5364C83.1611 55.5492 83.1931 55.5502 83.2219 55.5394C83.2508 55.5286 83.2741 55.5068 83.2869 55.4787C83.2997 55.4506 83.3007 55.4187 83.2899 55.3898C83.2899 55.3898 83.2899 55.3898 83.2899 55.3898C83.2202 55.2031 83.1485 55.0159 83.0753 54.8302C83.0753 54.8302 83.0753 54.8302 83.0753 54.8302C83.0272 54.7077 83.0259 54.5662 83.0378 54.4185C83.0583 54.1664 83.1167 53.8943 83.0475 53.6722C83.0475 53.6722 83.0475 53.6722 83.0475 53.6722C82.8207 52.961 82.6162 52.275 82.3448 51.5939C82.3448 51.5939 82.3448 51.5939 82.3448 51.5939C81.6632 49.8813 80.9713 48.1655 80.3589 46.4456C80.3589 46.4456 80.3589 46.4456 80.3589 46.4456C79.9423 45.2729 79.6146 44.0995 79.2717 42.8949C79.2717 42.8948 79.2717 42.8948 79.2717 42.8947C79.0768 42.2239 78.8325 41.5672 78.5965 40.9071C78.5965 40.907 78.5965 40.907 78.5964 40.907C78.432 40.4457 78.1891 40.0151 78.0588 39.5594C78.0588 39.5594 78.0588 39.5593 78.0588 39.5593C77.8627 38.873 77.654 38.1897 77.4311 37.5105C77.3266 37.1922 77.219 36.8748 77.1079 36.5583Z" fill="#CA5C5C"/>
<path d="M77.927 40.4305C77.927 40.2973 77.8741 40.1695 77.7798 40.0753C77.6856 39.981 77.5578 39.9281 77.4246 39.9281C77.2913 39.9281 77.1635 39.981 77.0693 40.0753C76.9751 40.1695 76.9221 40.2973 76.9221 40.4305C76.9385 40.6233 76.9395 40.5481 76.9443 40.584C76.9481 40.5983 76.9514 40.6093 76.9542 40.619C76.9601 40.639 76.9656 40.6565 76.9708 40.6731C76.9817 40.7073 76.9918 40.7383 77.0023 40.7701C77.0231 40.8327 77.0439 40.8941 77.0648 40.9551C77.1067 41.0773 77.1488 41.198 77.1911 41.3184C77.3211 41.6876 77.4527 42.0533 77.5857 42.4202C77.5858 42.4204 77.5859 42.4206 77.5859 42.4208C77.748 42.8701 77.8506 43.3506 77.9971 43.7918C77.9971 43.7919 77.9972 43.7921 77.9973 43.7923C78.1502 44.2534 78.2812 44.7154 78.4628 45.1599C78.4628 45.16 78.4629 45.1602 78.463 45.1603C78.8626 46.1351 79.2811 47.1018 79.6715 48.0856C79.6716 48.0857 79.6716 48.0858 79.6716 48.0859C80.2928 49.6539 80.8941 51.2356 81.508 52.8105C81.508 52.8106 81.5081 52.8106 81.5081 52.8106C81.6812 53.2547 81.8999 53.6821 82.1199 54.1092C82.1964 54.2579 82.2747 54.4086 82.3466 54.553C82.3466 54.553 82.3466 54.5531 82.3467 54.5531L82.3373 54.5254C82.3542 54.5446 82.5794 54.5488 82.6959 54.6557C82.7076 54.6644 82.7281 54.6727 82.7462 54.6788C82.7648 54.6849 82.7794 54.6883 82.7936 54.6883C82.8078 54.6883 82.8225 54.6849 82.841 54.6788C82.8591 54.6727 82.8796 54.6644 82.8913 54.6557C83.0088 54.5881 83.2321 54.4144 83.1935 54.2663L83.1841 54.2386C83.1841 54.2386 83.1841 54.2386 83.1841 54.2386C83.1389 54.0726 83.0972 53.9139 83.0557 53.7524C82.9369 53.2908 82.8209 52.8268 82.6605 52.3795C82.6605 52.3795 82.6605 52.3795 82.6605 52.3794C82.0897 50.7875 81.5056 49.1989 80.9193 47.6082C80.9192 47.6081 80.9192 47.608 80.9191 47.6079C80.5506 46.6099 80.1982 45.6033 79.7934 44.6159C79.7933 44.6158 79.7933 44.6156 79.7932 44.6155C79.6102 44.1676 79.3704 43.7414 79.1538 43.3129C79.1537 43.3127 79.1536 43.3125 79.1535 43.3124C78.9403 42.8912 78.6857 42.5078 78.5306 42.078C78.5305 42.0778 78.5304 42.0776 78.5304 42.0775C78.3981 41.7127 78.2672 41.349 78.1391 40.9849C78.0974 40.8664 78.0559 40.7477 78.0155 40.6295C77.9953 40.5707 77.9753 40.5117 77.9563 40.4543C77.9467 40.4253 77.9376 40.3974 77.929 40.3703C77.9249 40.3573 77.9208 40.3441 77.9177 40.3337C77.9163 40.3289 77.9149 40.3239 77.9146 40.3228C77.9153 40.3431 77.9119 40.2534 77.927 40.4305Z" fill="#CA5C5C"/>
<path d="M78.2365 41.9864C78.1941 41.8591 78.1028 41.7539 77.9828 41.6939C77.8628 41.6339 77.7239 41.624 77.5966 41.6665C77.4693 41.7089 77.3641 41.8001 77.3041 41.9201C77.2441 42.0401 77.2343 42.1791 77.2767 42.3063C77.2767 42.3063 77.2767 42.3063 77.2767 42.3063C77.3738 42.5763 77.4548 42.7518 77.5441 42.9683C77.5449 42.9701 77.5456 42.9718 77.5463 42.9736C77.5463 42.9736 77.5464 42.9736 77.5464 42.9736C77.857 43.7099 78.125 44.4619 78.4183 45.206C78.4183 45.206 78.4183 45.206 78.4183 45.2061C78.6122 45.6978 78.8092 46.1941 79.0123 46.6822C79.0123 46.6822 79.0123 46.6823 79.0124 46.6823C79.2906 47.3502 79.5398 48.0279 79.8297 48.6938C79.8297 48.6938 79.8298 48.6939 79.8298 48.694C80.4485 50.1183 81.0871 51.5418 81.7043 52.9619C81.7043 52.9621 81.7044 52.9622 81.7045 52.9623L81.7002 52.9519C81.868 53.3597 82.1343 53.7296 82.3772 54.0964C82.4639 54.2293 82.5446 54.3525 82.6072 54.4824C82.6072 54.4825 82.6073 54.4826 82.6073 54.4827L82.6004 54.4435C82.6145 54.4485 82.7617 54.4681 82.8107 54.5691C82.8185 54.5819 82.835 54.5971 82.8502 54.6093C82.8658 54.6217 82.8788 54.63 82.8928 54.6347C82.9067 54.6393 82.9222 54.6405 82.9421 54.6399C82.9616 54.6393 82.9839 54.637 82.9978 54.6315C83.0916 54.6081 83.2667 54.4942 83.2628 54.367L83.2559 54.3277C83.2559 54.3276 83.2559 54.3275 83.2559 54.3273C83.2461 54.1482 83.2254 53.9712 83.2065 53.8035C83.1517 53.3358 83.089 52.8798 82.9282 52.4616L82.9239 52.4512C82.9239 52.4511 82.9238 52.4509 82.9238 52.4508C82.3333 51.0027 81.735 49.5652 81.1139 48.1352C81.1138 48.1351 81.1138 48.135 81.1138 48.1349C80.8233 47.468 80.4902 46.8142 80.1673 46.1599C80.1673 46.1599 80.1672 46.1598 80.1672 46.1598C79.935 45.6887 79.7071 45.2214 79.4832 44.7457C79.4832 44.7457 79.4832 44.7457 79.4832 44.7456C79.1452 44.0272 78.7873 43.3122 78.4788 42.5811C78.4788 42.5811 78.4788 42.5811 78.4788 42.5811C78.4781 42.5794 78.4774 42.5776 78.4766 42.5759C78.3932 42.3756 78.2913 42.1407 78.2365 41.9864Z" fill="#CA5C5C"/>
<path d="M78.0761 41.0234C78.0278 40.8946 77.9304 40.7903 77.8052 40.7334C77.68 40.6765 77.5373 40.6716 77.4085 40.7199C77.2797 40.7682 77.1754 40.8657 77.1185 40.9909C77.0616 41.1161 77.0567 41.2587 77.105 41.3875C77.105 41.3875 77.105 41.3875 77.105 41.3875C77.1963 41.6325 77.2935 41.868 77.3889 42.1013C77.4272 42.1948 77.4661 42.2891 77.5049 42.3829C77.5049 42.3829 77.5049 42.3829 77.5049 42.3829C77.8834 43.2973 78.2284 44.2228 78.585 45.1452C78.585 45.1452 78.585 45.1452 78.585 45.1452C78.8283 45.7747 79.0233 46.4245 79.2847 47.0431C79.2847 47.0431 79.2847 47.0431 79.2847 47.0431C79.6865 47.9917 80.1259 48.921 80.5336 49.868C80.5336 49.868 80.5336 49.868 80.5336 49.868C81.0829 51.145 81.6156 52.4358 82.1605 53.7174C82.1605 53.7174 82.1605 53.7174 82.1605 53.7175C82.2874 54.0166 82.5823 54.2498 82.7909 54.5183C82.867 54.6159 82.9297 54.7168 82.9742 54.8298C82.9742 54.8299 82.9742 54.8299 82.9742 54.8299C83.0247 54.9574 83.085 55.0811 83.1447 55.1997C83.1568 55.2241 83.1781 55.2426 83.2039 55.2512C83.2297 55.2598 83.2579 55.2578 83.2822 55.2456C83.3066 55.2334 83.325 55.2121 83.3336 55.1863C83.3422 55.1605 83.3402 55.1323 83.3281 55.108C83.3281 55.108 83.3281 55.108 83.3281 55.108C83.2683 54.9892 83.2122 54.8737 83.1647 54.7539C83.1647 54.7539 83.1647 54.7539 83.1647 54.7539C83.1228 54.6477 83.1063 54.527 83.0998 54.4036C83.0824 54.063 83.1484 53.6909 83.0441 53.3816C83.0441 53.3816 83.0441 53.3815 83.0441 53.3815C82.5965 52.0571 82.1236 50.7424 81.6444 49.4266C81.6444 49.4266 81.6444 49.4265 81.6444 49.4265C81.2888 48.4512 80.9431 47.4679 80.5387 46.5132C80.5387 46.5132 80.5387 46.5132 80.5387 46.5132C80.2757 45.8911 79.9436 45.3039 79.6653 44.691C79.6653 44.691 79.6653 44.691 79.6653 44.691C79.2574 43.7931 78.84 42.8967 78.4634 41.9868C78.4634 41.9868 78.4634 41.9868 78.4634 41.9868C78.4249 41.8936 78.3863 41.8001 78.3484 41.7077C78.2538 41.4762 78.1599 41.2485 78.0761 41.0234Z" fill="#CA5C5C"/>
<path d="M7.56056 38.6215C7.67423 38.4518 7.71586 38.244 7.67627 38.0436C7.63669 37.8433 7.51914 37.6668 7.34948 37.5532C7.17982 37.4395 6.97195 37.3979 6.7716 37.4375C6.57125 37.477 6.39484 37.5946 6.28116 37.7643C6.28116 37.7643 6.28116 37.7643 6.28116 37.7643C6.10365 38.0541 6.07679 38.1766 6.00596 38.3504C5.94573 38.5109 5.89192 38.6676 5.84024 38.8225C5.5125 39.8209 5.23533 40.7958 4.94852 41.7777C4.94837 41.7782 4.94823 41.7787 4.94808 41.7792C4.43706 43.5211 3.76762 45.2483 3.28259 47.041C3.28192 47.0435 3.28124 47.0459 3.28057 47.0484C2.8308 48.7 2.45097 50.3738 2.05024 51.9922C2.0492 51.9963 2.04816 52.0004 2.04713 52.0045C1.77861 53.0805 1.53545 54.1145 1.29212 55.253C1.27473 55.3541 1.25545 55.4065 1.23911 55.6261C1.23828 55.644 1.23946 55.6634 1.24275 55.6848C1.24295 55.6852 1.24316 55.6856 1.24337 55.6863C1.24464 55.7065 1.24025 55.6218 1.24727 55.7598C1.24888 55.7746 1.24912 55.7892 1.25881 55.8422C1.2657 55.8719 1.26763 55.9042 1.30825 56.006C1.33321 56.0586 1.3569 56.1339 1.48163 56.2665C1.579 56.3943 1.9876 56.6025 2.32723 56.472C2.647 56.3533 2.72222 56.1907 2.776 56.1165C2.82502 56.0341 2.83958 55.9887 2.85228 55.9536C2.87466 55.8859 2.87824 55.8592 2.8829 55.8364C2.89036 55.7944 2.89114 55.7807 2.89257 55.7679C2.89629 55.7262 2.89542 55.7266 2.8959 55.719C2.89625 55.7088 2.89621 55.7073 2.89625 55.705C2.89628 55.701 2.89621 55.7014 2.89616 55.7009C2.89606 55.7001 2.89595 55.6997 2.89584 55.6993C2.89562 55.6986 2.89539 55.6982 2.89515 55.698C2.89419 55.697 2.89315 55.6965 2.89202 55.6958C2.88976 55.6944 2.88718 55.693 2.8843 55.6914C2.87854 55.6884 2.87156 55.6849 2.86355 55.6814C2.84752 55.6743 2.82735 55.6666 2.80444 55.6586C2.75861 55.6425 2.70185 55.6246 2.64552 55.6058C2.53283 55.5685 2.42211 55.5244 2.40359 55.4913C2.40359 55.4913 2.40358 55.4913 2.40358 55.4913C2.33611 55.3761 2.35025 55.1946 2.31508 55.0388C2.30907 55.0116 2.28924 54.9832 2.26589 54.9608C2.2422 54.9383 2.21691 54.9236 2.18966 54.919C2.16241 54.9145 2.13372 54.92 2.10397 54.9335C2.07457 54.9471 2.04653 54.9674 2.03195 54.9911C2.03195 54.9911 2.03195 54.9911 2.03195 54.9911C1.95185 55.1259 1.8831 55.2273 1.77111 55.4024C1.77111 55.4024 1.7711 55.4025 1.77109 55.4025C1.74138 55.4494 1.62325 55.4858 1.5051 55.5292C1.44607 55.5506 1.38714 55.5733 1.33963 55.5974C1.31588 55.6095 1.29498 55.622 1.27836 55.6352C1.27006 55.6416 1.26282 55.6486 1.25683 55.6555C1.25383 55.6591 1.25115 55.6627 1.24881 55.6663C1.24764 55.6682 1.24655 55.6701 1.24555 55.6716C1.2453 55.6719 1.24506 55.6724 1.24483 55.6723C1.24471 55.6723 1.2446 55.6721 1.2445 55.6716C1.24445 55.6712 1.24438 55.6717 1.2444 55.668C1.24443 55.6659 1.24439 55.6644 1.24474 55.6542C1.24522 55.6467 1.24435 55.6471 1.24807 55.6054C1.2495 55.5927 1.25028 55.5789 1.25774 55.5369C1.2624 55.5142 1.26597 55.4874 1.28835 55.4197C1.30106 55.3846 1.31562 55.3392 1.36464 55.2568C1.41842 55.1826 1.49364 55.02 1.81341 54.9013C2.15304 54.7708 2.56163 54.979 2.659 55.1068C2.78373 55.2394 2.80742 55.3147 2.83238 55.3673C2.873 55.4691 2.87493 55.5014 2.88182 55.5311C2.89152 55.5841 2.89176 55.5987 2.89337 55.6135C2.90037 55.7515 2.89599 55.6655 2.89726 55.6853C2.89747 55.6854 2.89767 55.6852 2.89787 55.6848C2.90117 55.6968 2.90263 55.7059 2.90238 55.7128C2.8979 55.7697 2.91445 55.6638 2.93021 55.6059C3.19138 54.6008 3.52278 53.5088 3.78912 52.4452C3.79021 52.4409 3.79129 52.4367 3.79237 52.4324C4.20552 50.7629 4.57155 49.1307 5.00469 47.5114C5.00533 47.509 5.00598 47.5065 5.00662 47.5041C5.47123 45.7549 5.90616 43.9838 6.42708 42.2085C6.42723 42.208 6.42738 42.2074 6.42753 42.2069C6.71225 41.2315 6.99304 40.2476 7.30133 39.3093C7.34911 39.1659 7.39831 39.0233 7.44756 38.8921C7.4905 38.7711 7.57186 38.5968 7.56056 38.6215Z" fill="#CA5C5C"/>
<path d="M7.45499 36.4385C7.45499 36.5158 7.4857 36.5899 7.54037 36.6446C7.59504 36.6993 7.66918 36.73 7.74649 36.73C7.8238 36.73 7.89795 36.6993 7.95262 36.6446C8.00728 36.5899 8.038 36.5158 8.038 36.4385C8.03331 36.2011 8.01765 35.9857 7.91159 35.7221C7.91121 35.7212 7.91082 35.7204 7.91044 35.7195C7.895 35.687 7.87001 35.6338 7.79383 35.5844C7.71995 35.5275 7.5599 35.5332 7.50479 35.5704C7.4148 35.6208 7.40989 35.6458 7.39179 35.6649C7.37042 35.6934 7.35974 35.7142 7.3528 35.727C7.33633 35.7586 7.32874 35.7765 7.3197 35.7972C7.30224 35.838 7.28867 35.8729 7.2753 35.9075C7.24841 35.9774 7.22374 36.0441 7.1984 36.112C6.88834 36.9624 6.51043 37.7711 6.20107 38.6093C6.19399 38.6285 6.18691 38.6479 6.17984 38.6674C5.67146 40.0627 5.14203 41.4587 4.62465 42.8586C4.61943 42.8726 4.61421 42.8867 4.60899 42.9008C4.01794 44.4969 3.40444 46.0851 2.81783 47.6831C2.8149 47.691 2.81198 47.699 2.80906 47.707C2.31136 49.0684 1.80578 50.4198 1.32088 51.8113L1.30274 51.873C1.302 51.8759 1.30126 51.8789 1.30052 51.8818C1.15249 52.4711 1.0065 53.0673 0.884708 53.6698C0.859491 53.7936 0.82942 53.9426 0.817491 53.9779L0.813142 53.9925C0.812903 53.9934 0.812665 53.9942 0.812429 53.995C0.759507 54.1909 0.769339 54.3511 0.812719 54.5952C0.836305 54.7262 0.869864 54.8562 0.93246 54.9671C0.995172 55.0781 1.08279 55.1614 1.19015 55.2042C1.2975 55.247 1.41836 55.2469 1.54024 55.2095C1.66201 55.1721 1.77582 55.1009 1.88308 55.0221C1.88308 55.0221 1.88308 55.0221 1.88308 55.0221C2.08386 54.8724 2.23934 54.6331 2.29598 54.4191C2.29615 54.4185 2.29633 54.4179 2.2965 54.4172L2.29215 54.4319C2.35461 54.2161 2.36839 54.1051 2.39612 53.9736C2.50855 53.3985 2.63731 52.8274 2.77902 52.2491C2.77972 52.2462 2.78043 52.2433 2.78114 52.2405L2.76301 52.3022C3.22465 50.9521 3.73584 49.5852 4.22148 48.2178C4.22433 48.2098 4.22719 48.2017 4.23005 48.1937C4.80327 46.5838 5.32923 44.9567 5.84822 43.3273C5.8528 43.3129 5.85738 43.2985 5.86196 43.2841C6.31459 41.8581 6.75518 40.4275 7.15271 38.9755C7.15824 38.9552 7.16368 38.935 7.16903 38.9149C7.40112 38.0488 7.53181 37.1498 7.76831 36.3002C7.78741 36.2337 7.80691 36.1692 7.82754 36.108C7.83758 36.0782 7.84822 36.0484 7.85824 36.0236C7.8629 36.0119 7.86791 36.0008 7.86908 35.9985C7.86906 35.9979 7.86927 35.9997 7.85662 36.0169C7.84436 36.0284 7.84543 36.0467 7.76247 36.0934C7.71195 36.1282 7.55643 36.1342 7.48562 36.0793C7.41253 36.0319 7.39026 35.9823 7.37717 35.9551C7.37732 35.9555 7.37746 35.9558 7.37761 35.9561C7.42702 36.0708 7.45507 36.2696 7.45499 36.4385Z" fill="#CA5C5C"/>
<path d="M43.7438 31.1468C43.6157 31.2422 43.5307 31.3845 43.5076 31.5425C43.4844 31.7004 43.525 31.8612 43.6203 31.9892C43.7157 32.1173 43.858 32.2023 44.016 32.2254C44.174 32.2486 44.3347 32.208 44.4628 32.1127C44.4628 32.1127 44.4628 32.1127 44.4628 32.1127C44.7077 31.8898 44.6551 31.8741 44.7003 31.8121C44.7258 31.7609 44.743 31.721 44.7593 31.6828C44.7915 31.6071 44.8176 31.541 44.8438 31.4758C44.8956 31.3466 44.945 31.2259 44.9974 31.1095C45.0024 31.0985 45.0074 31.0874 45.0124 31.0765C45.0171 31.0662 45.0219 31.0561 45.0268 31.0459C45.2391 30.6028 45.4367 30.1952 45.591 29.8183C45.603 29.7883 45.6149 29.7584 45.6268 29.7281C45.6807 29.5802 45.7613 29.4475 45.8209 29.1097C45.8331 29.0242 45.8407 28.9202 45.8281 28.7996C45.7413 28.2665 45.4483 28.1212 45.3293 28.0173C45.2667 27.9724 45.2131 27.9392 45.1678 27.9115C44.7524 27.6834 44.5226 27.742 44.3304 27.7433C44.2505 27.7493 44.1792 27.7648 44.1125 27.7772C44.0656 27.7839 44.0153 27.7946 43.9631 27.8112C43.7952 27.8606 43.6169 27.9921 43.5215 28.1316C43.4227 28.2718 43.3843 28.3997 43.3643 28.5161C43.3037 28.9384 43.4928 29.2026 43.5922 29.3408C43.7036 29.4864 43.8015 29.5743 43.8659 29.6402C43.9013 29.6723 43.9365 29.7244 43.8884 29.6507C43.8922 29.6568 43.8954 29.6625 43.8908 29.6535C43.8855 29.6393 43.8918 29.6678 43.8536 29.5622C43.8487 29.5467 43.843 29.5275 43.8369 29.5001C43.849 29.4915 43.7645 29.4134 43.8747 29.084C43.9218 28.9183 44.1954 28.6897 44.3653 28.6723C44.5347 28.6364 44.647 28.6647 44.7186 28.6848C44.8564 28.7289 44.9062 28.7758 44.92 28.7833C44.9812 28.8281 44.9952 28.8465 45.002 28.8525C45.044 28.8977 45.012 28.8639 45.0057 28.8551C44.9822 28.826 44.9538 28.7888 44.9268 28.7521C44.8757 28.6835 44.8089 28.5844 44.7969 28.5619C44.7972 28.5626 44.7987 28.5648 44.806 28.5803C44.8106 28.5908 44.8134 28.5953 44.8251 28.6278C44.8286 28.6692 44.8742 28.6612 44.8541 28.9459C44.8423 28.9926 44.8491 29.0622 44.7294 29.2252C44.6137 29.4019 44.2801 29.4943 44.1671 29.464C43.9273 29.4216 43.9569 29.3908 43.9375 29.3894C43.9292 29.3835 43.9711 29.4204 44.0059 29.4591C44.0838 29.5432 44.1572 29.6373 44.268 29.7729C44.2678 29.7728 44.2676 29.7726 44.2674 29.7724C44.2007 29.6822 44.2501 29.7446 44.2029 29.9145C44.1642 30.0766 44.0829 30.2812 43.9848 30.4921C43.9783 30.5062 43.9716 30.5202 43.9649 30.5341C43.7989 30.9049 43.5985 31.2173 43.5249 31.7696C43.5191 31.8265 43.5147 31.8879 43.5145 31.9605C43.5145 31.9994 43.5138 32.0485 43.5136 32.0484C43.5144 32.0422 43.5119 32.0426 43.521 31.9736C43.5271 31.944 43.5248 31.9163 43.5671 31.7967C43.5977 31.7345 43.6083 31.6379 43.8109 31.4478C43.9123 31.3576 44.1094 31.2432 44.3514 31.2377C44.5934 31.229 44.798 31.3322 44.9048 31.4171C45.119 31.5966 45.1346 31.6931 45.1687 31.7538C45.1967 31.8208 45.186 31.7968 45.1933 31.8161C45.201 31.838 45.206 31.8548 45.2099 31.8689C45.2248 31.9238 45.2272 31.9439 45.2302 31.9608C45.2351 31.9927 45.235 31.9962 45.2354 31.9996C45.2368 32.013 45.236 32.0046 45.2357 31.9999C45.2347 31.9853 45.2339 31.9694 45.2328 31.9499C45.229 31.8754 45.2254 31.792 45.222 31.7102C45.215 31.5457 45.2083 31.3797 45.2013 31.2126C45.1854 30.8715 45.1778 30.5675 45.1431 30.1653C45.1353 30.0903 45.1263 30.02 45.1166 29.9516C45.0359 29.3921 44.9109 28.8459 44.8564 28.4447C44.8491 28.3835 44.839 28.3232 44.8266 28.2647C44.7493 27.9061 44.6 27.6437 44.4944 27.4511C44.4691 27.405 44.4426 27.3623 44.4162 27.3231C44.0938 26.8764 43.7858 26.719 43.4979 26.5326C43.496 26.5315 43.494 26.5303 43.4919 26.5289C43.4405 26.4967 43.3525 26.4095 43.2044 26.2219C43.2043 26.2218 43.2042 26.2217 43.2041 26.2216C43.113 26.0956 42.8346 25.8809 42.5269 25.8739C42.2292 25.8648 42.0766 25.9593 41.9816 26.01C41.7982 26.1231 41.7457 26.1913 41.6847 26.2499C41.5771 26.3626 41.5173 26.4373 41.4731 26.4832C41.4471 26.5128 41.4204 26.5285 41.472 26.4911C41.4545 26.5027 41.437 26.5148 41.4195 26.5275C41.2181 26.6688 41.0217 26.9047 40.924 27.1488L40.948 27.0963C40.9484 27.0955 40.949 27.0944 40.9496 27.0931C40.9759 27.0493 40.9482 27.1013 40.9077 27.1597C40.7848 27.3366 40.7235 27.5533 40.7469 27.7701C40.7702 27.9868 40.8748 28.1847 41.0398 28.3219C41.2048 28.4591 41.4184 28.5259 41.6357 28.5093C41.8532 28.4928 42.055 28.393 42.2066 28.24C42.2066 28.24 42.2066 28.24 42.2066 28.24C42.2761 28.1644 42.3607 28.0824 42.4677 27.8844C42.4722 27.8758 42.4765 27.8672 42.4807 27.8589L42.5046 27.8064C42.492 27.8427 42.4424 27.8978 42.4231 27.9083C42.4215 27.9095 42.42 27.9104 42.4188 27.9112C42.5841 27.797 42.6541 27.7148 42.7216 27.6444C42.8132 27.5445 42.8793 27.4636 42.9095 27.4327C42.9183 27.4198 42.9379 27.4176 42.8401 27.4795C42.7877 27.5054 42.6835 27.5797 42.4359 27.5732C42.1785 27.5679 41.9454 27.384 41.885 27.2967C41.8851 27.2967 41.8852 27.2968 41.8852 27.2969C42.0215 27.4633 42.2282 27.7344 42.5605 27.953C42.5757 27.963 42.5911 27.9728 42.6069 27.9825C42.7945 28.0936 42.9617 28.2679 42.9613 28.2885C42.9611 28.2887 42.9594 28.2869 42.9566 28.2824C43.0503 28.4586 43.0964 28.575 43.1061 28.6293C43.1081 28.6388 43.1094 28.647 43.1104 28.6548C43.2004 29.2763 43.3275 29.736 43.3951 30.1997C43.4028 30.2517 43.4094 30.3019 43.4144 30.3477C43.438 30.6039 43.453 30.9671 43.4681 31.2885C43.4756 31.4538 43.4827 31.6188 43.4904 31.7866C43.4943 31.871 43.4982 31.9547 43.5032 32.0442C43.5046 32.069 43.5057 32.0875 43.5079 32.1199C43.5089 32.1334 43.51 32.1504 43.5132 32.1813C43.514 32.1877 43.5147 32.1993 43.5206 32.2368C43.524 32.2565 43.5268 32.2786 43.5421 32.3349C43.5461 32.3494 43.5512 32.3666 43.559 32.3887C43.5664 32.4082 43.5556 32.3841 43.5838 32.4517C43.6181 32.5128 43.634 32.6095 43.8483 32.7892C43.9552 32.8741 44.1598 32.9774 44.4019 32.9687C44.644 32.9632 44.8412 32.8488 44.9427 32.7585C45.1455 32.5682 45.1562 32.4714 45.1871 32.4087C45.2297 32.2882 45.2277 32.2591 45.2341 32.2274C45.2441 32.1528 45.2424 32.1409 45.2437 32.1219C45.2464 32.0382 45.2454 32.0133 45.2455 31.9605C45.2454 31.9638 45.2454 31.9562 45.2465 31.9442C45.2613 31.7818 45.3098 31.4115 45.4063 31.1152C45.412 31.098 45.418 31.0807 45.424 31.0631C45.5144 30.7964 45.6066 30.513 45.658 30.1682C45.6963 29.8421 45.7561 29.33 45.3428 28.8392C45.3415 28.8377 45.3402 28.8363 45.3389 28.8349C45.2557 28.7446 45.1365 28.6069 45.0049 28.4777C44.9343 28.4097 44.8682 28.3427 44.7374 28.2497C44.6566 28.2063 44.6218 28.1336 44.3063 28.0812C44.1564 28.0463 43.7829 28.1511 43.6444 28.3581C43.501 28.552 43.4989 28.6559 43.4808 28.742C43.4597 29.0344 43.5085 29.037 43.515 29.0871C43.5307 29.1306 43.536 29.1408 43.545 29.161C43.5601 29.1935 43.5713 29.2141 43.58 29.23C43.6722 29.3905 43.7275 29.4635 43.7985 29.5659C43.8333 29.6148 43.867 29.6615 43.9087 29.7158C43.9348 29.7479 43.9355 29.7562 44.0139 29.8392C44.024 29.8484 44.0455 29.8739 44.1102 29.9211C44.125 29.9293 44.1776 29.9779 44.3166 30.0223C44.389 30.0427 44.5019 30.071 44.6717 30.035C44.8422 30.0175 45.1163 29.7885 45.1636 29.6221C45.2744 29.2918 45.1893 29.2096 45.2013 29.2007C45.195 29.1722 45.1889 29.1516 45.1834 29.1346C45.1403 29.0147 45.1411 29.0331 45.1297 29.0071C45.113 28.975 45.1042 28.9598 45.0931 28.9405C44.9805 28.7613 44.9269 28.7243 44.8774 28.6668C44.7998 28.5853 44.7516 28.5284 44.7424 28.5081C44.7236 28.4831 44.8115 28.5479 44.7875 28.7639C44.7777 28.8223 44.7598 28.8934 44.6957 28.9857C44.6347 29.0772 44.5066 29.1725 44.3951 29.2048C44.3606 29.2159 44.3284 29.2228 44.2999 29.2271C44.3451 29.225 44.386 29.2286 44.4188 29.2279C44.4931 29.2162 44.5494 29.2744 44.3694 29.1869C44.4058 29.2104 44.4336 29.2291 44.4494 29.2406C44.5025 29.2624 44.3946 29.2737 44.3345 28.9641C44.3312 28.9278 44.3348 28.9089 44.3356 28.9072C44.3432 28.9094 44.2882 29.0953 44.2386 29.2738C44.2296 29.3073 44.2211 29.3403 44.2128 29.3734C44.1035 29.7998 44.0823 30.2133 43.9347 30.5376C43.929 30.5503 43.9233 30.5629 43.9176 30.5754C43.9114 30.5887 43.9053 30.6022 43.8993 30.6155C43.8362 30.7557 43.7792 30.8953 43.7264 31.0273C43.7 31.0929 43.6745 31.1571 43.6515 31.211C43.6403 31.2374 43.6292 31.262 43.6232 31.2739C43.6364 31.2732 43.5524 31.3247 43.7438 31.1468Z" fill="white"/>
<path d="M38.845 28.4702C38.6823 28.4702 38.5263 28.5348 38.4113 28.6498C38.2963 28.7649 38.2317 28.9208 38.2317 29.0835C38.2317 29.2461 38.2963 29.4021 38.4113 29.5172C38.5263 29.6322 38.6823 29.6968 38.845 29.6968C38.8364 29.6953 38.9194 29.704 38.9845 29.7153C39.1995 29.7512 39.4398 29.8009 39.6744 29.8489C39.6755 29.8492 39.6767 29.8494 39.6779 29.8497C40.4564 30.009 41.2207 30.243 41.9289 30.408C41.9324 30.4088 41.9358 30.4097 41.9391 30.4105C42.1117 30.4543 42.2673 30.5091 42.3994 30.5705C42.5593 30.638 42.5438 30.6751 42.9854 30.8563C42.9882 30.8572 42.9912 30.8576 42.9945 30.8574C43.0006 30.8544 43.0089 30.8428 43.0189 30.8246C43.0571 30.7552 43.1191 30.5898 43.1777 30.444C43.2284 30.2818 43.3187 30.2275 43.2544 30.11C43.2525 30.1026 43.2512 30.0941 43.2508 30.0855C43.2826 29.941 43.3036 29.9967 43.2994 29.9842C43.2986 29.9846 43.2921 29.9876 43.2849 29.9904C43.2701 29.9961 43.251 30.0025 43.231 30.0092C43.1976 30.0203 43.17 30.0443 43.1543 30.0758C43.1385 30.1073 43.1359 30.1437 43.147 30.1772C43.1582 30.2106 43.1821 30.2382 43.2136 30.254C43.2452 30.2697 43.2816 30.2723 43.315 30.2612C43.315 30.2612 43.315 30.2612 43.315 30.2612C43.3353 30.2544 43.3565 30.2475 43.3812 30.2379C43.3938 30.2329 43.4069 30.2278 43.4249 30.2183C43.438 30.1955 43.4826 30.2404 43.5161 30.0736C43.5157 30.0636 43.5142 30.0537 43.512 30.0451C43.4309 29.8936 43.4805 29.8283 43.4986 29.6511C43.5229 29.4915 43.5499 29.3142 43.5531 29.233C43.5539 29.2117 43.553 29.197 43.5499 29.191C43.5508 29.19 43.5515 29.1896 43.552 29.1897C43.5988 29.2158 43.2212 29.022 42.9775 28.9555C42.7093 28.8737 42.4515 28.8329 42.2042 28.807C42.2 28.8066 42.1957 28.8062 42.1915 28.8058C41.3932 28.7366 40.6411 28.794 39.9255 28.6483C39.9243 28.6481 39.9231 28.6478 39.9219 28.6476C39.6801 28.5983 39.4457 28.549 39.182 28.5048C39.0889 28.4912 39.0138 28.4736 38.845 28.4702Z" fill="white"/>
<path d="M39.4052 28.1326C39.2558 28.1161 39.1059 28.1596 38.9886 28.2536C38.8712 28.3476 38.796 28.4844 38.7795 28.6339C38.7631 28.7833 38.8066 28.9332 38.9006 29.0505C38.9946 29.1678 39.1314 29.243 39.2808 29.2595C39.2808 29.2595 39.2808 29.2595 39.2808 29.2595C39.3577 29.2681 39.4404 29.2779 39.5225 29.2874C39.7476 29.3136 39.9746 29.3382 40.201 29.3608C40.2032 29.361 40.2054 29.3612 40.2076 29.3614C40.9695 29.4585 41.7637 29.9449 42.4752 30.1876C42.4819 30.1899 42.4885 30.1921 42.4951 30.1943L42.51 30.1995C42.7306 30.2697 43.1716 30.271 43.5325 30.3139C43.5433 30.3153 43.555 30.3149 43.5676 30.3131L43.5424 30.2991C43.5459 30.2961 43.5488 30.2922 43.5468 30.2844C43.5451 30.2799 43.5434 30.2756 43.5342 30.265C43.5171 30.2366 43.5407 30.3024 43.4104 30.1046C43.393 30.0705 43.3721 30.0237 43.3611 29.9528C43.3403 29.8683 43.3734 29.6674 43.4751 29.5645C43.6532 29.3907 43.7335 29.4211 43.7775 29.4068C43.8454 29.4012 43.869 29.4082 43.883 29.4104C43.9149 29.4171 43.9184 29.4218 43.9253 29.4261C43.936 29.4346 43.9349 29.4409 43.9337 29.4471C43.93 29.4593 43.9193 29.4704 43.908 29.4817C43.885 29.5043 43.8565 29.5277 43.8276 29.5515C43.7694 29.5988 43.7073 29.647 43.6506 29.6815C43.6341 29.6916 43.6138 29.7131 43.5975 29.7327C43.5809 29.7527 43.5696 29.7694 43.5629 29.7873C43.5562 29.8051 43.5538 29.8251 43.553 29.8511C43.5525 29.8767 43.5537 29.9061 43.5594 29.9247C43.5594 29.9247 43.5594 29.9247 43.5594 29.9247C43.5796 29.988 43.5946 30.065 43.6136 30.1405C43.6232 30.1782 43.6336 30.2155 43.6493 30.2512C43.6576 30.2691 43.6664 30.2865 43.6825 30.3045C43.6909 30.3136 43.6996 30.3226 43.7205 30.3335C43.7325 30.3389 43.7406 30.3445 43.7781 30.3519C43.7943 30.3544 43.8211 30.3615 43.891 30.3556C43.9365 30.3413 44.0181 30.3712 44.197 30.1966C44.2992 30.0932 44.3324 29.8917 44.3115 29.8065C44.3004 29.7351 44.2793 29.6877 44.2616 29.653C44.1282 29.4501 44.1459 29.5118 44.1242 29.4798C44.1098 29.4653 44.1035 29.4578 44.0962 29.4496C44.0839 29.4351 44.0763 29.4247 44.0684 29.4149L44.0433 29.4009C44.0369 29.3892 44.0297 29.3791 44.0216 29.3707C43.7332 29.0814 43.5192 28.7536 43.0539 28.5747L43.0688 28.5799C43.0605 28.5767 43.0521 28.5737 43.0437 28.5707C42.1345 28.2666 41.254 28.3517 40.32 28.2332C40.3178 28.233 40.3156 28.2328 40.3135 28.2326C40.093 28.2106 39.8739 28.1868 39.653 28.1611C39.5717 28.1518 39.4913 28.1421 39.4052 28.1326Z" fill="white"/>
<path d="M39.6104 28.5624C39.6777 28.697 39.7957 28.7993 39.9384 28.8469C40.0812 28.8945 40.237 28.8834 40.3716 28.8161C40.5062 28.7488 40.6086 28.6308 40.6561 28.4881C40.7037 28.3453 40.6926 28.1895 40.6254 28.0549C40.6254 28.0549 40.6254 28.0549 40.6254 28.0549C40.6003 28.0045 40.6808 28.1466 40.6475 28.296C40.6475 28.296 40.6474 28.2961 40.6474 28.2961C40.6244 28.4226 40.5809 28.5541 40.4956 28.6445C40.4539 28.6897 40.4086 28.7194 40.3714 28.7295C40.3712 28.7295 40.3709 28.7296 40.3707 28.7296C40.6546 28.6935 41.3077 28.9961 41.9927 29.2803C41.9939 29.2808 41.9951 29.2813 41.9963 29.2818C42.2975 29.4066 42.5626 29.5673 42.9417 29.7571C42.9418 29.7572 42.942 29.7573 42.9421 29.7573C43.2782 29.9092 43.5225 29.9963 43.54 30.0195C43.5401 30.0195 43.5401 30.0196 43.5402 30.0196L43.6577 30.0731C43.7658 30.1122 43.9282 30.1002 43.964 30.0392C43.964 30.0231 43.9623 30.0141 43.9054 29.946C43.903 29.943 43.9005 29.9398 43.8981 29.9364L43.6745 29.4304C43.6655 29.2911 43.7189 29.0976 43.8067 28.9785C43.8944 28.8553 43.9749 28.8038 44.0338 28.7686C44.1481 28.7067 44.196 28.7063 44.2326 28.7023C44.3004 28.7003 44.3173 28.7198 44.3316 28.7398C44.3558 28.7817 44.3502 28.8395 44.3438 28.9014C44.3283 29.0256 44.2974 29.1698 44.2692 29.2711C44.2639 29.2902 44.2588 29.3221 44.255 29.3489C44.2512 29.3763 44.2491 29.3964 44.2491 29.4157C44.2491 29.4349 44.2512 29.455 44.255 29.4824C44.2588 29.5092 44.2639 29.5411 44.2692 29.5602C44.2985 29.6615 44.3249 29.8058 44.3669 29.9288C44.3893 29.9901 44.4124 30.0469 44.4652 30.086C44.4936 30.1046 44.5251 30.1223 44.6066 30.1167C44.6501 30.1108 44.705 30.1082 44.8253 30.0425C44.8874 30.0054 44.9706 29.9516 45.0604 29.8254C45.1502 29.7033 45.2046 29.5062 45.1954 29.3633L44.783 28.8241L44.9719 28.8573C44.968 28.8525 44.9642 28.848 44.9604 28.8436C44.8684 28.7424 44.826 28.707 44.7847 28.666C44.5783 28.4664 44.4776 28.3567 44.3255 28.296L44.443 28.3495C44.4424 28.3492 44.4418 28.3489 44.4412 28.3486C44.0128 28.1305 43.7491 28.1391 43.6202 28.0954C43.6201 28.0953 43.62 28.0953 43.6199 28.0953C43.317 27.9978 42.908 27.8473 42.5045 27.7424C42.5029 27.742 42.5012 27.7415 42.4995 27.7411C41.8639 27.6196 41.196 27.1841 40.0659 27.4088C40.0655 27.409 40.065 27.4091 40.0646 27.4092C39.9863 27.4288 39.901 27.4736 39.8232 27.5408C39.668 27.673 39.5713 27.8755 39.533 28.0826C39.5329 28.0827 39.5329 28.0827 39.5329 28.0828C39.4817 28.3157 39.5977 28.5398 39.6104 28.5624Z" fill="white"/>
<path d="M39.5312 29.2513C39.4729 29.1134 39.3622 29.0042 39.2234 28.9479C39.0847 28.8915 38.9292 28.8926 38.7913 28.9509C38.6533 29.0092 38.5441 29.1199 38.4878 29.2586C38.4314 29.3974 38.4325 29.5528 38.4908 29.6908C38.4908 29.6908 38.4908 29.6908 38.4908 29.6908C38.6392 29.969 38.6845 29.9448 38.745 30.0105C38.8002 30.0564 38.8476 30.0911 38.8938 30.1243C39.2217 30.3525 39.512 30.5211 39.7998 30.7093C39.8009 30.71 39.802 30.7108 39.8031 30.7115C40.1062 30.9041 40.2801 31.2497 40.6309 31.5172C40.6318 31.5178 40.6327 31.5185 40.6336 31.5192C41.394 32.0779 42.108 32.5976 42.8187 33.0999C42.8191 33.1002 42.8194 33.1005 42.8198 33.1007L42.6081 32.8831C42.6313 32.9147 42.738 32.8946 42.8388 32.8455C42.8811 32.8206 42.9114 32.8019 42.9588 32.7001C42.9595 32.6989 42.9601 32.6976 42.9608 32.6963L43.1657 32.3531C43.3786 32.2504 43.4038 32.3229 43.4248 32.3414C43.441 32.3705 43.4326 32.4029 43.4204 32.4348C43.3941 32.4988 43.3466 32.5637 43.3033 32.6155C43.292 32.6291 43.2782 32.6536 43.2673 32.6747C43.2563 32.6964 43.249 32.713 43.2448 32.7297C43.2406 32.7465 43.2392 32.7645 43.2388 32.7889C43.2385 32.8127 43.2391 32.8407 43.2427 32.858C43.2427 32.858 43.2427 32.858 43.2427 32.858C43.2575 32.9243 43.2681 33.004 43.3006 33.079C43.3178 33.1164 43.3392 33.1533 43.3852 33.1839C43.4357 33.2034 43.493 33.2759 43.7312 33.1564L43.7812 32.6438L43.9362 32.8132C43.9369 32.8111 43.9377 32.809 43.9384 32.8068C43.9926 32.6333 44.0046 32.5433 44.0248 32.4506C44.0681 32.2334 44.0847 32.0588 44.0099 31.9429L43.7982 31.7252C43.7978 31.7249 43.7974 31.7247 43.797 31.7244C43.032 31.1838 42.2134 30.7424 41.4679 30.3027C41.4673 30.3023 41.4666 30.3019 41.466 30.3016C41.1833 30.1325 40.7642 29.9847 40.4178 29.764C40.4166 29.7632 40.4153 29.7624 40.4141 29.7616C40.1137 29.5659 39.7977 29.3784 39.5495 29.2047C39.5175 29.1819 39.4876 29.1593 39.4692 29.1439C39.4569 29.1466 39.425 29.0596 39.5312 29.2513Z" fill="white"/>
<path d="M39.5305 29.7744C39.5228 29.6366 39.4608 29.5075 39.358 29.4155C39.2552 29.3234 39.12 29.276 38.9823 29.2836C38.8445 29.2912 38.7154 29.3533 38.6234 29.4561C38.5313 29.5589 38.4839 29.694 38.4915 29.8318C38.4915 29.8318 38.4915 29.8318 38.4915 29.8318C38.4998 29.9794 38.5144 30.1193 38.5333 30.2598C38.5772 30.5736 38.6356 30.8815 38.7505 31.2113C38.7506 31.2116 38.7508 31.212 38.7509 31.2123C39.0633 32.0438 39.3482 32.8241 39.6822 33.5416C39.6824 33.5421 39.6826 33.5425 39.6828 33.5429C39.96 34.1643 40.2525 34.8317 40.5879 35.4524C40.5885 35.4536 40.5891 35.4547 40.5897 35.4558C40.8045 35.864 41.1089 36.2882 41.2919 36.5706C41.2924 36.5715 41.293 36.5724 41.2935 36.5732L41.3554 36.6598C41.4395 36.7608 41.583 36.8129 41.7279 36.8392C41.7815 36.8489 41.8357 36.8555 41.883 36.8566C41.926 36.8474 41.9844 36.8871 41.9524 36.7688C41.9515 36.7653 41.9507 36.7616 41.9498 36.7576L42.0278 36.2473C42.1553 36.1051 42.2986 36.0887 42.3598 36.0853C42.426 36.0831 42.4579 36.0922 42.4806 36.098C42.5255 36.1112 42.5395 36.1226 42.5504 36.1317C42.5703 36.1503 42.5692 36.1639 42.5665 36.1775C42.5593 36.2041 42.5365 36.2295 42.5115 36.256C42.4605 36.3084 42.3957 36.3632 42.3433 36.4006C42.3298 36.4103 42.3105 36.4291 42.2946 36.4453C42.2785 36.462 42.2672 36.4747 42.2582 36.4882C42.2492 36.5018 42.2418 36.5171 42.2326 36.5384C42.2237 36.5592 42.2138 36.5843 42.2101 36.6005C42.2101 36.6005 42.2101 36.6005 42.2101 36.6005C42.1961 36.6635 42.1697 36.7441 42.1578 36.821C42.1523 36.8596 42.1493 36.8971 42.1624 36.9346C42.17 36.9537 42.1791 36.9723 42.2098 36.9952C42.2259 37.0064 42.2456 37.0198 42.2962 37.0341C42.3215 37.0405 42.3564 37.0499 42.4255 37.0475C42.4896 37.044 42.6358 37.0267 42.7652 36.8822L42.76 36.3325L42.8432 36.372C42.8417 36.3664 42.8401 36.361 42.8384 36.3558C42.7683 36.1637 42.7685 36.1433 42.7572 36.072C42.7494 36.0117 42.7473 35.9578 42.7451 35.9066C42.7398 35.7695 42.7364 35.6546 42.6805 35.583L42.7423 35.6696C42.7414 35.6682 42.7406 35.6667 42.7397 35.6653C42.4601 35.237 42.2637 34.9749 42.0746 34.6355C42.0739 34.6344 42.0733 34.6333 42.0727 34.6322C41.7272 34.0228 41.3595 33.4505 40.9761 32.8322C40.9758 32.8317 40.9755 32.8312 40.9753 32.8308C40.532 32.145 39.9838 31.5382 39.7311 30.8631C39.731 30.8629 39.7309 30.8627 39.7309 30.8625C39.6541 30.645 39.5999 30.3806 39.5645 30.1206C39.5487 30.0039 39.5367 29.8859 39.5305 29.7744Z" fill="white"/>
<path d="M41.2984 35.6126C41.2831 35.5051 41.2257 35.408 41.1388 35.3428C41.0519 35.2775 40.9427 35.2495 40.8351 35.2648C40.7276 35.2801 40.6305 35.3375 40.5652 35.4243C40.5 35.5112 40.4719 35.6205 40.4872 35.728C40.4872 35.728 40.4872 35.728 40.4872 35.728C40.5252 35.9593 40.5881 36.1174 40.6599 36.2885C40.7018 36.3852 40.7478 36.479 40.797 36.5701C40.7978 36.5716 40.7986 36.5731 40.7994 36.5746C41.1324 37.125 41.3552 37.5637 41.8784 38.0435C41.8836 38.0476 41.8887 38.0518 41.8939 38.056C41.9775 38.1046 42.0187 38.2213 42.3845 38.2389C42.4172 38.2379 42.4526 38.2345 42.4901 38.2277C42.8146 38.1588 42.9496 37.9811 43.0374 37.875C43.1239 37.7608 43.1715 37.6658 43.2135 37.5764C43.2944 37.3988 43.3425 37.2434 43.3858 37.0909C43.4698 36.7887 43.5239 36.4974 43.5742 36.2276C43.5752 36.222 43.5763 36.2164 43.5773 36.2109C43.6246 35.9572 43.6612 35.7112 43.7051 35.4832C43.7057 35.48 43.7063 35.4768 43.707 35.4737C43.7572 35.1878 43.8821 34.9193 43.9756 34.4753C43.9758 34.4747 43.976 34.474 43.9761 34.4733C44.0274 34.2702 44.2611 33.7994 44.4043 33.3877C44.4044 33.3874 44.4045 33.3872 44.4046 33.3869C44.5667 32.9156 44.5572 32.509 44.5852 32.2066C44.5853 32.2053 44.5854 32.2041 44.5855 32.2028C44.5633 32.1943 44.7196 31.9129 44.7952 31.471C44.7995 31.441 44.8031 31.4103 44.8058 31.3791L44.8034 31.402C44.8034 31.402 44.8034 31.402 44.8034 31.402C44.8013 31.4029 44.8136 31.3692 44.8372 31.2234C44.8372 31.2233 44.8372 31.2233 44.8372 31.2232C44.8567 31.0604 44.8319 31.245 44.7623 31.3134C44.8535 31.1705 44.884 30.9915 44.8522 30.8196C44.8201 30.6475 44.7283 30.4965 44.5918 30.3962C44.4553 30.2958 44.2839 30.2532 44.11 30.2739C43.9364 30.2947 43.7747 30.3772 43.6655 30.5069C43.6655 30.5069 43.6655 30.5069 43.6655 30.5069C43.5017 30.6965 43.4586 31.0381 43.461 31.0233C43.461 31.0233 43.461 31.0233 43.461 31.0233C43.4656 31.0072 43.4386 31.0993 43.4214 31.2307C43.4213 31.2313 43.4213 31.2319 43.4212 31.2325L43.4188 31.2554C43.4183 31.261 43.4176 31.2668 43.4167 31.2731C43.4216 31.3683 43.2679 31.5597 43.1963 32.0922C43.1962 32.0938 43.1961 32.0953 43.196 32.0969C43.1695 32.4723 43.1612 32.7599 43.0998 32.9379C43.0997 32.938 43.0997 32.9381 43.0997 32.9382C42.9808 33.3287 42.8232 33.6163 42.6822 34.2367C42.6816 34.2404 42.6809 34.2441 42.6803 34.2478C42.6505 34.4767 42.5226 34.8496 42.4551 35.2379C42.4543 35.2422 42.4535 35.2465 42.4527 35.2508C42.4063 35.5092 42.3694 35.7526 42.3284 35.9855C42.3275 35.9906 42.3266 35.9958 42.3257 36.0009C42.2782 36.2748 42.2333 36.5292 42.1728 36.7613C42.1431 36.8754 42.1082 36.9851 42.0754 37.0601C42.06 37.0965 42.0428 37.1244 42.0458 37.1205C42.0501 37.1235 42.0782 37.0486 42.2646 37.0059C42.2932 37.0006 42.3196 36.9982 42.3433 36.9974C42.603 37.0149 42.5502 37.0732 42.5469 37.0663C42.545 37.0658 42.5431 37.0652 42.541 37.0645C42.2217 36.9083 41.7234 36.5427 41.5198 36.1842C41.5191 36.183 41.5185 36.1818 41.5178 36.1806C41.479 36.1088 41.4433 36.0358 41.4117 35.9628C41.3582 35.8408 41.3108 35.6967 41.2984 35.6126Z" fill="white"/>
<path d="M42.1292 36.1858C42.0457 36.0929 41.9287 36.0368 41.8039 36.0301C41.6791 36.0234 41.5567 36.0665 41.4638 36.15C41.3708 36.2335 41.3148 36.3505 41.3081 36.4753C41.3013 36.6001 41.3445 36.7225 41.428 36.8154C41.428 36.8154 41.428 36.8154 41.428 36.8154C41.5538 36.9551 41.6989 37.0559 41.8478 37.1306C42.0177 37.2149 42.194 37.2676 42.3812 37.2909C42.3829 37.2911 42.3847 37.2913 42.3865 37.2915C42.7269 37.3194 42.9026 37.1599 43.0181 37.0746C43.1345 36.979 43.2176 36.8893 43.2959 36.8038C43.4504 36.6324 43.5811 36.4711 43.7107 36.3099C43.9666 35.9892 44.2057 35.6768 44.4127 35.3484C44.4157 35.3436 44.4187 35.3389 44.4216 35.3341C44.8144 34.7313 45.1733 33.8662 45.286 33.2002C45.2867 33.1975 45.2873 33.1948 45.2879 33.1921C45.3568 32.9051 45.4471 32.5828 45.5334 32.3707C45.5344 32.3684 45.5354 32.366 45.5363 32.3637C45.5731 32.2737 45.5848 32.1841 45.5827 32.0863C45.5814 32.0367 45.5769 31.9863 45.5678 31.9207C45.563 31.8873 45.5576 31.8508 45.5469 31.7975C45.5259 31.7347 45.5534 31.6992 45.4158 31.4638L45.3835 30.9266L44.3144 31.4484C44.3071 31.4602 44.3013 31.4704 44.2962 31.4798C44.2158 31.6733 44.2763 31.6669 44.2934 31.736C44.3199 31.7902 44.3531 31.8405 44.3787 31.887C44.3841 31.8968 44.3891 31.9064 44.3937 31.9157C44.3941 31.9165 44.3945 31.9173 44.3949 31.9181C44.466 32.0464 44.5152 32.1644 44.5604 32.3065C44.5658 32.3225 44.5803 32.3419 44.5946 32.3578C44.6093 32.374 44.6227 32.3853 44.6379 32.392C44.653 32.3987 44.6704 32.4011 44.6922 32.4011C44.7137 32.4011 44.7378 32.3988 44.7532 32.3921C44.7532 32.3921 44.7532 32.3921 44.7532 32.3921C44.8871 32.3349 45.021 32.252 45.1583 32.1726C45.1591 32.1722 45.1599 32.1717 45.1607 32.1713C45.17 32.1667 45.1797 32.1622 45.1898 32.158C45.2375 32.138 45.2931 32.122 45.3431 32.1101C45.3843 32.1136 45.4669 32.04 45.4203 32.1723C45.4165 32.1798 45.4117 32.1884 45.4055 32.1985L44.3041 32.1831C44.1774 31.966 44.2077 31.9523 44.1887 31.9105C44.1797 31.8782 44.1741 31.863 44.1683 31.8507C44.157 31.8276 44.1467 31.8191 44.1376 31.8111C44.1194 31.7966 44.1068 31.7886 44.1114 31.777C44.1115 31.7767 44.1116 31.7764 44.1117 31.7761C43.9535 32.1732 43.8747 32.4879 43.7896 32.8384C43.7888 32.8416 43.7881 32.8447 43.7874 32.8479C43.6536 33.5671 43.4921 34.0257 43.1866 34.6425C43.1844 34.6468 43.1822 34.6512 43.18 34.6556C43.0053 35.0049 42.8706 35.3709 42.7264 35.7154C42.6541 35.887 42.5785 36.0546 42.4977 36.1919C42.4584 36.2593 42.4146 36.3205 42.3864 36.352C42.3572 36.3922 42.3549 36.3503 42.4974 36.3557C42.4967 36.3556 42.496 36.3555 42.4953 36.3554C42.4189 36.3463 42.337 36.3217 42.269 36.2876C42.2089 36.2577 42.1599 36.2204 42.1292 36.1858Z" fill="white"/>
<path d="M42.062 35.5213C41.8904 35.5782 41.7484 35.701 41.6672 35.8626C41.5861 36.0242 41.5725 36.2115 41.6295 36.3831C41.6864 36.5548 41.8092 36.6968 41.9708 36.7779C42.1324 36.859 42.3197 36.8726 42.4913 36.8157C42.4913 36.8157 42.4913 36.8157 42.4913 36.8157C42.7366 36.7211 42.7743 36.6661 42.8606 36.6073C42.9349 36.5502 42.9967 36.4965 43.0556 36.4431C43.1725 36.3368 43.276 36.2319 43.3758 36.126C43.3778 36.1239 43.3798 36.1218 43.3818 36.1197C43.602 35.8625 43.6456 35.7469 43.7429 35.5983C43.8288 35.458 43.9094 35.3264 43.9884 35.196C44.1458 34.935 44.2947 34.6805 44.4095 34.4146C44.4127 34.407 44.416 34.3994 44.4193 34.3918C44.4296 34.3675 44.4398 34.3423 44.4491 34.3186C44.7698 33.3936 44.8297 32.7018 44.9719 31.9505C44.9747 31.9346 44.9774 31.9187 44.9802 31.9028C45.0965 31.2719 45.0872 30.5585 45.037 29.9995C45.0356 29.9788 45.0343 29.9584 45.0334 29.9389C45.0227 29.7535 45.0009 29.5831 44.9645 29.4193C44.9579 29.3897 44.9503 29.3605 44.9422 29.3316C44.912 29.219 44.8568 29.0438 44.6568 28.8652C44.4608 28.6899 44.1965 28.6407 44.0642 28.6452C43.7817 28.6585 43.7247 28.7163 43.6551 28.7431C43.5397 28.8034 43.5054 28.8365 43.4675 28.8659C43.3994 28.9228 43.3652 28.9601 43.3292 28.9989C43.2923 29.0396 43.2603 29.0785 43.2251 29.127C43.073 29.3448 43.0454 29.4841 43.0144 29.564C42.9854 29.6516 42.9638 29.7237 42.9423 29.7966C42.9003 29.9395 42.863 30.075 42.8288 30.2117C42.823 30.2349 42.8173 30.2581 42.8113 30.2823C42.5852 31.2035 42.3763 32.1155 42.1556 33.0175C42.1478 33.0493 42.1393 33.0837 42.1315 33.1153C41.99 33.7182 41.848 34.1642 41.7302 34.9696C41.728 35.0009 41.725 35.0314 41.7266 35.1009C41.7328 35.1573 41.715 35.1621 41.7718 35.3702C41.7901 35.4176 41.7991 35.4823 41.9096 35.6407C42.0071 35.7781 42.2541 36.0102 42.6386 36.0187C42.8114 36.0219 42.9516 35.9772 43.0487 35.932C43.1192 35.8986 43.1582 35.8728 43.1978 35.8449C43.2731 35.7905 43.3166 35.7454 43.3501 35.7087C43.5809 35.4304 43.5933 35.2894 43.6374 35.1655C43.6716 35.0444 43.6886 34.9488 43.7028 34.8595C43.73 34.6827 43.7422 34.5331 43.7528 34.3882C43.7728 34.1015 43.7816 33.8385 43.798 33.5981C43.7994 33.5771 43.8009 33.556 43.8024 33.5356C43.8609 32.7667 43.8491 31.9575 43.7178 31.1697C43.7126 31.1372 43.7072 31.1043 43.702 31.0736C43.6135 30.5675 43.5509 30.0786 43.3776 29.4736C43.3642 29.4291 43.3498 29.384 43.3341 29.338C43.2843 29.1981 43.2349 28.9121 43.154 28.5917C43.1422 28.5458 43.1284 28.499 43.1128 28.4514C43.1077 28.437 43.1057 28.4244 43.0789 28.3524C43.0702 28.3306 43.0627 28.3092 43.0363 28.2562C43.0243 28.2331 43.0049 28.1947 42.9649 28.1375C42.9463 28.1117 42.9168 28.07 42.8582 28.0114C42.7919 27.9537 42.7491 27.8894 42.5172 27.7967C42.3037 27.7088 41.9605 27.7372 41.7689 27.852C41.6696 27.9046 41.5916 27.9715 41.5443 28.0201C41.5083 28.0567 41.4803 28.0911 41.4574 28.1224C41.3644 28.2558 41.3552 28.3031 41.3367 28.3461C41.3035 28.4395 41.3041 28.453 41.2956 28.4889C41.2679 28.6521 41.2784 28.646 41.2754 28.6893C41.2751 28.7531 41.2776 28.7956 41.2797 28.8402C41.2843 28.9272 41.2893 29.0064 41.2902 29.0847C41.2905 29.1151 41.2909 29.1441 41.2912 29.175C41.3043 30.0759 41.271 30.955 41.27 31.8313C41.27 31.8694 41.2699 31.9082 41.2698 31.9461C41.2682 32.5779 41.2598 33.2105 41.2427 33.8381C41.2415 33.8834 41.2401 33.9288 41.2388 33.9739C41.2388 33.9738 41.2387 33.9729 41.2393 33.9633C41.2426 33.9434 41.2317 33.9683 41.2598 33.8223C41.267 33.7915 41.2762 33.752 41.3008 33.6873C41.3134 33.6547 41.3299 33.6154 41.3577 33.5648C41.3828 33.5402 41.5216 33.1713 42.0717 33.0644C42.3359 33.0193 42.5978 33.1055 42.7397 33.1959C42.8871 33.2923 42.8757 33.2965 42.926 33.3418C42.9993 33.4157 43.0371 33.4722 43.0654 33.5166C43.1184 33.6019 43.1395 33.6603 43.1469 33.6781C43.1749 33.751 43.1801 33.7803 43.1831 33.7905C43.19 33.8184 43.1902 33.8216 43.1911 33.8255C43.1923 33.8323 43.1881 33.8078 43.1852 33.7883C43.1788 33.7461 43.1715 33.6956 43.1642 33.6461C43.1496 33.546 43.1343 33.4428 43.1184 33.3397C43.0864 33.1333 43.0517 32.9265 43.0141 32.7199C43.0113 32.7047 43.0085 32.6895 43.0057 32.6741C42.8735 32.005 42.653 31.4976 42.45 30.9975C42.4421 30.9784 42.434 30.959 42.4261 30.94C42.0674 30.0826 41.5529 29.139 40.6774 28.4646C40.6508 28.4438 40.6227 28.4252 40.5955 28.4083C40.5907 28.4103 40.5712 28.4014 40.555 28.3867C40.5453 28.3781 40.5254 28.359 40.5277 28.3612C40.5176 28.3513 40.5063 28.3396 40.4771 28.3139C40.4616 28.3007 40.4427 28.2841 40.4021 28.255C40.3813 28.2404 40.3551 28.2224 40.3114 28.1981C40.2894 28.186 40.2628 28.1722 40.2271 28.1567C40.1838 28.1416 40.1783 28.1256 40.0007 28.0908C39.8568 28.0652 39.5087 28.0553 39.2078 28.3245C38.9136 28.5967 38.8913 28.9065 38.8912 29.0423C38.9065 29.3287 38.9562 29.3673 38.9743 29.4259C39.0159 29.5163 39.0357 29.5403 39.0396 29.548C39.0465 29.5589 39.0517 29.5667 39.056 29.5732C39.0726 29.5976 39.0806 29.6079 39.0835 29.6121C39.0916 29.623 39.0981 29.6315 39.1017 29.6363C39.1109 29.6482 39.117 29.6561 39.1241 29.6652C39.1369 29.6817 39.1486 29.6966 39.1609 29.7123C39.1841 29.7419 39.2067 29.7707 39.2297 29.8C39.2748 29.8576 39.3195 29.9149 39.3641 29.9724C39.4536 30.0878 39.5415 30.2025 39.6291 30.3183C39.8043 30.5497 39.9766 30.7832 40.1453 31.0181C40.1548 31.0314 40.1643 31.0447 40.1739 31.0581C40.3707 31.3327 40.4846 31.6021 40.6303 31.9851C40.6376 32.0043 40.6448 32.0232 40.6522 32.0427C40.8675 32.6117 41.0739 33.2525 41.168 33.74C41.1709 33.7564 41.1733 33.7708 41.1741 33.7711C41.1748 33.7737 41.1743 33.7703 41.1733 33.7469C41.176 33.7156 41.1587 33.7021 41.1969 33.5059C41.2119 33.4475 41.2253 33.3835 41.292 33.2588C41.3475 33.1547 41.4937 32.9532 41.7459 32.842C42.2935 32.6416 42.5059 32.8435 42.5918 32.8676C42.767 32.969 42.7658 32.9927 42.7954 33.0169C42.8574 33.0858 42.8201 33.0526 42.8078 33.0375C42.7707 32.9953 42.7203 32.9277 42.6752 32.8573C42.6652 32.8417 42.6553 32.8262 42.6447 32.8094C42.1925 32.0834 41.7399 31.2941 41.2723 30.518C41.2563 30.4915 41.2395 30.4637 41.2236 30.4375C40.8848 29.8564 40.328 29.1289 39.9716 28.7485C39.9672 28.7433 39.9711 28.7481 39.9863 28.7761C39.96 28.7305 39.9406 28.7008 39.9266 28.6786C39.9171 28.6634 39.9093 28.651 39.9116 28.6547C39.9133 28.6578 39.9164 28.6616 39.933 28.6937C39.942 28.713 39.9533 28.7298 39.9811 28.8087C39.994 28.8589 40.0201 28.8901 40.0297 29.0934C40.0247 29.1901 40.0432 29.3777 39.8475 29.6637C39.7541 29.7948 39.6034 29.9126 39.4631 29.9716C39.3399 30.0251 39.2322 30.0429 39.145 30.0487C38.8824 30.0552 38.8109 29.9726 38.8102 29.9792C38.8079 29.977 38.8504 30.0092 38.8978 30.0524C38.9963 30.141 39.1264 30.2701 39.2664 30.3997C39.5481 30.6621 39.886 30.9372 40.2711 31.1553C40.2911 31.1667 40.3114 31.178 40.3319 31.1893C40.6609 31.393 41.216 31.4464 41.5083 31.3809C41.5389 31.376 41.5675 31.3709 41.5939 31.3659C41.9359 31.3284 42.3592 30.9727 42.4651 30.7077C42.5937 30.4427 42.608 30.2695 42.6269 30.1289C42.6535 29.8589 42.6463 29.6678 42.6555 29.6119C42.6557 29.6103 42.6558 29.6091 42.6559 29.6083C42.6607 29.5586 42.6892 29.4456 42.747 29.3474C42.7495 29.3432 42.7519 29.3389 42.7545 29.3346C42.7196 29.3836 42.6463 29.418 43.2357 29.0835C43.2469 29.0757 43.2583 29.0675 43.2699 29.059C43.5335 28.8597 43.6312 28.6418 43.689 28.4961C43.6955 28.479 43.7013 28.4623 43.7065 28.4462C43.7247 28.3878 43.7529 28.3017 43.7611 28.1539C43.7709 28.0112 43.7375 27.7786 43.6241 27.5912C43.3761 27.2096 43.145 27.1756 43.0336 27.1273C43.0041 27.1176 42.9776 27.1102 42.9526 27.104C42.5305 27.0128 42.2098 27.015 41.7489 27.1744C41.7227 27.1851 41.7022 27.1925 41.6439 27.2218C41.6963 27.199 41.7572 27.1573 41.9514 27.1303C42.0011 27.1248 42.0609 27.1216 42.1343 27.1279C42.1772 27.127 42.4367 27.1706 42.6081 27.3101C43.0073 27.6207 42.9772 28.0495 42.9666 28.1364C42.9306 28.386 42.8797 28.4281 42.8745 28.4511C42.8478 28.5032 42.8377 28.5169 42.8313 28.5275C42.817 28.5498 42.8153 28.5516 42.8123 28.5559C42.8077 28.5621 42.809 28.5599 42.8104 28.5576C42.8138 28.5521 42.8206 28.5416 42.8278 28.53C42.8425 28.5065 42.86 28.4774 42.8794 28.4409C42.9155 28.3636 42.9749 28.2793 43.0057 28.0333C43.0124 27.9625 43.0136 27.875 42.9952 27.7715C42.9667 27.5917 42.8625 27.3639 42.7146 27.2125C42.5677 27.058 42.4168 26.9813 42.3025 26.9347C42.0714 26.8467 41.937 26.8422 41.8231 26.8305C41.6129 26.8174 41.4376 26.8157 41.4767 26.8171C41.4594 26.814 41.4423 26.8113 41.4249 26.8088C41.107 26.7869 40.8761 26.7391 40.3898 27.048C40.2597 27.1414 40.1314 27.3068 40.0739 27.4669C39.9491 27.8492 40.0418 28.0195 40.0699 28.1292C40.1097 28.2386 40.1466 28.2987 40.1793 28.3509C40.2449 28.4514 40.2989 28.5098 40.3528 28.5648C40.366 28.5781 40.3793 28.5909 40.3927 28.6034C40.4038 28.6137 40.415 28.6238 40.4262 28.6335C40.9383 29.0389 41.3468 29.0365 41.7414 29.0247C41.7563 29.0236 41.7706 29.0223 41.7862 29.0206C42.0143 29.0097 42.4435 28.8361 42.6359 28.4966C42.6492 28.475 42.6619 28.4525 42.674 28.4291C42.8722 28.0542 42.7707 27.6585 42.6991 27.5033C42.6962 27.4963 42.6932 27.4893 42.6901 27.4824C42.2987 26.7466 41.8806 26.6012 41.3949 26.3958L40.7594 26.1675L40.3583 26.7279C40.3357 26.7599 40.3159 26.7927 40.2998 26.8226C40.1429 27.1561 40.1971 27.2729 40.2042 27.3742C40.2224 27.4702 40.2508 27.5304 40.2812 27.5829C40.3428 27.6856 40.4148 27.7517 40.4971 27.8218C40.5005 27.8247 40.5038 27.8275 40.5071 27.8303C40.7149 27.9999 40.8126 27.9485 40.9094 27.9352C41.0055 27.9137 41.0995 27.8872 41.1927 27.8679C41.2364 27.8592 41.2973 27.8294 41.3483 27.8006C41.4001 27.7708 41.4379 27.7444 41.4669 27.7117C41.4959 27.679 41.5177 27.6384 41.541 27.5834C41.5636 27.5293 41.5859 27.4653 41.5894 27.4209C41.5894 27.4209 41.5894 27.4209 41.5894 27.4209C41.595 27.3237 41.6005 27.2208 41.6079 27.1231C41.6173 27.0325 41.62 26.9096 41.761 26.9824C41.7632 26.9834 41.7653 26.9844 41.7675 26.9854C41.8201 27.0102 41.8685 27.0268 41.914 27.0777C41.9364 27.1043 41.9586 27.1379 41.9742 27.2069C41.979 27.2815 42.0333 27.3697 41.889 27.6788C41.874 27.7066 41.8555 27.7372 41.8344 27.7672L40.7977 28.0994C40.922 28.1268 41.1242 28.3462 41.0264 28.2162C41.0258 28.2147 41.0251 28.2133 41.0245 28.2118C40.9952 28.1541 40.9123 27.876 41.0587 27.5983C41.0675 27.5814 41.0766 27.5653 41.086 27.55C41.2076 27.3316 41.4986 27.2239 41.5902 27.2256C41.597 27.2249 41.6031 27.2244 41.6092 27.2239C41.5474 27.2411 41.4601 27.1695 41.6123 27.2734C41.6155 27.2762 41.6188 27.2792 41.6221 27.2823C41.6262 27.286 41.6303 27.29 41.6345 27.2941C41.6493 27.3096 41.6671 27.3257 41.7026 27.3794C41.7204 27.4082 41.744 27.4438 41.7744 27.5269C41.7936 27.6107 41.8802 27.752 41.7651 28.1078C41.7118 28.2565 41.5911 28.412 41.4707 28.4983C41.314 28.6049 41.2882 28.5888 41.2496 28.6009C41.2163 28.6062 41.1939 28.6058 41.1685 28.6026C41.1656 28.6022 41.1628 28.6018 41.1599 28.6013C41.4853 28.6486 41.6013 28.6284 41.6796 28.6391C41.7097 28.6394 41.7207 28.6533 41.6246 28.6186C41.5773 28.5991 41.4903 28.5594 41.3932 28.4578C41.2953 28.3589 41.2234 28.1991 41.2072 28.0908C41.1906 27.9972 41.1919 27.92 41.1977 27.8593C41.2247 27.6491 41.2688 27.5982 41.2877 27.5521C41.2983 27.5313 41.3063 27.5173 41.311 27.5087C41.3131 27.5046 41.3149 27.5014 41.3131 27.5032C41.3119 27.5045 41.3106 27.506 41.3035 27.5159C41.2992 27.5221 41.2963 27.5256 41.2807 27.5499C41.2738 27.5614 41.2629 27.5763 41.2358 27.6292C41.2304 27.6525 41.1792 27.6955 41.1432 27.9455C41.1325 28.0326 41.1025 28.4615 41.5018 28.7722C41.6733 28.9118 41.9329 28.9554 41.9757 28.9545C42.0492 28.9607 42.1091 28.9576 42.1588 28.952C42.3533 28.925 42.4145 28.8832 42.4672 28.8602C42.4233 28.8824 42.4171 28.884 42.4065 28.8886C42.3562 28.9064 42.489 28.8902 42.4886 28.9055C42.4776 28.9029 42.4645 28.8994 42.4483 28.8941C42.3914 28.8642 42.2168 28.8569 41.999 28.5264C41.9003 28.3643 41.8721 28.1616 41.8801 28.0478C41.8867 27.9291 41.9073 27.8715 41.9163 27.8406C41.9173 27.8368 41.9187 27.8324 41.9206 27.8273C41.9385 27.7872 41.9776 27.6723 42.1492 27.5411C42.1513 27.5396 42.1531 27.5383 42.1546 27.5373C42.2213 27.5337 41.4842 27.7535 41.1324 28.3747C41.1257 28.3862 41.119 28.3976 41.1125 28.4089C40.9571 28.6833 40.8261 28.9782 40.7716 29.3548C40.7699 29.3671 40.7684 29.3792 40.767 29.391C40.7378 29.6825 40.7473 29.8425 40.7358 29.9196C40.7349 29.952 40.7182 29.954 40.7684 29.8456C40.7988 29.7382 41.073 29.5049 41.2408 29.4957C41.228 29.4981 41.2172 29.5 41.2083 29.5014C41.1154 29.5061 41.2584 29.5138 41.2447 29.5212C41.2331 29.5149 41.2216 29.5085 41.2102 29.502C40.9902 29.3777 40.7821 29.2156 40.5551 29.0057C40.4396 28.8999 40.3241 28.7842 40.1643 28.6399C40.0818 28.5671 39.9926 28.4871 39.8444 28.3893C39.6992 28.3025 39.4632 28.1388 39.0248 28.156C38.9364 28.1619 38.8278 28.1799 38.7037 28.2338C38.5625 28.2932 38.411 28.4117 38.3171 28.5436C38.1202 28.8311 38.1383 29.0209 38.1334 29.1194C38.1431 29.327 38.1703 29.3617 38.1844 29.4158C38.2148 29.5023 38.2295 29.5262 38.2421 29.5526C38.266 29.5989 38.2772 29.6164 38.287 29.6332C38.3058 29.6641 38.3152 29.6785 38.3225 29.6902C38.3323 29.7056 38.3363 29.7135 38.3318 29.7065C38.3803 29.7938 38.4235 29.8543 38.4602 29.903C38.6338 30.122 38.7144 30.1993 38.8123 30.3193C38.9057 30.4312 38.9949 30.5459 39.0815 30.6645C39.2554 30.9028 39.4215 31.16 39.5809 31.4265C39.5959 31.4516 39.6119 31.4784 39.6271 31.504C40.082 32.2675 40.5193 33.0369 41.0114 33.8363C41.0238 33.8562 41.0355 33.8748 41.0477 33.8941C41.1039 33.9822 41.1548 34.0704 41.2268 34.1798C41.2692 34.2395 41.2877 34.2825 41.4151 34.4174C41.462 34.4585 41.4774 34.4975 41.6734 34.6104C41.7692 34.6396 41.9942 34.8463 42.5526 34.641C42.8101 34.5276 42.9605 34.3212 43.0186 34.2123C43.0882 34.0821 43.1032 34.013 43.1197 33.9486C43.1628 33.7298 43.1447 33.6924 43.1462 33.6379C43.1439 33.5912 43.141 33.5644 43.139 33.5439C43.1332 33.4871 43.1269 33.4456 43.1199 33.4045C42.9606 32.5996 42.7311 31.9924 42.4753 31.3335C42.4669 31.3124 42.4586 31.2917 42.4501 31.2704C42.2898 30.86 42.0401 30.3511 41.732 29.9375C41.7218 29.9234 41.7117 29.9094 41.7015 29.8954C41.5221 29.6477 41.3396 29.4026 41.1549 29.16C41.0624 29.0386 40.9698 28.9183 40.8759 28.7977C40.8292 28.7376 40.7823 28.6778 40.7359 28.6186C40.7123 28.5886 40.6891 28.5591 40.6668 28.5308C40.6552 28.5159 40.6442 28.5019 40.6346 28.4896C40.6295 28.4831 40.6252 28.4774 40.6226 28.4741C40.6217 28.4729 40.6208 28.4716 40.6241 28.4762C40.6254 28.478 40.6288 28.4821 40.6434 28.5036C40.6472 28.5093 40.6519 28.5163 40.6584 28.5266C40.662 28.5339 40.6809 28.5564 40.7224 28.6463C40.7403 28.7045 40.7899 28.7429 40.8052 29.0291C40.8052 29.1649 40.7829 29.4746 40.4887 29.7468C40.1878 30.016 39.8397 30.0061 39.6959 29.9805C39.5184 29.9457 39.513 29.9297 39.4697 29.9146C39.434 29.8992 39.4075 29.8854 39.3855 29.8733C39.342 29.8491 39.3159 29.8311 39.2952 29.8166C39.2549 29.7878 39.2364 29.7714 39.2214 29.7586C39.1929 29.7336 39.1828 29.7231 39.1742 29.7146C39.2172 29.7571 39.2391 29.7772 39.272 29.8071C39.3172 29.8477 39.3605 29.8925 39.4213 29.9448C39.4379 29.9613 39.4544 29.9773 39.4716 29.9911C39.9598 30.3701 40.312 30.975 40.6018 31.6889C40.6092 31.7073 40.6168 31.7261 40.6242 31.7444C40.8124 32.2101 40.9859 32.6767 41.0523 33.034C41.0548 33.048 41.0574 33.062 41.0599 33.0758C41.0943 33.2648 41.1261 33.4538 41.156 33.645C41.171 33.7407 41.1853 33.8363 41.1999 33.9349C41.2072 33.9845 41.2145 34.0341 41.2233 34.0909C41.2281 34.1216 41.2314 34.1454 41.2422 34.2024C41.2455 34.219 41.2482 34.2342 41.2581 34.2743C41.2621 34.2887 41.27 34.3273 41.2996 34.4042C41.3075 34.4232 41.3297 34.4841 41.3834 34.5706C41.4121 34.6156 41.4503 34.6726 41.524 34.7468C41.5745 34.7923 41.5632 34.7966 41.711 34.8934C41.8533 34.984 42.1155 35.0703 42.3801 35.0251C42.9309 34.9181 43.0707 34.5481 43.0961 34.5228C43.1241 34.4718 43.1409 34.432 43.1537 34.3988C43.1787 34.3328 43.1884 34.2918 43.196 34.2591C43.2265 34.1015 43.2165 34.1137 43.2206 34.0807C43.2219 34.0576 43.2223 34.0466 43.2227 34.0319C43.224 33.9847 43.2253 33.937 43.2264 33.8896C43.2422 33.2335 43.2415 32.5807 43.2276 31.9271C43.2268 31.8879 43.2259 31.8479 43.225 31.8087C43.2037 30.9122 43.1161 30.0174 43.0961 29.1471C43.0955 29.1182 43.0951 29.0912 43.0947 29.0633C43.0939 28.992 43.0977 28.9196 43.1034 28.8555C43.1063 28.8245 43.1098 28.7921 43.1131 28.7803C43.1122 28.7859 43.1244 28.7423 43.1037 28.8686C43.0964 28.899 43.0977 28.9094 43.0664 28.9974C43.0487 29.0383 43.0404 29.0835 42.9488 29.2149C42.9262 29.2458 42.8986 29.2797 42.8629 29.3161C42.816 29.3642 42.7386 29.4306 42.6398 29.483C42.4493 29.5972 42.1072 29.6256 41.8949 29.5381C41.6642 29.4458 41.6221 29.3821 41.5566 29.3253C41.4989 29.2676 41.4702 29.2269 41.4523 29.202C41.4135 29.1465 41.3955 29.1106 41.3844 29.0893C41.3602 29.0408 41.3543 29.0235 41.3474 29.0063C41.3271 28.9518 41.3303 28.9576 41.3304 28.9613C41.3366 28.9899 41.3433 29.0197 41.3511 29.0507C41.4104 29.2733 41.4433 29.5453 41.5707 29.9383C41.5786 29.9614 41.5864 29.986 41.5942 30.0117C41.7022 30.3774 41.7836 30.8909 41.867 31.3799C41.8719 31.4089 41.8767 31.4379 41.8812 31.4657C41.9864 32.0965 41.9973 32.7328 41.9482 33.3968C41.9463 33.4224 41.9445 33.4483 41.9428 33.4736C41.9239 33.7596 41.9167 34.0246 41.9018 34.2641C41.8945 34.3828 41.8849 34.4963 41.8727 34.5805C41.8669 34.6215 41.8595 34.6562 41.858 34.6618C41.8655 34.6632 41.8332 34.6515 41.977 34.4729C42.0082 34.4388 42.0495 34.3956 42.1228 34.3427C42.1613 34.3156 42.1995 34.2903 42.269 34.2574C42.3645 34.2129 42.5033 34.1686 42.6747 34.1718C43.0564 34.1801 43.3016 34.4108 43.3974 34.546C43.506 34.702 43.514 34.7639 43.5317 34.8091C43.5852 35.0058 43.567 35.0017 43.5727 35.0453C43.5737 35.0943 43.5718 35.1031 43.5714 35.1109C43.6212 34.7642 43.7782 34.0787 43.9047 33.5471C43.9125 33.5143 43.921 33.4788 43.9288 33.4461C44.1471 32.5262 44.3544 31.6097 44.5688 30.7111C44.5744 30.6878 44.5798 30.6656 44.5851 30.6434C44.6166 30.5135 44.6457 30.3834 44.6745 30.2628C44.6888 30.2025 44.7035 30.1437 44.7156 30.1006C44.7271 30.0511 44.7395 30.0566 44.6692 30.1638C44.6581 30.1789 44.6521 30.1858 44.6428 30.1961C44.633 30.2064 44.6262 30.2162 44.5882 30.2486C44.5653 30.2659 44.5469 30.2873 44.4485 30.339C44.3877 30.3615 44.3397 30.4156 44.0671 30.4287C43.9396 30.4331 43.6803 30.3852 43.488 30.2131C43.2917 30.0379 43.2385 29.867 43.2095 29.7593C43.2126 29.7758 43.2157 29.7922 43.2193 29.8084C43.2393 29.8978 43.2586 29.9845 43.2656 30.0581C43.2675 30.0816 43.2694 30.1051 43.2711 30.1278C43.322 30.6957 43.3223 31.1243 43.2424 31.6106C43.2397 31.6269 43.2371 31.6431 43.2345 31.6592C43.111 32.3909 43.0126 33.211 42.8523 33.7196C42.8488 33.7302 42.8451 33.7405 42.8419 33.7496C42.8389 33.7572 42.836 33.7649 42.833 33.7725C42.7302 34.0403 42.6616 34.3195 42.5894 34.5881C42.5535 34.7217 42.5163 34.8533 42.4747 34.9717C42.4415 35.0802 42.3579 35.2267 42.3871 35.1866C42.3855 35.1884 42.3839 35.1901 42.3822 35.1918C42.3008 35.2784 42.2178 35.3618 42.139 35.4333C42.1 35.4688 42.0613 35.5017 42.0308 35.525C42.0115 35.5455 41.9416 35.5705 42.062 35.5213Z" fill="white"/>
<path d="M41.9013 29.1513C41.8459 29.0013 41.7331 28.8795 41.5879 28.8126C41.4426 28.7457 41.2767 28.7393 41.1267 28.7947C40.9766 28.8501 40.8548 28.9629 40.7879 29.1082C40.721 29.2535 40.7146 29.4194 40.7701 29.5694C40.7701 29.5694 40.7701 29.5694 40.7701 29.5694C40.8176 29.6975 40.8667 29.8142 40.9171 29.9296C41.1437 30.4336 41.3577 30.8846 41.6793 31.3949C41.699 31.4246 41.7034 31.466 41.7048 31.5158C41.7293 31.6553 41.7381 31.8129 41.8074 31.9053C41.8427 31.9524 41.8815 31.9935 41.9248 32.0304C41.962 32.0602 42.0045 32.0912 42.0747 32.1287C42.145 32.16 42.2051 32.2108 42.4481 32.2415C42.5668 32.2511 42.7994 32.2553 43.0528 32.0815C43.3063 31.9029 43.391 31.6565 43.4178 31.5319C43.5119 31.0049 43.3533 30.743 43.2649 30.5316C43.1625 30.3231 43.0559 30.1674 42.9495 30.0215C42.7372 29.7343 42.521 29.4972 42.3147 29.2721C42.2795 29.2338 42.2439 29.1947 42.2109 29.1578C42.189 29.1346 42.1798 29.1233 42.1379 29.0833C42.126 29.0723 42.1254 29.0709 42.0961 29.0459C42.0834 29.0353 42.0685 29.0231 42.0476 29.0075C42.037 28.9997 42.025 28.9911 42.0101 28.9811C41.9958 28.9729 41.9837 28.9588 41.884 28.9104C41.7892 28.8892 41.6269 28.723 41.1178 28.908C40.8692 29.0138 40.6837 29.2676 40.6303 29.4469C40.5701 29.6314 40.5794 29.751 40.5859 29.8335C40.6383 30.1445 40.6624 30.1004 40.6712 30.1408C40.6946 30.1904 40.7132 30.2209 40.7205 30.2337C40.7825 30.336 40.7958 30.3517 40.8225 30.3924C40.8701 30.463 40.9115 30.5232 40.9537 30.5842C41.0376 30.7053 41.1189 30.8215 41.203 30.938C41.3819 31.1788 41.5071 31.37 41.8037 31.6661L43.3916 30.5102C43.3769 30.4788 43.3628 30.451 43.3492 30.4254C43.1539 30.0766 42.9429 29.9486 42.7597 29.7964C42.7347 29.7772 42.7108 29.7583 42.6943 29.7483L42.6683 29.7115C42.6639 29.7071 42.6597 29.7028 42.6553 29.6985C42.5569 29.5992 42.4162 29.5512 42.3317 29.5267C42.2096 29.4899 42.0435 29.5035 41.8946 29.5399C41.7443 29.5778 41.6235 29.6355 41.5341 29.7248C41.4447 29.8142 41.3871 29.935 41.3492 30.0853C41.3128 30.2342 41.2992 30.4003 41.336 30.5224C41.336 30.5224 41.336 30.5224 41.336 30.5224C41.3646 30.6104 41.3355 30.677 41.3334 30.7051C41.3333 30.7064 41.3333 30.7077 41.3332 30.7091L41.3072 30.6722C41.3288 30.7195 41.3452 30.7576 41.3605 30.7948C41.4568 31.0355 41.5447 31.2893 41.5827 31.3633C41.584 31.3656 41.584 31.3658 41.5824 31.3622L43.1703 30.2063C43.0797 30.1208 42.8579 29.8882 42.6877 29.7112C42.5979 29.6172 42.5083 29.5224 42.423 29.4286C42.3807 29.3822 42.3386 29.3347 42.3049 29.2957C42.2918 29.2823 42.2637 29.2423 42.2905 29.2875C42.2942 29.2944 42.3064 29.3136 42.3271 29.3574C42.3348 29.3953 42.3562 29.3458 42.4081 29.6522C42.4144 29.7337 42.4238 29.8525 42.3638 30.0364C42.3106 30.215 42.1255 30.4684 41.8774 30.5739C41.3695 30.7584 41.209 30.5925 41.1168 30.5725C41.0199 30.5255 41.0102 30.513 40.9969 30.5054C40.9833 30.4963 40.9727 30.4886 40.9637 30.482C40.9457 30.4686 40.9343 30.4592 40.9255 30.4517C40.906 30.435 40.9076 30.4357 40.9023 30.4308C40.889 30.4172 40.8972 30.4237 40.9038 30.4297C40.9402 30.4641 40.9765 30.4989 41.0108 30.5324C41.2088 30.7261 41.3902 30.9161 41.5295 31.0931C41.5983 31.18 41.6557 31.2656 41.6836 31.3177C41.721 31.3644 41.6718 31.3943 41.7068 31.1563C41.73 31.048 41.8073 30.8175 42.0469 30.6485C42.2865 30.4844 42.5017 30.4906 42.604 30.4986C42.8137 30.5259 42.843 30.5629 42.8839 30.5792C42.9214 30.5995 42.9329 30.6103 42.9401 30.6186C42.9317 30.6182 42.9202 30.6199 42.9071 30.6254C42.8824 30.6368 42.8035 30.7056 42.7545 30.7452C42.7239 30.7514 42.6962 30.7462 42.6845 30.7285C42.4542 30.366 42.2164 29.8842 42.022 29.4462C41.9778 29.3452 41.9354 29.2433 41.9013 29.1513Z" fill="white"/>
<circle cx="54.3237" cy="20.1028" r="3.5" fill="white"/>
<circle cx="30.3237" cy="20.1028" r="3.5" fill="white"/>
<path d="M41.634 3.10291C42.0189 2.43624 42.9811 2.43624 43.366 3.10291L47.2631 9.85291C47.648 10.5196 47.1669 11.3529 46.3971 11.3529H38.6029C37.8331 11.3529 37.352 10.5196 37.7369 9.85291L41.634 3.10291Z" fill="#CA5C5C"/>
<path d="M52.5195 4.56295C53.0695 4.02438 53.9963 4.28319 54.1877 5.02881L56.1258 12.5783C56.3172 13.3239 55.6296 13.9971 54.8882 13.7901L47.3812 11.6937C46.6397 11.4867 46.4005 10.5546 46.9505 10.016L52.5195 4.56295Z" fill="#CA5C5C"/>
<path d="M62.6355 8.72259C63.3025 8.33828 64.1354 8.82015 64.1348 9.58995L64.1278 17.3842C64.1272 18.154 63.2934 18.6344 62.6271 18.2489L55.8805 14.3458C55.2142 13.9603 55.2151 12.998 55.8821 12.6137L62.6355 8.72259Z" fill="#CA5C5C"/>
<path d="M70.8374 14.458C71.5673 14.2134 72.2883 14.8506 72.1352 15.605L70.5849 23.2435C70.4318 23.998 69.5194 24.3037 68.9426 23.7939L63.1026 18.6321C62.5258 18.1223 62.7172 17.1793 63.4471 16.9347L70.8374 14.458Z" fill="#CA5C5C"/>
<path d="M77.8017 22.2913C78.5708 22.324 79.0162 23.1769 78.6034 23.8267L74.4238 30.4055C74.011 31.0552 73.0496 31.0145 72.6933 30.3321L69.0857 23.423C68.7294 22.7406 69.2454 21.9284 70.0145 21.9611L77.8017 22.2913Z" fill="#CA5C5C"/>
<path d="M32.438 3.91061C31.9053 3.35486 30.9708 3.58415 30.7558 4.32333L28.5794 11.8075C28.3644 12.5467 29.0303 13.2414 29.7779 13.058L37.3476 11.2007C38.0952 11.0173 38.3639 10.0933 37.8313 9.53756L32.438 3.91061Z" fill="#CA5C5C"/>
<path d="M22.1951 7.74729C21.5407 7.34202 20.6929 7.79723 20.6692 8.56667L20.4289 16.3572C20.4052 17.1266 21.2233 17.6332 21.9015 17.269L28.7684 13.5818C29.4466 13.2177 29.4763 12.2559 28.8218 11.8506L22.1951 7.74729Z" fill="#CA5C5C"/>
<path d="M13.8155 13.2197C13.0937 12.9521 12.3529 13.5662 12.482 14.3251L13.7892 22.0089C13.9183 22.7678 14.8205 23.1023 15.4132 22.6111L21.414 17.6371C22.0066 17.1458 21.8453 16.1972 21.1235 15.9295L13.8155 13.2197Z" fill="#CA5C5C"/>
<path d="M6.60617 20.8283C5.83642 20.8365 5.36421 21.6749 5.7562 22.3374L9.72513 29.0455C10.1171 29.708 11.0793 29.6977 11.4571 29.027L15.2819 22.2358C15.6597 21.565 15.1697 20.7369 14.4 20.7451L6.60617 20.8283Z" fill="#CA5C5C"/>
</svg>
